M48
;Layer_Color=9474304
;FILE_FORMAT=2:5
INCH,LZ
;TYPE=PLATED
T1F00S00C0.01968
T2F00S00C0.02362
T3F00S00C0.03543
T4F00S00C0.07874
;TYPE=NON_PLATED
T5F00S00C0.01968
T6F00S00C0.08661
%
T01
X0082677Y0027559
Y0032559
X0087677
Y0027559
X0102362
Y0032559
X0107362
Y0027559
X0122047
Y0032559
X0127047
Y0027559
X0141732
Y0032559
X0146732
Y0027559
Y0012874
Y0007874
X0141732
Y0012874
X0127047
Y0007874
X0122047
Y0012874
X0107362
Y0007874
X0102362
Y0012874
Y0047244
X0107362
Y0052244
X0102362
X0087677
Y0047244
X0082677
Y0052244
X0122047
Y0047244
X0127047
Y0052244
X0141732
Y0047244
X0146732
Y0052244
X0161417
Y0047244
X0166417
Y0052244
X0181102
Y0047244
X0186102
Y0052244
X0200787
Y0047244
X0205787
Y0052244
X0220472
Y0047244
X0225472
Y0052244
X0240158
Y0047244
X0245158
Y0052244
X0259842
Y0047244
X0264843
Y0052244
X0279528
Y0047244
X0284528
Y0052244
X0299213
Y0047244
Y0032559
Y0027559
X0284528
Y0032559
X0279528
Y0027559
X0264843
Y0032559
X0259842
Y0027559
X0245158
Y0032559
X0240158
Y0027559
X0225472
Y0032559
X0220472
Y0027559
X0205787
Y0032559
X0200787
Y0027559
X0186102
Y0032559
X0181102
Y0027559
X0166417
Y0032559
X0161417
Y0027559
Y0012874
Y0007874
X0166417
Y0012874
X0181102
Y0007874
X0186102
Y0012874
X0200787
Y0007874
X0205787
Y0012874
X0220472
Y0007874
X0225472
Y0012874
X0240158
Y0007874
X0245158
Y0012874
X0259842
Y0007874
X0264843
Y0012874
X0279528
Y0007874
X0284528
Y0012874
X0304213Y0027559
Y0032559
Y0047244
Y0052244
X0322835
Y0047244
X0327835
Y0052244
X034252
Y0047244
X034752
Y0052244
X0362205
Y0047244
X0367205
Y0052244
X038189
Y0047244
X038689
Y0052244
X0401575
Y0047244
X0406575
Y0052244
X042126
Y0047244
X042626
Y0052244
X0440945
Y0047244
X0445945
Y0052244
Y0032559
X0440945
Y0027559
X0445945
Y0012874
Y0007874
X0440945
Y0012874
X042626
Y0007874
X042126
Y0012874
Y0027559
Y0032559
X042626
Y0027559
X0406575
Y0032559
X0401575
Y0027559
X038689
Y0032559
X038189
Y0027559
X0367205
Y0032559
X0362205
Y0027559
X034752
Y0032559
X034252
Y0027559
X0327835
Y0032559
X0322835
Y0027559
X034252Y0012874
Y0007874
X034752
Y0012874
X0362205
Y0007874
X0367205
Y0012874
X038189
Y0007874
X038689
Y0012874
X0401575
Y0007874
X0406575
Y0012874
X046063
Y0007874
X046563
Y0012874
Y0027559
Y0032559
X046063
Y0027559
Y0047244
X046563
Y0052244
X046063
X0480315
Y0047244
X0485315
Y0052244
X05
Y0047244
X0505
Y0052244
X0519685
Y0047244
X0524685
Y0052244
X053937
Y0047244
X054437
Y0052244
X0559055
Y0047244
X0564055
Y0052244
Y0032559
X0559055
Y0027559
X0564055
X054437
Y0032559
X053937
Y0027559
X0524685
Y0032559
X0519685
Y0027559
X0505
Y0032559
X05
Y0027559
X0485315
Y0032559
X0480315
Y0027559
Y0012874
Y0007874
X0485315
Y0012874
X05
Y0007874
X0505
Y0012874
X0519685
Y0007874
X0524685
Y0012874
X053937
Y0007874
X054437
Y0012874
X061811Y0165354
X062311
Y0170354
X061811
Y0185039
Y0190039
X062311
Y0185039
Y0204724
X061811
Y0209724
X062311
X0637795
Y0204724
X0642795
Y0209724
X0603425
Y0204724
X0598425
Y0209724
X058374
Y0204724
X057874
Y0209724
X0564055
Y0204724
X0559055
Y0209724
X054437
Y0204724
X053937
Y0209724
X0524685
Y0204724
X0519685
Y0209724
X0505
Y0204724
X05
Y0209724
X0485315
Y0204724
X0480315
Y0209724
X046563
Y0204724
X046063
Y0209724
Y0190039
X046563
Y0185039
X046063
Y0170354
Y0165354
X046563
Y0170354
X0480315
Y0165354
X0485315
Y0170354
Y0185039
Y0190039
X0480315
Y0185039
X05
Y0190039
X0505
Y0185039
Y0170354
Y0165354
X05
Y0170354
X0519685
Y0165354
X0524685
Y0170354
Y0185039
Y0190039
X0519685
Y0185039
X053937
Y0190039
X054437
Y0185039
Y0170354
Y0165354
X053937
Y0170354
X0559055
Y0165354
X0564055
Y0170354
Y0185039
Y0190039
X0559055
Y0185039
X057874
Y0190039
X058374
Y0185039
Y0170354
Y0165354
X057874
Y0170354
X0598425
Y0165354
X0603425
Y0170354
Y0185039
Y0190039
X0598425
Y0185039
Y0150669
X0603425
Y0145669
X0598425
X058374
Y0150669
X057874
Y0145669
X0564055
Y0150669
X0559055
Y0145669
X054437
Y0150669
X053937
Y0145669
X0524685
Y0150669
X0519685
Y0145669
X0505
Y0150669
X05
Y0145669
X0485315
Y0150669
X0480315
Y0145669
X046563
Y0150669
X046063
Y0145669
Y0130984
Y0125984
X046563
Y0130984
X0480315
Y0125984
X0485315
Y0130984
X05
Y0125984
X0505
Y0130984
X0519685
Y0125984
X0524685
Y0130984
X053937
Y0125984
X054437
Y0130984
X0559055
Y0125984
X0564055
Y0130984
X057874
Y0125984
X058374
Y0130984
X0598425
Y0125984
X0603425
Y0130984
X058374Y0111299
X057874
Y0106299
X058374
Y0091614
Y0086614
X057874
Y0091614
X0564055
Y0086614
X0559055
Y0091614
Y0106299
Y0111299
X0564055
Y0106299
X054437
Y0111299
X053937
Y0106299
X0524685
Y0111299
X0519685
Y0106299
X0505
Y0111299
X05
Y0106299
X0485315
Y0111299
X0480315
Y0106299
X046563
Y0111299
X046063
Y0106299
Y0091614
Y0086614
X046563
Y0091614
X0480315
Y0086614
X0485315
Y0091614
X05
Y0086614
X0505
Y0091614
X0519685
Y0086614
X0524685
Y0091614
X053937
Y0086614
X054437
Y0091614
X0544307Y0071929
X0539307
Y0066929
X0544307
X0559055
Y0071929
X0564055
Y0066929
X057874
Y0071929
X058374
Y0066929
X0524685
Y0071929
X0519685
Y0066929
X0505
Y0071929
X05
Y0066929
X0485315
Y0071929
X0480315
Y0066929
X046563
Y0071929
X046063
Y0066929
X0445945
Y0071929
X0440945
Y0066929
X042626
Y0071929
X042126
Y0066929
X0406512
Y0071929
X0401512
Y0066929
X038689
Y0071929
X038189
Y0066929
X0367205
Y0071929
X0362205
Y0066929
X034752
Y0071929
X034252
Y0066929
X0327835
Y0071929
X0322835
Y0066929
X0304213
Y0071929
Y0086614
Y0091614
Y0106299
Y0111299
Y0125984
Y0130984
Y0145669
Y0150669
Y0165354
Y0170354
Y0185039
Y0190039
Y0204724
Y0209724
X0322835
Y0204724
X0327835
Y0209724
X034252
Y0204724
X034752
Y0209724
X0362205
Y0204724
X0367205
Y0209724
X038189
Y0204724
X038689
Y0209724
X0401575
Y0204724
X0406575
Y0209724
X042126
Y0204724
X042626
Y0209724
X0440945
Y0204724
X0445945
Y0209724
Y0190039
X0440945
Y0185039
X0445945
Y0170354
Y0165354
X0440945
Y0170354
X042626
Y0165354
X042126
Y0170354
Y0185039
Y0190039
X042626
Y0185039
X0406575
Y0190039
X0401575
Y0185039
Y0170354
Y0165354
X0406575
Y0170354
X038689
Y0165354
X038189
Y0170354
Y0185039
Y0190039
X038689
Y0185039
X0367205
Y0190039
X0362205
Y0185039
X034752
Y0190039
X034252
Y0185039
Y0170354
Y0165354
X034752
Y0170354
X0362205
Y0165354
X0367205
Y0170354
X0367205Y0150669
X0362205
Y0145669
X0367205
X038189
Y0150669
X038689
Y0145669
X0401575
Y0150669
X0406575
Y0145669
X042126
Y0150669
X042626
Y0145669
X0440945
Y0150669
X0445945
Y0145669
Y0130984
Y0125984
X0440945
Y0130984
X042626
Y0125984
X042126
Y0130984
X0406575
Y0125984
X0401575
Y0130984
X038689
Y0125984
X038189
Y0130984
X0367205
Y0125984
X0362205
Y0130984
X034752
Y0125984
X034252
Y0130984
Y0145669
Y0150669
X034752
Y0145669
X0327835
Y0150669
X0322835
Y0145669
Y0130984
Y0125984
X0327835
Y0130984
Y0111299
X0322835
Y0106299
X0327835
X034252
Y0111299
X034752
Y0106299
X0362205
Y0111299
X0367205
Y0106299
X038189
Y0111299
X038689
Y0106299
X0401575
Y0111299
X0406575
Y0106299
X042126Y0106299
Y0111299
X042626
Y0106299
X0440945Y0106299
Y0111299
X0445945
Y0106299
Y0091614
Y0086614
X0440945
Y0091614
X042626
Y0086614
X042126
Y0091614
X0406575
Y0086614
X0401575
Y0091614
X038689
Y0086614
X038189
Y0091614
X0367205
Y0086614
X0362205
Y0091614
X034752
Y0086614
X034252
Y0091614
X0327835
Y0086614
X0322835
Y0091614
Y0165354
X0327835
Y0170354
X0322835
Y0185039
Y0190039
X0327835
Y0185039
X0299213
Y0190039
Y0204724
Y0209724
X0284528
Y0204724
X0279528
Y0209724
X0264843
Y0204724
X0259842
Y0209724
X0245158
Y0204724
X0240158
Y0209724
X0225472
Y0204724
X0220472
Y0209724
X0205787
Y0204724
X0200787
Y0209724
X0186102
Y0204724
X0181102
Y0209724
X0166417
Y0204724
X0161417
Y0209724
Y0190039
X0166417
Y0185039
X0161417
Y0170354
Y0165354
X0166417
Y0170354
X0181102
Y0165354
X0186102
Y0170354
Y0185039
Y0190039
X0181102
Y0185039
X0200787
Y0190039
X0205787
Y0185039
Y0170354
Y0165354
X0200787
Y0170354
X0220472
Y0165354
X0225472
Y0170354
Y0185039
Y0190039
X0220472
Y0185039
X0240158
Y0190039
X0245158
Y0185039
Y0170354
Y0165354
X0240158
Y0170354
X0259842
Y0165354
X0264843
Y0170354
Y0185039
Y0190039
X0259842
Y0185039
X0279528
Y0190039
X0284528
Y0185039
Y0170354
Y0165354
X0279528
Y0170354
X0299213
Y0165354
Y0150669
Y0145669
X0284528
Y0150669
X0279528
Y0145669
X0264843
Y0150669
X0259842
Y0145669
X0245158
Y0150669
X0240158
Y0145669
X0225472
Y0150669
X0220472
Y0145669
X0205787
Y0150669
X0200787
Y0145669
X0186102
Y0150669
X0181102
Y0145669
X0166417
Y0150669
X0161417
Y0145669
Y0130984
Y0125984
X0166417
Y0130984
X0181102
Y0125984
X0186102
Y0130984
X0200787
Y0125984
X0205787
Y0130984
X0220472
Y0125984
X0225472
Y0130984
X0240158
Y0125984
X0245158
Y0130984
X0259842
Y0125984
X0264843
Y0130984
X0279528
Y0125984
X0284528
Y0130984
X0299213
Y0125984
Y0111299
Y0106299
X0284528
Y0111299
X0279528
Y0106299
X0264843
Y0111299
X0259842
Y0106299
X0245158
Y0111299
X0240158
Y0106299
X0225472
Y0111299
X0220472
Y0106299
X0205787
Y0111299
X0200787
Y0106299
X0186102
Y0111299
X0181102
Y0106299
X0166417
Y0111299
X0161417
Y0106299
Y0091614
Y0086614
X0166417
Y0091614
X0181102
Y0086614
X0186102
Y0091614
X0200787
Y0086614
X0205787
Y0091614
X0220472
Y0086614
X0225472
Y0091614
X0240158
Y0086614
X0245158
Y0091614
X0259842
Y0086614
X0264843
Y0091614
X0279528
Y0086614
X0284528
Y0091614
X0299213
Y0086614
Y0071929
Y0066929
X0284528
Y0071929
X0279528
Y0066929
X0264843
Y0071929
X0259842
Y0066929
X0245158
Y0071929
X0240158
Y0066929
X0225472
Y0071929
X0220472
Y0066929
X0205787
Y0071929
X0200787
Y0066929
X0186102
Y0071929
X0181102
Y0066929
X0166417
Y0071929
X0161417
Y0066929
X0146732
Y0071929
X0141732
Y0066929
X0127047
Y0071929
X0122047
Y0066929
X0107362
Y0071929
X0102362
Y0066929
X0087677
Y0071929
X0082677
Y0066929
X0067992
Y0071929
X0062992
Y0066929
Y0086614
X0067992
Y0091614
X0062992
Y0106299
Y0111299
X0067992
Y0106299
X0082677
Y0111299
X0087677
Y0106299
X0102362
Y0111299
X0107362
Y0106299
X0122047
Y0111299
X0127047
Y0106299
X0141732
Y0111299
X0146732
Y0106299
Y0091614
Y0086614
X0141732
Y0091614
X0127047
Y0086614
X0122047
Y0091614
X0107362
Y0086614
X0102362
Y0091614
X0087677
Y0086614
X0082677
Y0091614
Y0125984
X0087677
Y0130984
X0082677
Y0145669
Y0150669
X0087677
Y0145669
X0102362
Y0150669
X0107362
Y0145669
X0122047
Y0150669
X0127047
Y0145669
X0141732
Y0150669
X0146732
Y0145669
Y0130984
Y0125984
X0141732
Y0130984
X0127047
Y0125984
X0122047
Y0130984
X0107362
Y0125984
X0102362
Y0130984
Y0165354
X0107362
Y0170354
X0102362
Y0185039
Y0190039
X0107362
Y0185039
X0122047
Y0190039
X0127047
Y0185039
Y0170354
Y0165354
X0122047
Y0170354
X0141732
Y0165354
X0146732
Y0170354
Y0185039
Y0190039
X0141732
Y0185039
Y0204724
X0146732
Y0209724
X0141732
X0127047
Y0204724
X0122047
Y0209724
X0107362
Y0204724
X0102362
Y0209724
X0087677
Y0204724
X0082677
Y0209724
X0067992
Y0204724
X0062992
Y0209724
X0048307
Y0204724
X0043307
Y0209724
X0028622
Y0204724
X0023622
Y0209724
Y0190039
X0028622
Y0185039
X0023622
Y0170354
Y0165354
X0028622
Y0170354
X0043307
Y0165354
X0048307
Y0170354
Y0185039
Y0190039
X0043307
Y0185039
X0062992
Y0190039
X0067992
Y0185039
Y0170354
Y0165354
X0062992
Y0170354
X0082677
Y0165354
X0087677
Y0170354
Y0185039
Y0190039
X0082677
Y0185039
X0067992Y0150669
X0062992
Y0145669
X0067992
Y0130984
Y0125984
X0062992
Y0130984
X0048307
Y0125984
X0043307
Y0130984
Y0145669
Y0150669
X0048307
Y0145669
X0028622
Y0150669
X0023622
Y0145669
X0043307Y0111299
X0048307
Y0106299
X0043307
Y022441
Y022941
X0048307
Y022441
X0062992
Y022941
X0067992
Y022441
X0082677
Y022941
X0087677
Y022441
X0102362
Y022941
X0107362
Y022441
X0122047
Y022941
X0127047
Y022441
X0141732
Y022941
X0146732
Y022441
Y0244094
X0141732
Y0249095
X0146732
Y0263779
Y0268779
X0141732
Y0263779
X0127047
Y0268779
X0122047
Y0263779
X0107362
Y0268779
X0102362
Y0263779
X0087677
Y0268779
X0082677
Y0263779
X0067992
Y0268779
X0062992
Y0263779
X0048307
Y0268779
X0043307
Y0263779
Y0249095
Y0244094
X0048307
Y0249095
X0062992
Y0244094
X0067992
Y0249095
X0082677
Y0244094
X0087677
Y0249095
X0102362
Y0244094
X0107362
Y0249095
X0122047
Y0244094
X0127047
Y0249095
Y0283465
X0122047
Y0288465
X0127047
X0141732
Y0283465
X0146732
Y0288465
Y030315
Y030815
X0141732
Y030315
X0107362Y0288465
Y0283465
X0102362
Y0288465
X0087677
Y0283465
X0082677
Y0288465
X0028622Y0249095
Y0244094
X0023622
Y0249095
Y022941
X0028622
Y022441
X0023622
X0161417
Y022941
X0166417
Y022441
X0181102
Y022941
X0186102
Y022441
X0200787
Y022941
X0205787
Y022441
X0220472
Y022941
X0225472
Y022441
X0240158
Y022941
X0245158
Y022441
X0259842
Y022941
X0264843
Y022441
X0279528
Y022941
X0284528
Y022441
X0299213
Y022941
Y0244094
Y0249095
X0284528
Y0244094
X0279528
Y0249095
Y0263779
Y0268779
X0284528
Y0263779
X0299213Y026378
Y026878
X0299213Y0283465
Y0288465
Y030315
Y030815
Y0322835
Y0327835
Y034252
Y034752
X0284528
X0279528
Y034252
X0284528
Y0327835
Y0322835
X0279528
Y0327835
X0264843
Y0322835
X0259842
Y0327835
Y034252
Y034752
X0264843
Y034252
X0245158
Y034752
X0240158
Y034252
Y0327835
Y0322835
X0245158
Y0327835
X0225472
Y0322835
X0220472
Y0327835
X0205787
Y0322835
X0200787
Y0327835
X0186102
Y0322835
X0181102
Y0327835
Y030815
X0186102
Y030315
X0181102
X0166417
Y030815
X0161417
Y030315
Y0288465
Y0283465
X0166417
Y0288465
X0181102
Y0283465
X0186102
Y0288465
X0200787
Y0283465
X0205787
Y0288465
Y030315
Y030815
X0200787
Y030315
X0220472
Y030815
X0225472
Y030315
X0240158
Y030815
X0245158
Y030315
X0259842
Y030815
X0264843
Y030315
X0279528
Y030815
X0284528
Y030315
Y0288465
Y0283465
X0279528
Y0288465
X0264843
Y0283465
X0259842
Y0288465
X0245158
Y0283465
X0240158
Y0288465
X0225472
Y0283465
X0220472
Y0288465
Y0268779
X0225472
Y0263779
X0220472
X0205787
Y0268779
X0200787
Y0263779
X0186102
Y0268779
X0181102
Y0263779
X0166417
Y0268779
X0161417
Y0263779
Y0249095
Y0244094
X0166417
Y0249095
X0181102
Y0244094
X0186102
Y0249095
X0200787
Y0244094
X0205787
Y0249095
X0220472
Y0244094
X0225472
Y0249095
X0240158
Y0244094
X0245158
Y0249095
Y0263779
Y0268779
X0240158
Y0263779
X0259842
Y0268779
X0264843
Y0263779
Y0249095
Y0244094
X0259842
Y0249095
X0279528Y0362205
X0284528
X0304213Y034752
Y034252
Y0327835
Y0322835
Y030815
Y030315
Y0288465
Y0283465
X0304212Y026878
Y026378
X0304213Y0249095
Y0244094
Y022941
Y022441
X0322835
Y022941
X0327835
Y022441
X034252
Y022941
X034752
Y022441
X0362205
Y022941
X0367205
Y022441
X038189
Y022941
X038689
Y022441
X0401575
Y022941
X0406575
Y022441
X042126
Y022941
X042626
Y022441
X0440945
Y022941
X0445945
Y022441
Y0244094
X0440945
Y0249095
X0445945
Y0263779
Y0268779
X0440945
Y0263779
X042626
Y0268779
X042126
Y0263779
X0406575
Y0268779
X0401575
Y0263779
X038689
Y0268779
X038189
Y0263779
X0367205
Y0268779
X0362205
Y0263779
X034752
Y0268779
X034252
Y0263779
X0327835
Y0268779
X0322835
Y0263779
Y0249095
Y0244094
X0327835
Y0249095
X034252
Y0244094
X034752
Y0249095
X0362205
Y0244094
X0367205
Y0249095
X038189
Y0244094
X038689
Y0249095
X0401575
Y0244094
X0406575
Y0249095
X042126
Y0244094
X042626
Y0249095
Y0283465
X042126
Y0288465
X042626
Y030315
Y030815
X042126
Y030315
X0406575
Y030815
X0401575
Y030315
X038689
Y030815
X038189
Y030315
X0367205
Y030815
X0362205
Y030315
X034752
Y030815
X034252
Y030315
X0327835
Y030815
X0322835
Y030315
Y0288465
Y0283465
X0327835
Y0288465
X034252
Y0283465
X034752
Y0288465
X0362205
Y0283465
X0367205
Y0288465
X038189
Y0283465
X038689
Y0288465
X0401575
Y0283465
X0406575
Y0288465
Y0322835
X0401575
Y0327835
X0406575
Y034252
Y034752
X0401575
Y034252
X038689
Y034752
X038189
Y034252
X0367205
Y034752
X0362205
Y034252
X034752
Y034752
X034252
Y034252
X0327835
Y034752
X0322835
Y034252
Y0327835
Y0322835
X0327835
Y0327835
X034252
Y0322835
X034752
Y0327835
X0362205
Y0322835
X0367205
Y0327835
X038189
Y0322835
X038689
Y0327835
Y0362205
X038189
X0367205
X0362205
X034752
X034252
X0327835
X0322835
X0401575
X0406575
X042126
X042626
X0440945
X0445945
Y034752
X0440945
Y034252
X0445945
Y0327835
Y0322835
X0440945
Y0327835
X042626
Y0322835
X042126
Y0327835
Y034252
Y034752
X042626
Y034252
X0440945Y030815
X0445945
Y030315
X0440945
Y0288465
Y0283465
X0445945
Y0288465
X046063
Y0283465
X046563
Y0288465
X0480315
Y0283465
X0485315
Y0288465
Y030315
Y030815
X0480315
Y030315
X046563Y030315
Y030815
X046063
Y030315
X046063Y0322835
X046563
Y0327835
X046063
Y034252
Y034752
X046563
Y034252
X0480315
Y034752
X0485315
Y034252
X05
Y034752
X0505
Y034252
X0519685
Y034752
X0524685
Y034252
X053937
Y034752
X054437
Y034252
X0559055
Y034752
X0564055
Y034252
X057874
Y034752
X058374
Y034252
X0598425
Y034752
X0603425
Y034252
Y0327835
Y0322835
X0598425
Y0327835
X058374
Y0322835
X057874
Y0327835
X0564055
Y0322835
X0559055
Y0327835
X054437
Y0322835
X053937
Y0327835
X0524685
Y0322835
X0519685
Y0327835
X0505
Y0322835
X05
Y0327835
X0485315
Y0322835
X0480315
Y0327835
Y0362205
X0485315
X05
X0505
X0519685
X0524685
X053937
X054437
X0559055
X0564055
X057874
X058374
X0598425
X0603425
Y030815
X0598425
Y030315
X0603425
Y0288465
Y0283465
X0598425
Y0288465
X058374
Y0283465
X057874
Y0288465
Y030315
Y030815
X058374
Y030315
X0564055
Y030815
X0559055
Y030315
X054437
Y030815
X053937
Y030315
X0524685
Y030815
X0519685
Y030315
X0505
Y030815
X05
Y030315
Y0288465
Y0283465
X0505
Y0288465
X0519685
Y0283465
X0524685
Y0288465
X053937
Y0283465
X054437
Y0288465
X0559055
Y0283465
X0564055
Y0288465
Y0268779
X0559055
Y0263779
X0564055
X057874
Y0268779
X058374
Y0263779
X0598425
Y0268779
X0603425
Y0263779
Y0249095
Y0244094
X0598425
Y0249095
X058374
Y0244094
X057874
Y0249095
X0564055
Y0244094
X0559055
Y0249095
X054437
Y0244094
X053937
Y0249095
Y0263779
Y0268779
X054437
Y0263779
X0524685
Y0268779
X0519685
Y0263779
X0505
Y0268779
X05
Y0263779
X0485315
Y0268779
X0480315
Y0263779
X046563
Y0268779
X046063
Y0263779
Y0249095
Y0244094
X046563
Y0249095
X0480315
Y0244094
X0485315
Y0249095
X05
Y0244094
X0505
Y0249095
X0519685
Y0244094
X0524685
Y0249095
Y022941
X0519685
Y022441
X0524685
X053937
Y022941
X054437
Y022441
X0559055
Y022941
X0564055
Y022441
X057874
Y022941
X058374
Y022441
X0598425
Y022941
X0603425
Y022441
X0505
Y022941
X05
Y022441
X0485315
Y022941
X0480315
Y022441
X046563
Y022941
X046063
Y022441
Y0362205
X046563
X061811
X062311
X0637795
X0642795
X065748
X066248
Y034752
X065748
Y034252
X066248
Y0327835
Y0322835
X065748
Y0327835
X0642795
Y0322835
X0637795
Y0327835
Y034252
Y034752
X0642795
Y034252
X062311
Y034752
X061811
Y034252
Y0327835
Y0322835
X062311
Y0327835
Y030815
X061811
Y030315
X062311
X0637795
Y030815
X0642795
Y030315
X065748
Y030815
X066248
Y030315
X0677165
Y030815
X0682165
Y030315
Y0322835
X0677165
Y0327835
X0682165
X066248Y0288465
Y0283465
X065748
Y0288465
X0642795
Y0283465
X0637795
Y0288465
X062311
Y0283465
X061811
Y0288465
Y0268779
X062311
Y0263779
X061811
Y0249095
Y0244094
X062311
Y0249095
X0637795
Y0244094
X0642795
Y0249095
Y0263779
Y0268779
X0637795
Y0263779
X0657417
Y0268779
X0662417
Y0263779
X066248Y0249095
Y0244094
X065748
Y0249095
X0642795Y022941
X0637795
Y022441
X0642795
X062311
Y022941
X061811
Y022441
Y0367205
X062311
Y038189
Y038689
X061811
Y038189
Y0401575
X062311
Y0406575
X061811
X0637795Y038689
X0642795
Y038189
X0637795
Y0367205
X0642795
X065748
X066248
X0603425
X0598425
Y038189
Y038689
X0603425
Y038189
Y0401575
X0598425
Y0406575
X0603425
Y042126
Y042626
X0598425
Y042126
X058374
Y042626
X057874
Y042126
X0564055
Y042626
X0559055
Y042126
X054437
Y042626
X053937
Y042126
X0524685
Y042626
X0519685
Y042126
X0505
Y042626
X05
Y042126
X0485315
Y042626
X0480315
Y042126
X046563
Y042626
X046063
Y042126
Y0406575
Y0401575
X046563
Y0406575
X0480315
Y0401575
X0485315
Y0406575
X05
Y0401575
X0505
Y0406575
X0519685
Y0401575
X0524685
Y0406575
X053937
Y0401575
X054437
Y0406575
X0559055
Y0401575
X0564055
Y0406575
X057874
Y0401575
X058374
Y0406575
Y038689
X057874
Y038189
X058374
Y0367205
X057874
X0564055
X0559055
Y038189
Y038689
X0564055
Y038189
X054437
Y038689
X053937
Y038189
X0524685
Y038689
X0519685
Y038189
X0505
Y038689
X05
Y038189
X0485315
Y038689
X0480315
Y038189
X046563
Y038689
X046063
Y038189
Y0367205
X046563
X0480315
X0485315
X05
X0505
X0519685
X0524685
X053937
X054437
Y0440945
X053937
Y0445945
X054437
X0559055
Y0440945
X0564055
Y0445945
X057874
Y0440945
X058374
Y0445945
X0524685
Y0440945
X0519685
Y0445945
X0505
Y0440945
X05
Y0445945
X0445945Y042626
X0440945
Y042126
X0445945
Y0406575
Y0401575
X0440945
Y0406575
X042626
Y0401575
X042126
Y0406575
X0406575
Y0401575
X0401575
Y0406575
X038689
Y0401575
X038189
Y0406575
Y038689
X038689
Y038189
X038189
X0367205
Y038689
X0362205
Y038189
X034752
Y038689
X034252
Y038189
Y0367205
X034752
X0362205
X0367205
X038189
X038689
X0401575
X0406575
Y038189
Y038689
X0401575
Y038189
X042126
Y038689
X042626
Y038189
X0440945
Y038689
X0445945
Y038189
Y0367205
X0440945
X042626
X042126
X0327835
X0322835
X0284528
X0279528
T02
X057874Y0044094
Y0054331
X0011811Y0158268
Y0168504
X0068898Y0280315
Y0290551
X0127953Y0301969
Y0312205
X0169291Y0319685
Y0329921
X0226378Y0341339
Y0351575
X0296063Y0360236
X0306299
X0677165Y0349606
Y033937
X0655512Y0231496
Y022126
X0616142Y041811
Y0428346
X0486221Y0437795
Y0448032
X0370079Y0408661
Y0398425
T03
X0068898Y0043307
Y0053307
X0598425Y0098425
Y0108425
T04
X0620079Y0147638
X0638287Y0188484
X0027559Y0127953
X0047244Y0088583
T05
X0313484Y0010827
Y0013287
Y0015748
Y002313
Y0025591
Y0028051
Y0030512
Y0032972
Y0035433
Y0037894
Y0040354
Y0042815
Y0045276
Y0047736
Y0050197
Y0052658
Y0055118
Y0057579
Y0060039
Y00625
Y0064961
Y0067421
Y0069882
Y0072342
Y0074803
Y0077264
Y0079724
Y0082185
Y0084646
Y0087106
Y0089567
Y0092028
Y0094488
Y0096949
Y009941
Y010187
Y0104331
Y0106791
Y0109252
Y0111713
Y0114173
Y0116634
Y0119095
Y0121555
Y0124016
Y0126476
Y0128937
Y0131398
Y0133858
Y0136319
Y0138779
Y014124
Y0143701
Y0146161
Y0148622
Y0151083
Y0153543
Y0156004
Y0158465
Y0160925
Y0163386
Y0165847
Y0168307
Y0170768
Y0173228
Y0175689
Y017815
Y018061
Y0183071
Y0185531
Y0187992
Y0190453
Y0192913
Y0195374
Y0197835
Y0200295
Y0202756
Y0205217
Y0207677
Y0210138
Y0212598
Y0215059
Y021752
Y021998
Y0222441
Y0224902
Y0227362
Y0229823
Y0232283
Y0234744
Y0237205
Y0239665
Y0242126
Y0244587
Y0247047
Y0249508
Y0251969
Y0254429
Y025689
Y025935
Y0261811
Y0264272
Y0266732
Y0269193
Y0271654
Y0274114
Y0276575
Y0279035
Y0281496
Y0283957
Y0286417
Y0288878
Y0291339
Y0293799
Y029626
Y0298721
Y0301181
Y0303642
Y0306102
Y0308563
Y0311024
Y0313484
Y0315945
Y0318406
Y0320866
Y0323327
Y0325787
Y0328248
Y0330709
Y0333169
Y033563
Y0338091
Y0340551
Y0343012
Y0345472
Y0347933
Y0350394
Y0352854
Y0355315
Y0357776
Y0360236
Y0362697
Y0365158
Y0367618
Y0370079
Y0372539
T06
X0084646Y0009843
X0301181
X0324803
X0561024
X0025591Y0275591
X0698819Y032874
X0570866Y0472441
X0324803Y0385827
X0301181Y0377953
M30
