G04*
G04 #@! TF.GenerationSoftware,Altium Limited,Altium Designer,21.3.2 (30)*
G04*
G04 Layer_Color=65535*
%FSLAX25Y25*%
%MOIN*%
G70*
G04*
G04 #@! TF.SameCoordinates,3ACA48B3-FF6E-4ADC-A770-F215C7717477*
G04*
G04*
G04 #@! TF.FilePolarity,Positive*
G04*
G01*
G75*
%ADD10C,0.03937*%
%ADD11C,0.02362*%
%ADD12C,0.00787*%
%ADD13C,0.00591*%
%ADD14C,0.00394*%
G36*
X104826Y308315D02*
X105322D01*
Y307331D01*
X104338D01*
Y308315D01*
X103347D01*
Y306842D01*
X104826D01*
Y306347D01*
X105322D01*
Y304874D01*
X104826D01*
Y304378D01*
X102858D01*
Y304874D01*
X102363D01*
Y305858D01*
X103347D01*
Y304874D01*
X104338D01*
Y306347D01*
X102858D01*
Y306842D01*
X102363D01*
Y308315D01*
X102858D01*
Y308811D01*
X104826D01*
Y308315D01*
D02*
G37*
G36*
X92995Y307826D02*
X92499D01*
Y306842D01*
X92011D01*
Y306347D01*
X92499D01*
Y305363D01*
X92995D01*
Y304378D01*
X92011D01*
Y305363D01*
X91515D01*
Y306347D01*
X91019D01*
Y304378D01*
X90035D01*
Y308811D01*
X91019D01*
Y306842D01*
X91515D01*
Y307826D01*
X92011D01*
Y308811D01*
X92995D01*
Y307826D01*
D02*
G37*
G36*
X117147Y306347D02*
X116651D01*
Y305363D01*
X116163D01*
Y304378D01*
X115178D01*
Y305363D01*
X114683D01*
Y306347D01*
X114194D01*
Y308811D01*
X115178D01*
Y306347D01*
X116163D01*
Y308811D01*
X117147D01*
Y306347D01*
D02*
G37*
G36*
X100394Y305363D02*
X99898D01*
Y307826D01*
X100394D01*
Y305363D01*
D02*
G37*
G36*
X112219Y308315D02*
X110250D01*
Y306842D01*
X111723D01*
Y306347D01*
X112219D01*
Y304874D01*
X111723D01*
Y304378D01*
X109755D01*
Y304874D01*
X109266D01*
Y305858D01*
X110250D01*
Y304874D01*
X111234D01*
Y306347D01*
X109266D01*
Y308811D01*
X112219D01*
Y308315D01*
D02*
G37*
G36*
X108275D02*
X108770D01*
Y306842D01*
X108275D01*
Y306347D01*
X108770D01*
Y304874D01*
X108275D01*
Y304378D01*
X106306D01*
Y304874D01*
X105818D01*
Y305858D01*
X106802D01*
Y304874D01*
X107786D01*
Y306347D01*
X106802D01*
Y306842D01*
X107786D01*
Y308315D01*
X106802D01*
Y307331D01*
X105818D01*
Y308315D01*
X106306D01*
Y308811D01*
X108275D01*
Y308315D01*
D02*
G37*
G36*
X119611Y304874D02*
X120595D01*
Y304378D01*
X117642Y304378D01*
Y304874D01*
X118626D01*
Y307819D01*
X117642D01*
Y308315D01*
X118626D01*
Y308811D01*
X119611Y308811D01*
Y304874D01*
D02*
G37*
G36*
X101867Y305363D02*
X101378D01*
Y304378D01*
X100394D01*
Y305363D01*
X100883D01*
Y308811D01*
X101867D01*
Y305363D01*
D02*
G37*
G36*
X99403D02*
X99898D01*
Y304378D01*
X98914D01*
Y305363D01*
X98419D01*
Y308811D01*
X99403D01*
Y305363D01*
D02*
G37*
G36*
X95947Y308315D02*
X96443D01*
Y306842D01*
X95947D01*
Y306347D01*
X96443D01*
Y304874D01*
X95947D01*
Y304378D01*
X93491D01*
Y308811D01*
X95947D01*
Y308315D01*
D02*
G37*
G36*
X114500Y301304D02*
X113881D01*
Y301923D01*
X113261D01*
Y303153D01*
X114500D01*
Y301304D01*
D02*
G37*
G36*
X103404Y302534D02*
X104024D01*
Y301304D01*
X102794D01*
Y302534D01*
X101564D01*
Y298234D01*
X102794D01*
Y299464D01*
X104024D01*
Y298234D01*
X103404D01*
Y297614D01*
X100944D01*
Y298234D01*
X100334D01*
Y302534D01*
X100944D01*
Y303153D01*
X103404D01*
Y302534D01*
D02*
G37*
G36*
X80010D02*
X80629D01*
Y301304D01*
X79399D01*
Y302534D01*
X78170D01*
Y298234D01*
X79399D01*
Y299464D01*
X80629D01*
Y298234D01*
X80010D01*
Y297614D01*
X77550D01*
Y298234D01*
X76940D01*
Y302534D01*
X77550D01*
Y303153D01*
X80010D01*
Y302534D01*
D02*
G37*
G36*
X113881Y300684D02*
X113261D01*
Y301304D01*
X113872D01*
X113881Y300684D01*
D02*
G37*
G36*
X121269Y303153D02*
X121879D01*
Y301304D01*
X121269D01*
Y299455D01*
X120039D01*
Y301304D01*
X119420D01*
Y303153D01*
X120039D01*
Y303764D01*
X121269D01*
Y303153D01*
D02*
G37*
G36*
Y297614D02*
X120039D01*
Y298844D01*
X121269D01*
Y297614D01*
D02*
G37*
G36*
X117570Y301923D02*
X118800D01*
Y301304D01*
X117570D01*
Y298234D01*
X118800D01*
Y297614D01*
X116951D01*
Y298234D01*
X116340D01*
Y301304D01*
X115111D01*
Y301923D01*
X116340D01*
Y303153D01*
X117570D01*
Y301923D01*
D02*
G37*
G36*
X112022Y301304D02*
X112642D01*
Y297614D01*
X111412D01*
Y301304D01*
X110182D01*
Y297614D01*
X108952D01*
Y301923D01*
X112022D01*
Y301304D01*
D02*
G37*
G36*
X107713D02*
X108333D01*
Y297614D01*
X105254Y297614D01*
Y298234D01*
X104643D01*
Y299464D01*
X105254D01*
Y300083D01*
X107103Y300083D01*
Y301304D01*
X105873D01*
Y300684D01*
X104643Y300684D01*
Y301304D01*
X105254D01*
Y301923D01*
X107713Y301923D01*
Y301304D01*
D02*
G37*
G36*
X97246Y301304D02*
X97865D01*
Y297614D01*
X94786D01*
Y298234D01*
X94176D01*
Y299464D01*
X94786D01*
Y300083D01*
X96636D01*
Y301304D01*
X95406D01*
Y300684D01*
X94176D01*
Y301304D01*
X94786D01*
Y301923D01*
X97246D01*
Y301304D01*
D02*
G37*
G36*
X92326Y298234D02*
X93556D01*
Y297614D01*
X89867D01*
Y298234D01*
X91097D01*
Y302534D01*
X89867D01*
Y303153D01*
X92326D01*
Y298234D01*
D02*
G37*
G36*
X88628Y301304D02*
X89247D01*
Y299455D01*
X86787D01*
Y298234D01*
X88017D01*
Y298853D01*
X89247D01*
Y298234D01*
X88628D01*
Y297614D01*
X86168D01*
Y298234D01*
X85558D01*
Y301304D01*
X86168D01*
Y301923D01*
X88628D01*
Y301304D01*
D02*
G37*
G36*
X84319D02*
X84938D01*
Y298234D01*
X84319D01*
Y297614D01*
X81859D01*
Y298234D01*
X81249D01*
Y301304D01*
X81859D01*
Y301923D01*
X84319D01*
Y301304D01*
D02*
G37*
G36*
X567318Y462844D02*
X566575D01*
Y463587D01*
X565832D01*
Y465063D01*
X567318D01*
Y462844D01*
D02*
G37*
G36*
X554005Y464320D02*
X554749D01*
Y462844D01*
X553273D01*
Y464320D01*
X551797D01*
Y459161D01*
X553273D01*
Y460636D01*
X554749D01*
Y459161D01*
X554005D01*
Y458417D01*
X551054D01*
Y459161D01*
X550322Y459161D01*
Y464320D01*
X551054Y464320D01*
Y465063D01*
X554005D01*
Y464320D01*
D02*
G37*
G36*
X525937Y464320D02*
X526680D01*
Y462844D01*
X525205D01*
Y464320D01*
X523729D01*
Y459161D01*
X525205D01*
Y460636D01*
X526680D01*
Y459161D01*
X525937D01*
Y458417D01*
X522986D01*
Y459161D01*
X522254D01*
Y464320D01*
X522986D01*
Y465063D01*
X525937D01*
Y464320D01*
D02*
G37*
G36*
X566575Y462101D02*
X565832D01*
Y462844D01*
X566564D01*
X566575Y462101D01*
D02*
G37*
G36*
X575439Y465063D02*
X576171D01*
Y462844D01*
X575439D01*
Y460625D01*
X573964D01*
Y462844D01*
X573220D01*
Y465063D01*
X573964D01*
Y465795D01*
X575439D01*
Y465063D01*
D02*
G37*
G36*
Y458417D02*
X573964D01*
Y459893D01*
X575439D01*
Y458417D01*
D02*
G37*
G36*
X571002Y463587D02*
X572477D01*
Y462844D01*
X571002D01*
Y459161D01*
X572477D01*
Y458417D01*
X570258D01*
Y459161D01*
X569526D01*
Y462844D01*
X568050D01*
Y463587D01*
X569526D01*
Y465063D01*
X571002D01*
Y463587D01*
D02*
G37*
G36*
X564345Y462844D02*
X565088D01*
Y458417D01*
X563613D01*
Y462844D01*
X562137D01*
Y458417D01*
X560662D01*
Y463587D01*
X564345D01*
Y462844D01*
D02*
G37*
G36*
X559175D02*
X559918D01*
Y458417D01*
X556224D01*
Y459161D01*
X555492D01*
Y460636D01*
X556224D01*
Y461379D01*
X558443D01*
Y462844D01*
X556967D01*
Y462101D01*
X555492D01*
Y462844D01*
X556224D01*
Y463587D01*
X559175D01*
Y462844D01*
D02*
G37*
G36*
X546617Y462844D02*
X547360D01*
Y458417D01*
X543666D01*
Y459161D01*
X542933D01*
Y460636D01*
X543666D01*
Y461379D01*
X545884D01*
Y462844D01*
X544409D01*
Y462101D01*
X542933D01*
Y462844D01*
X543666D01*
Y463587D01*
X546617D01*
Y462844D01*
D02*
G37*
G36*
X540715Y459161D02*
X542190D01*
Y458417D01*
X537763D01*
Y459161D01*
X539239D01*
Y464320D01*
X537763D01*
Y465063D01*
X540715D01*
Y459161D01*
D02*
G37*
G36*
X536277Y462844D02*
X537020D01*
Y460625D01*
X534069D01*
Y459161D01*
X535545D01*
Y459904D01*
X537020D01*
Y459161D01*
X536277D01*
Y458417D01*
X533326D01*
Y459161D01*
X532593D01*
Y462844D01*
X533326D01*
Y463587D01*
X536277D01*
Y462844D01*
D02*
G37*
G36*
X531107D02*
X531850D01*
Y459161D01*
X531107D01*
Y458417D01*
X528156D01*
Y459161D01*
X527424D01*
Y462844D01*
X528156D01*
Y463587D01*
X531107D01*
Y462844D01*
D02*
G37*
G36*
X544295Y470224D02*
X544791D01*
Y469240D01*
X543807D01*
Y470224D01*
X542815D01*
Y468752D01*
X544295D01*
Y468256D01*
X544791D01*
Y466784D01*
X544295D01*
Y466288D01*
X542327D01*
Y466784D01*
X541831D01*
Y467768D01*
X542815D01*
Y466784D01*
X543807D01*
Y468256D01*
X542327D01*
Y468752D01*
X541831D01*
Y470224D01*
X542327D01*
Y470720D01*
X544295D01*
Y470224D01*
D02*
G37*
G36*
X532463Y469736D02*
X531968D01*
Y468752D01*
X531479D01*
Y468256D01*
X531968D01*
Y467272D01*
X532463D01*
Y466288D01*
X531479D01*
Y467272D01*
X530983D01*
Y468256D01*
X530488D01*
Y466288D01*
X529504D01*
Y470720D01*
X530488D01*
Y468752D01*
X530983D01*
Y469736D01*
X531479D01*
Y470720D01*
X532463D01*
Y469736D01*
D02*
G37*
G36*
X556615Y468256D02*
X556119D01*
Y467272D01*
X555631D01*
Y466288D01*
X554647D01*
Y467272D01*
X554151D01*
Y468256D01*
X553663D01*
Y470720D01*
X554647D01*
Y468256D01*
X555631D01*
Y470720D01*
X556615D01*
Y468256D01*
D02*
G37*
G36*
X539863Y467272D02*
X539367D01*
Y469736D01*
X539863D01*
Y467272D01*
D02*
G37*
G36*
X551687Y470224D02*
X549719D01*
Y468752D01*
X551191D01*
Y468256D01*
X551687D01*
Y466784D01*
X551191D01*
Y466288D01*
X549223D01*
Y466784D01*
X548735D01*
Y467768D01*
X549719D01*
Y466784D01*
X550703D01*
Y468256D01*
X548735D01*
Y470720D01*
X551687D01*
Y470224D01*
D02*
G37*
G36*
X547743D02*
X548239D01*
Y468752D01*
X547743D01*
Y468256D01*
X548239D01*
Y466784D01*
X547743D01*
Y466288D01*
X545775D01*
Y466784D01*
X545287D01*
Y467768D01*
X546271D01*
Y466784D01*
X547255D01*
Y468256D01*
X546271D01*
Y468752D01*
X547255D01*
Y470224D01*
X546271D01*
Y469240D01*
X545287D01*
Y470224D01*
X545775D01*
Y470720D01*
X547743D01*
Y470224D01*
D02*
G37*
G36*
X559079Y466784D02*
X560063D01*
Y466288D01*
X557111Y466288D01*
Y466784D01*
X558095D01*
Y469729D01*
X557111D01*
Y470224D01*
X558095D01*
Y470720D01*
X559079Y470720D01*
Y466784D01*
D02*
G37*
G36*
X541335Y467272D02*
X540847D01*
Y466288D01*
X539863D01*
Y467272D01*
X540351D01*
Y470720D01*
X541335D01*
Y467272D01*
D02*
G37*
G36*
X538871D02*
X539367D01*
Y466288D01*
X538383D01*
Y467272D01*
X537887D01*
Y470720D01*
X538871D01*
Y467272D01*
D02*
G37*
G36*
X535416Y470224D02*
X535912D01*
Y468752D01*
X535416D01*
Y468256D01*
X535912D01*
Y466784D01*
X535416D01*
Y466288D01*
X532959D01*
Y470720D01*
X535416D01*
Y470224D01*
D02*
G37*
%LPC*%
G36*
X95459Y308315D02*
X94475D01*
Y306842D01*
X95459D01*
Y308315D01*
D02*
G37*
G36*
Y306347D02*
X94475D01*
Y304874D01*
X95459D01*
Y306347D01*
D02*
G37*
G36*
X107103Y299464D02*
X105873D01*
Y298234D01*
X107103D01*
Y299464D01*
D02*
G37*
G36*
X96636Y299464D02*
X95406D01*
Y298234D01*
X96636D01*
Y299464D01*
D02*
G37*
G36*
X88017Y301304D02*
X86787D01*
Y300074D01*
X88017D01*
Y301304D01*
D02*
G37*
G36*
X83708D02*
X82478D01*
Y298234D01*
X83708D01*
Y301304D01*
D02*
G37*
G36*
X558443Y460636D02*
X556967D01*
Y459161D01*
X558443D01*
Y460636D01*
D02*
G37*
G36*
X545884Y460636D02*
X544409D01*
Y459161D01*
X545884D01*
Y460636D01*
D02*
G37*
G36*
X535545Y462844D02*
X534069D01*
Y461369D01*
X535545D01*
Y462844D01*
D02*
G37*
G36*
X530375D02*
X528899D01*
Y459161D01*
X530375D01*
Y462844D01*
D02*
G37*
G36*
X534927Y470224D02*
X533943D01*
Y468752D01*
X534927D01*
Y470224D01*
D02*
G37*
G36*
Y468256D02*
X533943D01*
Y466784D01*
X534927D01*
Y468256D01*
D02*
G37*
%LPD*%
D10*
X413386Y422244D02*
Y424213D01*
X198819Y343504D02*
Y345472D01*
X11811Y179134D02*
X13780D01*
X674660Y270187D02*
X676629D01*
D11*
X289028Y371705D02*
Y372705D01*
X235658Y337020D02*
Y338020D01*
X255343Y337020D02*
Y338020D01*
X275028Y337020D02*
Y338020D01*
X294713Y337020D02*
Y338020D01*
X308713Y332335D02*
Y333335D01*
X289028Y332335D02*
Y333335D01*
X269342Y332335D02*
Y333335D01*
X249658Y332335D02*
Y333335D01*
X229972Y332335D02*
Y333335D01*
X210287Y332335D02*
Y333335D01*
X190602Y332335D02*
Y333335D01*
X137232Y297650D02*
Y298650D01*
X156917Y297650D02*
Y298650D01*
X176602Y297650D02*
Y298650D01*
X196287Y297650D02*
Y298650D01*
X215972Y297650D02*
Y298650D01*
X235658Y297650D02*
Y298650D01*
X255343Y297650D02*
Y298650D01*
X275028Y297650D02*
Y298650D01*
X294713Y297650D02*
Y298650D01*
X308713Y292965D02*
Y293965D01*
X289028Y292965D02*
Y293965D01*
X269342Y292965D02*
Y293965D01*
X249658Y292965D02*
Y293965D01*
X229972Y292965D02*
Y293965D01*
X210287Y292965D02*
Y293965D01*
X190602Y292965D02*
Y293965D01*
X170917Y292965D02*
Y293965D01*
X151232Y292965D02*
Y293965D01*
X131547Y292965D02*
Y293965D01*
X111862Y292965D02*
Y293965D01*
X92177Y292965D02*
Y293965D01*
X38807Y258279D02*
Y259279D01*
X58492Y258279D02*
Y259279D01*
X78177Y258279D02*
Y259279D01*
X97862Y258279D02*
Y259279D01*
X117547Y258279D02*
Y259279D01*
X137232Y258279D02*
Y259279D01*
X156917Y258279D02*
Y259279D01*
X176602Y258279D02*
Y259279D01*
X196287Y258279D02*
Y259279D01*
X215972Y258279D02*
Y259279D01*
X235658Y258279D02*
Y259279D01*
X255343Y258279D02*
Y259279D01*
X275028Y258279D02*
Y259279D01*
X294712Y258280D02*
Y259280D01*
X308713Y253594D02*
Y254594D01*
X289028Y253594D02*
Y254594D01*
X269342Y253594D02*
Y254594D01*
X249658Y253594D02*
Y254594D01*
X229972Y253594D02*
Y254594D01*
X210287Y253594D02*
Y254594D01*
X190602Y253594D02*
Y254594D01*
X170917Y253594D02*
Y254594D01*
X151232Y253594D02*
Y254594D01*
X131547Y253594D02*
Y254594D01*
X111862Y253594D02*
Y254594D01*
X92177Y253594D02*
Y254594D01*
X72492Y253594D02*
Y254594D01*
X52807Y253594D02*
Y254594D01*
X33122Y253594D02*
Y254594D01*
X19122Y218910D02*
Y219910D01*
X38807Y218910D02*
Y219910D01*
X58492Y218910D02*
Y219910D01*
X78177Y218910D02*
Y219910D01*
X97862Y218910D02*
Y219910D01*
X117547Y218910D02*
Y219910D01*
X137232Y218910D02*
Y219910D01*
X156917Y218910D02*
Y219910D01*
X176602Y218910D02*
Y219910D01*
X196287Y218910D02*
Y219910D01*
X215972Y218910D02*
Y219910D01*
X235658Y218910D02*
Y219910D01*
X255343Y218910D02*
Y219910D01*
X275028Y218910D02*
Y219910D01*
X294713Y218910D02*
Y219910D01*
X308713Y214224D02*
Y215224D01*
X289028Y214224D02*
Y215224D01*
X269342Y214224D02*
Y215224D01*
X249658Y214224D02*
Y215224D01*
X229972Y214224D02*
Y215224D01*
X210287Y214224D02*
Y215224D01*
X190602Y214224D02*
Y215224D01*
X170917Y214224D02*
Y215224D01*
X151232Y214224D02*
Y215224D01*
X131547Y214224D02*
Y215224D01*
X111862Y214224D02*
Y215224D01*
X92177Y214224D02*
Y215224D01*
X72492Y214224D02*
Y215224D01*
X52807Y214224D02*
Y215224D01*
X33122Y214224D02*
Y215224D01*
X19122Y179539D02*
Y180539D01*
X38807Y179539D02*
Y180539D01*
X58492Y179539D02*
Y180539D01*
X78177Y179539D02*
Y180539D01*
X97862Y179539D02*
Y180539D01*
X117547Y179539D02*
Y180539D01*
X137232Y179539D02*
Y180539D01*
X156917Y179539D02*
Y180539D01*
X176602Y179539D02*
Y180539D01*
X196287Y179539D02*
Y180539D01*
X215972Y179539D02*
Y180539D01*
X235658Y179539D02*
Y180539D01*
X255343Y179539D02*
Y180539D01*
X275028Y179539D02*
Y180539D01*
X294713Y179539D02*
Y180539D01*
X308713Y174854D02*
Y175854D01*
X289028Y174854D02*
Y175854D01*
X269342Y174854D02*
Y175854D01*
X249658Y174854D02*
Y175854D01*
X229972Y174854D02*
Y175854D01*
X210287Y174854D02*
Y175854D01*
X190602Y174854D02*
Y175854D01*
X170917Y174854D02*
Y175854D01*
X151232Y174854D02*
Y175854D01*
X131547Y174854D02*
Y175854D01*
X111862Y174854D02*
Y175854D01*
X92177Y174854D02*
Y175854D01*
X72492Y174854D02*
Y175854D01*
X52807Y174854D02*
Y175854D01*
X33122Y174854D02*
Y175854D01*
X19122Y140169D02*
Y141169D01*
X38807Y140169D02*
Y141169D01*
X58492Y140169D02*
Y141169D01*
X78177Y140169D02*
Y141169D01*
X97862Y140169D02*
Y141169D01*
X117547Y140169D02*
Y141169D01*
X137232Y140169D02*
Y141169D01*
X156917Y140169D02*
Y141169D01*
X176602Y140169D02*
Y141169D01*
X196287Y140169D02*
Y141169D01*
X215972Y140169D02*
Y141169D01*
X235658Y140169D02*
Y141169D01*
X255343Y140169D02*
Y141169D01*
X275028Y140169D02*
Y141169D01*
X294713Y140169D02*
Y141169D01*
X308713Y135484D02*
Y136484D01*
X289028Y135484D02*
Y136484D01*
X269342Y135484D02*
Y136484D01*
X249658Y135484D02*
Y136484D01*
X229972Y135484D02*
Y136484D01*
X210287Y135484D02*
Y136484D01*
X190602Y135484D02*
Y136484D01*
X170917Y135484D02*
Y136484D01*
X151232Y135484D02*
Y136484D01*
X131547Y135484D02*
Y136484D01*
X111862Y135484D02*
Y136484D01*
X92177Y135484D02*
Y136484D01*
X72492Y135484D02*
Y136484D01*
X52807Y135484D02*
Y136484D01*
X38807Y100799D02*
Y101799D01*
X58492Y100799D02*
Y101799D01*
X78177Y100799D02*
Y101799D01*
X97862Y100799D02*
Y101799D01*
X117547Y100799D02*
Y101799D01*
X137232Y100799D02*
Y101799D01*
X156917Y100799D02*
Y101799D01*
X176602Y100799D02*
Y101799D01*
X196287Y100799D02*
Y101799D01*
X215972Y100799D02*
Y101799D01*
X235658Y100799D02*
Y101799D01*
X255343Y100799D02*
Y101799D01*
X275028Y100799D02*
Y101799D01*
X294713Y100799D02*
Y101799D01*
X308713Y96114D02*
Y97114D01*
X289028Y96114D02*
Y97114D01*
X269342Y96114D02*
Y97114D01*
X249658Y96114D02*
Y97114D01*
X229972Y96114D02*
Y97114D01*
X210287Y96114D02*
Y97114D01*
X190602Y96114D02*
Y97114D01*
X170917Y96114D02*
Y97114D01*
X151232Y96114D02*
Y97114D01*
X131547Y96114D02*
Y97114D01*
X111862Y96114D02*
Y97114D01*
X92177Y96114D02*
Y97114D01*
X72492Y96114D02*
Y97114D01*
X58492Y61429D02*
Y62429D01*
X78177Y61429D02*
Y62429D01*
X97862Y61429D02*
Y62429D01*
X117547Y61429D02*
Y62429D01*
X137232Y61429D02*
Y62429D01*
X156917Y61429D02*
Y62429D01*
X176602Y61429D02*
Y62429D01*
X196287Y61429D02*
Y62429D01*
X215972Y61429D02*
Y62429D01*
X235658Y61429D02*
Y62429D01*
X255343Y61429D02*
Y62429D01*
X275028Y61429D02*
Y62429D01*
X294713Y61429D02*
Y62429D01*
X308713Y56744D02*
Y57744D01*
X289028Y56744D02*
Y57744D01*
X269342Y56744D02*
Y57744D01*
X249658Y56744D02*
Y57744D01*
X229972Y56744D02*
Y57744D01*
X210287Y56744D02*
Y57744D01*
X190602Y56744D02*
Y57744D01*
X170917Y56744D02*
Y57744D01*
X151232Y56744D02*
Y57744D01*
X131547Y56744D02*
Y57744D01*
X111862Y56744D02*
Y57744D01*
X92177Y56744D02*
Y57744D01*
X78177Y22059D02*
Y23059D01*
X97862Y22059D02*
Y23059D01*
X117547Y22059D02*
Y23059D01*
X137232Y22059D02*
Y23059D01*
X156917Y22059D02*
Y23059D01*
X176602Y22059D02*
Y23059D01*
X196287Y22059D02*
Y23059D01*
X215972Y22059D02*
Y23059D01*
X235658Y22059D02*
Y23059D01*
X255343Y22059D02*
Y23059D01*
X275028Y22059D02*
Y23059D01*
X294713Y22059D02*
Y23059D01*
X289028Y17374D02*
Y18374D01*
X269342Y17374D02*
Y18374D01*
X249658Y17374D02*
Y18374D01*
X229972Y17374D02*
Y18374D01*
X210287Y17374D02*
Y18374D01*
X190602Y17374D02*
Y18374D01*
X170917Y17374D02*
Y18374D01*
X151232Y17374D02*
Y18374D01*
X131547Y17374D02*
Y18374D01*
X111862Y17374D02*
Y18374D01*
X588240Y450445D02*
Y451445D01*
X568555Y450445D02*
Y451445D01*
X548870Y450445D02*
Y451445D01*
X529185Y450445D02*
Y451445D01*
X509500Y450445D02*
Y451445D01*
X436445Y415760D02*
Y416760D01*
X456130Y415760D02*
Y416760D01*
X475815Y415760D02*
Y416760D01*
X495500Y415760D02*
Y416760D01*
X515185Y415760D02*
Y416760D01*
X534870Y415760D02*
Y416760D01*
X554555Y415760D02*
Y416760D01*
X574240Y415760D02*
Y416760D01*
X593925Y415760D02*
Y416760D01*
X627610Y411075D02*
Y412075D01*
X607925Y411075D02*
Y412075D01*
X588240Y411075D02*
Y412075D01*
X568555Y411075D02*
Y412075D01*
X548870Y411075D02*
Y412075D01*
X529185Y411075D02*
Y412075D01*
X509500Y411075D02*
Y412075D01*
X489815Y411075D02*
Y412075D01*
X470130Y411075D02*
Y412075D01*
X450445Y411075D02*
Y412075D01*
X430760Y411075D02*
Y412075D01*
X411075Y411075D02*
Y412075D01*
X391390Y411075D02*
Y412075D01*
X338020Y376390D02*
Y377390D01*
X357705Y376390D02*
Y377390D01*
X377390Y376390D02*
Y377390D01*
X397075Y376390D02*
Y377390D01*
X416760Y376390D02*
Y377390D01*
X436445Y376390D02*
Y377390D01*
X456130Y376390D02*
Y377390D01*
X475815Y376390D02*
Y377390D01*
X495500Y376390D02*
Y377390D01*
X515185Y376390D02*
Y377390D01*
X534870Y376390D02*
Y377390D01*
X554555Y376390D02*
Y377390D01*
X574240Y376390D02*
Y377390D01*
X593925Y376390D02*
Y377390D01*
X613610Y376390D02*
Y377390D01*
X633295Y376390D02*
Y377390D01*
X666980Y371705D02*
Y372705D01*
X647295Y371705D02*
Y372705D01*
X627610Y371705D02*
Y372705D01*
X607925Y371705D02*
Y372705D01*
X588240Y371705D02*
Y372705D01*
X568555Y371705D02*
Y372705D01*
X548870Y371705D02*
Y372705D01*
X529185Y371705D02*
Y372705D01*
X509500Y371705D02*
Y372705D01*
X489815Y371705D02*
Y372705D01*
X470130Y371705D02*
Y372705D01*
X450445Y371705D02*
Y372705D01*
X430760Y371705D02*
Y372705D01*
X411075Y371705D02*
Y372705D01*
X391390Y371705D02*
Y372705D01*
X371705Y371705D02*
Y372705D01*
X352020Y371705D02*
Y372705D01*
X332335Y371705D02*
Y372705D01*
X318335Y337020D02*
Y338020D01*
X338020Y337020D02*
Y338020D01*
X357705Y337020D02*
Y338020D01*
X377390Y337020D02*
Y338020D01*
X397075Y337020D02*
Y338020D01*
X416760Y337020D02*
Y338020D01*
X436445Y337020D02*
Y338020D01*
X456130Y337020D02*
Y338020D01*
X475815Y337020D02*
Y338020D01*
X495500Y337020D02*
Y338020D01*
X515185Y337020D02*
Y338020D01*
X534870Y337020D02*
Y338020D01*
X554555Y337020D02*
Y338020D01*
X574240Y337020D02*
Y338020D01*
X593925Y337020D02*
Y338020D01*
X613610Y337020D02*
Y338020D01*
X633295Y337020D02*
Y338020D01*
X652980Y337020D02*
Y338020D01*
X686665Y332335D02*
Y333335D01*
X666980Y332335D02*
Y333335D01*
X647295Y332335D02*
Y333335D01*
X627610Y332335D02*
Y333335D01*
X607925Y332335D02*
Y333335D01*
X588240Y332335D02*
Y333335D01*
X568555Y332335D02*
Y333335D01*
X548870Y332335D02*
Y333335D01*
X529185Y332335D02*
Y333335D01*
X509500Y332335D02*
Y333335D01*
X489815Y332335D02*
Y333335D01*
X470130Y332335D02*
Y333335D01*
X450445Y332335D02*
Y333335D01*
X430760Y332335D02*
Y333335D01*
X411075Y332335D02*
Y333335D01*
X391390Y332335D02*
Y333335D01*
X371705Y332335D02*
Y333335D01*
X352020Y332335D02*
Y333335D01*
X332335Y332335D02*
Y333335D01*
X318335Y297650D02*
Y298650D01*
X338020Y297650D02*
Y298650D01*
X357705Y297650D02*
Y298650D01*
X377390Y297650D02*
Y298650D01*
X397075Y297650D02*
Y298650D01*
X416760Y297650D02*
Y298650D01*
X436445Y297650D02*
Y298650D01*
X456130Y297650D02*
Y298650D01*
X475815Y297650D02*
Y298650D01*
X495500Y297650D02*
Y298650D01*
X515185Y297650D02*
Y298650D01*
X534870Y297650D02*
Y298650D01*
X554555Y297650D02*
Y298650D01*
X574240Y297650D02*
Y298650D01*
X593925Y297650D02*
Y298650D01*
X613610Y297650D02*
Y298650D01*
X633295Y297650D02*
Y298650D01*
X652980Y297650D02*
Y298650D01*
X672665Y297650D02*
Y298650D01*
X666980Y292965D02*
Y293965D01*
X647295Y292965D02*
Y293965D01*
X627610Y292965D02*
Y293965D01*
X607925Y292965D02*
Y293965D01*
X588240Y292965D02*
Y293965D01*
X568555Y292965D02*
Y293965D01*
X548870Y292965D02*
Y293965D01*
X529185Y292965D02*
Y293965D01*
X509500Y292965D02*
Y293965D01*
X489815Y292965D02*
Y293965D01*
X470130Y292965D02*
Y293965D01*
X450445Y292965D02*
Y293965D01*
X430760Y292965D02*
Y293965D01*
X411075Y292965D02*
Y293965D01*
X391390Y292965D02*
Y293965D01*
X371705Y292965D02*
Y293965D01*
X352020Y292965D02*
Y293965D01*
X332335Y292965D02*
Y293965D01*
X318335Y258279D02*
Y259279D01*
X338020Y258279D02*
Y259279D01*
X357705Y258279D02*
Y259279D01*
X377390Y258279D02*
Y259279D01*
X397075Y258279D02*
Y259279D01*
X416760Y258279D02*
Y259279D01*
X436445Y258279D02*
Y259279D01*
X456130Y258279D02*
Y259279D01*
X475815Y258279D02*
Y259279D01*
X495500Y258279D02*
Y259279D01*
X515185Y258279D02*
Y259279D01*
X534870Y258279D02*
Y259279D01*
X554555Y258279D02*
Y259279D01*
X574240Y258279D02*
Y259279D01*
X593925Y258279D02*
Y259279D01*
X613610Y258279D02*
Y259279D01*
X633295Y258279D02*
Y259279D01*
X652917Y258279D02*
Y259279D01*
X666980Y253594D02*
Y254594D01*
X647295Y253594D02*
Y254594D01*
X627610Y253594D02*
Y254594D01*
X607925Y253594D02*
Y254594D01*
X588240Y253594D02*
Y254594D01*
X568555Y253594D02*
Y254594D01*
X548870Y253594D02*
Y254594D01*
X529185Y253594D02*
Y254594D01*
X509500Y253594D02*
Y254594D01*
X489815Y253594D02*
Y254594D01*
X470130Y253594D02*
Y254594D01*
X450445Y253594D02*
Y254594D01*
X430760Y253594D02*
Y254594D01*
X411075Y253594D02*
Y254594D01*
X391390Y253594D02*
Y254594D01*
X371705Y253594D02*
Y254594D01*
X352020Y253594D02*
Y254594D01*
X332335Y253594D02*
Y254594D01*
X318335Y218910D02*
Y219910D01*
X338020Y218910D02*
Y219910D01*
X357705Y218910D02*
Y219910D01*
X377390Y218910D02*
Y219910D01*
X397075Y218910D02*
Y219910D01*
X416760Y218910D02*
Y219910D01*
X436445Y218910D02*
Y219910D01*
X456130Y218910D02*
Y219910D01*
X475815Y218910D02*
Y219910D01*
X495500Y218910D02*
Y219910D01*
X515185Y218910D02*
Y219910D01*
X534870Y218910D02*
Y219910D01*
X554555Y218910D02*
Y219910D01*
X574240Y218910D02*
Y219910D01*
X593925Y218910D02*
Y219910D01*
X613610Y218910D02*
Y219910D01*
X633295Y218910D02*
Y219910D01*
X647295Y214224D02*
Y215224D01*
X627610Y214224D02*
Y215224D01*
X607925Y214224D02*
Y215224D01*
X588240Y214224D02*
Y215224D01*
X568555Y214224D02*
Y215224D01*
X548870Y214224D02*
Y215224D01*
X529185Y214224D02*
Y215224D01*
X509500Y214224D02*
Y215224D01*
X489815Y214224D02*
Y215224D01*
X470130Y214224D02*
Y215224D01*
X450445Y214224D02*
Y215224D01*
X430760Y214224D02*
Y215224D01*
X411075Y214224D02*
Y215224D01*
X391390Y214224D02*
Y215224D01*
X371705Y214224D02*
Y215224D01*
X352020Y214224D02*
Y215224D01*
X332335Y214224D02*
Y215224D01*
X318335Y179539D02*
Y180539D01*
X338020Y179539D02*
Y180539D01*
X357705Y179539D02*
Y180539D01*
X377390Y179539D02*
Y180539D01*
X397075Y179539D02*
Y180539D01*
X416760Y179539D02*
Y180539D01*
X436445Y179539D02*
Y180539D01*
X456130Y179539D02*
Y180539D01*
X475815Y179539D02*
Y180539D01*
X495500Y179539D02*
Y180539D01*
X515185Y179539D02*
Y180539D01*
X534870Y179539D02*
Y180539D01*
X554555Y179539D02*
Y180539D01*
X574240Y179539D02*
Y180539D01*
X593925Y179539D02*
Y180539D01*
X613610Y179539D02*
Y180539D01*
X627610Y174854D02*
Y175854D01*
X607925Y174854D02*
Y175854D01*
X588240Y174854D02*
Y175854D01*
X568555Y174854D02*
Y175854D01*
X548870Y174854D02*
Y175854D01*
X529185Y174854D02*
Y175854D01*
X509500Y174854D02*
Y175854D01*
X489815Y174854D02*
Y175854D01*
X470130Y174854D02*
Y175854D01*
X450445Y174854D02*
Y175854D01*
X430760Y174854D02*
Y175854D01*
X411075Y174854D02*
Y175854D01*
X391390Y174854D02*
Y175854D01*
X371705Y174854D02*
Y175854D01*
X352020Y174854D02*
Y175854D01*
X332335Y174854D02*
Y175854D01*
X318335Y140169D02*
Y141169D01*
X338020Y140169D02*
Y141169D01*
X357705Y140169D02*
Y141169D01*
X377390Y140169D02*
Y141169D01*
X397075Y140169D02*
Y141169D01*
X416760Y140169D02*
Y141169D01*
X436445Y140169D02*
Y141169D01*
X456130Y140169D02*
Y141169D01*
X475815Y140169D02*
Y141169D01*
X495500Y140169D02*
Y141169D01*
X515185Y140169D02*
Y141169D01*
X534870Y140169D02*
Y141169D01*
X554555Y140169D02*
Y141169D01*
X574240Y140169D02*
Y141169D01*
X593925Y140169D02*
Y141169D01*
X607925Y135484D02*
Y136484D01*
X588240Y135484D02*
Y136484D01*
X568555Y135484D02*
Y136484D01*
X548870Y135484D02*
Y136484D01*
X529185Y135484D02*
Y136484D01*
X509500Y135484D02*
Y136484D01*
X489815Y135484D02*
Y136484D01*
X470130Y135484D02*
Y136484D01*
X450445Y135484D02*
Y136484D01*
X430760Y135484D02*
Y136484D01*
X411075Y135484D02*
Y136484D01*
X391390Y135484D02*
Y136484D01*
X371705Y135484D02*
Y136484D01*
X352020Y135484D02*
Y136484D01*
X332335Y135484D02*
Y136484D01*
X318335Y100799D02*
Y101799D01*
X338020Y100799D02*
Y101799D01*
X357705Y100799D02*
Y101799D01*
X377390Y100799D02*
Y101799D01*
X397075Y100799D02*
Y101799D01*
X416760Y100799D02*
Y101799D01*
X436445Y100799D02*
Y101799D01*
X456130Y100799D02*
Y101799D01*
X475815Y100799D02*
Y101799D01*
X495500Y100799D02*
Y101799D01*
X515185Y100799D02*
Y101799D01*
X534870Y100799D02*
Y101799D01*
X554555Y100799D02*
Y101799D01*
X574240Y100799D02*
Y101799D01*
X588240Y96114D02*
Y97114D01*
X568555Y96114D02*
Y97114D01*
X548870Y96114D02*
Y97114D01*
X529185Y96114D02*
Y97114D01*
X509500Y96114D02*
Y97114D01*
X489815Y96114D02*
Y97114D01*
X470130Y96114D02*
Y97114D01*
X450445Y96114D02*
Y97114D01*
X430760Y96114D02*
Y97114D01*
X411075Y96114D02*
Y97114D01*
X391390Y96114D02*
Y97114D01*
X371705Y96114D02*
Y97114D01*
X352020Y96114D02*
Y97114D01*
X332335Y96114D02*
Y97114D01*
X318335Y61429D02*
Y62429D01*
X338020Y61429D02*
Y62429D01*
X357705Y61429D02*
Y62429D01*
X377390Y61429D02*
Y62429D01*
X397012Y61429D02*
Y62429D01*
X416760Y61429D02*
Y62429D01*
X436445Y61429D02*
Y62429D01*
X456130Y61429D02*
Y62429D01*
X475815Y61429D02*
Y62429D01*
X495500Y61429D02*
Y62429D01*
X515185Y61429D02*
Y62429D01*
X534807Y61429D02*
Y62429D01*
X554555Y61429D02*
Y62429D01*
X574240Y61429D02*
Y62429D01*
X568555Y56744D02*
Y57744D01*
X548870Y56744D02*
Y57744D01*
X529185Y56744D02*
Y57744D01*
X509500Y56744D02*
Y57744D01*
X489815Y56744D02*
Y57744D01*
X470130Y56744D02*
Y57744D01*
X450445Y56744D02*
Y57744D01*
X430760Y56744D02*
Y57744D01*
X411075Y56744D02*
Y57744D01*
X391390Y56744D02*
Y57744D01*
X371705Y56744D02*
Y57744D01*
X352020Y56744D02*
Y57744D01*
X332335Y56744D02*
Y57744D01*
X318335Y22059D02*
Y23059D01*
X338020Y22059D02*
Y23059D01*
X357705Y22059D02*
Y23059D01*
X377390Y22059D02*
Y23059D01*
X397075Y22059D02*
Y23059D01*
X416760Y22059D02*
Y23059D01*
X436445Y22059D02*
Y23059D01*
X456130Y22059D02*
Y23059D01*
X475815Y22059D02*
Y23059D01*
X495500Y22059D02*
Y23059D01*
X515185Y22059D02*
Y23059D01*
X534870Y22059D02*
Y23059D01*
X554555Y22059D02*
Y23059D01*
X548870Y17374D02*
Y18374D01*
X529185Y17374D02*
Y18374D01*
X509500Y17374D02*
Y18374D01*
X489815Y17374D02*
Y18374D01*
X470130Y17374D02*
Y18374D01*
X450445Y17374D02*
Y18374D01*
X430760Y17374D02*
Y18374D01*
X411075Y17374D02*
Y18374D01*
X391390Y17374D02*
Y18374D01*
X371705Y17374D02*
Y18374D01*
X352020Y17374D02*
Y18374D01*
D12*
X63898Y58307D02*
X73898D01*
Y38307D02*
Y58307D01*
X63898Y38307D02*
X73898D01*
X63898D02*
Y58307D01*
X593425Y113425D02*
X603425D01*
Y93425D02*
Y113425D01*
X593425Y93425D02*
X603425D01*
X593425D02*
Y113425D01*
X613189Y421850D02*
Y424606D01*
X619095Y421850D02*
Y424606D01*
X674213Y343110D02*
Y345866D01*
X680118Y343110D02*
Y345866D01*
X652559Y225000D02*
Y227756D01*
X658464Y225000D02*
Y227756D01*
X575787Y47835D02*
Y50591D01*
X581693Y47835D02*
Y50591D01*
X299803Y357283D02*
X302559D01*
X299803Y363189D02*
X302559D01*
X223425Y345079D02*
Y347835D01*
X229331Y345079D02*
Y347835D01*
X166339Y323425D02*
Y326181D01*
X172244Y323425D02*
Y326181D01*
X125000Y305709D02*
Y308465D01*
X130905Y305709D02*
Y308465D01*
X65945Y284055D02*
Y286811D01*
X71851Y284055D02*
Y286811D01*
X8858Y162008D02*
Y164764D01*
X14764Y162008D02*
Y164764D01*
X367126Y402165D02*
Y404921D01*
X373031Y402165D02*
Y404921D01*
X483268Y441535D02*
Y444291D01*
X489173Y441535D02*
Y444291D01*
D13*
X416427Y422626D02*
X419051D01*
X416427Y423938D02*
X419051D01*
X422986Y424593D02*
X422330Y425249D01*
X421018D01*
X420362Y424593D01*
Y421970D01*
X421018Y421314D01*
X422330D01*
X422986Y421970D01*
Y423281D01*
X421674D01*
X424298Y421314D02*
Y425249D01*
X426922Y421314D01*
Y425249D01*
X428234D02*
Y421314D01*
X430202D01*
X430858Y421970D01*
Y424593D01*
X430202Y425249D01*
X428234D01*
X201860Y343885D02*
X204484D01*
X201860Y345197D02*
X204484D01*
X208419Y345853D02*
X207763Y346509D01*
X206451D01*
X205796Y345853D01*
Y343230D01*
X206451Y342573D01*
X207763D01*
X208419Y343230D01*
Y344541D01*
X207107D01*
X209731Y342573D02*
Y346509D01*
X212355Y342573D01*
Y346509D01*
X213667D02*
Y342573D01*
X215635D01*
X216291Y343230D01*
Y345853D01*
X215635Y346509D01*
X213667D01*
X13398Y182175D02*
Y184799D01*
X12086Y182175D02*
Y184799D01*
X11430Y188734D02*
X10774Y188078D01*
Y186766D01*
X11430Y186110D01*
X14054D01*
X14710Y186766D01*
Y188078D01*
X14054Y188734D01*
X12742D01*
Y187422D01*
X14710Y190046D02*
X10774D01*
X14710Y192670D01*
X10774D01*
Y193982D02*
X14710D01*
Y195950D01*
X14054Y196606D01*
X11430D01*
X10774Y195950D01*
Y193982D01*
X676247Y273228D02*
Y275852D01*
X674935Y273228D02*
Y275852D01*
X674279Y279788D02*
X673623Y279132D01*
Y277820D01*
X674279Y277164D01*
X676903D01*
X677559Y277820D01*
Y279132D01*
X676903Y279788D01*
X675591D01*
Y278476D01*
X677559Y281100D02*
X673623D01*
X677559Y283724D01*
X673623D01*
Y285036D02*
X677559D01*
Y287003D01*
X676903Y287659D01*
X674279D01*
X673623Y287003D01*
Y285036D01*
D14*
X615519Y136876D02*
X614994Y137401D01*
X613945D01*
X613420Y136876D01*
Y134777D01*
X613945Y134253D01*
X614994D01*
X615519Y134777D01*
Y135827D01*
X614469D01*
X616569Y134253D02*
Y137401D01*
X618668Y134253D01*
Y137401D01*
X619717D02*
Y134253D01*
X621291D01*
X621816Y134777D01*
Y136876D01*
X621291Y137401D01*
X619717D01*
X636286Y178740D02*
X634187D01*
Y177165D01*
X635237Y177690D01*
X635761D01*
X636286Y177165D01*
Y176116D01*
X635761Y175591D01*
X634712D01*
X634187Y176116D01*
X637336Y178740D02*
Y176641D01*
X638385Y175591D01*
X639435Y176641D01*
Y178740D01*
X605217Y106628D02*
X608366D01*
Y108202D01*
X607841Y108727D01*
X605742D01*
X605217Y108202D01*
Y106628D01*
Y111351D02*
Y110301D01*
X605742Y109777D01*
X607841D01*
X608366Y110301D01*
Y111351D01*
X607841Y111876D01*
X605742D01*
X605217Y111351D01*
X595342Y91633D02*
Y88485D01*
X596916D01*
X597441Y89009D01*
Y91109D01*
X596916Y91633D01*
X595342D01*
X598490D02*
X599540D01*
X599015D01*
Y88485D01*
X598490D01*
X599540D01*
X58957Y50526D02*
X62106D01*
Y52100D01*
X61581Y52625D01*
X59482D01*
X58957Y52100D01*
Y50526D01*
Y55249D02*
Y54199D01*
X59482Y53674D01*
X61581D01*
X62106Y54199D01*
Y55249D01*
X61581Y55773D01*
X59482D01*
X58957Y55249D01*
X69751Y36515D02*
Y33367D01*
X71326D01*
X71850Y33891D01*
Y35991D01*
X71326Y36515D01*
X69751D01*
X72900D02*
X73949D01*
X73425D01*
Y33367D01*
X72900D01*
X73949D01*
X48590Y78313D02*
X48065Y78838D01*
X47016D01*
X46491Y78313D01*
Y76214D01*
X47016Y75690D01*
X48065D01*
X48590Y76214D01*
Y77264D01*
X47540D01*
X49639Y75690D02*
Y78838D01*
X51739Y75690D01*
Y78838D01*
X52788D02*
Y75690D01*
X54362D01*
X54887Y76214D01*
Y78313D01*
X54362Y78838D01*
X52788D01*
X31463Y117716D02*
X29364D01*
Y116142D01*
X30414Y116666D01*
X30939D01*
X31463Y116142D01*
Y115092D01*
X30939Y114567D01*
X29889D01*
X29364Y115092D01*
X32513Y117716D02*
Y115617D01*
X33562Y114567D01*
X34612Y115617D01*
Y117716D01*
M02*
