G04*
G04 #@! TF.GenerationSoftware,Altium Limited,Altium Designer,21.3.2 (30)*
G04*
G04 Layer_Color=32896*
%FSLAX25Y25*%
%MOIN*%
G70*
G04*
G04 #@! TF.SameCoordinates,3ACA48B3-FF6E-4ADC-A770-F215C7717477*
G04*
G04*
G04 #@! TF.FilePolarity,Positive*
G04*
G01*
G75*
%ADD10C,0.03937*%
%ADD11C,0.02362*%
%ADD13C,0.00591*%
%ADD14C,0.00394*%
G36*
X543300Y470224D02*
X543788D01*
Y469240D01*
X542804D01*
Y470224D01*
X541820D01*
Y468752D01*
X542804D01*
Y468256D01*
X541820D01*
Y466784D01*
X542804D01*
Y467768D01*
X543788D01*
Y466784D01*
X543300D01*
Y466288D01*
X541332D01*
Y466784D01*
X540836D01*
Y468256D01*
X541332D01*
Y468752D01*
X540836D01*
Y470224D01*
X541332D01*
Y470720D01*
X543300D01*
Y470224D01*
D02*
G37*
G36*
X559571Y466288D02*
X558587D01*
Y468256D01*
X558091D01*
Y467272D01*
X557596D01*
Y466288D01*
X556611D01*
Y467272D01*
X557107D01*
Y468256D01*
X557596D01*
Y468752D01*
X557107D01*
Y469736D01*
X556611D01*
Y470720D01*
X557596D01*
Y469736D01*
X558091D01*
Y468752D01*
X558587D01*
Y470720D01*
X559571D01*
Y466288D01*
D02*
G37*
G36*
X535412Y468256D02*
X534924D01*
Y467272D01*
X534428D01*
Y466288D01*
X533444D01*
Y467272D01*
X532955D01*
Y468256D01*
X532460D01*
Y470720D01*
X533444D01*
Y468256D01*
X534428D01*
Y470720D01*
X535412D01*
Y468256D01*
D02*
G37*
G36*
X556116Y466288D02*
X553659D01*
Y466784D01*
X553163D01*
Y468256D01*
X553659D01*
Y468752D01*
X553163D01*
Y470224D01*
X553659D01*
Y470720D01*
X556116D01*
Y466288D01*
D02*
G37*
G36*
X551188Y467272D02*
X550692D01*
Y466288D01*
X549708D01*
Y467272D01*
X550204D01*
Y470720D01*
X551188D01*
Y467272D01*
D02*
G37*
G36*
X548724D02*
X549212D01*
Y469736D01*
X549708D01*
Y467272D01*
X549212D01*
Y466288D01*
X548228D01*
Y467272D01*
X547740D01*
Y470720D01*
X548724D01*
Y467272D01*
D02*
G37*
G36*
X546748Y470224D02*
X547244D01*
Y468752D01*
X546748D01*
Y468256D01*
X545268D01*
Y466784D01*
X546260D01*
Y467768D01*
X547244D01*
Y466784D01*
X546748D01*
Y466288D01*
X544780D01*
Y466784D01*
X544284D01*
Y468256D01*
X544780D01*
Y468752D01*
X546260D01*
Y470224D01*
X545268D01*
Y469240D01*
X544284D01*
Y470224D01*
X544780D01*
Y470720D01*
X546748D01*
Y470224D01*
D02*
G37*
G36*
X540340Y468256D02*
X538372D01*
Y466784D01*
X539356D01*
Y467768D01*
X540340D01*
Y466784D01*
X539852D01*
Y466288D01*
X537883D01*
Y466784D01*
X537388D01*
Y468256D01*
X537883D01*
Y468752D01*
X539356D01*
Y470224D01*
X537388D01*
Y470720D01*
X540340D01*
Y468256D01*
D02*
G37*
G36*
X530980Y470224D02*
X531964D01*
Y469729D01*
X530980D01*
Y466784D01*
X531964D01*
Y466288D01*
X529011Y466288D01*
Y466784D01*
X529996D01*
Y470720D01*
X530980Y470720D01*
Y470224D01*
D02*
G37*
G36*
X532593Y463587D02*
X531850D01*
Y462844D01*
X531107D01*
Y465063D01*
X532593D01*
Y463587D01*
D02*
G37*
G36*
X554760Y462844D02*
X555492D01*
Y462101D01*
X554016D01*
Y462844D01*
X552541D01*
Y461379D01*
X554760D01*
Y460636D01*
X555492D01*
Y459161D01*
X554760D01*
Y458417D01*
X551065D01*
Y462844D01*
X551809D01*
Y463587D01*
X554760D01*
Y462844D01*
D02*
G37*
G36*
X542201Y462844D02*
X542933D01*
Y462101D01*
X541458D01*
Y462844D01*
X539982D01*
Y461379D01*
X542201D01*
Y460636D01*
X542933D01*
Y459161D01*
X542201D01*
Y458417D01*
X538507D01*
Y462844D01*
X539250D01*
Y463587D01*
X542201D01*
Y462844D01*
D02*
G37*
G36*
X532593Y462101D02*
X531850D01*
X531861Y462844D01*
X532593D01*
Y462101D01*
D02*
G37*
G36*
X524462Y465063D02*
X525205D01*
Y462844D01*
X524462D01*
Y460625D01*
X522986D01*
Y462844D01*
X522254D01*
Y465063D01*
X522986D01*
Y465795D01*
X524462D01*
Y465063D01*
D02*
G37*
G36*
X575439Y464320D02*
X576171D01*
Y459161D01*
X575439D01*
Y458417D01*
X572488D01*
Y459161D01*
X571745D01*
Y460636D01*
X573220D01*
Y459161D01*
X574696D01*
Y464320D01*
X573220D01*
Y462844D01*
X571745D01*
Y464320D01*
X572488D01*
Y465063D01*
X575439D01*
Y464320D01*
D02*
G37*
G36*
X565099Y462844D02*
X565832D01*
Y459161D01*
X565099D01*
Y458417D01*
X562148D01*
Y459161D01*
X561405D01*
Y459904D01*
X562881D01*
Y459161D01*
X564356D01*
Y460625D01*
X561405D01*
Y462844D01*
X562148D01*
Y463587D01*
X565099D01*
Y462844D01*
D02*
G37*
G36*
X547371Y464320D02*
X548103Y464320D01*
Y459161D01*
X547371Y459161D01*
Y458417D01*
X544420D01*
Y459161D01*
X543677D01*
Y460636D01*
X545152D01*
Y459161D01*
X546628D01*
Y464320D01*
X545152D01*
Y462844D01*
X543677D01*
Y464320D01*
X544420D01*
Y465063D01*
X547371D01*
Y464320D01*
D02*
G37*
G36*
X570269Y462844D02*
X571002D01*
Y459161D01*
X570269D01*
Y458417D01*
X567318D01*
Y459161D01*
X566575D01*
Y462844D01*
X567318D01*
Y463587D01*
X570269D01*
Y462844D01*
D02*
G37*
G36*
X560662Y464320D02*
X559186D01*
Y459161D01*
X560662D01*
Y458417D01*
X556235D01*
Y459161D01*
X557711D01*
Y465063D01*
X560662D01*
Y464320D01*
D02*
G37*
G36*
X537763Y458417D02*
X536288D01*
Y462844D01*
X534812D01*
Y458417D01*
X533337D01*
Y462844D01*
X534080D01*
Y463587D01*
X537763D01*
Y458417D01*
D02*
G37*
G36*
X528899Y463587D02*
X530375D01*
Y462844D01*
X528899D01*
Y459161D01*
X528167D01*
Y458417D01*
X525948D01*
Y459161D01*
X527424D01*
Y462844D01*
X525948D01*
Y463587D01*
X527424D01*
Y465063D01*
X528899D01*
Y463587D01*
D02*
G37*
G36*
X524462Y458417D02*
X522986D01*
Y459893D01*
X524462D01*
Y458417D01*
D02*
G37*
G36*
X85558Y301923D02*
X84938D01*
Y301304D01*
X84319D01*
Y303153D01*
X85558D01*
Y301923D01*
D02*
G37*
G36*
X104033Y301304D02*
X104643D01*
Y300684D01*
X103413D01*
Y301304D01*
X102183D01*
Y300083D01*
X104033D01*
Y299464D01*
X104643D01*
Y298234D01*
X104033D01*
Y297614D01*
X100954D01*
Y301304D01*
X101573D01*
Y301923D01*
X104033D01*
Y301304D01*
D02*
G37*
G36*
X93565D02*
X94176D01*
Y300684D01*
X92946Y300684D01*
Y301304D01*
X91716D01*
Y300083D01*
X93565Y300083D01*
Y299464D01*
X94176D01*
Y298234D01*
X93565D01*
Y297614D01*
X90486Y297614D01*
Y301304D01*
X91106D01*
Y301923D01*
X93565Y301923D01*
Y301304D01*
D02*
G37*
G36*
X85558Y300684D02*
X84938D01*
X84947Y301304D01*
X85558D01*
Y300684D01*
D02*
G37*
G36*
X78780Y303153D02*
X79399D01*
Y301304D01*
X78780D01*
Y299455D01*
X77550D01*
Y301304D01*
X76940D01*
Y303153D01*
X77550D01*
Y303764D01*
X78780D01*
Y303153D01*
D02*
G37*
G36*
X121269Y302534D02*
X121879D01*
Y298234D01*
X121269D01*
Y297614D01*
X118809D01*
Y298234D01*
X118190D01*
Y299464D01*
X119420D01*
Y298234D01*
X120649D01*
Y302534D01*
X119420D01*
Y301304D01*
X118190D01*
Y302534D01*
X118809D01*
Y303153D01*
X121269D01*
Y302534D01*
D02*
G37*
G36*
X112651Y301304D02*
X113261D01*
Y298234D01*
X112651D01*
Y297614D01*
X110191D01*
Y298234D01*
X109572D01*
Y298853D01*
X110801D01*
Y298234D01*
X112031D01*
Y299455D01*
X109572D01*
Y301304D01*
X110191D01*
Y301923D01*
X112651D01*
Y301304D01*
D02*
G37*
G36*
X97874Y302534D02*
X98485D01*
Y298234D01*
X97874D01*
Y297614D01*
X95415D01*
Y298234D01*
X94795D01*
Y299464D01*
X96025D01*
Y298234D01*
X97255D01*
Y302534D01*
X96025D01*
Y301304D01*
X94795D01*
Y302534D01*
X95415D01*
Y303153D01*
X97874D01*
Y302534D01*
D02*
G37*
G36*
X116960Y301304D02*
X117570D01*
Y298234D01*
X116960D01*
Y297614D01*
X114500D01*
Y298234D01*
X113881D01*
Y301304D01*
X114500D01*
Y301923D01*
X116960D01*
Y301304D01*
D02*
G37*
G36*
X108952Y302534D02*
X107722D01*
Y298234D01*
X108952D01*
Y297614D01*
X105263D01*
Y298234D01*
X106492D01*
Y303153D01*
X108952D01*
Y302534D01*
D02*
G37*
G36*
X89867Y297614D02*
X88637D01*
Y301304D01*
X87407D01*
Y297614D01*
X86177D01*
Y301304D01*
X86797D01*
Y301923D01*
X89867D01*
Y297614D01*
D02*
G37*
G36*
X82478Y301923D02*
X83708D01*
Y301304D01*
X82478D01*
Y298234D01*
X81868D01*
Y297614D01*
X80019D01*
Y298234D01*
X81249D01*
Y301304D01*
X80019D01*
Y301923D01*
X81249D01*
Y303153D01*
X82478D01*
Y301923D01*
D02*
G37*
G36*
X78780Y297614D02*
X77550D01*
Y298844D01*
X78780D01*
Y297614D01*
D02*
G37*
G36*
X103339Y308315D02*
X103828D01*
Y307331D01*
X102844D01*
Y308315D01*
X101859D01*
Y306842D01*
X102844D01*
Y306347D01*
X101859D01*
Y304874D01*
X102844D01*
Y305858D01*
X103828D01*
Y304874D01*
X103339D01*
Y304378D01*
X101371D01*
Y304874D01*
X100875D01*
Y306347D01*
X101371D01*
Y306842D01*
X100875D01*
Y308315D01*
X101371D01*
Y308811D01*
X103339D01*
Y308315D01*
D02*
G37*
G36*
X119611Y304378D02*
X118626D01*
Y306347D01*
X118131D01*
Y305363D01*
X117635D01*
Y304378D01*
X116651D01*
Y305363D01*
X117147D01*
Y306347D01*
X117635D01*
Y306842D01*
X117147D01*
Y307826D01*
X116651D01*
Y308811D01*
X117635D01*
Y307826D01*
X118131D01*
Y306842D01*
X118626D01*
Y308811D01*
X119611D01*
Y304378D01*
D02*
G37*
G36*
X95451Y306347D02*
X94963D01*
Y305363D01*
X94467D01*
Y304378D01*
X93483D01*
Y305363D01*
X92995D01*
Y306347D01*
X92499D01*
Y308811D01*
X93483D01*
Y306347D01*
X94467D01*
Y308811D01*
X95451D01*
Y306347D01*
D02*
G37*
G36*
X116155Y304378D02*
X113698D01*
Y304874D01*
X113203D01*
Y306347D01*
X113698D01*
Y306842D01*
X113203D01*
Y308315D01*
X113698D01*
Y308811D01*
X116155D01*
Y304378D01*
D02*
G37*
G36*
X111227Y305363D02*
X110731D01*
Y304378D01*
X109747D01*
Y305363D01*
X110243D01*
Y308811D01*
X111227D01*
Y305363D01*
D02*
G37*
G36*
X108763D02*
X109251D01*
Y307826D01*
X109747D01*
Y305363D01*
X109251D01*
Y304378D01*
X108267D01*
Y305363D01*
X107779D01*
Y308811D01*
X108763D01*
Y305363D01*
D02*
G37*
G36*
X106787Y308315D02*
X107283D01*
Y306842D01*
X106787D01*
Y306347D01*
X105308D01*
Y304874D01*
X106299D01*
Y305858D01*
X107283D01*
Y304874D01*
X106787D01*
Y304378D01*
X104819D01*
Y304874D01*
X104323D01*
Y306347D01*
X104819D01*
Y306842D01*
X106299D01*
Y308315D01*
X105308D01*
Y307331D01*
X104323D01*
Y308315D01*
X104819D01*
Y308811D01*
X106787D01*
Y308315D01*
D02*
G37*
G36*
X100380Y306347D02*
X98411D01*
Y304874D01*
X99395D01*
Y305858D01*
X100380D01*
Y304874D01*
X99891D01*
Y304378D01*
X97923D01*
Y304874D01*
X97427D01*
Y306347D01*
X97923D01*
Y306842D01*
X99395D01*
Y308315D01*
X97427D01*
Y308811D01*
X100380D01*
Y306347D01*
D02*
G37*
G36*
X91019Y308315D02*
X92003D01*
Y307819D01*
X91019D01*
Y304874D01*
X92003D01*
Y304378D01*
X89051Y304378D01*
Y304874D01*
X90035D01*
Y308811D01*
X91019Y308811D01*
Y308315D01*
D02*
G37*
%LPC*%
G36*
X555132Y470224D02*
X554147D01*
Y468752D01*
X555132D01*
Y470224D01*
D02*
G37*
G36*
Y468256D02*
X554147D01*
Y466784D01*
X555132D01*
Y468256D01*
D02*
G37*
G36*
X554016Y460636D02*
X552541D01*
Y459161D01*
X554016D01*
Y460636D01*
D02*
G37*
G36*
X541458Y460636D02*
X539982D01*
Y459161D01*
X541458D01*
Y460636D01*
D02*
G37*
G36*
X564356Y462844D02*
X562881D01*
Y461369D01*
X564356D01*
Y462844D01*
D02*
G37*
G36*
X569526D02*
X568050D01*
Y459161D01*
X569526D01*
Y462844D01*
D02*
G37*
G36*
X103413Y299464D02*
X102183D01*
Y298234D01*
X103413D01*
Y299464D01*
D02*
G37*
G36*
X92946Y299464D02*
X91716D01*
Y298234D01*
X92946D01*
Y299464D01*
D02*
G37*
G36*
X112031Y301304D02*
X110801D01*
Y300074D01*
X112031D01*
Y301304D01*
D02*
G37*
G36*
X116340D02*
X115111D01*
Y298234D01*
X116340D01*
Y301304D01*
D02*
G37*
G36*
X115171Y308315D02*
X114187D01*
Y306842D01*
X115171D01*
Y308315D01*
D02*
G37*
G36*
Y306347D02*
X114187D01*
Y304874D01*
X115171D01*
Y306347D01*
D02*
G37*
%LPD*%
D10*
X430118Y422244D02*
Y424213D01*
X215069Y343056D02*
Y345025D01*
X12348Y178631D02*
X14316D01*
X675197Y269685D02*
X677165D01*
D11*
X289028Y371705D02*
X290028D01*
X234658Y338020D02*
X235658D01*
X254343D02*
X255343D01*
X274028D02*
X275028D01*
X293713D02*
X294713D01*
X308713Y332335D02*
X309713D01*
X289028D02*
X290028D01*
X269342D02*
X270342D01*
X249658D02*
X250658D01*
X229972D02*
X230972D01*
X210287D02*
X211287D01*
X190602D02*
X191602D01*
X136232Y298650D02*
X137232D01*
X155917D02*
X156917D01*
X175602D02*
X176602D01*
X195287D02*
X196287D01*
X214972D02*
X215972D01*
X234658D02*
X235658D01*
X254343D02*
X255343D01*
X274028D02*
X275028D01*
X293713D02*
X294713D01*
X308713Y292965D02*
X309713D01*
X289028D02*
X290028D01*
X269342D02*
X270342D01*
X249658D02*
X250658D01*
X229972D02*
X230972D01*
X210287D02*
X211287D01*
X190602D02*
X191602D01*
X170917D02*
X171917D01*
X151232D02*
X152232D01*
X131547D02*
X132547D01*
X111862D02*
X112862D01*
X92177D02*
X93177D01*
X37807Y259279D02*
X38807D01*
X57492D02*
X58492D01*
X77177D02*
X78177D01*
X96862D02*
X97862D01*
X116547D02*
X117547D01*
X136232D02*
X137232D01*
X155917D02*
X156917D01*
X175602D02*
X176602D01*
X195287D02*
X196287D01*
X214972D02*
X215972D01*
X234658D02*
X235658D01*
X254343D02*
X255343D01*
X274028D02*
X275028D01*
X293712Y259280D02*
X294712D01*
X308713Y253594D02*
X309713D01*
X289028D02*
X290028D01*
X269342D02*
X270342D01*
X249658D02*
X250658D01*
X229972D02*
X230972D01*
X210287D02*
X211287D01*
X190602D02*
X191602D01*
X170917D02*
X171917D01*
X151232D02*
X152232D01*
X131547D02*
X132547D01*
X111862D02*
X112862D01*
X92177D02*
X93177D01*
X72492D02*
X73492D01*
X52807D02*
X53807D01*
X33122D02*
X34122D01*
X18122Y219910D02*
X19122D01*
X37807D02*
X38807D01*
X57492D02*
X58492D01*
X77177D02*
X78177D01*
X96862D02*
X97862D01*
X116547D02*
X117547D01*
X136232D02*
X137232D01*
X155917D02*
X156917D01*
X175602D02*
X176602D01*
X195287D02*
X196287D01*
X214972D02*
X215972D01*
X234658D02*
X235658D01*
X254343D02*
X255343D01*
X274028D02*
X275028D01*
X293713D02*
X294713D01*
X308713Y214224D02*
X309713D01*
X289028D02*
X290028D01*
X269342D02*
X270342D01*
X249658D02*
X250658D01*
X229972D02*
X230972D01*
X210287D02*
X211287D01*
X190602D02*
X191602D01*
X170917D02*
X171917D01*
X151232D02*
X152232D01*
X131547D02*
X132547D01*
X111862D02*
X112862D01*
X92177D02*
X93177D01*
X72492D02*
X73492D01*
X52807D02*
X53807D01*
X33122D02*
X34122D01*
X18122Y180539D02*
X19122D01*
X37807D02*
X38807D01*
X57492D02*
X58492D01*
X77177D02*
X78177D01*
X96862D02*
X97862D01*
X116547D02*
X117547D01*
X136232D02*
X137232D01*
X155917D02*
X156917D01*
X175602D02*
X176602D01*
X195287D02*
X196287D01*
X214972D02*
X215972D01*
X234658D02*
X235658D01*
X254343D02*
X255343D01*
X274028D02*
X275028D01*
X293713D02*
X294713D01*
X308713Y174854D02*
X309713D01*
X289028D02*
X290028D01*
X269342D02*
X270342D01*
X249658D02*
X250658D01*
X229972D02*
X230972D01*
X210287D02*
X211287D01*
X190602D02*
X191602D01*
X170917D02*
X171917D01*
X151232D02*
X152232D01*
X131547D02*
X132547D01*
X111862D02*
X112862D01*
X92177D02*
X93177D01*
X72492D02*
X73492D01*
X52807D02*
X53807D01*
X33122D02*
X34122D01*
X18122Y141169D02*
X19122D01*
X37807D02*
X38807D01*
X57492D02*
X58492D01*
X77177D02*
X78177D01*
X96862D02*
X97862D01*
X116547D02*
X117547D01*
X136232D02*
X137232D01*
X155917D02*
X156917D01*
X175602D02*
X176602D01*
X195287D02*
X196287D01*
X214972D02*
X215972D01*
X234658D02*
X235658D01*
X254343D02*
X255343D01*
X274028D02*
X275028D01*
X293713D02*
X294713D01*
X308713Y135484D02*
X309713D01*
X289028D02*
X290028D01*
X269342D02*
X270342D01*
X249658D02*
X250658D01*
X229972D02*
X230972D01*
X210287D02*
X211287D01*
X190602D02*
X191602D01*
X170917D02*
X171917D01*
X151232D02*
X152232D01*
X131547D02*
X132547D01*
X111862D02*
X112862D01*
X92177D02*
X93177D01*
X72492D02*
X73492D01*
X52807D02*
X53807D01*
X37807Y101799D02*
X38807D01*
X57492D02*
X58492D01*
X77177D02*
X78177D01*
X96862D02*
X97862D01*
X116547D02*
X117547D01*
X136232D02*
X137232D01*
X155917D02*
X156917D01*
X175602D02*
X176602D01*
X195287D02*
X196287D01*
X214972D02*
X215972D01*
X234658D02*
X235658D01*
X254343D02*
X255343D01*
X274028D02*
X275028D01*
X293713D02*
X294713D01*
X308713Y96114D02*
X309713D01*
X289028D02*
X290028D01*
X269342D02*
X270342D01*
X249658D02*
X250658D01*
X229972D02*
X230972D01*
X210287D02*
X211287D01*
X190602D02*
X191602D01*
X170917D02*
X171917D01*
X151232D02*
X152232D01*
X131547D02*
X132547D01*
X111862D02*
X112862D01*
X92177D02*
X93177D01*
X72492D02*
X73492D01*
X57492Y62429D02*
X58492D01*
X77177D02*
X78177D01*
X96862D02*
X97862D01*
X116547D02*
X117547D01*
X136232D02*
X137232D01*
X155917D02*
X156917D01*
X175602D02*
X176602D01*
X195287D02*
X196287D01*
X214972D02*
X215972D01*
X234658D02*
X235658D01*
X254343D02*
X255343D01*
X274028D02*
X275028D01*
X293713D02*
X294713D01*
X308713Y56744D02*
X309713D01*
X289028D02*
X290028D01*
X269342D02*
X270342D01*
X249658D02*
X250658D01*
X229972D02*
X230972D01*
X210287D02*
X211287D01*
X190602D02*
X191602D01*
X170917D02*
X171917D01*
X151232D02*
X152232D01*
X131547D02*
X132547D01*
X111862D02*
X112862D01*
X92177D02*
X93177D01*
X77177Y23059D02*
X78177D01*
X96862D02*
X97862D01*
X116547D02*
X117547D01*
X136232D02*
X137232D01*
X155917D02*
X156917D01*
X175602D02*
X176602D01*
X195287D02*
X196287D01*
X214972D02*
X215972D01*
X234658D02*
X235658D01*
X254343D02*
X255343D01*
X274028D02*
X275028D01*
X293713D02*
X294713D01*
X289028Y17374D02*
X290028D01*
X269342D02*
X270342D01*
X249658D02*
X250658D01*
X229972D02*
X230972D01*
X210287D02*
X211287D01*
X190602D02*
X191602D01*
X170917D02*
X171917D01*
X151232D02*
X152232D01*
X131547D02*
X132547D01*
X111862D02*
X112862D01*
X588240Y450445D02*
X589240D01*
X568555D02*
X569555D01*
X548870D02*
X549870D01*
X529185D02*
X530185D01*
X509500D02*
X510500D01*
X435445Y416760D02*
X436445D01*
X455130D02*
X456130D01*
X474815D02*
X475815D01*
X494500D02*
X495500D01*
X514185D02*
X515185D01*
X533870D02*
X534870D01*
X553555D02*
X554555D01*
X573240D02*
X574240D01*
X592925D02*
X593925D01*
X627610Y411075D02*
X628610D01*
X607925D02*
X608925D01*
X588240D02*
X589240D01*
X568555D02*
X569555D01*
X548870D02*
X549870D01*
X529185D02*
X530185D01*
X509500D02*
X510500D01*
X489815D02*
X490815D01*
X470130D02*
X471130D01*
X450445D02*
X451445D01*
X430760D02*
X431760D01*
X411075D02*
X412075D01*
X391390D02*
X392390D01*
X337020Y377390D02*
X338020D01*
X356705D02*
X357705D01*
X376390D02*
X377390D01*
X396075D02*
X397075D01*
X415760D02*
X416760D01*
X435445D02*
X436445D01*
X455130D02*
X456130D01*
X474815D02*
X475815D01*
X494500D02*
X495500D01*
X514185D02*
X515185D01*
X533870D02*
X534870D01*
X553555D02*
X554555D01*
X573240D02*
X574240D01*
X592925D02*
X593925D01*
X612610D02*
X613610D01*
X632295D02*
X633295D01*
X666980Y371705D02*
X667980D01*
X647295D02*
X648295D01*
X627610D02*
X628610D01*
X607925D02*
X608925D01*
X588240D02*
X589240D01*
X568555D02*
X569555D01*
X548870D02*
X549870D01*
X529185D02*
X530185D01*
X509500D02*
X510500D01*
X489815D02*
X490815D01*
X470130D02*
X471130D01*
X450445D02*
X451445D01*
X430760D02*
X431760D01*
X411075D02*
X412075D01*
X391390D02*
X392390D01*
X371705D02*
X372705D01*
X352020D02*
X353020D01*
X332335D02*
X333335D01*
X317335Y338020D02*
X318335D01*
X337020D02*
X338020D01*
X356705D02*
X357705D01*
X376390D02*
X377390D01*
X396075D02*
X397075D01*
X415760D02*
X416760D01*
X435445D02*
X436445D01*
X455130D02*
X456130D01*
X474815D02*
X475815D01*
X494500D02*
X495500D01*
X514185D02*
X515185D01*
X533870D02*
X534870D01*
X553555D02*
X554555D01*
X573240D02*
X574240D01*
X592925D02*
X593925D01*
X612610D02*
X613610D01*
X632295D02*
X633295D01*
X651980D02*
X652980D01*
X686665Y332335D02*
X687665D01*
X666980D02*
X667980D01*
X647295D02*
X648295D01*
X627610D02*
X628610D01*
X607925D02*
X608925D01*
X588240D02*
X589240D01*
X568555D02*
X569555D01*
X548870D02*
X549870D01*
X529185D02*
X530185D01*
X509500D02*
X510500D01*
X489815D02*
X490815D01*
X470130D02*
X471130D01*
X450445D02*
X451445D01*
X430760D02*
X431760D01*
X411075D02*
X412075D01*
X391390D02*
X392390D01*
X371705D02*
X372705D01*
X352020D02*
X353020D01*
X332335D02*
X333335D01*
X317335Y298650D02*
X318335D01*
X337020D02*
X338020D01*
X356705D02*
X357705D01*
X376390D02*
X377390D01*
X396075D02*
X397075D01*
X415760D02*
X416760D01*
X435445D02*
X436445D01*
X455130Y298650D02*
X456130D01*
X474815Y298650D02*
X475815D01*
X494500D02*
X495500D01*
X514185D02*
X515185D01*
X533870D02*
X534870D01*
X553555D02*
X554555D01*
X573240D02*
X574240D01*
X592925D02*
X593925D01*
X612610D02*
X613610D01*
X632295D02*
X633295D01*
X651980D02*
X652980D01*
X671665D02*
X672665D01*
X666980Y292965D02*
X667980D01*
X647295D02*
X648295D01*
X627610D02*
X628610D01*
X607925D02*
X608925D01*
X588240D02*
X589240D01*
X568555D02*
X569555D01*
X548870D02*
X549870D01*
X529185D02*
X530185D01*
X509500D02*
X510500D01*
X489815D02*
X490815D01*
X470130D02*
X471130D01*
X450445D02*
X451445D01*
X430760D02*
X431760D01*
X411075D02*
X412075D01*
X391390D02*
X392390D01*
X371705D02*
X372705D01*
X352020D02*
X353020D01*
X332335D02*
X333335D01*
X317335Y259279D02*
X318335D01*
X337020D02*
X338020D01*
X356705D02*
X357705D01*
X376390D02*
X377390D01*
X396075D02*
X397075D01*
X415760D02*
X416760D01*
X435445D02*
X436445D01*
X455130D02*
X456130D01*
X474815D02*
X475815D01*
X494500D02*
X495500D01*
X514185D02*
X515185D01*
X533870D02*
X534870D01*
X553555D02*
X554555D01*
X573240D02*
X574240D01*
X592925D02*
X593925D01*
X612610D02*
X613610D01*
X632295D02*
X633295D01*
X651917D02*
X652917D01*
X666980Y253594D02*
X667980D01*
X647295D02*
X648295D01*
X627610D02*
X628610D01*
X607925D02*
X608925D01*
X588240D02*
X589240D01*
X568555D02*
X569555D01*
X548870D02*
X549870D01*
X529185D02*
X530185D01*
X509500D02*
X510500D01*
X489815D02*
X490815D01*
X470130D02*
X471130D01*
X450445D02*
X451445D01*
X430760D02*
X431760D01*
X411075D02*
X412075D01*
X391390D02*
X392390D01*
X371705D02*
X372705D01*
X352020D02*
X353020D01*
X332335D02*
X333335D01*
X317335Y219910D02*
X318335D01*
X337020D02*
X338020D01*
X356705D02*
X357705D01*
X376390D02*
X377390D01*
X396075D02*
X397075D01*
X415760D02*
X416760D01*
X435445D02*
X436445D01*
X455130D02*
X456130D01*
X474815D02*
X475815D01*
X494500D02*
X495500D01*
X514185D02*
X515185D01*
X533870D02*
X534870D01*
X553555D02*
X554555D01*
X573240D02*
X574240D01*
X592925D02*
X593925D01*
X612610D02*
X613610D01*
X632295D02*
X633295D01*
X647295Y214224D02*
X648295D01*
X627610D02*
X628610D01*
X607925D02*
X608925D01*
X588240D02*
X589240D01*
X568555D02*
X569555D01*
X548870D02*
X549870D01*
X529185D02*
X530185D01*
X509500D02*
X510500D01*
X489815D02*
X490815D01*
X470130D02*
X471130D01*
X450445D02*
X451445D01*
X430760D02*
X431760D01*
X411075D02*
X412075D01*
X391390D02*
X392390D01*
X371705D02*
X372705D01*
X352020D02*
X353020D01*
X332335D02*
X333335D01*
X317335Y180539D02*
X318335D01*
X337020D02*
X338020D01*
X356705D02*
X357705D01*
X376390D02*
X377390D01*
X396075D02*
X397075D01*
X415760D02*
X416760D01*
X435445D02*
X436445D01*
X455130D02*
X456130D01*
X474815D02*
X475815D01*
X494500D02*
X495500D01*
X514185D02*
X515185D01*
X533870D02*
X534870D01*
X553555D02*
X554555D01*
X573240D02*
X574240D01*
X592925D02*
X593925D01*
X612610D02*
X613610D01*
X627610Y174854D02*
X628610D01*
X607925D02*
X608925D01*
X588240D02*
X589240D01*
X568555D02*
X569555D01*
X548870D02*
X549870D01*
X529185D02*
X530185D01*
X509500D02*
X510500D01*
X489815D02*
X490815D01*
X470130D02*
X471130D01*
X450445D02*
X451445D01*
X430760D02*
X431760D01*
X411075D02*
X412075D01*
X391390D02*
X392390D01*
X371705D02*
X372705D01*
X352020D02*
X353020D01*
X332335D02*
X333335D01*
X317335Y141169D02*
X318335D01*
X337020D02*
X338020D01*
X356705D02*
X357705D01*
X376390D02*
X377390D01*
X396075D02*
X397075D01*
X415760D02*
X416760D01*
X435445D02*
X436445D01*
X455130D02*
X456130D01*
X474815D02*
X475815D01*
X494500D02*
X495500D01*
X514185D02*
X515185D01*
X533870D02*
X534870D01*
X553555D02*
X554555D01*
X573240D02*
X574240D01*
X592925D02*
X593925D01*
X607925Y135484D02*
X608925D01*
X588240D02*
X589240D01*
X568555D02*
X569555D01*
X548870D02*
X549870D01*
X529185D02*
X530185D01*
X509500D02*
X510500D01*
X489815D02*
X490815D01*
X470130D02*
X471130D01*
X450445D02*
X451445D01*
X430760D02*
X431760D01*
X411075D02*
X412075D01*
X391390D02*
X392390D01*
X371705D02*
X372705D01*
X352020D02*
X353020D01*
X332335D02*
X333335D01*
X317335Y101799D02*
X318335D01*
X337020D02*
X338020D01*
X356705D02*
X357705D01*
X376390D02*
X377390D01*
X396075D02*
X397075D01*
X415760Y101799D02*
X416760D01*
X435445Y101799D02*
X436445D01*
X455130D02*
X456130D01*
X474815D02*
X475815D01*
X494500D02*
X495500D01*
X514185D02*
X515185D01*
X533870D02*
X534870D01*
X553555D02*
X554555D01*
X573240D02*
X574240D01*
X588240Y96114D02*
X589240D01*
X568555D02*
X569555D01*
X548870D02*
X549870D01*
X529185D02*
X530185D01*
X509500D02*
X510500D01*
X489815D02*
X490815D01*
X470130D02*
X471130D01*
X450445D02*
X451445D01*
X430760D02*
X431760D01*
X411075D02*
X412075D01*
X391390D02*
X392390D01*
X371705D02*
X372705D01*
X352020D02*
X353020D01*
X332335D02*
X333335D01*
X317335Y62429D02*
X318335D01*
X337020D02*
X338020D01*
X356705D02*
X357705D01*
X376390D02*
X377390D01*
X396012D02*
X397012D01*
X415760D02*
X416760D01*
X435445D02*
X436445D01*
X455130D02*
X456130D01*
X474815D02*
X475815D01*
X494500D02*
X495500D01*
X514185D02*
X515185D01*
X533807D02*
X534807D01*
X553555D02*
X554555D01*
X573240D02*
X574240D01*
X568555Y56744D02*
X569555D01*
X548870D02*
X549870D01*
X529185D02*
X530185D01*
X509500D02*
X510500D01*
X489815D02*
X490815D01*
X470130D02*
X471130D01*
X450445D02*
X451445D01*
X430760D02*
X431760D01*
X411075D02*
X412075D01*
X391390D02*
X392390D01*
X371705D02*
X372705D01*
X352020D02*
X353020D01*
X332335D02*
X333335D01*
X317335Y23059D02*
X318335D01*
X337020D02*
X338020D01*
X356705D02*
X357705D01*
X376390D02*
X377390D01*
X396075D02*
X397075D01*
X415760D02*
X416760D01*
X435445D02*
X436445D01*
X455130D02*
X456130D01*
X474815D02*
X475815D01*
X494500D02*
X495500D01*
X514185D02*
X515185D01*
X533870D02*
X534870D01*
X553555D02*
X554555D01*
X548870Y17374D02*
X549870D01*
X529185D02*
X530185D01*
X509500D02*
X510500D01*
X489815D02*
X490815D01*
X470130D02*
X471130D01*
X450445D02*
X451445D01*
X430760D02*
X431760D01*
X411075D02*
X412075D01*
X391390D02*
X392390D01*
X371705D02*
X372705D01*
X352020D02*
X353020D01*
D13*
X426182Y422500D02*
X423558D01*
X426182Y423812D02*
X423558D01*
X419622Y424468D02*
X420278Y425124D01*
X421590D01*
X422246Y424468D01*
Y421844D01*
X421590Y421188D01*
X420278D01*
X419622Y421844D01*
Y423156D01*
X420934D01*
X418310Y421188D02*
Y425124D01*
X415686Y421188D01*
Y425124D01*
X414374D02*
Y421188D01*
X412407D01*
X411751Y421844D01*
Y424468D01*
X412407Y425124D01*
X414374D01*
X211133Y343313D02*
X208509D01*
X211133Y344624D02*
X208509D01*
X204573Y345280D02*
X205229Y345936D01*
X206541D01*
X207197Y345280D01*
Y342657D01*
X206541Y342001D01*
X205229D01*
X204573Y342657D01*
Y343969D01*
X205885D01*
X203261Y342001D02*
Y345936D01*
X200638Y342001D01*
Y345936D01*
X199326D02*
Y342001D01*
X197358D01*
X196702Y342657D01*
Y345280D01*
X197358Y345936D01*
X199326D01*
X12604Y182568D02*
Y185192D01*
X13916Y182568D02*
Y185192D01*
X14572Y189127D02*
X15228Y188471D01*
Y187160D01*
X14572Y186504D01*
X11948D01*
X11292Y187160D01*
Y188471D01*
X11948Y189127D01*
X13260D01*
Y187815D01*
X11292Y190439D02*
X15228D01*
X11292Y193063D01*
X15228D01*
Y194375D02*
X11292D01*
Y196343D01*
X11948Y196999D01*
X14572D01*
X15228Y196343D01*
Y194375D01*
X675453Y273622D02*
Y276245D01*
X676765Y273622D02*
Y276245D01*
X677421Y280181D02*
X678077Y279525D01*
Y278213D01*
X677421Y277557D01*
X674797D01*
X674141Y278213D01*
Y279525D01*
X674797Y280181D01*
X676109D01*
Y278869D01*
X674141Y281493D02*
X678077D01*
X674141Y284117D01*
X678077D01*
Y285429D02*
X674141D01*
Y287397D01*
X674797Y288053D01*
X677421D01*
X678077Y287397D01*
Y285429D01*
D14*
X600557Y91633D02*
Y88485D01*
X598983D01*
X598458Y89009D01*
Y91109D01*
X598983Y91633D01*
X600557D01*
X595834D02*
X596883D01*
X597408Y91109D01*
Y89009D01*
X596883Y88485D01*
X595834D01*
X595309Y89009D01*
Y91109D01*
X595834Y91633D01*
X605217Y111351D02*
X608366D01*
Y109777D01*
X607841Y109252D01*
X605742D01*
X605217Y109777D01*
Y111351D01*
Y108202D02*
Y107153D01*
Y107678D01*
X608366D01*
Y108202D01*
Y107153D01*
X637336Y178740D02*
X639435D01*
Y177165D01*
X638385Y177690D01*
X637860D01*
X637336Y177165D01*
Y176116D01*
X637860Y175591D01*
X638910D01*
X639435Y176116D01*
X636286Y178740D02*
Y176641D01*
X635237Y175591D01*
X634187Y176641D01*
Y178740D01*
X620209Y136876D02*
X620734Y137401D01*
X621784D01*
X622308Y136876D01*
Y134777D01*
X621784Y134253D01*
X620734D01*
X620209Y134777D01*
Y135827D01*
X621259D01*
X619160Y134253D02*
Y137401D01*
X617061Y134253D01*
Y137401D01*
X616011D02*
Y134253D01*
X614437D01*
X613912Y134777D01*
Y136876D01*
X614437Y137401D01*
X616011D01*
X73982Y36515D02*
Y33367D01*
X72408D01*
X71883Y33891D01*
Y35991D01*
X72408Y36515D01*
X73982D01*
X69259D02*
X70309D01*
X70833Y35991D01*
Y33891D01*
X70309Y33367D01*
X69259D01*
X68734Y33891D01*
Y35991D01*
X69259Y36515D01*
X58957Y55249D02*
X62106D01*
Y53674D01*
X61581Y53150D01*
X59482D01*
X58957Y53674D01*
Y55249D01*
Y52100D02*
Y51051D01*
Y51575D01*
X62106D01*
Y52100D01*
Y51051D01*
X52788Y78313D02*
X53313Y78838D01*
X54362D01*
X54887Y78313D01*
Y76214D01*
X54362Y75690D01*
X53313D01*
X52788Y76214D01*
Y77264D01*
X53838D01*
X51739Y75690D02*
Y78838D01*
X49639Y75690D01*
Y78838D01*
X48590D02*
Y75690D01*
X47016D01*
X46491Y76214D01*
Y78313D01*
X47016Y78838D01*
X48590D01*
X32513Y117716D02*
X34612D01*
Y116142D01*
X33562Y116666D01*
X33038D01*
X32513Y116142D01*
Y115092D01*
X33038Y114567D01*
X34087D01*
X34612Y115092D01*
X31463Y117716D02*
Y115617D01*
X30414Y114567D01*
X29364Y115617D01*
Y117716D01*
M02*
