G04*
G04 #@! TF.GenerationSoftware,Altium Limited,Altium Designer,21.3.2 (30)*
G04*
G04 Layer_Color=16711935*
%FSLAX25Y25*%
%MOIN*%
G70*
G04*
G04 #@! TF.SameCoordinates,EE4CDF4B-B2BA-47C9-A4A0-4E829A160328*
G04*
G04*
G04 #@! TF.FilePolarity,Positive*
G04*
G01*
G75*
%ADD15C,0.00984*%
D15*
X313473Y8843D02*
X312437Y8414D01*
X312008Y7377D01*
X314961Y7356D02*
X314525Y8407D01*
X313473Y8843D01*
X313574Y374483D02*
X314555Y374889D01*
X314961Y375870D01*
X312073Y375984D02*
X312513Y374923D01*
X313574Y374483D01*
X312008Y0D02*
Y5906D01*
Y7377D01*
X314961Y0D02*
Y7356D01*
Y0D02*
X566929D01*
X78740D02*
X312008D01*
X3937Y157480D02*
X78740Y0D01*
X3937Y157480D02*
X15748Y283465D01*
X312036Y394069D01*
X314961Y375984D02*
X315002Y395168D01*
X314961Y375870D02*
Y375984D01*
X312073Y375984D02*
Y394033D01*
X315002Y395168D02*
X574803Y492126D01*
X712598Y330709D01*
X566929Y0D02*
X712598Y330709D01*
X313473Y8843D02*
X312437Y8414D01*
X312008Y7377D01*
X314961Y7356D02*
X314525Y8407D01*
X313473Y8843D01*
X313574Y374483D02*
X314555Y374889D01*
X314961Y375870D01*
X312073Y375984D02*
X312513Y374923D01*
X313574Y374483D01*
X312008Y0D02*
Y5906D01*
Y7377D01*
X314961Y0D02*
Y7356D01*
Y0D02*
X566929D01*
X78740D02*
X312008D01*
X3937Y157480D02*
X78740Y0D01*
X3937Y157480D02*
X15748Y283465D01*
X312036Y394069D01*
X314961Y375984D02*
X315002Y395168D01*
X314961Y375870D02*
Y375984D01*
X312073Y375984D02*
Y394033D01*
X315002Y395168D02*
X574803Y492126D01*
X712598Y330709D01*
X566929Y0D02*
X712598Y330709D01*
M02*
