G04*
G04 #@! TF.GenerationSoftware,Altium Limited,Altium Designer,21.3.2 (30)*
G04*
G04 Layer_Color=8421504*
%FSLAX25Y25*%
%MOIN*%
G70*
G04*
G04 #@! TF.SameCoordinates,3ACA48B3-FF6E-4ADC-A770-F215C7717477*
G04*
G04*
G04 #@! TF.FilePolarity,Positive*
G04*
G01*
G75*
%ADD15R,0.03346X0.03937*%
D15*
X278600Y357800D02*
D03*
X285490D02*
D03*
Y371580D02*
D03*
X278600D02*
D03*
X246085Y351925D02*
D03*
X239195D02*
D03*
Y338145D02*
D03*
X246085D02*
D03*
X265770Y351925D02*
D03*
X258880D02*
D03*
Y338145D02*
D03*
X265770D02*
D03*
X285455Y351925D02*
D03*
X278565D02*
D03*
Y338145D02*
D03*
X285455D02*
D03*
X305140Y351925D02*
D03*
X298251D02*
D03*
Y338145D02*
D03*
X305140D02*
D03*
X298285Y318430D02*
D03*
X305175D02*
D03*
Y332210D02*
D03*
X298285D02*
D03*
X278600Y318430D02*
D03*
X285490D02*
D03*
Y332210D02*
D03*
X278600D02*
D03*
X258915Y318430D02*
D03*
X265805D02*
D03*
Y332210D02*
D03*
X258915D02*
D03*
X239230Y318430D02*
D03*
X246120D02*
D03*
Y332210D02*
D03*
X239230D02*
D03*
X219545Y318430D02*
D03*
X226435D02*
D03*
Y332210D02*
D03*
X219545D02*
D03*
X199859Y318430D02*
D03*
X206750D02*
D03*
Y332210D02*
D03*
X199859D02*
D03*
X180175Y318430D02*
D03*
X187065D02*
D03*
Y332210D02*
D03*
X180175D02*
D03*
X147660Y312555D02*
D03*
X140770D02*
D03*
Y298775D02*
D03*
X147660D02*
D03*
X167345Y312555D02*
D03*
X160455D02*
D03*
Y298775D02*
D03*
X167345D02*
D03*
X187030Y312555D02*
D03*
X180140D02*
D03*
Y298775D02*
D03*
X187030D02*
D03*
X206715Y312555D02*
D03*
X199825D02*
D03*
Y298775D02*
D03*
X206715D02*
D03*
X226400Y312555D02*
D03*
X219510D02*
D03*
Y298775D02*
D03*
X226400D02*
D03*
X246085Y312555D02*
D03*
X239195D02*
D03*
Y298775D02*
D03*
X246085D02*
D03*
X265770Y312555D02*
D03*
X258880D02*
D03*
Y298775D02*
D03*
X265770D02*
D03*
X285455Y312555D02*
D03*
X278565D02*
D03*
Y298775D02*
D03*
X285455D02*
D03*
X305140Y312555D02*
D03*
X298251D02*
D03*
Y298775D02*
D03*
X305140D02*
D03*
X298285Y279060D02*
D03*
X305175D02*
D03*
Y292840D02*
D03*
X298285D02*
D03*
X278600Y279060D02*
D03*
X285490D02*
D03*
Y292840D02*
D03*
X278600D02*
D03*
X258915Y279060D02*
D03*
X265805D02*
D03*
Y292840D02*
D03*
X258915D02*
D03*
X239230Y279060D02*
D03*
X246120D02*
D03*
Y292840D02*
D03*
X239230D02*
D03*
X219545Y279060D02*
D03*
X226435D02*
D03*
Y292840D02*
D03*
X219545D02*
D03*
X199859Y279060D02*
D03*
X206750D02*
D03*
Y292840D02*
D03*
X199859D02*
D03*
X180175Y279060D02*
D03*
X187065D02*
D03*
Y292840D02*
D03*
X180175D02*
D03*
X160489Y279060D02*
D03*
X167379D02*
D03*
Y292840D02*
D03*
X160489D02*
D03*
X140804Y279060D02*
D03*
X147694D02*
D03*
Y292840D02*
D03*
X140804D02*
D03*
X121119Y279060D02*
D03*
X128009D02*
D03*
Y292840D02*
D03*
X121119D02*
D03*
X101434Y279060D02*
D03*
X108324D02*
D03*
Y292840D02*
D03*
X101434D02*
D03*
X81749Y279060D02*
D03*
X88639D02*
D03*
Y292840D02*
D03*
X81749D02*
D03*
X49235Y273184D02*
D03*
X42345D02*
D03*
Y259404D02*
D03*
X49235D02*
D03*
X68920Y273184D02*
D03*
X62030D02*
D03*
Y259404D02*
D03*
X68920D02*
D03*
X88605Y273184D02*
D03*
X81715D02*
D03*
Y259404D02*
D03*
X88605D02*
D03*
X108290Y273184D02*
D03*
X101400D02*
D03*
Y259404D02*
D03*
X108290D02*
D03*
X127975Y273184D02*
D03*
X121085D02*
D03*
Y259404D02*
D03*
X127975D02*
D03*
X147660Y273184D02*
D03*
X140770D02*
D03*
Y259404D02*
D03*
X147660D02*
D03*
X167345Y273184D02*
D03*
X160455D02*
D03*
Y259404D02*
D03*
X167345D02*
D03*
X187030Y273184D02*
D03*
X180140D02*
D03*
Y259404D02*
D03*
X187030D02*
D03*
X206715Y273184D02*
D03*
X199825D02*
D03*
Y259404D02*
D03*
X206715D02*
D03*
X226400Y273184D02*
D03*
X219510D02*
D03*
Y259404D02*
D03*
X226400D02*
D03*
X246085Y273184D02*
D03*
X239195D02*
D03*
Y259404D02*
D03*
X246085D02*
D03*
X265770Y273184D02*
D03*
X258880D02*
D03*
Y259404D02*
D03*
X265770D02*
D03*
X285455Y273184D02*
D03*
X278565D02*
D03*
Y259404D02*
D03*
X285455D02*
D03*
X305140Y273185D02*
D03*
X298250D02*
D03*
Y259405D02*
D03*
X305140D02*
D03*
X298285Y239689D02*
D03*
X305175D02*
D03*
Y253469D02*
D03*
X298285D02*
D03*
X278600Y239689D02*
D03*
X285490D02*
D03*
Y253469D02*
D03*
X278600D02*
D03*
X258915Y239689D02*
D03*
X265805D02*
D03*
Y253469D02*
D03*
X258915D02*
D03*
X239230Y239689D02*
D03*
X246120D02*
D03*
Y253469D02*
D03*
X239230D02*
D03*
X219545Y239689D02*
D03*
X226435D02*
D03*
Y253469D02*
D03*
X219545D02*
D03*
X199859Y239689D02*
D03*
X206750D02*
D03*
Y253469D02*
D03*
X199859D02*
D03*
X180175Y239689D02*
D03*
X187065D02*
D03*
Y253469D02*
D03*
X180175D02*
D03*
X160489Y239689D02*
D03*
X167379D02*
D03*
Y253469D02*
D03*
X160489D02*
D03*
X140804Y239689D02*
D03*
X147694D02*
D03*
Y253469D02*
D03*
X140804D02*
D03*
X121119Y239689D02*
D03*
X128009D02*
D03*
Y253469D02*
D03*
X121119D02*
D03*
X101434Y239689D02*
D03*
X108324D02*
D03*
Y253469D02*
D03*
X101434D02*
D03*
X81749Y239689D02*
D03*
X88639D02*
D03*
Y253469D02*
D03*
X81749D02*
D03*
X62064Y239689D02*
D03*
X68954D02*
D03*
Y253469D02*
D03*
X62064D02*
D03*
X42379Y239689D02*
D03*
X49269D02*
D03*
Y253469D02*
D03*
X42379D02*
D03*
X22694Y239689D02*
D03*
X29584D02*
D03*
Y253469D02*
D03*
X22694D02*
D03*
X29550Y233814D02*
D03*
X22660D02*
D03*
Y220035D02*
D03*
X29550D02*
D03*
X49235Y233814D02*
D03*
X42345D02*
D03*
Y220035D02*
D03*
X49235D02*
D03*
X68920Y233814D02*
D03*
X62030D02*
D03*
Y220035D02*
D03*
X68920D02*
D03*
X88605Y233814D02*
D03*
X81715D02*
D03*
Y220035D02*
D03*
X88605D02*
D03*
X108290Y233814D02*
D03*
X101400D02*
D03*
Y220035D02*
D03*
X108290D02*
D03*
X127975Y233814D02*
D03*
X121085D02*
D03*
Y220035D02*
D03*
X127975D02*
D03*
X147660Y233814D02*
D03*
X140770D02*
D03*
Y220035D02*
D03*
X147660D02*
D03*
X167345Y233814D02*
D03*
X160455D02*
D03*
Y220035D02*
D03*
X167345D02*
D03*
X187030Y233814D02*
D03*
X180140D02*
D03*
Y220035D02*
D03*
X187030D02*
D03*
X206715Y233814D02*
D03*
X199825D02*
D03*
Y220035D02*
D03*
X206715D02*
D03*
X226400Y233814D02*
D03*
X219510D02*
D03*
Y220035D02*
D03*
X226400D02*
D03*
X246085Y233814D02*
D03*
X239195D02*
D03*
Y220035D02*
D03*
X246085D02*
D03*
X265770Y233814D02*
D03*
X258880D02*
D03*
Y220035D02*
D03*
X265770D02*
D03*
X285455Y233814D02*
D03*
X278565D02*
D03*
Y220035D02*
D03*
X285455D02*
D03*
X305140Y233814D02*
D03*
X298251D02*
D03*
Y220035D02*
D03*
X305140D02*
D03*
X298285Y200319D02*
D03*
X305175D02*
D03*
Y214099D02*
D03*
X298285D02*
D03*
X278600Y200319D02*
D03*
X285490D02*
D03*
Y214099D02*
D03*
X278600D02*
D03*
X258915Y200319D02*
D03*
X265805D02*
D03*
Y214099D02*
D03*
X258915D02*
D03*
X239230Y200319D02*
D03*
X246120D02*
D03*
Y214099D02*
D03*
X239230D02*
D03*
X219545Y200319D02*
D03*
X226435D02*
D03*
Y214099D02*
D03*
X219545D02*
D03*
X199859Y200319D02*
D03*
X206750D02*
D03*
Y214099D02*
D03*
X199859D02*
D03*
X180175Y200319D02*
D03*
X187065D02*
D03*
Y214099D02*
D03*
X180175D02*
D03*
X160489Y200319D02*
D03*
X167379D02*
D03*
Y214099D02*
D03*
X160489D02*
D03*
X140804Y200319D02*
D03*
X147694D02*
D03*
Y214099D02*
D03*
X140804D02*
D03*
X121119Y200319D02*
D03*
X128009D02*
D03*
Y214099D02*
D03*
X121119D02*
D03*
X101434Y200319D02*
D03*
X108324D02*
D03*
Y214099D02*
D03*
X101434D02*
D03*
X81749Y200319D02*
D03*
X88639D02*
D03*
Y214099D02*
D03*
X81749D02*
D03*
X62064Y200319D02*
D03*
X68954D02*
D03*
Y214099D02*
D03*
X62064D02*
D03*
X42379Y200319D02*
D03*
X49269D02*
D03*
Y214099D02*
D03*
X42379D02*
D03*
X22694Y200319D02*
D03*
X29584D02*
D03*
Y214099D02*
D03*
X22694D02*
D03*
X29550Y194444D02*
D03*
X22660D02*
D03*
Y180664D02*
D03*
X29550D02*
D03*
X49235Y194444D02*
D03*
X42345D02*
D03*
Y180664D02*
D03*
X49235D02*
D03*
X68920Y194444D02*
D03*
X62030D02*
D03*
Y180664D02*
D03*
X68920D02*
D03*
X88605Y194444D02*
D03*
X81715D02*
D03*
Y180664D02*
D03*
X88605D02*
D03*
X108290Y194444D02*
D03*
X101400D02*
D03*
Y180664D02*
D03*
X108290D02*
D03*
X127975Y194444D02*
D03*
X121085D02*
D03*
Y180664D02*
D03*
X127975D02*
D03*
X147660Y194444D02*
D03*
X140770D02*
D03*
Y180664D02*
D03*
X147660D02*
D03*
X167345Y194444D02*
D03*
X160455D02*
D03*
Y180664D02*
D03*
X167345D02*
D03*
X187030Y194444D02*
D03*
X180140D02*
D03*
Y180664D02*
D03*
X187030D02*
D03*
X206715Y194444D02*
D03*
X199825D02*
D03*
Y180664D02*
D03*
X206715D02*
D03*
X226400Y194444D02*
D03*
X219510D02*
D03*
Y180664D02*
D03*
X226400D02*
D03*
X246085Y194444D02*
D03*
X239195D02*
D03*
Y180664D02*
D03*
X246085D02*
D03*
X265770Y194444D02*
D03*
X258880D02*
D03*
Y180664D02*
D03*
X265770D02*
D03*
X285455Y194444D02*
D03*
X278565D02*
D03*
Y180664D02*
D03*
X285455D02*
D03*
X305140Y194444D02*
D03*
X298251D02*
D03*
Y180664D02*
D03*
X305140D02*
D03*
X298285Y160949D02*
D03*
X305175D02*
D03*
Y174729D02*
D03*
X298285D02*
D03*
X278600Y160949D02*
D03*
X285490D02*
D03*
Y174729D02*
D03*
X278600D02*
D03*
X258915Y160949D02*
D03*
X265805D02*
D03*
Y174729D02*
D03*
X258915D02*
D03*
X239230Y160949D02*
D03*
X246120D02*
D03*
Y174729D02*
D03*
X239230D02*
D03*
X219545Y160949D02*
D03*
X226435D02*
D03*
Y174729D02*
D03*
X219545D02*
D03*
X199859Y160949D02*
D03*
X206750D02*
D03*
Y174729D02*
D03*
X199859D02*
D03*
X180175Y160949D02*
D03*
X187065D02*
D03*
Y174729D02*
D03*
X180175D02*
D03*
X160489Y160949D02*
D03*
X167379D02*
D03*
Y174729D02*
D03*
X160489D02*
D03*
X140804Y160949D02*
D03*
X147694D02*
D03*
Y174729D02*
D03*
X140804D02*
D03*
X121119Y160949D02*
D03*
X128009D02*
D03*
Y174729D02*
D03*
X121119D02*
D03*
X101434Y160949D02*
D03*
X108324D02*
D03*
Y174729D02*
D03*
X101434D02*
D03*
X81749Y160949D02*
D03*
X88639D02*
D03*
Y174729D02*
D03*
X81749D02*
D03*
X62064Y160949D02*
D03*
X68954D02*
D03*
Y174729D02*
D03*
X62064D02*
D03*
X42379Y160949D02*
D03*
X49269D02*
D03*
Y174729D02*
D03*
X42379D02*
D03*
X22694Y160949D02*
D03*
X29584D02*
D03*
Y174729D02*
D03*
X22694D02*
D03*
X29550Y155074D02*
D03*
X22660D02*
D03*
Y141294D02*
D03*
X29550D02*
D03*
X49235Y155074D02*
D03*
X42345D02*
D03*
Y141294D02*
D03*
X49235D02*
D03*
X68920Y155074D02*
D03*
X62030D02*
D03*
Y141294D02*
D03*
X68920D02*
D03*
X88605Y155074D02*
D03*
X81715D02*
D03*
Y141294D02*
D03*
X88605D02*
D03*
X108290Y155074D02*
D03*
X101400D02*
D03*
Y141294D02*
D03*
X108290D02*
D03*
X127975Y155074D02*
D03*
X121085D02*
D03*
Y141294D02*
D03*
X127975D02*
D03*
X147660Y155074D02*
D03*
X140770D02*
D03*
Y141294D02*
D03*
X147660D02*
D03*
X167345Y155074D02*
D03*
X160455D02*
D03*
Y141294D02*
D03*
X167345D02*
D03*
X187030Y155074D02*
D03*
X180140D02*
D03*
Y141294D02*
D03*
X187030D02*
D03*
X206715Y155074D02*
D03*
X199825D02*
D03*
Y141294D02*
D03*
X206715D02*
D03*
X226400Y155074D02*
D03*
X219510D02*
D03*
Y141294D02*
D03*
X226400D02*
D03*
X246085Y155074D02*
D03*
X239195D02*
D03*
Y141294D02*
D03*
X246085D02*
D03*
X265770Y155074D02*
D03*
X258880D02*
D03*
Y141294D02*
D03*
X265770D02*
D03*
X285455Y155074D02*
D03*
X278565D02*
D03*
Y141294D02*
D03*
X285455D02*
D03*
X305140Y155074D02*
D03*
X298251D02*
D03*
Y141294D02*
D03*
X305140D02*
D03*
X298285Y121579D02*
D03*
X305175D02*
D03*
Y135359D02*
D03*
X298285D02*
D03*
X278600Y121579D02*
D03*
X285490D02*
D03*
Y135359D02*
D03*
X278600D02*
D03*
X258915Y121579D02*
D03*
X265805D02*
D03*
Y135359D02*
D03*
X258915D02*
D03*
X239230Y121579D02*
D03*
X246120D02*
D03*
Y135359D02*
D03*
X239230D02*
D03*
X219545Y121579D02*
D03*
X226435D02*
D03*
Y135359D02*
D03*
X219545D02*
D03*
X199859Y121579D02*
D03*
X206750D02*
D03*
Y135359D02*
D03*
X199859D02*
D03*
X180175Y121579D02*
D03*
X187065D02*
D03*
Y135359D02*
D03*
X180175D02*
D03*
X160489Y121579D02*
D03*
X167379D02*
D03*
Y135359D02*
D03*
X160489D02*
D03*
X140804Y121579D02*
D03*
X147694D02*
D03*
Y135359D02*
D03*
X140804D02*
D03*
X121119Y121579D02*
D03*
X128009D02*
D03*
Y135359D02*
D03*
X121119D02*
D03*
X101434Y121579D02*
D03*
X108324D02*
D03*
Y135359D02*
D03*
X101434D02*
D03*
X81749Y121579D02*
D03*
X88639D02*
D03*
Y135359D02*
D03*
X81749D02*
D03*
X62064Y121579D02*
D03*
X68954D02*
D03*
Y135359D02*
D03*
X62064D02*
D03*
X42379Y121579D02*
D03*
X49269D02*
D03*
Y135359D02*
D03*
X42379D02*
D03*
X49235Y115704D02*
D03*
X42345D02*
D03*
Y101924D02*
D03*
X49235D02*
D03*
X68920Y115704D02*
D03*
X62030D02*
D03*
Y101924D02*
D03*
X68920D02*
D03*
X88605Y115704D02*
D03*
X81715D02*
D03*
Y101924D02*
D03*
X88605D02*
D03*
X108290Y115704D02*
D03*
X101400D02*
D03*
Y101924D02*
D03*
X108290D02*
D03*
X127975Y115704D02*
D03*
X121085D02*
D03*
Y101924D02*
D03*
X127975D02*
D03*
X147660Y115704D02*
D03*
X140770D02*
D03*
Y101924D02*
D03*
X147660D02*
D03*
X167345Y115704D02*
D03*
X160455D02*
D03*
Y101924D02*
D03*
X167345D02*
D03*
X187030Y115704D02*
D03*
X180140D02*
D03*
Y101924D02*
D03*
X187030D02*
D03*
X206715Y115704D02*
D03*
X199825D02*
D03*
Y101924D02*
D03*
X206715D02*
D03*
X226400Y115704D02*
D03*
X219510D02*
D03*
Y101924D02*
D03*
X226400D02*
D03*
X246085Y115704D02*
D03*
X239195D02*
D03*
Y101924D02*
D03*
X246085D02*
D03*
X265770Y115704D02*
D03*
X258880D02*
D03*
Y101924D02*
D03*
X265770D02*
D03*
X285455Y115704D02*
D03*
X278565D02*
D03*
Y101924D02*
D03*
X285455D02*
D03*
X305140Y115704D02*
D03*
X298251D02*
D03*
Y101924D02*
D03*
X305140D02*
D03*
X298285Y82209D02*
D03*
X305175D02*
D03*
Y95989D02*
D03*
X298285D02*
D03*
X278600Y82209D02*
D03*
X285490D02*
D03*
Y95989D02*
D03*
X278600D02*
D03*
X258915Y82209D02*
D03*
X265805D02*
D03*
Y95989D02*
D03*
X258915D02*
D03*
X239230Y82209D02*
D03*
X246120D02*
D03*
Y95989D02*
D03*
X239230D02*
D03*
X219545Y82209D02*
D03*
X226435D02*
D03*
Y95989D02*
D03*
X219545D02*
D03*
X199859Y82209D02*
D03*
X206750D02*
D03*
Y95989D02*
D03*
X199859D02*
D03*
X180175Y82209D02*
D03*
X187065D02*
D03*
Y95989D02*
D03*
X180175D02*
D03*
X160489Y82209D02*
D03*
X167379D02*
D03*
Y95989D02*
D03*
X160489D02*
D03*
X140804Y82209D02*
D03*
X147694D02*
D03*
Y95989D02*
D03*
X140804D02*
D03*
X121119Y82209D02*
D03*
X128009D02*
D03*
Y95989D02*
D03*
X121119D02*
D03*
X101434Y82209D02*
D03*
X108324D02*
D03*
Y95989D02*
D03*
X101434D02*
D03*
X81749Y82209D02*
D03*
X88639D02*
D03*
Y95989D02*
D03*
X81749D02*
D03*
X62064Y82209D02*
D03*
X68954D02*
D03*
Y95989D02*
D03*
X62064D02*
D03*
X68920Y76334D02*
D03*
X62030D02*
D03*
Y62554D02*
D03*
X68920D02*
D03*
X88605Y76334D02*
D03*
X81715D02*
D03*
Y62554D02*
D03*
X88605D02*
D03*
X108290Y76334D02*
D03*
X101400D02*
D03*
Y62554D02*
D03*
X108290D02*
D03*
X127975Y76334D02*
D03*
X121085D02*
D03*
Y62554D02*
D03*
X127975D02*
D03*
X147660Y76334D02*
D03*
X140770D02*
D03*
Y62554D02*
D03*
X147660D02*
D03*
X167345Y76334D02*
D03*
X160455D02*
D03*
Y62554D02*
D03*
X167345D02*
D03*
X187030Y76334D02*
D03*
X180140D02*
D03*
Y62554D02*
D03*
X187030D02*
D03*
X206715Y76334D02*
D03*
X199825D02*
D03*
Y62554D02*
D03*
X206715D02*
D03*
X226400Y76334D02*
D03*
X219510D02*
D03*
Y62554D02*
D03*
X226400D02*
D03*
X246085Y76334D02*
D03*
X239195D02*
D03*
Y62554D02*
D03*
X246085D02*
D03*
X265770Y76334D02*
D03*
X258880D02*
D03*
Y62554D02*
D03*
X265770D02*
D03*
X285455Y76334D02*
D03*
X278565D02*
D03*
Y62554D02*
D03*
X285455D02*
D03*
X305140Y76334D02*
D03*
X298251D02*
D03*
Y62554D02*
D03*
X305140D02*
D03*
X298285Y42839D02*
D03*
X305175D02*
D03*
Y56619D02*
D03*
X298285D02*
D03*
X278600Y42839D02*
D03*
X285490D02*
D03*
Y56619D02*
D03*
X278600D02*
D03*
X258915Y42839D02*
D03*
X265805D02*
D03*
Y56619D02*
D03*
X258915D02*
D03*
X239230Y42839D02*
D03*
X246120D02*
D03*
Y56619D02*
D03*
X239230D02*
D03*
X219545Y42839D02*
D03*
X226435D02*
D03*
Y56619D02*
D03*
X219545D02*
D03*
X199859Y42839D02*
D03*
X206750D02*
D03*
Y56619D02*
D03*
X199859D02*
D03*
X180175Y42839D02*
D03*
X187065D02*
D03*
Y56619D02*
D03*
X180175D02*
D03*
X160489Y42839D02*
D03*
X167379D02*
D03*
Y56619D02*
D03*
X160489D02*
D03*
X140804Y42839D02*
D03*
X147694D02*
D03*
Y56619D02*
D03*
X140804D02*
D03*
X121119Y42839D02*
D03*
X128009D02*
D03*
Y56619D02*
D03*
X121119D02*
D03*
X101434Y42839D02*
D03*
X108324D02*
D03*
Y56619D02*
D03*
X101434D02*
D03*
X81749Y42839D02*
D03*
X88639D02*
D03*
Y56619D02*
D03*
X81749D02*
D03*
X88605Y36964D02*
D03*
X81715D02*
D03*
Y23184D02*
D03*
X88605D02*
D03*
X108290Y36964D02*
D03*
X101400D02*
D03*
Y23184D02*
D03*
X108290D02*
D03*
X127975Y36964D02*
D03*
X121085D02*
D03*
Y23184D02*
D03*
X127975D02*
D03*
X147660Y36964D02*
D03*
X140770D02*
D03*
Y23184D02*
D03*
X147660D02*
D03*
X167345Y36964D02*
D03*
X160455D02*
D03*
Y23184D02*
D03*
X167345D02*
D03*
X187030Y36964D02*
D03*
X180140D02*
D03*
Y23184D02*
D03*
X187030D02*
D03*
X206715Y36964D02*
D03*
X199825D02*
D03*
Y23184D02*
D03*
X206715D02*
D03*
X226400Y36964D02*
D03*
X219510D02*
D03*
Y23184D02*
D03*
X226400D02*
D03*
X246085Y36964D02*
D03*
X239195D02*
D03*
Y23184D02*
D03*
X246085D02*
D03*
X265770Y36964D02*
D03*
X258880D02*
D03*
Y23184D02*
D03*
X265770D02*
D03*
X285455Y36964D02*
D03*
X278565D02*
D03*
Y23184D02*
D03*
X285455D02*
D03*
X305140Y36964D02*
D03*
X298251D02*
D03*
Y23184D02*
D03*
X305140D02*
D03*
X278600Y3469D02*
D03*
X285490D02*
D03*
Y17249D02*
D03*
X278600D02*
D03*
X258915Y3469D02*
D03*
X265805D02*
D03*
Y17249D02*
D03*
X258915D02*
D03*
X239230Y3469D02*
D03*
X246120D02*
D03*
Y17249D02*
D03*
X239230D02*
D03*
X219545Y3469D02*
D03*
X226435D02*
D03*
Y17249D02*
D03*
X219545D02*
D03*
X199859Y3469D02*
D03*
X206750D02*
D03*
Y17249D02*
D03*
X199859D02*
D03*
X180175Y3469D02*
D03*
X187065D02*
D03*
Y17249D02*
D03*
X180175D02*
D03*
X160489Y3469D02*
D03*
X167379D02*
D03*
Y17249D02*
D03*
X160489D02*
D03*
X140804Y3469D02*
D03*
X147694D02*
D03*
Y17249D02*
D03*
X140804D02*
D03*
X121119Y3469D02*
D03*
X128009D02*
D03*
Y17249D02*
D03*
X121119D02*
D03*
X101434Y3469D02*
D03*
X108324D02*
D03*
Y17249D02*
D03*
X101434D02*
D03*
X577812Y436540D02*
D03*
X584702D02*
D03*
Y450320D02*
D03*
X577812D02*
D03*
X558127Y436540D02*
D03*
X565017D02*
D03*
Y450320D02*
D03*
X558127D02*
D03*
X538442Y436540D02*
D03*
X545332D02*
D03*
Y450320D02*
D03*
X538442D02*
D03*
X518757Y436540D02*
D03*
X525647D02*
D03*
Y450320D02*
D03*
X518757D02*
D03*
X499072Y436540D02*
D03*
X505962D02*
D03*
Y450320D02*
D03*
X499072D02*
D03*
X446873Y430665D02*
D03*
X439983D02*
D03*
Y416885D02*
D03*
X446873D02*
D03*
X466558Y430665D02*
D03*
X459668D02*
D03*
Y416885D02*
D03*
X466558D02*
D03*
X486243Y430665D02*
D03*
X479353D02*
D03*
Y416885D02*
D03*
X486243D02*
D03*
X505928Y430665D02*
D03*
X499038D02*
D03*
Y416885D02*
D03*
X505928D02*
D03*
X525613Y430665D02*
D03*
X518723D02*
D03*
Y416885D02*
D03*
X525613D02*
D03*
X545298Y430665D02*
D03*
X538408D02*
D03*
Y416885D02*
D03*
X545298D02*
D03*
X564983Y430665D02*
D03*
X558093D02*
D03*
Y416885D02*
D03*
X564983D02*
D03*
X584668Y430665D02*
D03*
X577778D02*
D03*
Y416885D02*
D03*
X584668D02*
D03*
X604353Y430665D02*
D03*
X597463D02*
D03*
Y416885D02*
D03*
X604353D02*
D03*
X617182Y397170D02*
D03*
X624072D02*
D03*
Y410950D02*
D03*
X617182D02*
D03*
X597497Y397170D02*
D03*
X604387D02*
D03*
Y410950D02*
D03*
X597497D02*
D03*
X577812Y397170D02*
D03*
X584702D02*
D03*
Y410950D02*
D03*
X577812D02*
D03*
X558127Y397170D02*
D03*
X565017D02*
D03*
Y410950D02*
D03*
X558127D02*
D03*
X538442Y397170D02*
D03*
X545332D02*
D03*
Y410950D02*
D03*
X538442D02*
D03*
X518757Y397170D02*
D03*
X525647D02*
D03*
Y410950D02*
D03*
X518757D02*
D03*
X499072Y397170D02*
D03*
X505962D02*
D03*
Y410950D02*
D03*
X499072D02*
D03*
X479387Y397170D02*
D03*
X486277D02*
D03*
Y410950D02*
D03*
X479387D02*
D03*
X459702Y397170D02*
D03*
X466592D02*
D03*
Y410950D02*
D03*
X459702D02*
D03*
X440017Y397170D02*
D03*
X446907D02*
D03*
Y410950D02*
D03*
X440017D02*
D03*
X420332Y397170D02*
D03*
X427222D02*
D03*
Y410950D02*
D03*
X420332D02*
D03*
X400647Y397170D02*
D03*
X407537D02*
D03*
Y410950D02*
D03*
X400647D02*
D03*
X380962Y397170D02*
D03*
X387852D02*
D03*
Y410950D02*
D03*
X380962D02*
D03*
X348448Y391295D02*
D03*
X341558D02*
D03*
Y377515D02*
D03*
X348448D02*
D03*
X368133Y391295D02*
D03*
X361243D02*
D03*
Y377515D02*
D03*
X368133D02*
D03*
X387818Y391295D02*
D03*
X380928D02*
D03*
Y377515D02*
D03*
X387818D02*
D03*
X407503Y391295D02*
D03*
X400613D02*
D03*
Y377515D02*
D03*
X407503D02*
D03*
X427188Y391295D02*
D03*
X420298D02*
D03*
Y377515D02*
D03*
X427188D02*
D03*
X446873Y391295D02*
D03*
X439983D02*
D03*
Y377515D02*
D03*
X446873D02*
D03*
X466558Y391295D02*
D03*
X459668D02*
D03*
Y377515D02*
D03*
X466558D02*
D03*
X486243Y391295D02*
D03*
X479353D02*
D03*
Y377515D02*
D03*
X486243D02*
D03*
X505928Y391295D02*
D03*
X499038D02*
D03*
Y377515D02*
D03*
X505928D02*
D03*
X525613Y391295D02*
D03*
X518723D02*
D03*
Y377515D02*
D03*
X525613D02*
D03*
X545298Y391295D02*
D03*
X538408D02*
D03*
Y377515D02*
D03*
X545298D02*
D03*
X564983Y391295D02*
D03*
X558093D02*
D03*
Y377515D02*
D03*
X564983D02*
D03*
X584668Y391295D02*
D03*
X577778D02*
D03*
Y377515D02*
D03*
X584668D02*
D03*
X604353Y391295D02*
D03*
X597463D02*
D03*
Y377515D02*
D03*
X604353D02*
D03*
X624038Y391295D02*
D03*
X617148D02*
D03*
Y377515D02*
D03*
X624038D02*
D03*
X643723Y391295D02*
D03*
X636833D02*
D03*
Y377515D02*
D03*
X643723D02*
D03*
X656553Y357800D02*
D03*
X663443D02*
D03*
Y371580D02*
D03*
X656553D02*
D03*
X636867Y357800D02*
D03*
X643757D02*
D03*
Y371580D02*
D03*
X636867D02*
D03*
X617182Y357800D02*
D03*
X624072D02*
D03*
Y371580D02*
D03*
X617182D02*
D03*
X597497Y357800D02*
D03*
X604387D02*
D03*
Y371580D02*
D03*
X597497D02*
D03*
X577812Y357800D02*
D03*
X584702D02*
D03*
Y371580D02*
D03*
X577812D02*
D03*
X558127Y357800D02*
D03*
X565017D02*
D03*
Y371580D02*
D03*
X558127D02*
D03*
X538442Y357800D02*
D03*
X545332D02*
D03*
Y371580D02*
D03*
X538442D02*
D03*
X518757Y357800D02*
D03*
X525647D02*
D03*
Y371580D02*
D03*
X518757D02*
D03*
X499072Y357800D02*
D03*
X505962D02*
D03*
Y371580D02*
D03*
X499072D02*
D03*
X479387Y357800D02*
D03*
X486277D02*
D03*
Y371580D02*
D03*
X479387D02*
D03*
X459702Y357800D02*
D03*
X466592D02*
D03*
Y371580D02*
D03*
X459702D02*
D03*
X440017Y357800D02*
D03*
X446907D02*
D03*
Y371580D02*
D03*
X440017D02*
D03*
X420332Y357800D02*
D03*
X427222D02*
D03*
Y371580D02*
D03*
X420332D02*
D03*
X400647Y357800D02*
D03*
X407537D02*
D03*
Y371580D02*
D03*
X400647D02*
D03*
X380962Y357800D02*
D03*
X387852D02*
D03*
Y371580D02*
D03*
X380962D02*
D03*
X361277Y357800D02*
D03*
X368167D02*
D03*
Y371580D02*
D03*
X361277D02*
D03*
X341592Y357800D02*
D03*
X348482D02*
D03*
Y371580D02*
D03*
X341592D02*
D03*
X321907Y357800D02*
D03*
X328797D02*
D03*
Y371580D02*
D03*
X321907D02*
D03*
X328763Y351925D02*
D03*
X321872D02*
D03*
Y338145D02*
D03*
X328763D02*
D03*
X348448Y351925D02*
D03*
X341558D02*
D03*
Y338145D02*
D03*
X348448D02*
D03*
X368133Y351925D02*
D03*
X361243D02*
D03*
Y338145D02*
D03*
X368133D02*
D03*
X387818Y351925D02*
D03*
X380928D02*
D03*
Y338145D02*
D03*
X387818D02*
D03*
X407503Y351925D02*
D03*
X400613D02*
D03*
Y338145D02*
D03*
X407503D02*
D03*
X427188Y351925D02*
D03*
X420298D02*
D03*
Y338145D02*
D03*
X427188D02*
D03*
X446873Y351925D02*
D03*
X439983D02*
D03*
Y338145D02*
D03*
X446873D02*
D03*
X466558Y351925D02*
D03*
X459668D02*
D03*
Y338145D02*
D03*
X466558D02*
D03*
X486243Y351925D02*
D03*
X479353D02*
D03*
Y338145D02*
D03*
X486243D02*
D03*
X505928Y351925D02*
D03*
X499038D02*
D03*
Y338145D02*
D03*
X505928D02*
D03*
X525613Y351925D02*
D03*
X518723D02*
D03*
Y338145D02*
D03*
X525613D02*
D03*
X545298Y351925D02*
D03*
X538408D02*
D03*
Y338145D02*
D03*
X545298D02*
D03*
X564983Y351925D02*
D03*
X558093D02*
D03*
Y338145D02*
D03*
X564983D02*
D03*
X584668Y351925D02*
D03*
X577778D02*
D03*
Y338145D02*
D03*
X584668D02*
D03*
X604353Y351925D02*
D03*
X597463D02*
D03*
Y338145D02*
D03*
X604353D02*
D03*
X624038Y351925D02*
D03*
X617148D02*
D03*
Y338145D02*
D03*
X624038D02*
D03*
X643723Y351925D02*
D03*
X636833D02*
D03*
Y338145D02*
D03*
X643723D02*
D03*
X663408Y351925D02*
D03*
X656518D02*
D03*
Y338145D02*
D03*
X663408D02*
D03*
X676237Y318430D02*
D03*
X683127D02*
D03*
Y332210D02*
D03*
X676237D02*
D03*
X656553Y318430D02*
D03*
X663443D02*
D03*
Y332210D02*
D03*
X656553D02*
D03*
X636867Y318430D02*
D03*
X643757D02*
D03*
Y332210D02*
D03*
X636867D02*
D03*
X617182Y318430D02*
D03*
X624072D02*
D03*
Y332210D02*
D03*
X617182D02*
D03*
X597497Y318430D02*
D03*
X604387D02*
D03*
Y332210D02*
D03*
X597497D02*
D03*
X577812Y318430D02*
D03*
X584702D02*
D03*
Y332210D02*
D03*
X577812D02*
D03*
X558127Y318430D02*
D03*
X565017D02*
D03*
Y332210D02*
D03*
X558127D02*
D03*
X538442Y318430D02*
D03*
X545332D02*
D03*
Y332210D02*
D03*
X538442D02*
D03*
X518757Y318430D02*
D03*
X525647D02*
D03*
Y332210D02*
D03*
X518757D02*
D03*
X499072Y318430D02*
D03*
X505962D02*
D03*
Y332210D02*
D03*
X499072D02*
D03*
X479387Y318430D02*
D03*
X486277D02*
D03*
Y332210D02*
D03*
X479387D02*
D03*
X459702Y318430D02*
D03*
X466592D02*
D03*
Y332210D02*
D03*
X459702D02*
D03*
X440017Y318430D02*
D03*
X446907D02*
D03*
Y332210D02*
D03*
X440017D02*
D03*
X420332Y318430D02*
D03*
X427222D02*
D03*
Y332210D02*
D03*
X420332D02*
D03*
X400647Y318430D02*
D03*
X407537D02*
D03*
Y332210D02*
D03*
X400647D02*
D03*
X380962Y318430D02*
D03*
X387852D02*
D03*
Y332210D02*
D03*
X380962D02*
D03*
X361277Y318430D02*
D03*
X368167D02*
D03*
Y332210D02*
D03*
X361277D02*
D03*
X341592Y318430D02*
D03*
X348482D02*
D03*
Y332210D02*
D03*
X341592D02*
D03*
X321907Y318430D02*
D03*
X328797D02*
D03*
Y332210D02*
D03*
X321907D02*
D03*
X328763Y312555D02*
D03*
X321872D02*
D03*
Y298775D02*
D03*
X328763D02*
D03*
X348448Y312555D02*
D03*
X341558D02*
D03*
Y298775D02*
D03*
X348448D02*
D03*
X368133Y312555D02*
D03*
X361243D02*
D03*
Y298775D02*
D03*
X368133D02*
D03*
X387818Y312555D02*
D03*
X380928D02*
D03*
Y298775D02*
D03*
X387818D02*
D03*
X407503Y312555D02*
D03*
X400613D02*
D03*
Y298775D02*
D03*
X407503D02*
D03*
X427188Y312555D02*
D03*
X420298D02*
D03*
Y298775D02*
D03*
X427188D02*
D03*
X446873Y312555D02*
D03*
X439983D02*
D03*
Y298775D02*
D03*
X446873D02*
D03*
X466558Y312555D02*
D03*
X459668D02*
D03*
Y298775D02*
D03*
X466558D02*
D03*
X486243Y312555D02*
D03*
X479353D02*
D03*
Y298775D02*
D03*
X486243D02*
D03*
X505928Y312555D02*
D03*
X499038D02*
D03*
Y298775D02*
D03*
X505928D02*
D03*
X525613Y312555D02*
D03*
X518723D02*
D03*
Y298775D02*
D03*
X525613D02*
D03*
X545298Y312555D02*
D03*
X538408D02*
D03*
Y298775D02*
D03*
X545298D02*
D03*
X564983Y312555D02*
D03*
X558093D02*
D03*
Y298775D02*
D03*
X564983D02*
D03*
X584668Y312555D02*
D03*
X577778D02*
D03*
Y298775D02*
D03*
X584668D02*
D03*
X604353Y312555D02*
D03*
X597463D02*
D03*
Y298775D02*
D03*
X604353D02*
D03*
X624038Y312555D02*
D03*
X617148D02*
D03*
Y298775D02*
D03*
X624038D02*
D03*
X643723Y312555D02*
D03*
X636833D02*
D03*
Y298775D02*
D03*
X643723D02*
D03*
X663408Y312555D02*
D03*
X656518D02*
D03*
Y298775D02*
D03*
X663408D02*
D03*
X683093Y312555D02*
D03*
X676203D02*
D03*
Y298775D02*
D03*
X683093D02*
D03*
X656553Y279060D02*
D03*
X663443D02*
D03*
Y292840D02*
D03*
X656553D02*
D03*
X636867Y279060D02*
D03*
X643757D02*
D03*
Y292840D02*
D03*
X636867D02*
D03*
X617182Y279060D02*
D03*
X624072D02*
D03*
Y292840D02*
D03*
X617182D02*
D03*
X597497Y279060D02*
D03*
X604387D02*
D03*
Y292840D02*
D03*
X597497D02*
D03*
X577812Y279060D02*
D03*
X584702D02*
D03*
Y292840D02*
D03*
X577812D02*
D03*
X558127Y279060D02*
D03*
X565017D02*
D03*
Y292840D02*
D03*
X558127D02*
D03*
X538442Y279060D02*
D03*
X545332D02*
D03*
Y292840D02*
D03*
X538442D02*
D03*
X518757Y279060D02*
D03*
X525647D02*
D03*
Y292840D02*
D03*
X518757D02*
D03*
X499072Y279060D02*
D03*
X505962D02*
D03*
Y292840D02*
D03*
X499072D02*
D03*
X479387Y279060D02*
D03*
X486277D02*
D03*
Y292840D02*
D03*
X479387D02*
D03*
X459702Y279060D02*
D03*
X466592D02*
D03*
Y292840D02*
D03*
X459702D02*
D03*
X440017Y279060D02*
D03*
X446907D02*
D03*
Y292840D02*
D03*
X440017D02*
D03*
X420332Y279060D02*
D03*
X427222D02*
D03*
Y292840D02*
D03*
X420332D02*
D03*
X400647Y279060D02*
D03*
X407537D02*
D03*
Y292840D02*
D03*
X400647D02*
D03*
X380962Y279060D02*
D03*
X387852D02*
D03*
Y292840D02*
D03*
X380962D02*
D03*
X361277Y279060D02*
D03*
X368167D02*
D03*
Y292840D02*
D03*
X361277D02*
D03*
X341592Y279060D02*
D03*
X348482D02*
D03*
Y292840D02*
D03*
X341592D02*
D03*
X321907Y279060D02*
D03*
X328797D02*
D03*
Y292840D02*
D03*
X321907D02*
D03*
X328763Y273184D02*
D03*
X321872D02*
D03*
Y259404D02*
D03*
X328763D02*
D03*
X348448Y273184D02*
D03*
X341558D02*
D03*
Y259404D02*
D03*
X348448D02*
D03*
X368133Y273184D02*
D03*
X361243D02*
D03*
Y259404D02*
D03*
X368133D02*
D03*
X387818Y273184D02*
D03*
X380928D02*
D03*
Y259404D02*
D03*
X387818D02*
D03*
X407503Y273184D02*
D03*
X400613D02*
D03*
Y259404D02*
D03*
X407503D02*
D03*
X427188Y273184D02*
D03*
X420298D02*
D03*
Y259404D02*
D03*
X427188D02*
D03*
X446873Y273184D02*
D03*
X439983D02*
D03*
Y259404D02*
D03*
X446873D02*
D03*
X466558Y273184D02*
D03*
X459668D02*
D03*
Y259404D02*
D03*
X466558D02*
D03*
X486243Y273184D02*
D03*
X479353D02*
D03*
Y259404D02*
D03*
X486243D02*
D03*
X505928Y273184D02*
D03*
X499038D02*
D03*
Y259404D02*
D03*
X505928D02*
D03*
X525613Y273184D02*
D03*
X518723D02*
D03*
Y259404D02*
D03*
X525613D02*
D03*
X545298Y273184D02*
D03*
X538408D02*
D03*
Y259404D02*
D03*
X545298D02*
D03*
X564983Y273184D02*
D03*
X558093D02*
D03*
Y259404D02*
D03*
X564983D02*
D03*
X584668Y273184D02*
D03*
X577778D02*
D03*
Y259404D02*
D03*
X584668D02*
D03*
X604353Y273184D02*
D03*
X597463D02*
D03*
Y259404D02*
D03*
X604353D02*
D03*
X624038Y273184D02*
D03*
X617148D02*
D03*
Y259404D02*
D03*
X624038D02*
D03*
X643723Y273184D02*
D03*
X636833D02*
D03*
Y259404D02*
D03*
X643723D02*
D03*
X663345Y273184D02*
D03*
X656455D02*
D03*
Y259404D02*
D03*
X663345D02*
D03*
X656553Y239689D02*
D03*
X663443D02*
D03*
Y253469D02*
D03*
X656553D02*
D03*
X636867Y239689D02*
D03*
X643757D02*
D03*
Y253469D02*
D03*
X636867D02*
D03*
X617182Y239689D02*
D03*
X624072D02*
D03*
Y253469D02*
D03*
X617182D02*
D03*
X597497Y239689D02*
D03*
X604387D02*
D03*
Y253469D02*
D03*
X597497D02*
D03*
X577812Y239689D02*
D03*
X584702D02*
D03*
Y253469D02*
D03*
X577812D02*
D03*
X558127Y239689D02*
D03*
X565017D02*
D03*
Y253469D02*
D03*
X558127D02*
D03*
X538442Y239689D02*
D03*
X545332D02*
D03*
Y253469D02*
D03*
X538442D02*
D03*
X518757Y239689D02*
D03*
X525647D02*
D03*
Y253469D02*
D03*
X518757D02*
D03*
X499072Y239689D02*
D03*
X505962D02*
D03*
Y253469D02*
D03*
X499072D02*
D03*
X479387Y239689D02*
D03*
X486277D02*
D03*
Y253469D02*
D03*
X479387D02*
D03*
X459702Y239689D02*
D03*
X466592D02*
D03*
Y253469D02*
D03*
X459702D02*
D03*
X440017Y239689D02*
D03*
X446907D02*
D03*
Y253469D02*
D03*
X440017D02*
D03*
X420332Y239689D02*
D03*
X427222D02*
D03*
Y253469D02*
D03*
X420332D02*
D03*
X400647Y239689D02*
D03*
X407537D02*
D03*
Y253469D02*
D03*
X400647D02*
D03*
X380962Y239689D02*
D03*
X387852D02*
D03*
Y253469D02*
D03*
X380962D02*
D03*
X361277Y239689D02*
D03*
X368167D02*
D03*
Y253469D02*
D03*
X361277D02*
D03*
X341592Y239689D02*
D03*
X348482D02*
D03*
Y253469D02*
D03*
X341592D02*
D03*
X321907Y239689D02*
D03*
X328797D02*
D03*
Y253469D02*
D03*
X321907D02*
D03*
X328763Y233814D02*
D03*
X321872D02*
D03*
Y220035D02*
D03*
X328763D02*
D03*
X348448Y233814D02*
D03*
X341558D02*
D03*
Y220035D02*
D03*
X348448D02*
D03*
X368133Y233814D02*
D03*
X361243D02*
D03*
Y220035D02*
D03*
X368133D02*
D03*
X387818Y233814D02*
D03*
X380928D02*
D03*
Y220035D02*
D03*
X387818D02*
D03*
X407503Y233814D02*
D03*
X400613D02*
D03*
Y220035D02*
D03*
X407503D02*
D03*
X427188Y233814D02*
D03*
X420298D02*
D03*
Y220035D02*
D03*
X427188D02*
D03*
X446873Y233814D02*
D03*
X439983D02*
D03*
Y220035D02*
D03*
X446873D02*
D03*
X466558Y233814D02*
D03*
X459668D02*
D03*
Y220035D02*
D03*
X466558D02*
D03*
X486243Y233814D02*
D03*
X479353D02*
D03*
Y220035D02*
D03*
X486243D02*
D03*
X505928Y233814D02*
D03*
X499038D02*
D03*
Y220035D02*
D03*
X505928D02*
D03*
X525613Y233814D02*
D03*
X518723D02*
D03*
Y220035D02*
D03*
X525613D02*
D03*
X545298Y233814D02*
D03*
X538408D02*
D03*
Y220035D02*
D03*
X545298D02*
D03*
X564983Y233814D02*
D03*
X558093D02*
D03*
Y220035D02*
D03*
X564983D02*
D03*
X584668Y233814D02*
D03*
X577778D02*
D03*
Y220035D02*
D03*
X584668D02*
D03*
X604353Y233814D02*
D03*
X597463D02*
D03*
Y220035D02*
D03*
X604353D02*
D03*
X624038Y233814D02*
D03*
X617148D02*
D03*
Y220035D02*
D03*
X624038D02*
D03*
X643723Y233814D02*
D03*
X636833D02*
D03*
Y220035D02*
D03*
X643723D02*
D03*
X636867Y200319D02*
D03*
X643757D02*
D03*
Y214099D02*
D03*
X636867D02*
D03*
X617182Y200319D02*
D03*
X624072D02*
D03*
Y214099D02*
D03*
X617182D02*
D03*
X597497Y200319D02*
D03*
X604387D02*
D03*
Y214099D02*
D03*
X597497D02*
D03*
X577812Y200319D02*
D03*
X584702D02*
D03*
Y214099D02*
D03*
X577812D02*
D03*
X558127Y200319D02*
D03*
X565017D02*
D03*
Y214099D02*
D03*
X558127D02*
D03*
X538442Y200319D02*
D03*
X545332D02*
D03*
Y214099D02*
D03*
X538442D02*
D03*
X518757Y200319D02*
D03*
X525647D02*
D03*
Y214099D02*
D03*
X518757D02*
D03*
X499072Y200319D02*
D03*
X505962D02*
D03*
Y214099D02*
D03*
X499072D02*
D03*
X479387Y200319D02*
D03*
X486277D02*
D03*
Y214099D02*
D03*
X479387D02*
D03*
X459702Y200319D02*
D03*
X466592D02*
D03*
Y214099D02*
D03*
X459702D02*
D03*
X440017Y200319D02*
D03*
X446907D02*
D03*
Y214099D02*
D03*
X440017D02*
D03*
X420332Y200319D02*
D03*
X427222D02*
D03*
Y214099D02*
D03*
X420332D02*
D03*
X400647Y200319D02*
D03*
X407537D02*
D03*
Y214099D02*
D03*
X400647D02*
D03*
X380962Y200319D02*
D03*
X387852D02*
D03*
Y214099D02*
D03*
X380962D02*
D03*
X361277Y200319D02*
D03*
X368167D02*
D03*
Y214099D02*
D03*
X361277D02*
D03*
X341592Y200319D02*
D03*
X348482D02*
D03*
Y214099D02*
D03*
X341592D02*
D03*
X321907Y200319D02*
D03*
X328797D02*
D03*
Y214099D02*
D03*
X321907D02*
D03*
X328763Y194444D02*
D03*
X321872D02*
D03*
Y180664D02*
D03*
X328763D02*
D03*
X348448Y194444D02*
D03*
X341558D02*
D03*
Y180664D02*
D03*
X348448D02*
D03*
X368133Y194444D02*
D03*
X361243D02*
D03*
Y180664D02*
D03*
X368133D02*
D03*
X387818Y194444D02*
D03*
X380928D02*
D03*
Y180664D02*
D03*
X387818D02*
D03*
X407503Y194444D02*
D03*
X400613D02*
D03*
Y180664D02*
D03*
X407503D02*
D03*
X427188Y194444D02*
D03*
X420298D02*
D03*
Y180664D02*
D03*
X427188D02*
D03*
X446873Y194444D02*
D03*
X439983D02*
D03*
Y180664D02*
D03*
X446873D02*
D03*
X466558Y194444D02*
D03*
X459668D02*
D03*
Y180664D02*
D03*
X466558D02*
D03*
X486243Y194444D02*
D03*
X479353D02*
D03*
Y180664D02*
D03*
X486243D02*
D03*
X505928Y194444D02*
D03*
X499038D02*
D03*
Y180664D02*
D03*
X505928D02*
D03*
X525613Y194444D02*
D03*
X518723D02*
D03*
Y180664D02*
D03*
X525613D02*
D03*
X545298Y194444D02*
D03*
X538408D02*
D03*
Y180664D02*
D03*
X545298D02*
D03*
X564983Y194444D02*
D03*
X558093D02*
D03*
Y180664D02*
D03*
X564983D02*
D03*
X584668Y194444D02*
D03*
X577778D02*
D03*
Y180664D02*
D03*
X584668D02*
D03*
X604353Y194444D02*
D03*
X597463D02*
D03*
Y180664D02*
D03*
X604353D02*
D03*
X624038Y194444D02*
D03*
X617148D02*
D03*
Y180664D02*
D03*
X624038D02*
D03*
X617182Y160949D02*
D03*
X624072D02*
D03*
Y174729D02*
D03*
X617182D02*
D03*
X597497Y160949D02*
D03*
X604387D02*
D03*
Y174729D02*
D03*
X597497D02*
D03*
X577812Y160949D02*
D03*
X584702D02*
D03*
Y174729D02*
D03*
X577812D02*
D03*
X558127Y160949D02*
D03*
X565017D02*
D03*
Y174729D02*
D03*
X558127D02*
D03*
X538442Y160949D02*
D03*
X545332D02*
D03*
Y174729D02*
D03*
X538442D02*
D03*
X518757Y160949D02*
D03*
X525647D02*
D03*
Y174729D02*
D03*
X518757D02*
D03*
X499072Y160949D02*
D03*
X505962D02*
D03*
Y174729D02*
D03*
X499072D02*
D03*
X479387Y160949D02*
D03*
X486277D02*
D03*
Y174729D02*
D03*
X479387D02*
D03*
X459702Y160949D02*
D03*
X466592D02*
D03*
Y174729D02*
D03*
X459702D02*
D03*
X440017Y160949D02*
D03*
X446907D02*
D03*
Y174729D02*
D03*
X440017D02*
D03*
X420332Y160949D02*
D03*
X427222D02*
D03*
Y174729D02*
D03*
X420332D02*
D03*
X400647Y160949D02*
D03*
X407537D02*
D03*
Y174729D02*
D03*
X400647D02*
D03*
X380962Y160949D02*
D03*
X387852D02*
D03*
Y174729D02*
D03*
X380962D02*
D03*
X361277Y160949D02*
D03*
X368167D02*
D03*
Y174729D02*
D03*
X361277D02*
D03*
X341592Y160949D02*
D03*
X348482D02*
D03*
Y174729D02*
D03*
X341592D02*
D03*
X321907Y160949D02*
D03*
X328797D02*
D03*
Y174729D02*
D03*
X321907D02*
D03*
X328763Y155074D02*
D03*
X321872D02*
D03*
Y141294D02*
D03*
X328763D02*
D03*
X348448Y155074D02*
D03*
X341558D02*
D03*
Y141294D02*
D03*
X348448D02*
D03*
X368133Y155074D02*
D03*
X361243D02*
D03*
Y141294D02*
D03*
X368133D02*
D03*
X387818Y155074D02*
D03*
X380928D02*
D03*
Y141294D02*
D03*
X387818D02*
D03*
X407503Y155074D02*
D03*
X400613D02*
D03*
Y141294D02*
D03*
X407503D02*
D03*
X427188Y155074D02*
D03*
X420298D02*
D03*
Y141294D02*
D03*
X427188D02*
D03*
X446873Y155074D02*
D03*
X439983D02*
D03*
Y141294D02*
D03*
X446873D02*
D03*
X466558Y155074D02*
D03*
X459668D02*
D03*
Y141294D02*
D03*
X466558D02*
D03*
X486243Y155074D02*
D03*
X479353D02*
D03*
Y141294D02*
D03*
X486243D02*
D03*
X505928Y155074D02*
D03*
X499038D02*
D03*
Y141294D02*
D03*
X505928D02*
D03*
X525613Y155074D02*
D03*
X518723D02*
D03*
Y141294D02*
D03*
X525613D02*
D03*
X545298Y155074D02*
D03*
X538408D02*
D03*
Y141294D02*
D03*
X545298D02*
D03*
X564983Y155074D02*
D03*
X558093D02*
D03*
Y141294D02*
D03*
X564983D02*
D03*
X584668Y155074D02*
D03*
X577778D02*
D03*
Y141294D02*
D03*
X584668D02*
D03*
X604353Y155074D02*
D03*
X597463D02*
D03*
Y141294D02*
D03*
X604353D02*
D03*
X597497Y121579D02*
D03*
X604387D02*
D03*
Y135359D02*
D03*
X597497D02*
D03*
X577812Y121579D02*
D03*
X584702D02*
D03*
Y135359D02*
D03*
X577812D02*
D03*
X558127Y121579D02*
D03*
X565017D02*
D03*
Y135359D02*
D03*
X558127D02*
D03*
X538442Y121579D02*
D03*
X545332D02*
D03*
Y135359D02*
D03*
X538442D02*
D03*
X518757Y121579D02*
D03*
X525647D02*
D03*
Y135359D02*
D03*
X518757D02*
D03*
X499072Y121579D02*
D03*
X505962D02*
D03*
Y135359D02*
D03*
X499072D02*
D03*
X479387Y121579D02*
D03*
X486277D02*
D03*
Y135359D02*
D03*
X479387D02*
D03*
X459702Y121579D02*
D03*
X466592D02*
D03*
Y135359D02*
D03*
X459702D02*
D03*
X440017Y121579D02*
D03*
X446907D02*
D03*
Y135359D02*
D03*
X440017D02*
D03*
X420332Y121579D02*
D03*
X427222D02*
D03*
Y135359D02*
D03*
X420332D02*
D03*
X400647Y121579D02*
D03*
X407537D02*
D03*
Y135359D02*
D03*
X400647D02*
D03*
X380962Y121579D02*
D03*
X387852D02*
D03*
Y135359D02*
D03*
X380962D02*
D03*
X361277Y121579D02*
D03*
X368167D02*
D03*
Y135359D02*
D03*
X361277D02*
D03*
X341592Y121579D02*
D03*
X348482D02*
D03*
Y135359D02*
D03*
X341592D02*
D03*
X321907Y121579D02*
D03*
X328797D02*
D03*
Y135359D02*
D03*
X321907D02*
D03*
X328763Y115704D02*
D03*
X321872D02*
D03*
Y101924D02*
D03*
X328763D02*
D03*
X348448Y115704D02*
D03*
X341558D02*
D03*
Y101924D02*
D03*
X348448D02*
D03*
X368133Y115704D02*
D03*
X361243D02*
D03*
Y101924D02*
D03*
X368133D02*
D03*
X387818Y115704D02*
D03*
X380928D02*
D03*
Y101924D02*
D03*
X387818D02*
D03*
X407503Y115704D02*
D03*
X400613D02*
D03*
Y101924D02*
D03*
X407503D02*
D03*
X427188Y115704D02*
D03*
X420298D02*
D03*
Y101924D02*
D03*
X427188D02*
D03*
X446873Y115704D02*
D03*
X439983D02*
D03*
Y101924D02*
D03*
X446873D02*
D03*
X466558Y115704D02*
D03*
X459668D02*
D03*
Y101924D02*
D03*
X466558D02*
D03*
X486243Y115704D02*
D03*
X479353D02*
D03*
Y101924D02*
D03*
X486243D02*
D03*
X505928Y115704D02*
D03*
X499038D02*
D03*
Y101924D02*
D03*
X505928D02*
D03*
X525613Y115704D02*
D03*
X518723D02*
D03*
Y101924D02*
D03*
X525613D02*
D03*
X545298Y115704D02*
D03*
X538408D02*
D03*
Y101924D02*
D03*
X545298D02*
D03*
X564983Y115704D02*
D03*
X558093D02*
D03*
Y101924D02*
D03*
X564983D02*
D03*
X584668Y115704D02*
D03*
X577778D02*
D03*
Y101924D02*
D03*
X584668D02*
D03*
X577812Y82209D02*
D03*
X584702D02*
D03*
Y95989D02*
D03*
X577812D02*
D03*
X558127Y82209D02*
D03*
X565017D02*
D03*
Y95989D02*
D03*
X558127D02*
D03*
X538442Y82209D02*
D03*
X545332D02*
D03*
Y95989D02*
D03*
X538442D02*
D03*
X518757Y82209D02*
D03*
X525647D02*
D03*
Y95989D02*
D03*
X518757D02*
D03*
X499072Y82209D02*
D03*
X505962D02*
D03*
Y95989D02*
D03*
X499072D02*
D03*
X479387Y82209D02*
D03*
X486277D02*
D03*
Y95989D02*
D03*
X479387D02*
D03*
X459702Y82209D02*
D03*
X466592D02*
D03*
Y95989D02*
D03*
X459702D02*
D03*
X440017Y82209D02*
D03*
X446907D02*
D03*
Y95989D02*
D03*
X440017D02*
D03*
X420332Y82209D02*
D03*
X427222D02*
D03*
Y95989D02*
D03*
X420332D02*
D03*
X400647Y82209D02*
D03*
X407537D02*
D03*
Y95989D02*
D03*
X400647D02*
D03*
X380962Y82209D02*
D03*
X387852D02*
D03*
Y95989D02*
D03*
X380962D02*
D03*
X361277Y82209D02*
D03*
X368167D02*
D03*
Y95989D02*
D03*
X361277D02*
D03*
X341592Y82209D02*
D03*
X348482D02*
D03*
Y95989D02*
D03*
X341592D02*
D03*
X321907Y82209D02*
D03*
X328797D02*
D03*
Y95989D02*
D03*
X321907D02*
D03*
X328763Y76334D02*
D03*
X321872D02*
D03*
Y62554D02*
D03*
X328763D02*
D03*
X348448Y76334D02*
D03*
X341558D02*
D03*
Y62554D02*
D03*
X348448D02*
D03*
X368133Y76334D02*
D03*
X361243D02*
D03*
Y62554D02*
D03*
X368133D02*
D03*
X387818Y76334D02*
D03*
X380928D02*
D03*
Y62554D02*
D03*
X387818D02*
D03*
X407440Y76334D02*
D03*
X400550D02*
D03*
Y62554D02*
D03*
X407440D02*
D03*
X427188Y76334D02*
D03*
X420298D02*
D03*
Y62554D02*
D03*
X427188D02*
D03*
X446873Y76334D02*
D03*
X439983D02*
D03*
Y62554D02*
D03*
X446873D02*
D03*
X466558Y76334D02*
D03*
X459668D02*
D03*
Y62554D02*
D03*
X466558D02*
D03*
X486243Y76334D02*
D03*
X479353D02*
D03*
Y62554D02*
D03*
X486243D02*
D03*
X505928Y76334D02*
D03*
X499038D02*
D03*
Y62554D02*
D03*
X505928D02*
D03*
X525613Y76334D02*
D03*
X518723D02*
D03*
Y62554D02*
D03*
X525613D02*
D03*
X545235Y76334D02*
D03*
X538345D02*
D03*
Y62554D02*
D03*
X545235D02*
D03*
X564983Y76334D02*
D03*
X558093D02*
D03*
Y62554D02*
D03*
X564983D02*
D03*
X584668Y76334D02*
D03*
X577778D02*
D03*
Y62554D02*
D03*
X584668D02*
D03*
X558127Y42839D02*
D03*
X565017D02*
D03*
Y56619D02*
D03*
X558127D02*
D03*
X538442Y42839D02*
D03*
X545332D02*
D03*
Y56619D02*
D03*
X538442D02*
D03*
X518757Y42839D02*
D03*
X525647D02*
D03*
Y56619D02*
D03*
X518757D02*
D03*
X499072Y42839D02*
D03*
X505962D02*
D03*
Y56619D02*
D03*
X499072D02*
D03*
X479387Y42839D02*
D03*
X486277D02*
D03*
Y56619D02*
D03*
X479387D02*
D03*
X459702Y42839D02*
D03*
X466592D02*
D03*
Y56619D02*
D03*
X459702D02*
D03*
X440017Y42839D02*
D03*
X446907D02*
D03*
Y56619D02*
D03*
X440017D02*
D03*
X420332Y42839D02*
D03*
X427222D02*
D03*
Y56619D02*
D03*
X420332D02*
D03*
X400647Y42839D02*
D03*
X407537D02*
D03*
Y56619D02*
D03*
X400647D02*
D03*
X380962Y42839D02*
D03*
X387852D02*
D03*
Y56619D02*
D03*
X380962D02*
D03*
X361277Y42839D02*
D03*
X368167D02*
D03*
Y56619D02*
D03*
X361277D02*
D03*
X341592Y42839D02*
D03*
X348482D02*
D03*
Y56619D02*
D03*
X341592D02*
D03*
X321907Y42839D02*
D03*
X328797D02*
D03*
Y56619D02*
D03*
X321907D02*
D03*
X328763Y36964D02*
D03*
X321872D02*
D03*
Y23184D02*
D03*
X328763D02*
D03*
X348448Y36964D02*
D03*
X341558D02*
D03*
Y23184D02*
D03*
X348448D02*
D03*
X368133Y36964D02*
D03*
X361243D02*
D03*
Y23184D02*
D03*
X368133D02*
D03*
X387818Y36964D02*
D03*
X380928D02*
D03*
Y23184D02*
D03*
X387818D02*
D03*
X407503Y36964D02*
D03*
X400613D02*
D03*
Y23184D02*
D03*
X407503D02*
D03*
X427188Y36964D02*
D03*
X420298D02*
D03*
Y23184D02*
D03*
X427188D02*
D03*
X446873Y36964D02*
D03*
X439983D02*
D03*
Y23184D02*
D03*
X446873D02*
D03*
X466558Y36964D02*
D03*
X459668D02*
D03*
Y23184D02*
D03*
X466558D02*
D03*
X486243Y36964D02*
D03*
X479353D02*
D03*
Y23184D02*
D03*
X486243D02*
D03*
X505928Y36964D02*
D03*
X499038D02*
D03*
Y23184D02*
D03*
X505928D02*
D03*
X525613Y36964D02*
D03*
X518723D02*
D03*
Y23184D02*
D03*
X525613D02*
D03*
X545298Y36964D02*
D03*
X538408D02*
D03*
Y23184D02*
D03*
X545298D02*
D03*
X564983Y36964D02*
D03*
X558093D02*
D03*
Y23184D02*
D03*
X564983D02*
D03*
X538442Y3469D02*
D03*
X545332D02*
D03*
Y17249D02*
D03*
X538442D02*
D03*
X518757Y3469D02*
D03*
X525647D02*
D03*
Y17249D02*
D03*
X518757D02*
D03*
X499072Y3469D02*
D03*
X505962D02*
D03*
Y17249D02*
D03*
X499072D02*
D03*
X479387Y3469D02*
D03*
X486277D02*
D03*
Y17249D02*
D03*
X479387D02*
D03*
X459702Y3469D02*
D03*
X466592D02*
D03*
Y17249D02*
D03*
X459702D02*
D03*
X440017Y3469D02*
D03*
X446907D02*
D03*
Y17249D02*
D03*
X440017D02*
D03*
X420332Y3469D02*
D03*
X427222D02*
D03*
Y17249D02*
D03*
X420332D02*
D03*
X400647Y3469D02*
D03*
X407537D02*
D03*
Y17249D02*
D03*
X400647D02*
D03*
X380962Y3469D02*
D03*
X387852D02*
D03*
Y17249D02*
D03*
X380962D02*
D03*
X361277Y3469D02*
D03*
X368167D02*
D03*
Y17249D02*
D03*
X361277D02*
D03*
X341592Y3469D02*
D03*
X348482D02*
D03*
Y17249D02*
D03*
X341592D02*
D03*
M02*
