G04*
G04 #@! TF.GenerationSoftware,Altium Limited,Altium Designer,21.3.2 (30)*
G04*
G04 Layer_Color=255*
%FSLAX25Y25*%
%MOIN*%
G70*
G04*
G04 #@! TF.SameCoordinates,3ACA48B3-FF6E-4ADC-A770-F215C7717477*
G04*
G04*
G04 #@! TF.FilePolarity,Positive*
G04*
G01*
G75*
%ADD18C,0.01968*%
%ADD19C,0.08661*%
%ADD23C,0.15748*%
%ADD27C,0.02953*%
%ADD28R,0.06693X0.04331*%
%ADD29R,0.04331X0.06693*%
%ADD30C,0.05906*%
%ADD31R,0.05906X0.05906*%
%ADD32R,0.03937X0.03346*%
D18*
X313484Y10827D02*
D03*
Y13287D02*
D03*
Y15748D02*
D03*
Y23130D02*
D03*
Y25591D02*
D03*
Y28051D02*
D03*
Y30512D02*
D03*
Y32972D02*
D03*
Y35433D02*
D03*
Y37894D02*
D03*
Y40354D02*
D03*
Y42815D02*
D03*
Y45276D02*
D03*
Y47736D02*
D03*
Y50197D02*
D03*
Y52658D02*
D03*
Y55118D02*
D03*
Y57579D02*
D03*
Y60039D02*
D03*
Y62500D02*
D03*
Y64961D02*
D03*
Y67421D02*
D03*
Y69882D02*
D03*
Y72342D02*
D03*
Y74803D02*
D03*
Y77264D02*
D03*
Y79724D02*
D03*
Y82185D02*
D03*
Y84646D02*
D03*
Y87106D02*
D03*
Y89567D02*
D03*
Y92028D02*
D03*
Y94488D02*
D03*
Y96949D02*
D03*
Y99410D02*
D03*
Y101870D02*
D03*
Y104331D02*
D03*
Y106791D02*
D03*
Y109252D02*
D03*
Y111713D02*
D03*
Y114173D02*
D03*
Y116634D02*
D03*
Y119095D02*
D03*
Y121555D02*
D03*
Y124016D02*
D03*
Y126476D02*
D03*
Y128937D02*
D03*
Y131398D02*
D03*
Y133858D02*
D03*
Y136319D02*
D03*
Y138779D02*
D03*
Y141240D02*
D03*
Y143701D02*
D03*
Y146161D02*
D03*
Y148622D02*
D03*
Y151083D02*
D03*
Y153543D02*
D03*
Y156004D02*
D03*
Y158465D02*
D03*
Y160925D02*
D03*
Y163386D02*
D03*
Y165847D02*
D03*
Y168307D02*
D03*
Y170768D02*
D03*
Y173228D02*
D03*
Y175689D02*
D03*
Y178150D02*
D03*
Y180610D02*
D03*
Y183071D02*
D03*
Y185531D02*
D03*
Y187992D02*
D03*
Y190453D02*
D03*
Y192913D02*
D03*
Y195374D02*
D03*
Y197835D02*
D03*
Y200295D02*
D03*
Y202756D02*
D03*
Y205217D02*
D03*
Y207677D02*
D03*
Y210138D02*
D03*
Y212598D02*
D03*
Y215059D02*
D03*
Y217520D02*
D03*
Y219980D02*
D03*
Y222441D02*
D03*
Y224902D02*
D03*
Y227362D02*
D03*
Y229823D02*
D03*
Y232283D02*
D03*
Y234744D02*
D03*
Y237205D02*
D03*
Y239665D02*
D03*
Y242126D02*
D03*
Y244587D02*
D03*
Y247047D02*
D03*
Y249508D02*
D03*
Y251969D02*
D03*
Y254429D02*
D03*
Y256890D02*
D03*
Y259350D02*
D03*
Y261811D02*
D03*
Y264272D02*
D03*
Y266732D02*
D03*
Y269193D02*
D03*
Y271654D02*
D03*
Y274114D02*
D03*
Y276575D02*
D03*
Y279035D02*
D03*
Y281496D02*
D03*
Y283957D02*
D03*
Y286417D02*
D03*
Y288878D02*
D03*
Y291339D02*
D03*
Y293799D02*
D03*
Y296260D02*
D03*
Y298721D02*
D03*
Y301181D02*
D03*
Y303642D02*
D03*
Y306102D02*
D03*
Y308563D02*
D03*
Y311024D02*
D03*
Y313484D02*
D03*
Y315945D02*
D03*
Y318406D02*
D03*
Y320866D02*
D03*
Y323327D02*
D03*
Y325787D02*
D03*
Y328248D02*
D03*
Y330709D02*
D03*
Y333169D02*
D03*
Y335630D02*
D03*
Y338091D02*
D03*
Y340551D02*
D03*
Y343012D02*
D03*
Y345472D02*
D03*
Y370079D02*
D03*
Y372539D02*
D03*
Y367618D02*
D03*
Y365158D02*
D03*
Y362697D02*
D03*
Y360236D02*
D03*
Y357776D02*
D03*
Y355315D02*
D03*
Y352854D02*
D03*
Y350394D02*
D03*
Y347933D02*
D03*
D19*
X570866Y472441D02*
D03*
X698819Y328740D02*
D03*
X561024Y9843D02*
D03*
X324803Y385827D02*
D03*
Y9843D02*
D03*
X301181D02*
D03*
X84646D02*
D03*
X301181Y377953D02*
D03*
X25591Y275591D02*
D03*
D23*
X638287Y188484D02*
D03*
X620079Y147638D02*
D03*
X27559Y127953D02*
D03*
X47244Y88583D02*
D03*
D27*
X279528Y362205D02*
D03*
X284528D02*
D03*
Y367205D02*
D03*
X279528D02*
D03*
X245158Y347520D02*
D03*
X240158D02*
D03*
Y342520D02*
D03*
X245158D02*
D03*
X264843Y347520D02*
D03*
X259842D02*
D03*
Y342520D02*
D03*
X264843D02*
D03*
X284528Y347520D02*
D03*
X279528D02*
D03*
Y342520D02*
D03*
X284528D02*
D03*
X304213Y347520D02*
D03*
X299213D02*
D03*
Y342520D02*
D03*
X304213D02*
D03*
X299213Y322835D02*
D03*
X304213D02*
D03*
Y327835D02*
D03*
X299213D02*
D03*
X279528Y322835D02*
D03*
X284528D02*
D03*
Y327835D02*
D03*
X279528D02*
D03*
X259842Y322835D02*
D03*
X264843D02*
D03*
Y327835D02*
D03*
X259842D02*
D03*
X240158Y322835D02*
D03*
X245158D02*
D03*
Y327835D02*
D03*
X240158D02*
D03*
X220472Y322835D02*
D03*
X225472D02*
D03*
Y327835D02*
D03*
X220472D02*
D03*
X200787Y322835D02*
D03*
X205787D02*
D03*
Y327835D02*
D03*
X200787D02*
D03*
X181102Y322835D02*
D03*
X186102D02*
D03*
Y327835D02*
D03*
X181102D02*
D03*
X146732Y308150D02*
D03*
X141732D02*
D03*
Y303150D02*
D03*
X146732D02*
D03*
X166417Y308150D02*
D03*
X161417D02*
D03*
Y303150D02*
D03*
X166417D02*
D03*
X186102Y308150D02*
D03*
X181102D02*
D03*
Y303150D02*
D03*
X186102D02*
D03*
X205787Y308150D02*
D03*
X200787D02*
D03*
Y303150D02*
D03*
X205787D02*
D03*
X225472Y308150D02*
D03*
X220472D02*
D03*
Y303150D02*
D03*
X225472D02*
D03*
X245158Y308150D02*
D03*
X240158D02*
D03*
Y303150D02*
D03*
X245158D02*
D03*
X264843Y308150D02*
D03*
X259842D02*
D03*
Y303150D02*
D03*
X264843D02*
D03*
X284528Y308150D02*
D03*
X279528D02*
D03*
Y303150D02*
D03*
X284528D02*
D03*
X304213Y308150D02*
D03*
X299213D02*
D03*
Y303150D02*
D03*
X304213D02*
D03*
X299213Y283465D02*
D03*
X304213D02*
D03*
Y288465D02*
D03*
X299213D02*
D03*
X279528Y283465D02*
D03*
X284528D02*
D03*
Y288465D02*
D03*
X279528D02*
D03*
X259842Y283465D02*
D03*
X264843D02*
D03*
Y288465D02*
D03*
X259842D02*
D03*
X240158Y283465D02*
D03*
X245158D02*
D03*
Y288465D02*
D03*
X240158D02*
D03*
X220472Y283465D02*
D03*
X225472D02*
D03*
Y288465D02*
D03*
X220472D02*
D03*
X200787Y283465D02*
D03*
X205787D02*
D03*
Y288465D02*
D03*
X200787D02*
D03*
X181102Y283465D02*
D03*
X186102D02*
D03*
Y288465D02*
D03*
X181102D02*
D03*
X161417Y283465D02*
D03*
X166417D02*
D03*
Y288465D02*
D03*
X161417D02*
D03*
X141732Y283465D02*
D03*
X146732D02*
D03*
Y288465D02*
D03*
X141732D02*
D03*
X122047Y283465D02*
D03*
X127047D02*
D03*
Y288465D02*
D03*
X122047D02*
D03*
X102362Y283465D02*
D03*
X107362D02*
D03*
Y288465D02*
D03*
X102362D02*
D03*
X82677Y283465D02*
D03*
X87677D02*
D03*
Y288465D02*
D03*
X82677D02*
D03*
X48307Y268779D02*
D03*
X43307D02*
D03*
Y263779D02*
D03*
X48307D02*
D03*
X67992Y268779D02*
D03*
X62992D02*
D03*
Y263779D02*
D03*
X67992D02*
D03*
X87677Y268779D02*
D03*
X82677D02*
D03*
Y263779D02*
D03*
X87677D02*
D03*
X107362Y268779D02*
D03*
X102362D02*
D03*
Y263779D02*
D03*
X107362D02*
D03*
X127047Y268779D02*
D03*
X122047D02*
D03*
Y263779D02*
D03*
X127047D02*
D03*
X146732Y268779D02*
D03*
X141732D02*
D03*
Y263779D02*
D03*
X146732D02*
D03*
X166417Y268779D02*
D03*
X161417D02*
D03*
Y263779D02*
D03*
X166417D02*
D03*
X186102Y268779D02*
D03*
X181102D02*
D03*
Y263779D02*
D03*
X186102D02*
D03*
X205787Y268779D02*
D03*
X200787D02*
D03*
Y263779D02*
D03*
X205787D02*
D03*
X225472Y268779D02*
D03*
X220472D02*
D03*
Y263779D02*
D03*
X225472D02*
D03*
X245158Y268779D02*
D03*
X240158D02*
D03*
Y263779D02*
D03*
X245158D02*
D03*
X264843Y268779D02*
D03*
X259842D02*
D03*
Y263779D02*
D03*
X264843D02*
D03*
X284528Y268779D02*
D03*
X279528D02*
D03*
Y263779D02*
D03*
X284528D02*
D03*
X304212Y268780D02*
D03*
X299213D02*
D03*
Y263780D02*
D03*
X304212D02*
D03*
X299213Y244094D02*
D03*
X304213D02*
D03*
Y249095D02*
D03*
X299213D02*
D03*
X279528Y244094D02*
D03*
X284528D02*
D03*
Y249095D02*
D03*
X279528D02*
D03*
X259842Y244094D02*
D03*
X264843D02*
D03*
Y249095D02*
D03*
X259842D02*
D03*
X240158Y244094D02*
D03*
X245158D02*
D03*
Y249095D02*
D03*
X240158D02*
D03*
X220472Y244094D02*
D03*
X225472D02*
D03*
Y249095D02*
D03*
X220472D02*
D03*
X200787Y244094D02*
D03*
X205787D02*
D03*
Y249095D02*
D03*
X200787D02*
D03*
X181102Y244094D02*
D03*
X186102D02*
D03*
Y249095D02*
D03*
X181102D02*
D03*
X161417Y244094D02*
D03*
X166417D02*
D03*
Y249095D02*
D03*
X161417D02*
D03*
X141732Y244094D02*
D03*
X146732D02*
D03*
Y249095D02*
D03*
X141732D02*
D03*
X122047Y244094D02*
D03*
X127047D02*
D03*
Y249095D02*
D03*
X122047D02*
D03*
X102362Y244094D02*
D03*
X107362D02*
D03*
Y249095D02*
D03*
X102362D02*
D03*
X82677Y244094D02*
D03*
X87677D02*
D03*
Y249095D02*
D03*
X82677D02*
D03*
X62992Y244094D02*
D03*
X67992D02*
D03*
Y249095D02*
D03*
X62992D02*
D03*
X43307Y244094D02*
D03*
X48307D02*
D03*
Y249095D02*
D03*
X43307D02*
D03*
X23622Y244094D02*
D03*
X28622D02*
D03*
Y249095D02*
D03*
X23622D02*
D03*
X28622Y229410D02*
D03*
X23622D02*
D03*
Y224410D02*
D03*
X28622D02*
D03*
X48307Y229410D02*
D03*
X43307D02*
D03*
Y224410D02*
D03*
X48307D02*
D03*
X67992Y229410D02*
D03*
X62992D02*
D03*
Y224410D02*
D03*
X67992D02*
D03*
X87677Y229410D02*
D03*
X82677D02*
D03*
Y224410D02*
D03*
X87677D02*
D03*
X107362Y229410D02*
D03*
X102362D02*
D03*
Y224410D02*
D03*
X107362D02*
D03*
X127047Y229410D02*
D03*
X122047D02*
D03*
Y224410D02*
D03*
X127047D02*
D03*
X146732Y229410D02*
D03*
X141732D02*
D03*
Y224410D02*
D03*
X146732D02*
D03*
X166417Y229410D02*
D03*
X161417D02*
D03*
Y224410D02*
D03*
X166417D02*
D03*
X186102Y229410D02*
D03*
X181102D02*
D03*
Y224410D02*
D03*
X186102D02*
D03*
X205787Y229410D02*
D03*
X200787D02*
D03*
Y224410D02*
D03*
X205787D02*
D03*
X225472Y229410D02*
D03*
X220472D02*
D03*
Y224410D02*
D03*
X225472D02*
D03*
X245158Y229410D02*
D03*
X240158D02*
D03*
Y224410D02*
D03*
X245158D02*
D03*
X264843Y229410D02*
D03*
X259842D02*
D03*
Y224410D02*
D03*
X264843D02*
D03*
X284528Y229410D02*
D03*
X279528D02*
D03*
Y224410D02*
D03*
X284528D02*
D03*
X304213Y229410D02*
D03*
X299213D02*
D03*
Y224410D02*
D03*
X304213D02*
D03*
X299213Y204724D02*
D03*
X304213D02*
D03*
Y209724D02*
D03*
X299213D02*
D03*
X279528Y204724D02*
D03*
X284528D02*
D03*
Y209724D02*
D03*
X279528D02*
D03*
X259842Y204724D02*
D03*
X264843D02*
D03*
Y209724D02*
D03*
X259842D02*
D03*
X240158Y204724D02*
D03*
X245158D02*
D03*
Y209724D02*
D03*
X240158D02*
D03*
X220472Y204724D02*
D03*
X225472D02*
D03*
Y209724D02*
D03*
X220472D02*
D03*
X200787Y204724D02*
D03*
X205787D02*
D03*
Y209724D02*
D03*
X200787D02*
D03*
X181102Y204724D02*
D03*
X186102D02*
D03*
Y209724D02*
D03*
X181102D02*
D03*
X161417Y204724D02*
D03*
X166417D02*
D03*
Y209724D02*
D03*
X161417D02*
D03*
X141732Y204724D02*
D03*
X146732D02*
D03*
Y209724D02*
D03*
X141732D02*
D03*
X122047Y204724D02*
D03*
X127047D02*
D03*
Y209724D02*
D03*
X122047D02*
D03*
X102362Y204724D02*
D03*
X107362D02*
D03*
Y209724D02*
D03*
X102362D02*
D03*
X82677Y204724D02*
D03*
X87677D02*
D03*
Y209724D02*
D03*
X82677D02*
D03*
X62992Y204724D02*
D03*
X67992D02*
D03*
Y209724D02*
D03*
X62992D02*
D03*
X43307Y204724D02*
D03*
X48307D02*
D03*
Y209724D02*
D03*
X43307D02*
D03*
X23622Y204724D02*
D03*
X28622D02*
D03*
Y209724D02*
D03*
X23622D02*
D03*
X28622Y190039D02*
D03*
X23622D02*
D03*
Y185039D02*
D03*
X28622D02*
D03*
X48307Y190039D02*
D03*
X43307D02*
D03*
Y185039D02*
D03*
X48307D02*
D03*
X67992Y190039D02*
D03*
X62992D02*
D03*
Y185039D02*
D03*
X67992D02*
D03*
X87677Y190039D02*
D03*
X82677D02*
D03*
Y185039D02*
D03*
X87677D02*
D03*
X107362Y190039D02*
D03*
X102362D02*
D03*
Y185039D02*
D03*
X107362D02*
D03*
X127047Y190039D02*
D03*
X122047D02*
D03*
Y185039D02*
D03*
X127047D02*
D03*
X146732Y190039D02*
D03*
X141732D02*
D03*
Y185039D02*
D03*
X146732D02*
D03*
X166417Y190039D02*
D03*
X161417D02*
D03*
Y185039D02*
D03*
X166417D02*
D03*
X186102Y190039D02*
D03*
X181102D02*
D03*
Y185039D02*
D03*
X186102D02*
D03*
X205787Y190039D02*
D03*
X200787D02*
D03*
Y185039D02*
D03*
X205787D02*
D03*
X225472Y190039D02*
D03*
X220472D02*
D03*
Y185039D02*
D03*
X225472D02*
D03*
X245158Y190039D02*
D03*
X240158D02*
D03*
Y185039D02*
D03*
X245158D02*
D03*
X264843Y190039D02*
D03*
X259842D02*
D03*
Y185039D02*
D03*
X264843D02*
D03*
X284528Y190039D02*
D03*
X279528D02*
D03*
Y185039D02*
D03*
X284528D02*
D03*
X304213Y190039D02*
D03*
X299213D02*
D03*
Y185039D02*
D03*
X304213D02*
D03*
X299213Y165354D02*
D03*
X304213D02*
D03*
Y170354D02*
D03*
X299213D02*
D03*
X279528Y165354D02*
D03*
X284528D02*
D03*
Y170354D02*
D03*
X279528D02*
D03*
X259842Y165354D02*
D03*
X264843D02*
D03*
Y170354D02*
D03*
X259842D02*
D03*
X240158Y165354D02*
D03*
X245158D02*
D03*
Y170354D02*
D03*
X240158D02*
D03*
X220472Y165354D02*
D03*
X225472D02*
D03*
Y170354D02*
D03*
X220472D02*
D03*
X200787Y165354D02*
D03*
X205787D02*
D03*
Y170354D02*
D03*
X200787D02*
D03*
X181102Y165354D02*
D03*
X186102D02*
D03*
Y170354D02*
D03*
X181102D02*
D03*
X161417Y165354D02*
D03*
X166417D02*
D03*
Y170354D02*
D03*
X161417D02*
D03*
X141732Y165354D02*
D03*
X146732D02*
D03*
Y170354D02*
D03*
X141732D02*
D03*
X122047Y165354D02*
D03*
X127047D02*
D03*
Y170354D02*
D03*
X122047D02*
D03*
X102362Y165354D02*
D03*
X107362D02*
D03*
Y170354D02*
D03*
X102362D02*
D03*
X82677Y165354D02*
D03*
X87677D02*
D03*
Y170354D02*
D03*
X82677D02*
D03*
X62992Y165354D02*
D03*
X67992D02*
D03*
Y170354D02*
D03*
X62992D02*
D03*
X43307Y165354D02*
D03*
X48307D02*
D03*
Y170354D02*
D03*
X43307D02*
D03*
X23622Y165354D02*
D03*
X28622D02*
D03*
Y170354D02*
D03*
X23622D02*
D03*
X28622Y150669D02*
D03*
X23622D02*
D03*
Y145669D02*
D03*
X28622D02*
D03*
X48307Y150669D02*
D03*
X43307D02*
D03*
Y145669D02*
D03*
X48307D02*
D03*
X67992Y150669D02*
D03*
X62992D02*
D03*
Y145669D02*
D03*
X67992D02*
D03*
X87677Y150669D02*
D03*
X82677D02*
D03*
Y145669D02*
D03*
X87677D02*
D03*
X107362Y150669D02*
D03*
X102362D02*
D03*
Y145669D02*
D03*
X107362D02*
D03*
X127047Y150669D02*
D03*
X122047D02*
D03*
Y145669D02*
D03*
X127047D02*
D03*
X146732Y150669D02*
D03*
X141732D02*
D03*
Y145669D02*
D03*
X146732D02*
D03*
X166417Y150669D02*
D03*
X161417D02*
D03*
Y145669D02*
D03*
X166417D02*
D03*
X186102Y150669D02*
D03*
X181102D02*
D03*
Y145669D02*
D03*
X186102D02*
D03*
X205787Y150669D02*
D03*
X200787D02*
D03*
Y145669D02*
D03*
X205787D02*
D03*
X225472Y150669D02*
D03*
X220472D02*
D03*
Y145669D02*
D03*
X225472D02*
D03*
X245158Y150669D02*
D03*
X240158D02*
D03*
Y145669D02*
D03*
X245158D02*
D03*
X264843Y150669D02*
D03*
X259842D02*
D03*
Y145669D02*
D03*
X264843D02*
D03*
X284528Y150669D02*
D03*
X279528D02*
D03*
Y145669D02*
D03*
X284528D02*
D03*
X304213Y150669D02*
D03*
X299213D02*
D03*
Y145669D02*
D03*
X304213D02*
D03*
X299213Y125984D02*
D03*
X304213D02*
D03*
Y130984D02*
D03*
X299213D02*
D03*
X279528Y125984D02*
D03*
X284528D02*
D03*
Y130984D02*
D03*
X279528D02*
D03*
X259842Y125984D02*
D03*
X264843D02*
D03*
Y130984D02*
D03*
X259842D02*
D03*
X240158Y125984D02*
D03*
X245158D02*
D03*
Y130984D02*
D03*
X240158D02*
D03*
X220472Y125984D02*
D03*
X225472D02*
D03*
Y130984D02*
D03*
X220472D02*
D03*
X200787Y125984D02*
D03*
X205787D02*
D03*
Y130984D02*
D03*
X200787D02*
D03*
X181102Y125984D02*
D03*
X186102D02*
D03*
Y130984D02*
D03*
X181102D02*
D03*
X161417Y125984D02*
D03*
X166417D02*
D03*
Y130984D02*
D03*
X161417D02*
D03*
X141732Y125984D02*
D03*
X146732D02*
D03*
Y130984D02*
D03*
X141732D02*
D03*
X122047Y125984D02*
D03*
X127047D02*
D03*
Y130984D02*
D03*
X122047D02*
D03*
X102362Y125984D02*
D03*
X107362D02*
D03*
Y130984D02*
D03*
X102362D02*
D03*
X82677Y125984D02*
D03*
X87677D02*
D03*
Y130984D02*
D03*
X82677D02*
D03*
X62992Y125984D02*
D03*
X67992D02*
D03*
Y130984D02*
D03*
X62992D02*
D03*
X43307Y125984D02*
D03*
X48307D02*
D03*
Y130984D02*
D03*
X43307D02*
D03*
X48307Y111299D02*
D03*
X43307D02*
D03*
Y106299D02*
D03*
X48307D02*
D03*
X67992Y111299D02*
D03*
X62992D02*
D03*
Y106299D02*
D03*
X67992D02*
D03*
X87677Y111299D02*
D03*
X82677D02*
D03*
Y106299D02*
D03*
X87677D02*
D03*
X107362Y111299D02*
D03*
X102362D02*
D03*
Y106299D02*
D03*
X107362D02*
D03*
X127047Y111299D02*
D03*
X122047D02*
D03*
Y106299D02*
D03*
X127047D02*
D03*
X146732Y111299D02*
D03*
X141732D02*
D03*
Y106299D02*
D03*
X146732D02*
D03*
X166417Y111299D02*
D03*
X161417D02*
D03*
Y106299D02*
D03*
X166417D02*
D03*
X186102Y111299D02*
D03*
X181102D02*
D03*
Y106299D02*
D03*
X186102D02*
D03*
X205787Y111299D02*
D03*
X200787D02*
D03*
Y106299D02*
D03*
X205787D02*
D03*
X225472Y111299D02*
D03*
X220472D02*
D03*
Y106299D02*
D03*
X225472D02*
D03*
X245158Y111299D02*
D03*
X240158D02*
D03*
Y106299D02*
D03*
X245158D02*
D03*
X264843Y111299D02*
D03*
X259842D02*
D03*
Y106299D02*
D03*
X264843D02*
D03*
X284528Y111299D02*
D03*
X279528D02*
D03*
Y106299D02*
D03*
X284528D02*
D03*
X304213Y111299D02*
D03*
X299213D02*
D03*
Y106299D02*
D03*
X304213D02*
D03*
X299213Y86614D02*
D03*
X304213D02*
D03*
Y91614D02*
D03*
X299213D02*
D03*
X279528Y86614D02*
D03*
X284528D02*
D03*
Y91614D02*
D03*
X279528D02*
D03*
X259842Y86614D02*
D03*
X264843D02*
D03*
Y91614D02*
D03*
X259842D02*
D03*
X240158Y86614D02*
D03*
X245158D02*
D03*
Y91614D02*
D03*
X240158D02*
D03*
X220472Y86614D02*
D03*
X225472D02*
D03*
Y91614D02*
D03*
X220472D02*
D03*
X200787Y86614D02*
D03*
X205787D02*
D03*
Y91614D02*
D03*
X200787D02*
D03*
X181102Y86614D02*
D03*
X186102D02*
D03*
Y91614D02*
D03*
X181102D02*
D03*
X161417Y86614D02*
D03*
X166417D02*
D03*
Y91614D02*
D03*
X161417D02*
D03*
X141732Y86614D02*
D03*
X146732D02*
D03*
Y91614D02*
D03*
X141732D02*
D03*
X122047Y86614D02*
D03*
X127047D02*
D03*
Y91614D02*
D03*
X122047D02*
D03*
X102362Y86614D02*
D03*
X107362D02*
D03*
Y91614D02*
D03*
X102362D02*
D03*
X82677Y86614D02*
D03*
X87677D02*
D03*
Y91614D02*
D03*
X82677D02*
D03*
X62992Y86614D02*
D03*
X67992D02*
D03*
Y91614D02*
D03*
X62992D02*
D03*
X67992Y71929D02*
D03*
X62992D02*
D03*
Y66929D02*
D03*
X67992D02*
D03*
X87677Y71929D02*
D03*
X82677D02*
D03*
Y66929D02*
D03*
X87677D02*
D03*
X107362Y71929D02*
D03*
X102362D02*
D03*
Y66929D02*
D03*
X107362D02*
D03*
X127047Y71929D02*
D03*
X122047D02*
D03*
Y66929D02*
D03*
X127047D02*
D03*
X146732Y71929D02*
D03*
X141732D02*
D03*
Y66929D02*
D03*
X146732D02*
D03*
X166417Y71929D02*
D03*
X161417D02*
D03*
Y66929D02*
D03*
X166417D02*
D03*
X186102Y71929D02*
D03*
X181102D02*
D03*
Y66929D02*
D03*
X186102D02*
D03*
X205787Y71929D02*
D03*
X200787D02*
D03*
Y66929D02*
D03*
X205787D02*
D03*
X225472Y71929D02*
D03*
X220472D02*
D03*
Y66929D02*
D03*
X225472D02*
D03*
X245158Y71929D02*
D03*
X240158D02*
D03*
Y66929D02*
D03*
X245158D02*
D03*
X264843Y71929D02*
D03*
X259842D02*
D03*
Y66929D02*
D03*
X264843D02*
D03*
X284528Y71929D02*
D03*
X279528D02*
D03*
Y66929D02*
D03*
X284528D02*
D03*
X304213Y71929D02*
D03*
X299213D02*
D03*
Y66929D02*
D03*
X304213D02*
D03*
X299213Y47244D02*
D03*
X304213D02*
D03*
Y52244D02*
D03*
X299213D02*
D03*
X279528Y47244D02*
D03*
X284528D02*
D03*
Y52244D02*
D03*
X279528D02*
D03*
X259842Y47244D02*
D03*
X264843D02*
D03*
Y52244D02*
D03*
X259842D02*
D03*
X240158Y47244D02*
D03*
X245158D02*
D03*
Y52244D02*
D03*
X240158D02*
D03*
X220472Y47244D02*
D03*
X225472D02*
D03*
Y52244D02*
D03*
X220472D02*
D03*
X200787Y47244D02*
D03*
X205787D02*
D03*
Y52244D02*
D03*
X200787D02*
D03*
X181102Y47244D02*
D03*
X186102D02*
D03*
Y52244D02*
D03*
X181102D02*
D03*
X161417Y47244D02*
D03*
X166417D02*
D03*
Y52244D02*
D03*
X161417D02*
D03*
X141732Y47244D02*
D03*
X146732D02*
D03*
Y52244D02*
D03*
X141732D02*
D03*
X122047Y47244D02*
D03*
X127047D02*
D03*
Y52244D02*
D03*
X122047D02*
D03*
X102362Y47244D02*
D03*
X107362D02*
D03*
Y52244D02*
D03*
X102362D02*
D03*
X82677Y47244D02*
D03*
X87677D02*
D03*
Y52244D02*
D03*
X82677D02*
D03*
X87677Y32559D02*
D03*
X82677D02*
D03*
Y27559D02*
D03*
X87677D02*
D03*
X107362Y32559D02*
D03*
X102362D02*
D03*
Y27559D02*
D03*
X107362D02*
D03*
X127047Y32559D02*
D03*
X122047D02*
D03*
Y27559D02*
D03*
X127047D02*
D03*
X146732Y32559D02*
D03*
X141732D02*
D03*
Y27559D02*
D03*
X146732D02*
D03*
X166417Y32559D02*
D03*
X161417D02*
D03*
Y27559D02*
D03*
X166417D02*
D03*
X186102Y32559D02*
D03*
X181102D02*
D03*
Y27559D02*
D03*
X186102D02*
D03*
X205787Y32559D02*
D03*
X200787D02*
D03*
Y27559D02*
D03*
X205787D02*
D03*
X225472Y32559D02*
D03*
X220472D02*
D03*
Y27559D02*
D03*
X225472D02*
D03*
X245158Y32559D02*
D03*
X240158D02*
D03*
Y27559D02*
D03*
X245158D02*
D03*
X264843Y32559D02*
D03*
X259842D02*
D03*
Y27559D02*
D03*
X264843D02*
D03*
X284528Y32559D02*
D03*
X279528D02*
D03*
Y27559D02*
D03*
X284528D02*
D03*
X304213Y32559D02*
D03*
X299213D02*
D03*
Y27559D02*
D03*
X304213D02*
D03*
X279528Y7874D02*
D03*
X284528D02*
D03*
Y12874D02*
D03*
X279528D02*
D03*
X259842Y7874D02*
D03*
X264843D02*
D03*
Y12874D02*
D03*
X259842D02*
D03*
X240158Y7874D02*
D03*
X245158D02*
D03*
Y12874D02*
D03*
X240158D02*
D03*
X220472Y7874D02*
D03*
X225472D02*
D03*
Y12874D02*
D03*
X220472D02*
D03*
X200787Y7874D02*
D03*
X205787D02*
D03*
Y12874D02*
D03*
X200787D02*
D03*
X181102Y7874D02*
D03*
X186102D02*
D03*
Y12874D02*
D03*
X181102D02*
D03*
X161417Y7874D02*
D03*
X166417D02*
D03*
Y12874D02*
D03*
X161417D02*
D03*
X141732Y7874D02*
D03*
X146732D02*
D03*
Y12874D02*
D03*
X141732D02*
D03*
X122047Y7874D02*
D03*
X127047D02*
D03*
Y12874D02*
D03*
X122047D02*
D03*
X102362Y7874D02*
D03*
X107362D02*
D03*
Y12874D02*
D03*
X102362D02*
D03*
X578740Y440945D02*
D03*
X583740D02*
D03*
Y445945D02*
D03*
X578740D02*
D03*
X559055Y440945D02*
D03*
X564055D02*
D03*
Y445945D02*
D03*
X559055D02*
D03*
X539370Y440945D02*
D03*
X544370D02*
D03*
Y445945D02*
D03*
X539370D02*
D03*
X519685Y440945D02*
D03*
X524685D02*
D03*
Y445945D02*
D03*
X519685D02*
D03*
X500000Y440945D02*
D03*
X505000D02*
D03*
Y445945D02*
D03*
X500000D02*
D03*
X445945Y426260D02*
D03*
X440945D02*
D03*
Y421260D02*
D03*
X445945D02*
D03*
X465630Y426260D02*
D03*
X460630D02*
D03*
Y421260D02*
D03*
X465630D02*
D03*
X485315Y426260D02*
D03*
X480315D02*
D03*
Y421260D02*
D03*
X485315D02*
D03*
X505000Y426260D02*
D03*
X500000D02*
D03*
Y421260D02*
D03*
X505000D02*
D03*
X524685Y426260D02*
D03*
X519685D02*
D03*
Y421260D02*
D03*
X524685D02*
D03*
X544370Y426260D02*
D03*
X539370D02*
D03*
Y421260D02*
D03*
X544370D02*
D03*
X564055Y426260D02*
D03*
X559055D02*
D03*
Y421260D02*
D03*
X564055D02*
D03*
X583740Y426260D02*
D03*
X578740D02*
D03*
Y421260D02*
D03*
X583740D02*
D03*
X603425Y426260D02*
D03*
X598425D02*
D03*
Y421260D02*
D03*
X603425D02*
D03*
X618110Y401575D02*
D03*
X623110D02*
D03*
Y406575D02*
D03*
X618110D02*
D03*
X598425Y401575D02*
D03*
X603425D02*
D03*
Y406575D02*
D03*
X598425D02*
D03*
X578740Y401575D02*
D03*
X583740D02*
D03*
Y406575D02*
D03*
X578740D02*
D03*
X559055Y401575D02*
D03*
X564055D02*
D03*
Y406575D02*
D03*
X559055D02*
D03*
X539370Y401575D02*
D03*
X544370D02*
D03*
Y406575D02*
D03*
X539370D02*
D03*
X519685Y401575D02*
D03*
X524685D02*
D03*
Y406575D02*
D03*
X519685D02*
D03*
X500000Y401575D02*
D03*
X505000D02*
D03*
Y406575D02*
D03*
X500000D02*
D03*
X480315Y401575D02*
D03*
X485315D02*
D03*
Y406575D02*
D03*
X480315D02*
D03*
X460630Y401575D02*
D03*
X465630D02*
D03*
Y406575D02*
D03*
X460630D02*
D03*
X440945Y401575D02*
D03*
X445945D02*
D03*
Y406575D02*
D03*
X440945D02*
D03*
X421260Y401575D02*
D03*
X426260D02*
D03*
Y406575D02*
D03*
X421260D02*
D03*
X401575Y401575D02*
D03*
X406575D02*
D03*
Y406575D02*
D03*
X401575D02*
D03*
X381890Y401575D02*
D03*
X386890D02*
D03*
Y406575D02*
D03*
X381890D02*
D03*
X347520Y386890D02*
D03*
X342520D02*
D03*
Y381890D02*
D03*
X347520D02*
D03*
X367205Y386890D02*
D03*
X362205D02*
D03*
Y381890D02*
D03*
X367205D02*
D03*
X386890Y386890D02*
D03*
X381890D02*
D03*
Y381890D02*
D03*
X386890D02*
D03*
X406575Y386890D02*
D03*
X401575D02*
D03*
Y381890D02*
D03*
X406575D02*
D03*
X426260Y386890D02*
D03*
X421260D02*
D03*
Y381890D02*
D03*
X426260D02*
D03*
X445945Y386890D02*
D03*
X440945D02*
D03*
Y381890D02*
D03*
X445945D02*
D03*
X465630Y386890D02*
D03*
X460630D02*
D03*
Y381890D02*
D03*
X465630D02*
D03*
X485315Y386890D02*
D03*
X480315D02*
D03*
Y381890D02*
D03*
X485315D02*
D03*
X505000Y386890D02*
D03*
X500000D02*
D03*
Y381890D02*
D03*
X505000D02*
D03*
X524685Y386890D02*
D03*
X519685D02*
D03*
Y381890D02*
D03*
X524685D02*
D03*
X544370Y386890D02*
D03*
X539370D02*
D03*
Y381890D02*
D03*
X544370D02*
D03*
X564055Y386890D02*
D03*
X559055D02*
D03*
Y381890D02*
D03*
X564055D02*
D03*
X583740Y386890D02*
D03*
X578740D02*
D03*
Y381890D02*
D03*
X583740D02*
D03*
X603425Y386890D02*
D03*
X598425D02*
D03*
Y381890D02*
D03*
X603425D02*
D03*
X623110Y386890D02*
D03*
X618110D02*
D03*
Y381890D02*
D03*
X623110D02*
D03*
X642795Y386890D02*
D03*
X637795D02*
D03*
Y381890D02*
D03*
X642795D02*
D03*
X657480Y362205D02*
D03*
X662480D02*
D03*
Y367205D02*
D03*
X657480D02*
D03*
X637795Y362205D02*
D03*
X642795D02*
D03*
Y367205D02*
D03*
X637795D02*
D03*
X618110Y362205D02*
D03*
X623110D02*
D03*
Y367205D02*
D03*
X618110D02*
D03*
X598425Y362205D02*
D03*
X603425D02*
D03*
Y367205D02*
D03*
X598425D02*
D03*
X578740Y362205D02*
D03*
X583740D02*
D03*
Y367205D02*
D03*
X578740D02*
D03*
X559055Y362205D02*
D03*
X564055D02*
D03*
Y367205D02*
D03*
X559055D02*
D03*
X539370Y362205D02*
D03*
X544370D02*
D03*
Y367205D02*
D03*
X539370D02*
D03*
X519685Y362205D02*
D03*
X524685D02*
D03*
Y367205D02*
D03*
X519685D02*
D03*
X500000Y362205D02*
D03*
X505000D02*
D03*
Y367205D02*
D03*
X500000D02*
D03*
X480315Y362205D02*
D03*
X485315D02*
D03*
Y367205D02*
D03*
X480315D02*
D03*
X460630Y362205D02*
D03*
X465630D02*
D03*
Y367205D02*
D03*
X460630D02*
D03*
X440945Y362205D02*
D03*
X445945D02*
D03*
Y367205D02*
D03*
X440945D02*
D03*
X421260Y362205D02*
D03*
X426260D02*
D03*
Y367205D02*
D03*
X421260D02*
D03*
X401575Y362205D02*
D03*
X406575D02*
D03*
Y367205D02*
D03*
X401575D02*
D03*
X381890Y362205D02*
D03*
X386890D02*
D03*
Y367205D02*
D03*
X381890D02*
D03*
X362205Y362205D02*
D03*
X367205D02*
D03*
Y367205D02*
D03*
X362205D02*
D03*
X342520Y362205D02*
D03*
X347520D02*
D03*
Y367205D02*
D03*
X342520D02*
D03*
X322835Y362205D02*
D03*
X327835D02*
D03*
Y367205D02*
D03*
X322835D02*
D03*
X327835Y347520D02*
D03*
X322835D02*
D03*
Y342520D02*
D03*
X327835D02*
D03*
X347520Y347520D02*
D03*
X342520D02*
D03*
Y342520D02*
D03*
X347520D02*
D03*
X367205Y347520D02*
D03*
X362205D02*
D03*
Y342520D02*
D03*
X367205D02*
D03*
X386890Y347520D02*
D03*
X381890D02*
D03*
Y342520D02*
D03*
X386890D02*
D03*
X406575Y347520D02*
D03*
X401575D02*
D03*
Y342520D02*
D03*
X406575D02*
D03*
X426260Y347520D02*
D03*
X421260D02*
D03*
Y342520D02*
D03*
X426260D02*
D03*
X445945Y347520D02*
D03*
X440945D02*
D03*
Y342520D02*
D03*
X445945D02*
D03*
X465630Y347520D02*
D03*
X460630D02*
D03*
Y342520D02*
D03*
X465630D02*
D03*
X485315Y347520D02*
D03*
X480315D02*
D03*
Y342520D02*
D03*
X485315D02*
D03*
X505000Y347520D02*
D03*
X500000D02*
D03*
Y342520D02*
D03*
X505000D02*
D03*
X524685Y347520D02*
D03*
X519685D02*
D03*
Y342520D02*
D03*
X524685D02*
D03*
X544370Y347520D02*
D03*
X539370D02*
D03*
Y342520D02*
D03*
X544370D02*
D03*
X564055Y347520D02*
D03*
X559055D02*
D03*
Y342520D02*
D03*
X564055D02*
D03*
X583740Y347520D02*
D03*
X578740D02*
D03*
Y342520D02*
D03*
X583740D02*
D03*
X603425Y347520D02*
D03*
X598425D02*
D03*
Y342520D02*
D03*
X603425D02*
D03*
X623110Y347520D02*
D03*
X618110D02*
D03*
Y342520D02*
D03*
X623110D02*
D03*
X642795Y347520D02*
D03*
X637795D02*
D03*
Y342520D02*
D03*
X642795D02*
D03*
X662480Y347520D02*
D03*
X657480D02*
D03*
Y342520D02*
D03*
X662480D02*
D03*
X677165Y322835D02*
D03*
X682165D02*
D03*
Y327835D02*
D03*
X677165D02*
D03*
X657480Y322835D02*
D03*
X662480D02*
D03*
Y327835D02*
D03*
X657480D02*
D03*
X637795Y322835D02*
D03*
X642795D02*
D03*
Y327835D02*
D03*
X637795D02*
D03*
X618110Y322835D02*
D03*
X623110D02*
D03*
Y327835D02*
D03*
X618110D02*
D03*
X598425Y322835D02*
D03*
X603425D02*
D03*
Y327835D02*
D03*
X598425D02*
D03*
X578740Y322835D02*
D03*
X583740D02*
D03*
Y327835D02*
D03*
X578740D02*
D03*
X559055Y322835D02*
D03*
X564055D02*
D03*
Y327835D02*
D03*
X559055D02*
D03*
X539370Y322835D02*
D03*
X544370D02*
D03*
Y327835D02*
D03*
X539370D02*
D03*
X519685Y322835D02*
D03*
X524685D02*
D03*
Y327835D02*
D03*
X519685D02*
D03*
X500000Y322835D02*
D03*
X505000D02*
D03*
Y327835D02*
D03*
X500000D02*
D03*
X480315Y322835D02*
D03*
X485315D02*
D03*
Y327835D02*
D03*
X480315D02*
D03*
X460630Y322835D02*
D03*
X465630D02*
D03*
Y327835D02*
D03*
X460630D02*
D03*
X440945Y322835D02*
D03*
X445945D02*
D03*
Y327835D02*
D03*
X440945D02*
D03*
X421260Y322835D02*
D03*
X426260D02*
D03*
Y327835D02*
D03*
X421260D02*
D03*
X401575Y322835D02*
D03*
X406575D02*
D03*
Y327835D02*
D03*
X401575D02*
D03*
X381890Y322835D02*
D03*
X386890D02*
D03*
Y327835D02*
D03*
X381890D02*
D03*
X362205Y322835D02*
D03*
X367205D02*
D03*
Y327835D02*
D03*
X362205D02*
D03*
X342520Y322835D02*
D03*
X347520D02*
D03*
Y327835D02*
D03*
X342520D02*
D03*
X322835Y322835D02*
D03*
X327835D02*
D03*
Y327835D02*
D03*
X322835D02*
D03*
X327835Y308150D02*
D03*
X322835D02*
D03*
Y303150D02*
D03*
X327835D02*
D03*
X347520Y308150D02*
D03*
X342520D02*
D03*
Y303150D02*
D03*
X347520D02*
D03*
X367205Y308150D02*
D03*
X362205D02*
D03*
Y303150D02*
D03*
X367205D02*
D03*
X386890Y308150D02*
D03*
X381890D02*
D03*
Y303150D02*
D03*
X386890D02*
D03*
X406575Y308150D02*
D03*
X401575D02*
D03*
Y303150D02*
D03*
X406575D02*
D03*
X426260Y308150D02*
D03*
X421260D02*
D03*
Y303150D02*
D03*
X426260D02*
D03*
X445945Y308150D02*
D03*
X440945D02*
D03*
Y303150D02*
D03*
X445945D02*
D03*
X465630Y308150D02*
D03*
X460630D02*
D03*
Y303150D02*
D03*
X465630D02*
D03*
X485315Y308150D02*
D03*
X480315D02*
D03*
Y303150D02*
D03*
X485315D02*
D03*
X505000Y308150D02*
D03*
X500000D02*
D03*
Y303150D02*
D03*
X505000D02*
D03*
X524685Y308150D02*
D03*
X519685D02*
D03*
Y303150D02*
D03*
X524685D02*
D03*
X544370Y308150D02*
D03*
X539370D02*
D03*
Y303150D02*
D03*
X544370D02*
D03*
X564055Y308150D02*
D03*
X559055D02*
D03*
Y303150D02*
D03*
X564055D02*
D03*
X583740Y308150D02*
D03*
X578740D02*
D03*
Y303150D02*
D03*
X583740D02*
D03*
X603425Y308150D02*
D03*
X598425D02*
D03*
Y303150D02*
D03*
X603425D02*
D03*
X623110Y308150D02*
D03*
X618110D02*
D03*
Y303150D02*
D03*
X623110D02*
D03*
X642795Y308150D02*
D03*
X637795D02*
D03*
Y303150D02*
D03*
X642795D02*
D03*
X662480Y308150D02*
D03*
X657480D02*
D03*
Y303150D02*
D03*
X662480D02*
D03*
X682165Y308150D02*
D03*
X677165D02*
D03*
Y303150D02*
D03*
X682165D02*
D03*
X657480Y283465D02*
D03*
X662480D02*
D03*
Y288465D02*
D03*
X657480D02*
D03*
X637795Y283465D02*
D03*
X642795D02*
D03*
Y288465D02*
D03*
X637795D02*
D03*
X618110Y283465D02*
D03*
X623110D02*
D03*
Y288465D02*
D03*
X618110D02*
D03*
X598425Y283465D02*
D03*
X603425D02*
D03*
Y288465D02*
D03*
X598425D02*
D03*
X578740Y283465D02*
D03*
X583740D02*
D03*
Y288465D02*
D03*
X578740D02*
D03*
X559055Y283465D02*
D03*
X564055D02*
D03*
Y288465D02*
D03*
X559055D02*
D03*
X539370Y283465D02*
D03*
X544370D02*
D03*
Y288465D02*
D03*
X539370D02*
D03*
X519685Y283465D02*
D03*
X524685D02*
D03*
Y288465D02*
D03*
X519685D02*
D03*
X500000Y283465D02*
D03*
X505000D02*
D03*
Y288465D02*
D03*
X500000D02*
D03*
X480315Y283465D02*
D03*
X485315D02*
D03*
Y288465D02*
D03*
X480315D02*
D03*
X460630Y283465D02*
D03*
X465630D02*
D03*
Y288465D02*
D03*
X460630D02*
D03*
X440945Y283465D02*
D03*
X445945D02*
D03*
Y288465D02*
D03*
X440945D02*
D03*
X421260Y283465D02*
D03*
X426260D02*
D03*
Y288465D02*
D03*
X421260D02*
D03*
X401575Y283465D02*
D03*
X406575D02*
D03*
Y288465D02*
D03*
X401575D02*
D03*
X381890Y283465D02*
D03*
X386890D02*
D03*
Y288465D02*
D03*
X381890D02*
D03*
X362205Y283465D02*
D03*
X367205D02*
D03*
Y288465D02*
D03*
X362205D02*
D03*
X342520Y283465D02*
D03*
X347520D02*
D03*
Y288465D02*
D03*
X342520D02*
D03*
X322835Y283465D02*
D03*
X327835D02*
D03*
Y288465D02*
D03*
X322835D02*
D03*
X327835Y268779D02*
D03*
X322835D02*
D03*
Y263779D02*
D03*
X327835D02*
D03*
X347520Y268779D02*
D03*
X342520D02*
D03*
Y263779D02*
D03*
X347520D02*
D03*
X367205Y268779D02*
D03*
X362205D02*
D03*
Y263779D02*
D03*
X367205D02*
D03*
X386890Y268779D02*
D03*
X381890D02*
D03*
Y263779D02*
D03*
X386890D02*
D03*
X406575Y268779D02*
D03*
X401575D02*
D03*
Y263779D02*
D03*
X406575D02*
D03*
X426260Y268779D02*
D03*
X421260D02*
D03*
Y263779D02*
D03*
X426260D02*
D03*
X445945Y268779D02*
D03*
X440945D02*
D03*
Y263779D02*
D03*
X445945D02*
D03*
X465630Y268779D02*
D03*
X460630D02*
D03*
Y263779D02*
D03*
X465630D02*
D03*
X485315Y268779D02*
D03*
X480315D02*
D03*
Y263779D02*
D03*
X485315D02*
D03*
X505000Y268779D02*
D03*
X500000D02*
D03*
Y263779D02*
D03*
X505000D02*
D03*
X524685Y268779D02*
D03*
X519685D02*
D03*
Y263779D02*
D03*
X524685D02*
D03*
X544370Y268779D02*
D03*
X539370D02*
D03*
Y263779D02*
D03*
X544370D02*
D03*
X564055Y268779D02*
D03*
X559055D02*
D03*
Y263779D02*
D03*
X564055D02*
D03*
X583740Y268779D02*
D03*
X578740D02*
D03*
Y263779D02*
D03*
X583740D02*
D03*
X603425Y268779D02*
D03*
X598425D02*
D03*
Y263779D02*
D03*
X603425D02*
D03*
X623110Y268779D02*
D03*
X618110D02*
D03*
Y263779D02*
D03*
X623110D02*
D03*
X642795Y268779D02*
D03*
X637795D02*
D03*
Y263779D02*
D03*
X642795D02*
D03*
X662417Y268779D02*
D03*
X657417D02*
D03*
Y263779D02*
D03*
X662417D02*
D03*
X657480Y244094D02*
D03*
X662480D02*
D03*
Y249095D02*
D03*
X657480D02*
D03*
X637795Y244094D02*
D03*
X642795D02*
D03*
Y249095D02*
D03*
X637795D02*
D03*
X618110Y244094D02*
D03*
X623110D02*
D03*
Y249095D02*
D03*
X618110D02*
D03*
X598425Y244094D02*
D03*
X603425D02*
D03*
Y249095D02*
D03*
X598425D02*
D03*
X578740Y244094D02*
D03*
X583740D02*
D03*
Y249095D02*
D03*
X578740D02*
D03*
X559055Y244094D02*
D03*
X564055D02*
D03*
Y249095D02*
D03*
X559055D02*
D03*
X539370Y244094D02*
D03*
X544370D02*
D03*
Y249095D02*
D03*
X539370D02*
D03*
X519685Y244094D02*
D03*
X524685D02*
D03*
Y249095D02*
D03*
X519685D02*
D03*
X500000Y244094D02*
D03*
X505000D02*
D03*
Y249095D02*
D03*
X500000D02*
D03*
X480315Y244094D02*
D03*
X485315D02*
D03*
Y249095D02*
D03*
X480315D02*
D03*
X460630Y244094D02*
D03*
X465630D02*
D03*
Y249095D02*
D03*
X460630D02*
D03*
X440945Y244094D02*
D03*
X445945D02*
D03*
Y249095D02*
D03*
X440945D02*
D03*
X421260Y244094D02*
D03*
X426260D02*
D03*
Y249095D02*
D03*
X421260D02*
D03*
X401575Y244094D02*
D03*
X406575D02*
D03*
Y249095D02*
D03*
X401575D02*
D03*
X381890Y244094D02*
D03*
X386890D02*
D03*
Y249095D02*
D03*
X381890D02*
D03*
X362205Y244094D02*
D03*
X367205D02*
D03*
Y249095D02*
D03*
X362205D02*
D03*
X342520Y244094D02*
D03*
X347520D02*
D03*
Y249095D02*
D03*
X342520D02*
D03*
X322835Y244094D02*
D03*
X327835D02*
D03*
Y249095D02*
D03*
X322835D02*
D03*
X327835Y229410D02*
D03*
X322835D02*
D03*
Y224410D02*
D03*
X327835D02*
D03*
X347520Y229410D02*
D03*
X342520D02*
D03*
Y224410D02*
D03*
X347520D02*
D03*
X367205Y229410D02*
D03*
X362205D02*
D03*
Y224410D02*
D03*
X367205D02*
D03*
X386890Y229410D02*
D03*
X381890D02*
D03*
Y224410D02*
D03*
X386890D02*
D03*
X406575Y229410D02*
D03*
X401575D02*
D03*
Y224410D02*
D03*
X406575D02*
D03*
X426260Y229410D02*
D03*
X421260D02*
D03*
Y224410D02*
D03*
X426260D02*
D03*
X445945Y229410D02*
D03*
X440945D02*
D03*
Y224410D02*
D03*
X445945D02*
D03*
X465630Y229410D02*
D03*
X460630D02*
D03*
Y224410D02*
D03*
X465630D02*
D03*
X485315Y229410D02*
D03*
X480315D02*
D03*
Y224410D02*
D03*
X485315D02*
D03*
X505000Y229410D02*
D03*
X500000D02*
D03*
Y224410D02*
D03*
X505000D02*
D03*
X524685Y229410D02*
D03*
X519685D02*
D03*
Y224410D02*
D03*
X524685D02*
D03*
X544370Y229410D02*
D03*
X539370D02*
D03*
Y224410D02*
D03*
X544370D02*
D03*
X564055Y229410D02*
D03*
X559055D02*
D03*
Y224410D02*
D03*
X564055D02*
D03*
X583740Y229410D02*
D03*
X578740D02*
D03*
Y224410D02*
D03*
X583740D02*
D03*
X603425Y229410D02*
D03*
X598425D02*
D03*
Y224410D02*
D03*
X603425D02*
D03*
X623110Y229410D02*
D03*
X618110D02*
D03*
Y224410D02*
D03*
X623110D02*
D03*
X642795Y229410D02*
D03*
X637795D02*
D03*
Y224410D02*
D03*
X642795D02*
D03*
X637795Y204724D02*
D03*
X642795D02*
D03*
Y209724D02*
D03*
X637795D02*
D03*
X618110Y204724D02*
D03*
X623110D02*
D03*
Y209724D02*
D03*
X618110D02*
D03*
X598425Y204724D02*
D03*
X603425D02*
D03*
Y209724D02*
D03*
X598425D02*
D03*
X578740Y204724D02*
D03*
X583740D02*
D03*
Y209724D02*
D03*
X578740D02*
D03*
X559055Y204724D02*
D03*
X564055D02*
D03*
Y209724D02*
D03*
X559055D02*
D03*
X539370Y204724D02*
D03*
X544370D02*
D03*
Y209724D02*
D03*
X539370D02*
D03*
X519685Y204724D02*
D03*
X524685D02*
D03*
Y209724D02*
D03*
X519685D02*
D03*
X500000Y204724D02*
D03*
X505000D02*
D03*
Y209724D02*
D03*
X500000D02*
D03*
X480315Y204724D02*
D03*
X485315D02*
D03*
Y209724D02*
D03*
X480315D02*
D03*
X460630Y204724D02*
D03*
X465630D02*
D03*
Y209724D02*
D03*
X460630D02*
D03*
X440945Y204724D02*
D03*
X445945D02*
D03*
Y209724D02*
D03*
X440945D02*
D03*
X421260Y204724D02*
D03*
X426260D02*
D03*
Y209724D02*
D03*
X421260D02*
D03*
X401575Y204724D02*
D03*
X406575D02*
D03*
Y209724D02*
D03*
X401575D02*
D03*
X381890Y204724D02*
D03*
X386890D02*
D03*
Y209724D02*
D03*
X381890D02*
D03*
X362205Y204724D02*
D03*
X367205D02*
D03*
Y209724D02*
D03*
X362205D02*
D03*
X342520Y204724D02*
D03*
X347520D02*
D03*
Y209724D02*
D03*
X342520D02*
D03*
X322835Y204724D02*
D03*
X327835D02*
D03*
Y209724D02*
D03*
X322835D02*
D03*
X327835Y190039D02*
D03*
X322835D02*
D03*
Y185039D02*
D03*
X327835D02*
D03*
X347520Y190039D02*
D03*
X342520D02*
D03*
Y185039D02*
D03*
X347520D02*
D03*
X367205Y190039D02*
D03*
X362205D02*
D03*
Y185039D02*
D03*
X367205D02*
D03*
X386890Y190039D02*
D03*
X381890D02*
D03*
Y185039D02*
D03*
X386890D02*
D03*
X406575Y190039D02*
D03*
X401575D02*
D03*
Y185039D02*
D03*
X406575D02*
D03*
X426260Y190039D02*
D03*
X421260D02*
D03*
Y185039D02*
D03*
X426260D02*
D03*
X445945Y190039D02*
D03*
X440945D02*
D03*
Y185039D02*
D03*
X445945D02*
D03*
X465630Y190039D02*
D03*
X460630D02*
D03*
Y185039D02*
D03*
X465630D02*
D03*
X485315Y190039D02*
D03*
X480315D02*
D03*
Y185039D02*
D03*
X485315D02*
D03*
X505000Y190039D02*
D03*
X500000D02*
D03*
Y185039D02*
D03*
X505000D02*
D03*
X524685Y190039D02*
D03*
X519685D02*
D03*
Y185039D02*
D03*
X524685D02*
D03*
X544370Y190039D02*
D03*
X539370D02*
D03*
Y185039D02*
D03*
X544370D02*
D03*
X564055Y190039D02*
D03*
X559055D02*
D03*
Y185039D02*
D03*
X564055D02*
D03*
X583740Y190039D02*
D03*
X578740D02*
D03*
Y185039D02*
D03*
X583740D02*
D03*
X603425Y190039D02*
D03*
X598425D02*
D03*
Y185039D02*
D03*
X603425D02*
D03*
X623110Y190039D02*
D03*
X618110D02*
D03*
Y185039D02*
D03*
X623110D02*
D03*
X618110Y165354D02*
D03*
X623110D02*
D03*
Y170354D02*
D03*
X618110D02*
D03*
X598425Y165354D02*
D03*
X603425D02*
D03*
Y170354D02*
D03*
X598425D02*
D03*
X578740Y165354D02*
D03*
X583740D02*
D03*
Y170354D02*
D03*
X578740D02*
D03*
X559055Y165354D02*
D03*
X564055D02*
D03*
Y170354D02*
D03*
X559055D02*
D03*
X539370Y165354D02*
D03*
X544370D02*
D03*
Y170354D02*
D03*
X539370D02*
D03*
X519685Y165354D02*
D03*
X524685D02*
D03*
Y170354D02*
D03*
X519685D02*
D03*
X500000Y165354D02*
D03*
X505000D02*
D03*
Y170354D02*
D03*
X500000D02*
D03*
X480315Y165354D02*
D03*
X485315D02*
D03*
Y170354D02*
D03*
X480315D02*
D03*
X460630Y165354D02*
D03*
X465630D02*
D03*
Y170354D02*
D03*
X460630D02*
D03*
X440945Y165354D02*
D03*
X445945D02*
D03*
Y170354D02*
D03*
X440945D02*
D03*
X421260Y165354D02*
D03*
X426260D02*
D03*
Y170354D02*
D03*
X421260D02*
D03*
X401575Y165354D02*
D03*
X406575D02*
D03*
Y170354D02*
D03*
X401575D02*
D03*
X381890Y165354D02*
D03*
X386890D02*
D03*
Y170354D02*
D03*
X381890D02*
D03*
X362205Y165354D02*
D03*
X367205D02*
D03*
Y170354D02*
D03*
X362205D02*
D03*
X342520Y165354D02*
D03*
X347520D02*
D03*
Y170354D02*
D03*
X342520D02*
D03*
X322835Y165354D02*
D03*
X327835D02*
D03*
Y170354D02*
D03*
X322835D02*
D03*
X327835Y150669D02*
D03*
X322835D02*
D03*
Y145669D02*
D03*
X327835D02*
D03*
X347520Y150669D02*
D03*
X342520D02*
D03*
Y145669D02*
D03*
X347520D02*
D03*
X367205Y150669D02*
D03*
X362205D02*
D03*
Y145669D02*
D03*
X367205D02*
D03*
X386890Y150669D02*
D03*
X381890D02*
D03*
Y145669D02*
D03*
X386890D02*
D03*
X406575Y150669D02*
D03*
X401575D02*
D03*
Y145669D02*
D03*
X406575D02*
D03*
X426260Y150669D02*
D03*
X421260D02*
D03*
Y145669D02*
D03*
X426260D02*
D03*
X445945Y150669D02*
D03*
X440945D02*
D03*
Y145669D02*
D03*
X445945D02*
D03*
X465630Y150669D02*
D03*
X460630D02*
D03*
Y145669D02*
D03*
X465630D02*
D03*
X485315Y150669D02*
D03*
X480315D02*
D03*
Y145669D02*
D03*
X485315D02*
D03*
X505000Y150669D02*
D03*
X500000D02*
D03*
Y145669D02*
D03*
X505000D02*
D03*
X524685Y150669D02*
D03*
X519685D02*
D03*
Y145669D02*
D03*
X524685D02*
D03*
X544370Y150669D02*
D03*
X539370D02*
D03*
Y145669D02*
D03*
X544370D02*
D03*
X564055Y150669D02*
D03*
X559055D02*
D03*
Y145669D02*
D03*
X564055D02*
D03*
X583740Y150669D02*
D03*
X578740D02*
D03*
Y145669D02*
D03*
X583740D02*
D03*
X603425Y150669D02*
D03*
X598425D02*
D03*
Y145669D02*
D03*
X603425D02*
D03*
X598425Y125984D02*
D03*
X603425D02*
D03*
Y130984D02*
D03*
X598425D02*
D03*
X578740Y125984D02*
D03*
X583740D02*
D03*
Y130984D02*
D03*
X578740D02*
D03*
X559055Y125984D02*
D03*
X564055D02*
D03*
Y130984D02*
D03*
X559055D02*
D03*
X539370Y125984D02*
D03*
X544370D02*
D03*
Y130984D02*
D03*
X539370D02*
D03*
X519685Y125984D02*
D03*
X524685D02*
D03*
Y130984D02*
D03*
X519685D02*
D03*
X500000Y125984D02*
D03*
X505000D02*
D03*
Y130984D02*
D03*
X500000D02*
D03*
X480315Y125984D02*
D03*
X485315D02*
D03*
Y130984D02*
D03*
X480315D02*
D03*
X460630Y125984D02*
D03*
X465630D02*
D03*
Y130984D02*
D03*
X460630D02*
D03*
X440945Y125984D02*
D03*
X445945D02*
D03*
Y130984D02*
D03*
X440945D02*
D03*
X421260Y125984D02*
D03*
X426260D02*
D03*
Y130984D02*
D03*
X421260D02*
D03*
X401575Y125984D02*
D03*
X406575D02*
D03*
Y130984D02*
D03*
X401575D02*
D03*
X381890Y125984D02*
D03*
X386890D02*
D03*
Y130984D02*
D03*
X381890D02*
D03*
X362205Y125984D02*
D03*
X367205D02*
D03*
Y130984D02*
D03*
X362205D02*
D03*
X342520Y125984D02*
D03*
X347520D02*
D03*
Y130984D02*
D03*
X342520D02*
D03*
X322835Y125984D02*
D03*
X327835D02*
D03*
Y130984D02*
D03*
X322835D02*
D03*
X327835Y111299D02*
D03*
X322835D02*
D03*
Y106299D02*
D03*
X327835D02*
D03*
X347520Y111299D02*
D03*
X342520D02*
D03*
Y106299D02*
D03*
X347520D02*
D03*
X367205Y111299D02*
D03*
X362205D02*
D03*
Y106299D02*
D03*
X367205D02*
D03*
X386890Y111299D02*
D03*
X381890D02*
D03*
Y106299D02*
D03*
X386890D02*
D03*
X406575Y111299D02*
D03*
X401575D02*
D03*
Y106299D02*
D03*
X406575D02*
D03*
X426260Y111299D02*
D03*
X421260D02*
D03*
Y106299D02*
D03*
X426260D02*
D03*
X445945Y111299D02*
D03*
X440945D02*
D03*
Y106299D02*
D03*
X445945D02*
D03*
X465630Y111299D02*
D03*
X460630D02*
D03*
Y106299D02*
D03*
X465630D02*
D03*
X485315Y111299D02*
D03*
X480315D02*
D03*
Y106299D02*
D03*
X485315D02*
D03*
X505000Y111299D02*
D03*
X500000D02*
D03*
Y106299D02*
D03*
X505000D02*
D03*
X524685Y111299D02*
D03*
X519685D02*
D03*
Y106299D02*
D03*
X524685D02*
D03*
X544370Y111299D02*
D03*
X539370D02*
D03*
Y106299D02*
D03*
X544370D02*
D03*
X564055Y111299D02*
D03*
X559055D02*
D03*
Y106299D02*
D03*
X564055D02*
D03*
X583740Y111299D02*
D03*
X578740D02*
D03*
Y106299D02*
D03*
X583740D02*
D03*
X578740Y86614D02*
D03*
X583740D02*
D03*
Y91614D02*
D03*
X578740D02*
D03*
X559055Y86614D02*
D03*
X564055D02*
D03*
Y91614D02*
D03*
X559055D02*
D03*
X539370Y86614D02*
D03*
X544370D02*
D03*
Y91614D02*
D03*
X539370D02*
D03*
X519685Y86614D02*
D03*
X524685D02*
D03*
Y91614D02*
D03*
X519685D02*
D03*
X500000Y86614D02*
D03*
X505000D02*
D03*
Y91614D02*
D03*
X500000D02*
D03*
X480315Y86614D02*
D03*
X485315D02*
D03*
Y91614D02*
D03*
X480315D02*
D03*
X460630Y86614D02*
D03*
X465630D02*
D03*
Y91614D02*
D03*
X460630D02*
D03*
X440945Y86614D02*
D03*
X445945D02*
D03*
Y91614D02*
D03*
X440945D02*
D03*
X421260Y86614D02*
D03*
X426260D02*
D03*
Y91614D02*
D03*
X421260D02*
D03*
X401575Y86614D02*
D03*
X406575D02*
D03*
Y91614D02*
D03*
X401575D02*
D03*
X381890Y86614D02*
D03*
X386890D02*
D03*
Y91614D02*
D03*
X381890D02*
D03*
X362205Y86614D02*
D03*
X367205D02*
D03*
Y91614D02*
D03*
X362205D02*
D03*
X342520Y86614D02*
D03*
X347520D02*
D03*
Y91614D02*
D03*
X342520D02*
D03*
X322835Y86614D02*
D03*
X327835D02*
D03*
Y91614D02*
D03*
X322835D02*
D03*
X327835Y71929D02*
D03*
X322835D02*
D03*
Y66929D02*
D03*
X327835D02*
D03*
X347520Y71929D02*
D03*
X342520D02*
D03*
Y66929D02*
D03*
X347520D02*
D03*
X367205Y71929D02*
D03*
X362205D02*
D03*
Y66929D02*
D03*
X367205D02*
D03*
X386890Y71929D02*
D03*
X381890D02*
D03*
Y66929D02*
D03*
X386890D02*
D03*
X406512Y71929D02*
D03*
X401512D02*
D03*
Y66929D02*
D03*
X406512D02*
D03*
X426260Y71929D02*
D03*
X421260D02*
D03*
Y66929D02*
D03*
X426260D02*
D03*
X445945Y71929D02*
D03*
X440945D02*
D03*
Y66929D02*
D03*
X445945D02*
D03*
X465630Y71929D02*
D03*
X460630D02*
D03*
Y66929D02*
D03*
X465630D02*
D03*
X485315Y71929D02*
D03*
X480315D02*
D03*
Y66929D02*
D03*
X485315D02*
D03*
X505000Y71929D02*
D03*
X500000D02*
D03*
Y66929D02*
D03*
X505000D02*
D03*
X524685Y71929D02*
D03*
X519685D02*
D03*
Y66929D02*
D03*
X524685D02*
D03*
X544307Y71929D02*
D03*
X539307D02*
D03*
Y66929D02*
D03*
X544307D02*
D03*
X564055Y71929D02*
D03*
X559055D02*
D03*
Y66929D02*
D03*
X564055D02*
D03*
X583740Y71929D02*
D03*
X578740D02*
D03*
Y66929D02*
D03*
X583740D02*
D03*
X559055Y47244D02*
D03*
X564055D02*
D03*
Y52244D02*
D03*
X559055D02*
D03*
X539370Y47244D02*
D03*
X544370D02*
D03*
Y52244D02*
D03*
X539370D02*
D03*
X519685Y47244D02*
D03*
X524685D02*
D03*
Y52244D02*
D03*
X519685D02*
D03*
X500000Y47244D02*
D03*
X505000D02*
D03*
Y52244D02*
D03*
X500000D02*
D03*
X480315Y47244D02*
D03*
X485315D02*
D03*
Y52244D02*
D03*
X480315D02*
D03*
X460630Y47244D02*
D03*
X465630D02*
D03*
Y52244D02*
D03*
X460630D02*
D03*
X440945Y47244D02*
D03*
X445945D02*
D03*
Y52244D02*
D03*
X440945D02*
D03*
X421260Y47244D02*
D03*
X426260D02*
D03*
Y52244D02*
D03*
X421260D02*
D03*
X401575Y47244D02*
D03*
X406575D02*
D03*
Y52244D02*
D03*
X401575D02*
D03*
X381890Y47244D02*
D03*
X386890D02*
D03*
Y52244D02*
D03*
X381890D02*
D03*
X362205Y47244D02*
D03*
X367205D02*
D03*
Y52244D02*
D03*
X362205D02*
D03*
X342520Y47244D02*
D03*
X347520D02*
D03*
Y52244D02*
D03*
X342520D02*
D03*
X322835Y47244D02*
D03*
X327835D02*
D03*
Y52244D02*
D03*
X322835D02*
D03*
X327835Y32559D02*
D03*
X322835D02*
D03*
Y27559D02*
D03*
X327835D02*
D03*
X347520Y32559D02*
D03*
X342520D02*
D03*
Y27559D02*
D03*
X347520D02*
D03*
X367205Y32559D02*
D03*
X362205D02*
D03*
Y27559D02*
D03*
X367205D02*
D03*
X386890Y32559D02*
D03*
X381890D02*
D03*
Y27559D02*
D03*
X386890D02*
D03*
X406575Y32559D02*
D03*
X401575D02*
D03*
Y27559D02*
D03*
X406575D02*
D03*
X426260Y32559D02*
D03*
X421260D02*
D03*
Y27559D02*
D03*
X426260D02*
D03*
X445945Y32559D02*
D03*
X440945D02*
D03*
Y27559D02*
D03*
X445945D02*
D03*
X465630Y32559D02*
D03*
X460630D02*
D03*
Y27559D02*
D03*
X465630D02*
D03*
X485315Y32559D02*
D03*
X480315D02*
D03*
Y27559D02*
D03*
X485315D02*
D03*
X505000Y32559D02*
D03*
X500000D02*
D03*
Y27559D02*
D03*
X505000D02*
D03*
X524685Y32559D02*
D03*
X519685D02*
D03*
Y27559D02*
D03*
X524685D02*
D03*
X544370Y32559D02*
D03*
X539370D02*
D03*
Y27559D02*
D03*
X544370D02*
D03*
X564055Y32559D02*
D03*
X559055D02*
D03*
Y27559D02*
D03*
X564055D02*
D03*
X539370Y7874D02*
D03*
X544370D02*
D03*
Y12874D02*
D03*
X539370D02*
D03*
X519685Y7874D02*
D03*
X524685D02*
D03*
Y12874D02*
D03*
X519685D02*
D03*
X500000Y7874D02*
D03*
X505000D02*
D03*
Y12874D02*
D03*
X500000D02*
D03*
X480315Y7874D02*
D03*
X485315D02*
D03*
Y12874D02*
D03*
X480315D02*
D03*
X460630Y7874D02*
D03*
X465630D02*
D03*
Y12874D02*
D03*
X460630D02*
D03*
X440945Y7874D02*
D03*
X445945D02*
D03*
Y12874D02*
D03*
X440945D02*
D03*
X421260Y7874D02*
D03*
X426260D02*
D03*
Y12874D02*
D03*
X421260D02*
D03*
X401575Y7874D02*
D03*
X406575D02*
D03*
Y12874D02*
D03*
X401575D02*
D03*
X381890Y7874D02*
D03*
X386890D02*
D03*
Y12874D02*
D03*
X381890D02*
D03*
X362205Y7874D02*
D03*
X367205D02*
D03*
Y12874D02*
D03*
X362205D02*
D03*
X342520Y7874D02*
D03*
X347520D02*
D03*
Y12874D02*
D03*
X342520D02*
D03*
D28*
X370079Y408661D02*
D03*
Y398425D02*
D03*
X486221Y448032D02*
D03*
Y437795D02*
D03*
X616142Y428346D02*
D03*
Y418110D02*
D03*
X677165Y349606D02*
D03*
Y339370D02*
D03*
X655512Y231496D02*
D03*
Y221260D02*
D03*
X578740Y54331D02*
D03*
Y44094D02*
D03*
X11811Y158268D02*
D03*
X68898Y280315D02*
D03*
X127953Y301969D02*
D03*
X169291Y319685D02*
D03*
X226378Y341339D02*
D03*
Y351575D02*
D03*
X169291Y329921D02*
D03*
X127953Y312205D02*
D03*
X68898Y290551D02*
D03*
X11811Y168504D02*
D03*
D29*
X306299Y360236D02*
D03*
X296063D02*
D03*
D30*
X68898Y53307D02*
D03*
X598425Y108425D02*
D03*
D31*
X68898Y43307D02*
D03*
X598425Y98425D02*
D03*
D32*
X288933Y368167D02*
D03*
Y361277D02*
D03*
X275153D02*
D03*
X275153Y368167D02*
D03*
X235753Y341558D02*
D03*
Y348448D02*
D03*
X249533D02*
D03*
X249533Y341558D02*
D03*
X255437D02*
D03*
Y348448D02*
D03*
X269217D02*
D03*
X269217Y341558D02*
D03*
X275123D02*
D03*
Y348448D02*
D03*
X288903D02*
D03*
X288903Y341558D02*
D03*
X294808D02*
D03*
Y348448D02*
D03*
X308588D02*
D03*
X308588Y341558D02*
D03*
X308618Y328797D02*
D03*
Y321907D02*
D03*
X294838D02*
D03*
X294838Y328797D02*
D03*
X288933D02*
D03*
Y321907D02*
D03*
X275153D02*
D03*
X275153Y328797D02*
D03*
X269248D02*
D03*
Y321907D02*
D03*
X255468D02*
D03*
X255468Y328797D02*
D03*
X249563D02*
D03*
Y321907D02*
D03*
X235783D02*
D03*
X235783Y328797D02*
D03*
X229877D02*
D03*
Y321907D02*
D03*
X216097D02*
D03*
X216097Y328797D02*
D03*
X210192D02*
D03*
Y321907D02*
D03*
X196412D02*
D03*
X196412Y328797D02*
D03*
X190507D02*
D03*
Y321907D02*
D03*
X176727D02*
D03*
X176727Y328797D02*
D03*
X137327Y302187D02*
D03*
Y309078D02*
D03*
X151107D02*
D03*
X151107Y302187D02*
D03*
X157012D02*
D03*
Y309078D02*
D03*
X170792D02*
D03*
X170792Y302187D02*
D03*
X176697D02*
D03*
Y309078D02*
D03*
X190477D02*
D03*
X190477Y302187D02*
D03*
X196382D02*
D03*
Y309078D02*
D03*
X210162D02*
D03*
X210162Y302187D02*
D03*
X216067D02*
D03*
Y309078D02*
D03*
X229847D02*
D03*
X229847Y302187D02*
D03*
X235753D02*
D03*
Y309078D02*
D03*
X249533D02*
D03*
X249533Y302187D02*
D03*
X255437D02*
D03*
Y309078D02*
D03*
X269217D02*
D03*
X269217Y302187D02*
D03*
X275123D02*
D03*
Y309078D02*
D03*
X288903D02*
D03*
X288903Y302187D02*
D03*
X294808D02*
D03*
Y309078D02*
D03*
X308588D02*
D03*
X308588Y302187D02*
D03*
X308618Y289427D02*
D03*
Y282537D02*
D03*
X294838D02*
D03*
X294838Y289427D02*
D03*
X288933D02*
D03*
Y282537D02*
D03*
X275153D02*
D03*
X275153Y289427D02*
D03*
X269248D02*
D03*
Y282537D02*
D03*
X255468D02*
D03*
X255468Y289427D02*
D03*
X249563D02*
D03*
Y282537D02*
D03*
X235783D02*
D03*
X235783Y289427D02*
D03*
X229877D02*
D03*
Y282537D02*
D03*
X216097D02*
D03*
X216097Y289427D02*
D03*
X210192D02*
D03*
Y282537D02*
D03*
X196412D02*
D03*
X196412Y289427D02*
D03*
X190507D02*
D03*
Y282537D02*
D03*
X176727D02*
D03*
X176727Y289427D02*
D03*
X170822D02*
D03*
Y282537D02*
D03*
X157042D02*
D03*
X157042Y289427D02*
D03*
X151137D02*
D03*
Y282537D02*
D03*
X137357D02*
D03*
X137357Y289427D02*
D03*
X131452D02*
D03*
Y282537D02*
D03*
X117672D02*
D03*
X117672Y289427D02*
D03*
X111767D02*
D03*
Y282537D02*
D03*
X97987D02*
D03*
X97987Y289427D02*
D03*
X92082D02*
D03*
Y282537D02*
D03*
X78302D02*
D03*
X78302Y289427D02*
D03*
X38902Y262817D02*
D03*
Y269707D02*
D03*
X52682D02*
D03*
X52682Y262817D02*
D03*
X58587D02*
D03*
Y269707D02*
D03*
X72367D02*
D03*
X72367Y262817D02*
D03*
X78272D02*
D03*
Y269707D02*
D03*
X92052D02*
D03*
X92052Y262817D02*
D03*
X97957D02*
D03*
Y269707D02*
D03*
X111737D02*
D03*
X111737Y262817D02*
D03*
X117642D02*
D03*
Y269707D02*
D03*
X131422D02*
D03*
X131422Y262817D02*
D03*
X137327D02*
D03*
Y269707D02*
D03*
X151107D02*
D03*
X151107Y262817D02*
D03*
X157012D02*
D03*
Y269707D02*
D03*
X170792D02*
D03*
X170792Y262817D02*
D03*
X176697D02*
D03*
Y269707D02*
D03*
X190477D02*
D03*
X190477Y262817D02*
D03*
X196382D02*
D03*
Y269707D02*
D03*
X210162D02*
D03*
X210162Y262817D02*
D03*
X216067D02*
D03*
Y269707D02*
D03*
X229847D02*
D03*
X229847Y262817D02*
D03*
X235753D02*
D03*
Y269707D02*
D03*
X249533D02*
D03*
X249533Y262817D02*
D03*
X255437D02*
D03*
Y269707D02*
D03*
X269217D02*
D03*
X269217Y262817D02*
D03*
X275123D02*
D03*
Y269707D02*
D03*
X288903D02*
D03*
X288903Y262817D02*
D03*
X294808Y262818D02*
D03*
Y269707D02*
D03*
X308588D02*
D03*
X308588Y262818D02*
D03*
X308618Y250057D02*
D03*
Y243167D02*
D03*
X294838D02*
D03*
X294838Y250057D02*
D03*
X288933D02*
D03*
Y243167D02*
D03*
X275153D02*
D03*
X275153Y250057D02*
D03*
X269248D02*
D03*
Y243167D02*
D03*
X255468D02*
D03*
X255468Y250057D02*
D03*
X249563D02*
D03*
Y243167D02*
D03*
X235783D02*
D03*
X235783Y250057D02*
D03*
X229877D02*
D03*
Y243167D02*
D03*
X216097D02*
D03*
X216097Y250057D02*
D03*
X210192D02*
D03*
Y243167D02*
D03*
X196412D02*
D03*
X196412Y250057D02*
D03*
X190507D02*
D03*
Y243167D02*
D03*
X176727D02*
D03*
X176727Y250057D02*
D03*
X170822D02*
D03*
Y243167D02*
D03*
X157042D02*
D03*
X157042Y250057D02*
D03*
X151137D02*
D03*
Y243167D02*
D03*
X137357D02*
D03*
X137357Y250057D02*
D03*
X131452D02*
D03*
Y243167D02*
D03*
X117672D02*
D03*
X117672Y250057D02*
D03*
X111767D02*
D03*
Y243167D02*
D03*
X97987D02*
D03*
X97987Y250057D02*
D03*
X92082D02*
D03*
Y243167D02*
D03*
X78302D02*
D03*
X78302Y250057D02*
D03*
X72397D02*
D03*
Y243167D02*
D03*
X58617D02*
D03*
X58617Y250057D02*
D03*
X52712D02*
D03*
Y243167D02*
D03*
X38932D02*
D03*
X38932Y250057D02*
D03*
X33027D02*
D03*
Y243167D02*
D03*
X19247D02*
D03*
X19247Y250057D02*
D03*
X19217Y223447D02*
D03*
Y230337D02*
D03*
X32997D02*
D03*
X32997Y223447D02*
D03*
X38902D02*
D03*
Y230337D02*
D03*
X52682D02*
D03*
X52682Y223447D02*
D03*
X58587D02*
D03*
Y230337D02*
D03*
X72367D02*
D03*
X72367Y223447D02*
D03*
X78272D02*
D03*
Y230337D02*
D03*
X92052D02*
D03*
X92052Y223447D02*
D03*
X97957D02*
D03*
Y230337D02*
D03*
X111737D02*
D03*
X111737Y223447D02*
D03*
X117642D02*
D03*
Y230337D02*
D03*
X131422D02*
D03*
X131422Y223447D02*
D03*
X137327D02*
D03*
Y230337D02*
D03*
X151107D02*
D03*
X151107Y223447D02*
D03*
X157012D02*
D03*
Y230337D02*
D03*
X170792D02*
D03*
X170792Y223447D02*
D03*
X176697D02*
D03*
Y230337D02*
D03*
X190477D02*
D03*
X190477Y223447D02*
D03*
X196382D02*
D03*
Y230337D02*
D03*
X210162D02*
D03*
X210162Y223447D02*
D03*
X216067D02*
D03*
Y230337D02*
D03*
X229847D02*
D03*
X229847Y223447D02*
D03*
X235753D02*
D03*
Y230337D02*
D03*
X249533D02*
D03*
X249533Y223447D02*
D03*
X255437D02*
D03*
Y230337D02*
D03*
X269217D02*
D03*
X269217Y223447D02*
D03*
X275123D02*
D03*
Y230337D02*
D03*
X288903D02*
D03*
X288903Y223447D02*
D03*
X294808D02*
D03*
Y230337D02*
D03*
X308588D02*
D03*
X308588Y223447D02*
D03*
X308618Y210686D02*
D03*
Y203797D02*
D03*
X294838D02*
D03*
X294838Y210686D02*
D03*
X288933D02*
D03*
Y203797D02*
D03*
X275153D02*
D03*
X275153Y210686D02*
D03*
X269248D02*
D03*
Y203797D02*
D03*
X255468D02*
D03*
X255468Y210686D02*
D03*
X249563D02*
D03*
Y203797D02*
D03*
X235783D02*
D03*
X235783Y210686D02*
D03*
X229877D02*
D03*
Y203797D02*
D03*
X216097D02*
D03*
X216097Y210686D02*
D03*
X210192D02*
D03*
Y203797D02*
D03*
X196412D02*
D03*
X196412Y210686D02*
D03*
X190507D02*
D03*
Y203797D02*
D03*
X176727D02*
D03*
X176727Y210686D02*
D03*
X170822D02*
D03*
Y203797D02*
D03*
X157042D02*
D03*
X157042Y210686D02*
D03*
X151137D02*
D03*
Y203797D02*
D03*
X137357D02*
D03*
X137357Y210686D02*
D03*
X131452D02*
D03*
Y203797D02*
D03*
X117672D02*
D03*
X117672Y210686D02*
D03*
X111767D02*
D03*
Y203797D02*
D03*
X97987D02*
D03*
X97987Y210686D02*
D03*
X92082D02*
D03*
Y203797D02*
D03*
X78302D02*
D03*
X78302Y210686D02*
D03*
X72397D02*
D03*
Y203797D02*
D03*
X58617D02*
D03*
X58617Y210686D02*
D03*
X52712D02*
D03*
Y203797D02*
D03*
X38932D02*
D03*
X38932Y210686D02*
D03*
X33027D02*
D03*
Y203797D02*
D03*
X19247D02*
D03*
X19247Y210686D02*
D03*
X19217Y184077D02*
D03*
Y190967D02*
D03*
X32997D02*
D03*
X32997Y184077D02*
D03*
X38902D02*
D03*
Y190967D02*
D03*
X52682D02*
D03*
X52682Y184077D02*
D03*
X58587D02*
D03*
Y190967D02*
D03*
X72367D02*
D03*
X72367Y184077D02*
D03*
X78272D02*
D03*
Y190967D02*
D03*
X92052D02*
D03*
X92052Y184077D02*
D03*
X97957D02*
D03*
Y190967D02*
D03*
X111737D02*
D03*
X111737Y184077D02*
D03*
X117642D02*
D03*
Y190967D02*
D03*
X131422D02*
D03*
X131422Y184077D02*
D03*
X137327D02*
D03*
Y190967D02*
D03*
X151107D02*
D03*
X151107Y184077D02*
D03*
X157012D02*
D03*
Y190967D02*
D03*
X170792D02*
D03*
X170792Y184077D02*
D03*
X176697D02*
D03*
Y190967D02*
D03*
X190477D02*
D03*
X190477Y184077D02*
D03*
X196382D02*
D03*
Y190967D02*
D03*
X210162D02*
D03*
X210162Y184077D02*
D03*
X216067D02*
D03*
Y190967D02*
D03*
X229847D02*
D03*
X229847Y184077D02*
D03*
X235753D02*
D03*
Y190967D02*
D03*
X249533D02*
D03*
X249533Y184077D02*
D03*
X255437D02*
D03*
Y190967D02*
D03*
X269217D02*
D03*
X269217Y184077D02*
D03*
X275123D02*
D03*
Y190967D02*
D03*
X288903D02*
D03*
X288903Y184077D02*
D03*
X294808D02*
D03*
Y190967D02*
D03*
X308588D02*
D03*
X308588Y184077D02*
D03*
X308618Y171317D02*
D03*
Y164427D02*
D03*
X294838D02*
D03*
X294838Y171317D02*
D03*
X288933D02*
D03*
Y164427D02*
D03*
X275153D02*
D03*
X275153Y171317D02*
D03*
X269248D02*
D03*
Y164427D02*
D03*
X255468D02*
D03*
X255468Y171317D02*
D03*
X249563D02*
D03*
Y164427D02*
D03*
X235783D02*
D03*
X235783Y171317D02*
D03*
X229877D02*
D03*
Y164427D02*
D03*
X216097D02*
D03*
X216097Y171317D02*
D03*
X210192D02*
D03*
Y164427D02*
D03*
X196412D02*
D03*
X196412Y171317D02*
D03*
X190507D02*
D03*
Y164427D02*
D03*
X176727D02*
D03*
X176727Y171317D02*
D03*
X170822D02*
D03*
Y164427D02*
D03*
X157042D02*
D03*
X157042Y171317D02*
D03*
X151137D02*
D03*
Y164427D02*
D03*
X137357D02*
D03*
X137357Y171317D02*
D03*
X131452D02*
D03*
Y164427D02*
D03*
X117672D02*
D03*
X117672Y171317D02*
D03*
X111767D02*
D03*
Y164427D02*
D03*
X97987D02*
D03*
X97987Y171317D02*
D03*
X92082D02*
D03*
Y164427D02*
D03*
X78302D02*
D03*
X78302Y171317D02*
D03*
X72397D02*
D03*
Y164427D02*
D03*
X58617D02*
D03*
X58617Y171317D02*
D03*
X52712D02*
D03*
Y164427D02*
D03*
X38932D02*
D03*
X38932Y171317D02*
D03*
X33027D02*
D03*
Y164427D02*
D03*
X19247D02*
D03*
X19247Y171317D02*
D03*
X19217Y144707D02*
D03*
Y151597D02*
D03*
X32997D02*
D03*
X32997Y144707D02*
D03*
X38902D02*
D03*
Y151597D02*
D03*
X52682D02*
D03*
X52682Y144707D02*
D03*
X58587D02*
D03*
Y151597D02*
D03*
X72367D02*
D03*
X72367Y144707D02*
D03*
X78272D02*
D03*
Y151597D02*
D03*
X92052D02*
D03*
X92052Y144707D02*
D03*
X97957D02*
D03*
Y151597D02*
D03*
X111737D02*
D03*
X111737Y144707D02*
D03*
X117642D02*
D03*
Y151597D02*
D03*
X131422D02*
D03*
X131422Y144707D02*
D03*
X137327D02*
D03*
Y151597D02*
D03*
X151107D02*
D03*
X151107Y144707D02*
D03*
X157012D02*
D03*
Y151597D02*
D03*
X170792D02*
D03*
X170792Y144707D02*
D03*
X176697D02*
D03*
Y151597D02*
D03*
X190477D02*
D03*
X190477Y144707D02*
D03*
X196382D02*
D03*
Y151597D02*
D03*
X210162D02*
D03*
X210162Y144707D02*
D03*
X216067D02*
D03*
Y151597D02*
D03*
X229847D02*
D03*
X229847Y144707D02*
D03*
X235753D02*
D03*
Y151597D02*
D03*
X249533D02*
D03*
X249533Y144707D02*
D03*
X255437D02*
D03*
Y151597D02*
D03*
X269217D02*
D03*
X269217Y144707D02*
D03*
X275123D02*
D03*
Y151597D02*
D03*
X288903D02*
D03*
X288903Y144707D02*
D03*
X294808D02*
D03*
Y151597D02*
D03*
X308588D02*
D03*
X308588Y144707D02*
D03*
X308618Y131946D02*
D03*
Y125056D02*
D03*
X294838D02*
D03*
X294838Y131946D02*
D03*
X288933D02*
D03*
Y125056D02*
D03*
X275153D02*
D03*
X275153Y131946D02*
D03*
X269248D02*
D03*
Y125056D02*
D03*
X255468D02*
D03*
X255468Y131946D02*
D03*
X249563D02*
D03*
Y125056D02*
D03*
X235783D02*
D03*
X235783Y131946D02*
D03*
X229877D02*
D03*
Y125056D02*
D03*
X216097D02*
D03*
X216097Y131946D02*
D03*
X210192D02*
D03*
Y125056D02*
D03*
X196412D02*
D03*
X196412Y131946D02*
D03*
X190507D02*
D03*
Y125056D02*
D03*
X176727D02*
D03*
X176727Y131946D02*
D03*
X170822D02*
D03*
Y125056D02*
D03*
X157042D02*
D03*
X157042Y131946D02*
D03*
X151137D02*
D03*
Y125056D02*
D03*
X137357D02*
D03*
X137357Y131946D02*
D03*
X131452D02*
D03*
Y125056D02*
D03*
X117672D02*
D03*
X117672Y131946D02*
D03*
X111767D02*
D03*
Y125056D02*
D03*
X97987D02*
D03*
X97987Y131946D02*
D03*
X92082D02*
D03*
Y125056D02*
D03*
X78302D02*
D03*
X78302Y131946D02*
D03*
X72397D02*
D03*
Y125056D02*
D03*
X58617D02*
D03*
X58617Y131946D02*
D03*
X52712D02*
D03*
Y125056D02*
D03*
X38932D02*
D03*
X38932Y131946D02*
D03*
X38902Y105337D02*
D03*
Y112227D02*
D03*
X52682D02*
D03*
X52682Y105337D02*
D03*
X58587D02*
D03*
Y112227D02*
D03*
X72367D02*
D03*
X72367Y105337D02*
D03*
X78272D02*
D03*
Y112227D02*
D03*
X92052D02*
D03*
X92052Y105337D02*
D03*
X97957D02*
D03*
Y112227D02*
D03*
X111737D02*
D03*
X111737Y105337D02*
D03*
X117642D02*
D03*
Y112227D02*
D03*
X131422D02*
D03*
X131422Y105337D02*
D03*
X137327D02*
D03*
Y112227D02*
D03*
X151107D02*
D03*
X151107Y105337D02*
D03*
X157012D02*
D03*
Y112227D02*
D03*
X170792D02*
D03*
X170792Y105337D02*
D03*
X176697D02*
D03*
Y112227D02*
D03*
X190477D02*
D03*
X190477Y105337D02*
D03*
X196382D02*
D03*
Y112227D02*
D03*
X210162D02*
D03*
X210162Y105337D02*
D03*
X216067D02*
D03*
Y112227D02*
D03*
X229847D02*
D03*
X229847Y105337D02*
D03*
X235753D02*
D03*
Y112227D02*
D03*
X249533D02*
D03*
X249533Y105337D02*
D03*
X255437D02*
D03*
Y112227D02*
D03*
X269217D02*
D03*
X269217Y105337D02*
D03*
X275123D02*
D03*
Y112227D02*
D03*
X288903D02*
D03*
X288903Y105337D02*
D03*
X294808D02*
D03*
Y112227D02*
D03*
X308588D02*
D03*
X308588Y105337D02*
D03*
X308618Y92576D02*
D03*
Y85686D02*
D03*
X294838D02*
D03*
X294838Y92576D02*
D03*
X288933D02*
D03*
Y85686D02*
D03*
X275153D02*
D03*
X275153Y92576D02*
D03*
X269248D02*
D03*
Y85686D02*
D03*
X255468D02*
D03*
X255468Y92576D02*
D03*
X249563D02*
D03*
Y85686D02*
D03*
X235783D02*
D03*
X235783Y92576D02*
D03*
X229877D02*
D03*
Y85686D02*
D03*
X216097D02*
D03*
X216097Y92576D02*
D03*
X210192D02*
D03*
Y85686D02*
D03*
X196412D02*
D03*
X196412Y92576D02*
D03*
X190507D02*
D03*
Y85686D02*
D03*
X176727D02*
D03*
X176727Y92576D02*
D03*
X170822D02*
D03*
Y85686D02*
D03*
X157042D02*
D03*
X157042Y92576D02*
D03*
X151137D02*
D03*
Y85686D02*
D03*
X137357D02*
D03*
X137357Y92576D02*
D03*
X131452D02*
D03*
Y85686D02*
D03*
X117672D02*
D03*
X117672Y92576D02*
D03*
X111767D02*
D03*
Y85686D02*
D03*
X97987D02*
D03*
X97987Y92576D02*
D03*
X92082D02*
D03*
Y85686D02*
D03*
X78302D02*
D03*
X78302Y92576D02*
D03*
X72397D02*
D03*
Y85686D02*
D03*
X58617D02*
D03*
X58617Y92576D02*
D03*
X58587Y65967D02*
D03*
Y72857D02*
D03*
X72367D02*
D03*
X72367Y65967D02*
D03*
X78272D02*
D03*
Y72857D02*
D03*
X92052D02*
D03*
X92052Y65967D02*
D03*
X97957D02*
D03*
Y72857D02*
D03*
X111737D02*
D03*
X111737Y65967D02*
D03*
X117642D02*
D03*
Y72857D02*
D03*
X131422D02*
D03*
X131422Y65967D02*
D03*
X137327D02*
D03*
Y72857D02*
D03*
X151107D02*
D03*
X151107Y65967D02*
D03*
X157012D02*
D03*
Y72857D02*
D03*
X170792D02*
D03*
X170792Y65967D02*
D03*
X176697D02*
D03*
Y72857D02*
D03*
X190477D02*
D03*
X190477Y65967D02*
D03*
X196382D02*
D03*
Y72857D02*
D03*
X210162D02*
D03*
X210162Y65967D02*
D03*
X216067D02*
D03*
Y72857D02*
D03*
X229847D02*
D03*
X229847Y65967D02*
D03*
X235753D02*
D03*
Y72857D02*
D03*
X249533D02*
D03*
X249533Y65967D02*
D03*
X255437D02*
D03*
Y72857D02*
D03*
X269217D02*
D03*
X269217Y65967D02*
D03*
X275123D02*
D03*
Y72857D02*
D03*
X288903D02*
D03*
X288903Y65967D02*
D03*
X294808D02*
D03*
Y72857D02*
D03*
X308588D02*
D03*
X308588Y65967D02*
D03*
X308618Y53206D02*
D03*
Y46316D02*
D03*
X294838D02*
D03*
X294838Y53206D02*
D03*
X288933D02*
D03*
Y46316D02*
D03*
X275153D02*
D03*
X275153Y53206D02*
D03*
X269248D02*
D03*
Y46316D02*
D03*
X255468D02*
D03*
X255468Y53206D02*
D03*
X249563D02*
D03*
Y46316D02*
D03*
X235783D02*
D03*
X235783Y53206D02*
D03*
X229877D02*
D03*
Y46316D02*
D03*
X216097D02*
D03*
X216097Y53206D02*
D03*
X210192D02*
D03*
Y46316D02*
D03*
X196412D02*
D03*
X196412Y53206D02*
D03*
X190507D02*
D03*
Y46316D02*
D03*
X176727D02*
D03*
X176727Y53206D02*
D03*
X170822D02*
D03*
Y46316D02*
D03*
X157042D02*
D03*
X157042Y53206D02*
D03*
X151137D02*
D03*
Y46316D02*
D03*
X137357D02*
D03*
X137357Y53206D02*
D03*
X131452D02*
D03*
Y46316D02*
D03*
X117672D02*
D03*
X117672Y53206D02*
D03*
X111767D02*
D03*
Y46316D02*
D03*
X97987D02*
D03*
X97987Y53206D02*
D03*
X92082D02*
D03*
Y46316D02*
D03*
X78302D02*
D03*
X78302Y53206D02*
D03*
X78272Y26597D02*
D03*
Y33487D02*
D03*
X92052D02*
D03*
X92052Y26597D02*
D03*
X97957D02*
D03*
Y33487D02*
D03*
X111737D02*
D03*
X111737Y26597D02*
D03*
X117642D02*
D03*
Y33487D02*
D03*
X131422D02*
D03*
X131422Y26597D02*
D03*
X137327D02*
D03*
Y33487D02*
D03*
X151107D02*
D03*
X151107Y26597D02*
D03*
X157012D02*
D03*
Y33487D02*
D03*
X170792D02*
D03*
X170792Y26597D02*
D03*
X176697D02*
D03*
Y33487D02*
D03*
X190477D02*
D03*
X190477Y26597D02*
D03*
X196382D02*
D03*
Y33487D02*
D03*
X210162D02*
D03*
X210162Y26597D02*
D03*
X216067D02*
D03*
Y33487D02*
D03*
X229847D02*
D03*
X229847Y26597D02*
D03*
X235753D02*
D03*
Y33487D02*
D03*
X249533D02*
D03*
X249533Y26597D02*
D03*
X255437D02*
D03*
Y33487D02*
D03*
X269217D02*
D03*
X269217Y26597D02*
D03*
X275123D02*
D03*
Y33487D02*
D03*
X288903D02*
D03*
X288903Y26597D02*
D03*
X294808D02*
D03*
Y33487D02*
D03*
X308588D02*
D03*
X308588Y26597D02*
D03*
X288933Y13836D02*
D03*
Y6946D02*
D03*
X275153D02*
D03*
X275153Y13836D02*
D03*
X269248D02*
D03*
Y6946D02*
D03*
X255468D02*
D03*
X255468Y13836D02*
D03*
X249563D02*
D03*
Y6946D02*
D03*
X235783D02*
D03*
X235783Y13836D02*
D03*
X229877D02*
D03*
Y6946D02*
D03*
X216097D02*
D03*
X216097Y13836D02*
D03*
X210192D02*
D03*
Y6946D02*
D03*
X196412D02*
D03*
X196412Y13836D02*
D03*
X190507D02*
D03*
Y6946D02*
D03*
X176727D02*
D03*
X176727Y13836D02*
D03*
X170822D02*
D03*
Y6946D02*
D03*
X157042D02*
D03*
X157042Y13836D02*
D03*
X151137D02*
D03*
Y6946D02*
D03*
X137357D02*
D03*
X137357Y13836D02*
D03*
X131452D02*
D03*
Y6946D02*
D03*
X117672D02*
D03*
X117672Y13836D02*
D03*
X111767D02*
D03*
Y6946D02*
D03*
X97987D02*
D03*
X97987Y13836D02*
D03*
X588145Y446907D02*
D03*
Y440017D02*
D03*
X574365D02*
D03*
X574365Y446907D02*
D03*
X568460D02*
D03*
Y440017D02*
D03*
X554680D02*
D03*
X554680Y446907D02*
D03*
X548775D02*
D03*
Y440017D02*
D03*
X534995D02*
D03*
X534995Y446907D02*
D03*
X529090D02*
D03*
Y440017D02*
D03*
X515310D02*
D03*
X515310Y446907D02*
D03*
X509405D02*
D03*
Y440017D02*
D03*
X495625D02*
D03*
X495625Y446907D02*
D03*
X436540Y420298D02*
D03*
Y427188D02*
D03*
X450320D02*
D03*
X450320Y420298D02*
D03*
X456225D02*
D03*
Y427188D02*
D03*
X470005D02*
D03*
X470005Y420298D02*
D03*
X475910D02*
D03*
Y427188D02*
D03*
X489690D02*
D03*
X489690Y420298D02*
D03*
X495595D02*
D03*
Y427188D02*
D03*
X509375D02*
D03*
X509375Y420298D02*
D03*
X515280D02*
D03*
Y427188D02*
D03*
X529060D02*
D03*
X529060Y420298D02*
D03*
X534965D02*
D03*
Y427188D02*
D03*
X548745D02*
D03*
X548745Y420298D02*
D03*
X554650D02*
D03*
Y427188D02*
D03*
X568430D02*
D03*
X568430Y420298D02*
D03*
X574335D02*
D03*
Y427188D02*
D03*
X588115D02*
D03*
X588115Y420298D02*
D03*
X594020D02*
D03*
Y427188D02*
D03*
X607800D02*
D03*
X607800Y420298D02*
D03*
X627515Y407537D02*
D03*
Y400647D02*
D03*
X613735D02*
D03*
X613735Y407537D02*
D03*
X607830D02*
D03*
Y400647D02*
D03*
X594050D02*
D03*
X594050Y407537D02*
D03*
X588145D02*
D03*
Y400647D02*
D03*
X574365D02*
D03*
X574365Y407537D02*
D03*
X568460D02*
D03*
Y400647D02*
D03*
X554680D02*
D03*
X554680Y407537D02*
D03*
X548775D02*
D03*
Y400647D02*
D03*
X534995D02*
D03*
X534995Y407537D02*
D03*
X529090D02*
D03*
Y400647D02*
D03*
X515310D02*
D03*
X515310Y407537D02*
D03*
X509405D02*
D03*
Y400647D02*
D03*
X495625D02*
D03*
X495625Y407537D02*
D03*
X489720D02*
D03*
Y400647D02*
D03*
X475940D02*
D03*
X475940Y407537D02*
D03*
X470035D02*
D03*
Y400647D02*
D03*
X456255D02*
D03*
X456255Y407537D02*
D03*
X450350D02*
D03*
Y400647D02*
D03*
X436570D02*
D03*
X436570Y407537D02*
D03*
X430665D02*
D03*
Y400647D02*
D03*
X416885D02*
D03*
X416885Y407537D02*
D03*
X410980D02*
D03*
Y400647D02*
D03*
X397200D02*
D03*
X397200Y407537D02*
D03*
X391295D02*
D03*
Y400647D02*
D03*
X377515D02*
D03*
X377515Y407537D02*
D03*
X338115Y380928D02*
D03*
Y387818D02*
D03*
X351895D02*
D03*
X351895Y380928D02*
D03*
X357800D02*
D03*
Y387818D02*
D03*
X371580D02*
D03*
X371580Y380928D02*
D03*
X377485D02*
D03*
Y387818D02*
D03*
X391265D02*
D03*
X391265Y380928D02*
D03*
X397170D02*
D03*
Y387818D02*
D03*
X410950D02*
D03*
X410950Y380928D02*
D03*
X416855D02*
D03*
Y387818D02*
D03*
X430635D02*
D03*
X430635Y380928D02*
D03*
X436540D02*
D03*
Y387818D02*
D03*
X450320D02*
D03*
X450320Y380928D02*
D03*
X456225D02*
D03*
Y387818D02*
D03*
X470005D02*
D03*
X470005Y380928D02*
D03*
X475910D02*
D03*
Y387818D02*
D03*
X489690D02*
D03*
X489690Y380928D02*
D03*
X495595D02*
D03*
Y387818D02*
D03*
X509375D02*
D03*
X509375Y380928D02*
D03*
X515280D02*
D03*
Y387818D02*
D03*
X529060D02*
D03*
X529060Y380928D02*
D03*
X534965D02*
D03*
Y387818D02*
D03*
X548745D02*
D03*
X548745Y380928D02*
D03*
X554650D02*
D03*
Y387818D02*
D03*
X568430D02*
D03*
X568430Y380928D02*
D03*
X574335D02*
D03*
Y387818D02*
D03*
X588115D02*
D03*
X588115Y380928D02*
D03*
X594020D02*
D03*
Y387818D02*
D03*
X607800D02*
D03*
X607800Y380928D02*
D03*
X613705D02*
D03*
Y387818D02*
D03*
X627485D02*
D03*
X627485Y380928D02*
D03*
X633390D02*
D03*
Y387818D02*
D03*
X647170D02*
D03*
X647170Y380928D02*
D03*
X666885Y368167D02*
D03*
Y361277D02*
D03*
X653105D02*
D03*
X653105Y368167D02*
D03*
X647200D02*
D03*
Y361277D02*
D03*
X633420D02*
D03*
X633420Y368167D02*
D03*
X627515D02*
D03*
Y361277D02*
D03*
X613735D02*
D03*
X613735Y368167D02*
D03*
X607830D02*
D03*
Y361277D02*
D03*
X594050D02*
D03*
X594050Y368167D02*
D03*
X588145D02*
D03*
Y361277D02*
D03*
X574365D02*
D03*
X574365Y368167D02*
D03*
X568460D02*
D03*
Y361277D02*
D03*
X554680D02*
D03*
X554680Y368167D02*
D03*
X548775D02*
D03*
Y361277D02*
D03*
X534995D02*
D03*
X534995Y368167D02*
D03*
X529090D02*
D03*
Y361277D02*
D03*
X515310D02*
D03*
X515310Y368167D02*
D03*
X509405D02*
D03*
Y361277D02*
D03*
X495625D02*
D03*
X495625Y368167D02*
D03*
X489720D02*
D03*
Y361277D02*
D03*
X475940D02*
D03*
X475940Y368167D02*
D03*
X470035D02*
D03*
Y361277D02*
D03*
X456255D02*
D03*
X456255Y368167D02*
D03*
X450350D02*
D03*
Y361277D02*
D03*
X436570D02*
D03*
X436570Y368167D02*
D03*
X430665D02*
D03*
Y361277D02*
D03*
X416885D02*
D03*
X416885Y368167D02*
D03*
X410980D02*
D03*
Y361277D02*
D03*
X397200D02*
D03*
X397200Y368167D02*
D03*
X391295D02*
D03*
Y361277D02*
D03*
X377515D02*
D03*
X377515Y368167D02*
D03*
X371610D02*
D03*
Y361277D02*
D03*
X357830D02*
D03*
X357830Y368167D02*
D03*
X351925D02*
D03*
Y361277D02*
D03*
X338145D02*
D03*
X338145Y368167D02*
D03*
X332240D02*
D03*
Y361277D02*
D03*
X318460D02*
D03*
X318460Y368167D02*
D03*
X318430Y341558D02*
D03*
Y348448D02*
D03*
X332210D02*
D03*
X332210Y341558D02*
D03*
X338115D02*
D03*
Y348448D02*
D03*
X351895D02*
D03*
X351895Y341558D02*
D03*
X357800D02*
D03*
Y348448D02*
D03*
X371580D02*
D03*
X371580Y341558D02*
D03*
X377485D02*
D03*
Y348448D02*
D03*
X391265D02*
D03*
X391265Y341558D02*
D03*
X397170D02*
D03*
Y348448D02*
D03*
X410950D02*
D03*
X410950Y341558D02*
D03*
X416855D02*
D03*
Y348448D02*
D03*
X430635D02*
D03*
X430635Y341558D02*
D03*
X436540D02*
D03*
Y348448D02*
D03*
X450320D02*
D03*
X450320Y341558D02*
D03*
X456225D02*
D03*
Y348448D02*
D03*
X470005D02*
D03*
X470005Y341558D02*
D03*
X475910D02*
D03*
Y348448D02*
D03*
X489690D02*
D03*
X489690Y341558D02*
D03*
X495595D02*
D03*
Y348448D02*
D03*
X509375D02*
D03*
X509375Y341558D02*
D03*
X515280D02*
D03*
Y348448D02*
D03*
X529060D02*
D03*
X529060Y341558D02*
D03*
X534965D02*
D03*
Y348448D02*
D03*
X548745D02*
D03*
X548745Y341558D02*
D03*
X554650D02*
D03*
Y348448D02*
D03*
X568430D02*
D03*
X568430Y341558D02*
D03*
X574335D02*
D03*
Y348448D02*
D03*
X588115D02*
D03*
X588115Y341558D02*
D03*
X594020D02*
D03*
Y348448D02*
D03*
X607800D02*
D03*
X607800Y341558D02*
D03*
X613705D02*
D03*
Y348448D02*
D03*
X627485D02*
D03*
X627485Y341558D02*
D03*
X633390D02*
D03*
Y348448D02*
D03*
X647170D02*
D03*
X647170Y341558D02*
D03*
X653075D02*
D03*
Y348448D02*
D03*
X666855D02*
D03*
X666855Y341558D02*
D03*
X686570Y328797D02*
D03*
Y321907D02*
D03*
X672790D02*
D03*
X672790Y328797D02*
D03*
X666885D02*
D03*
Y321907D02*
D03*
X653105D02*
D03*
X653105Y328797D02*
D03*
X647200D02*
D03*
Y321907D02*
D03*
X633420D02*
D03*
X633420Y328797D02*
D03*
X627515D02*
D03*
Y321907D02*
D03*
X613735D02*
D03*
X613735Y328797D02*
D03*
X607830D02*
D03*
Y321907D02*
D03*
X594050D02*
D03*
X594050Y328797D02*
D03*
X588145D02*
D03*
Y321907D02*
D03*
X574365D02*
D03*
X574365Y328797D02*
D03*
X568460D02*
D03*
Y321907D02*
D03*
X554680D02*
D03*
X554680Y328797D02*
D03*
X548775D02*
D03*
Y321907D02*
D03*
X534995D02*
D03*
X534995Y328797D02*
D03*
X529090D02*
D03*
Y321907D02*
D03*
X515310D02*
D03*
X515310Y328797D02*
D03*
X509405D02*
D03*
Y321907D02*
D03*
X495625D02*
D03*
X495625Y328797D02*
D03*
X489720D02*
D03*
Y321907D02*
D03*
X475940D02*
D03*
X475940Y328797D02*
D03*
X470035D02*
D03*
Y321907D02*
D03*
X456255D02*
D03*
X456255Y328797D02*
D03*
X450350D02*
D03*
Y321907D02*
D03*
X436570D02*
D03*
X436570Y328797D02*
D03*
X430665D02*
D03*
Y321907D02*
D03*
X416885D02*
D03*
X416885Y328797D02*
D03*
X410980D02*
D03*
Y321907D02*
D03*
X397200D02*
D03*
X397200Y328797D02*
D03*
X391295D02*
D03*
Y321907D02*
D03*
X377515D02*
D03*
X377515Y328797D02*
D03*
X371610D02*
D03*
Y321907D02*
D03*
X357830D02*
D03*
X357830Y328797D02*
D03*
X351925D02*
D03*
Y321907D02*
D03*
X338145D02*
D03*
X338145Y328797D02*
D03*
X332240D02*
D03*
Y321907D02*
D03*
X318460D02*
D03*
X318460Y328797D02*
D03*
X318430Y302187D02*
D03*
Y309078D02*
D03*
X332210D02*
D03*
X332210Y302187D02*
D03*
X338115D02*
D03*
Y309078D02*
D03*
X351895D02*
D03*
X351895Y302187D02*
D03*
X357800D02*
D03*
Y309078D02*
D03*
X371580D02*
D03*
X371580Y302187D02*
D03*
X377485D02*
D03*
Y309078D02*
D03*
X391265D02*
D03*
X391265Y302187D02*
D03*
X397170D02*
D03*
Y309078D02*
D03*
X410950D02*
D03*
X410950Y302187D02*
D03*
X416855D02*
D03*
Y309078D02*
D03*
X430635D02*
D03*
X430635Y302187D02*
D03*
X436540D02*
D03*
Y309078D02*
D03*
X450320D02*
D03*
X450320Y302187D02*
D03*
X456225Y302187D02*
D03*
Y309078D02*
D03*
X470005D02*
D03*
X470005Y302187D02*
D03*
X475910Y302187D02*
D03*
Y309078D02*
D03*
X489690D02*
D03*
X489690Y302187D02*
D03*
X495595D02*
D03*
Y309078D02*
D03*
X509375D02*
D03*
X509375Y302187D02*
D03*
X515280D02*
D03*
Y309078D02*
D03*
X529060D02*
D03*
X529060Y302187D02*
D03*
X534965D02*
D03*
Y309078D02*
D03*
X548745D02*
D03*
X548745Y302187D02*
D03*
X554650D02*
D03*
Y309078D02*
D03*
X568430D02*
D03*
X568430Y302187D02*
D03*
X574335D02*
D03*
Y309078D02*
D03*
X588115D02*
D03*
X588115Y302187D02*
D03*
X594020D02*
D03*
Y309078D02*
D03*
X607800D02*
D03*
X607800Y302187D02*
D03*
X613705D02*
D03*
Y309078D02*
D03*
X627485D02*
D03*
X627485Y302187D02*
D03*
X633390D02*
D03*
Y309078D02*
D03*
X647170D02*
D03*
X647170Y302187D02*
D03*
X653075D02*
D03*
Y309078D02*
D03*
X666855D02*
D03*
X666855Y302187D02*
D03*
X672760D02*
D03*
Y309078D02*
D03*
X686540D02*
D03*
X686540Y302187D02*
D03*
X666885Y289427D02*
D03*
Y282537D02*
D03*
X653105D02*
D03*
X653105Y289427D02*
D03*
X647200D02*
D03*
Y282537D02*
D03*
X633420D02*
D03*
X633420Y289427D02*
D03*
X627515D02*
D03*
Y282537D02*
D03*
X613735D02*
D03*
X613735Y289427D02*
D03*
X607830D02*
D03*
Y282537D02*
D03*
X594050D02*
D03*
X594050Y289427D02*
D03*
X588145D02*
D03*
Y282537D02*
D03*
X574365D02*
D03*
X574365Y289427D02*
D03*
X568460D02*
D03*
Y282537D02*
D03*
X554680D02*
D03*
X554680Y289427D02*
D03*
X548775D02*
D03*
Y282537D02*
D03*
X534995D02*
D03*
X534995Y289427D02*
D03*
X529090D02*
D03*
Y282537D02*
D03*
X515310D02*
D03*
X515310Y289427D02*
D03*
X509405D02*
D03*
Y282537D02*
D03*
X495625D02*
D03*
X495625Y289427D02*
D03*
X489720D02*
D03*
Y282537D02*
D03*
X475940D02*
D03*
X475940Y289427D02*
D03*
X470035D02*
D03*
Y282537D02*
D03*
X456255D02*
D03*
X456255Y289427D02*
D03*
X450350D02*
D03*
Y282537D02*
D03*
X436570D02*
D03*
X436570Y289427D02*
D03*
X430665D02*
D03*
Y282537D02*
D03*
X416885D02*
D03*
X416885Y289427D02*
D03*
X410980D02*
D03*
Y282537D02*
D03*
X397200D02*
D03*
X397200Y289427D02*
D03*
X391295D02*
D03*
Y282537D02*
D03*
X377515D02*
D03*
X377515Y289427D02*
D03*
X371610D02*
D03*
Y282537D02*
D03*
X357830D02*
D03*
X357830Y289427D02*
D03*
X351925D02*
D03*
Y282537D02*
D03*
X338145D02*
D03*
X338145Y289427D02*
D03*
X332240D02*
D03*
Y282537D02*
D03*
X318460D02*
D03*
X318460Y289427D02*
D03*
X318430Y262817D02*
D03*
Y269707D02*
D03*
X332210D02*
D03*
X332210Y262817D02*
D03*
X338115D02*
D03*
Y269707D02*
D03*
X351895D02*
D03*
X351895Y262817D02*
D03*
X357800D02*
D03*
Y269707D02*
D03*
X371580D02*
D03*
X371580Y262817D02*
D03*
X377485D02*
D03*
Y269707D02*
D03*
X391265D02*
D03*
X391265Y262817D02*
D03*
X397170D02*
D03*
Y269707D02*
D03*
X410950D02*
D03*
X410950Y262817D02*
D03*
X416855D02*
D03*
Y269707D02*
D03*
X430635D02*
D03*
X430635Y262817D02*
D03*
X436540D02*
D03*
Y269707D02*
D03*
X450320D02*
D03*
X450320Y262817D02*
D03*
X456225D02*
D03*
Y269707D02*
D03*
X470005D02*
D03*
X470005Y262817D02*
D03*
X475910D02*
D03*
Y269707D02*
D03*
X489690D02*
D03*
X489690Y262817D02*
D03*
X495595D02*
D03*
Y269707D02*
D03*
X509375D02*
D03*
X509375Y262817D02*
D03*
X515280D02*
D03*
Y269707D02*
D03*
X529060D02*
D03*
X529060Y262817D02*
D03*
X534965D02*
D03*
Y269707D02*
D03*
X548745D02*
D03*
X548745Y262817D02*
D03*
X554650D02*
D03*
Y269707D02*
D03*
X568430D02*
D03*
X568430Y262817D02*
D03*
X574335D02*
D03*
Y269707D02*
D03*
X588115D02*
D03*
X588115Y262817D02*
D03*
X594020D02*
D03*
Y269707D02*
D03*
X607800D02*
D03*
X607800Y262817D02*
D03*
X613705D02*
D03*
Y269707D02*
D03*
X627485D02*
D03*
X627485Y262817D02*
D03*
X633390D02*
D03*
Y269707D02*
D03*
X647170D02*
D03*
X647170Y262817D02*
D03*
X653012D02*
D03*
Y269707D02*
D03*
X666792D02*
D03*
X666792Y262817D02*
D03*
X666885Y250057D02*
D03*
Y243167D02*
D03*
X653105D02*
D03*
X653105Y250057D02*
D03*
X647200D02*
D03*
Y243167D02*
D03*
X633420D02*
D03*
X633420Y250057D02*
D03*
X627515D02*
D03*
Y243167D02*
D03*
X613735D02*
D03*
X613735Y250057D02*
D03*
X607830D02*
D03*
Y243167D02*
D03*
X594050D02*
D03*
X594050Y250057D02*
D03*
X588145D02*
D03*
Y243167D02*
D03*
X574365D02*
D03*
X574365Y250057D02*
D03*
X568460D02*
D03*
Y243167D02*
D03*
X554680D02*
D03*
X554680Y250057D02*
D03*
X548775D02*
D03*
Y243167D02*
D03*
X534995D02*
D03*
X534995Y250057D02*
D03*
X529090D02*
D03*
Y243167D02*
D03*
X515310D02*
D03*
X515310Y250057D02*
D03*
X509405D02*
D03*
Y243167D02*
D03*
X495625D02*
D03*
X495625Y250057D02*
D03*
X489720D02*
D03*
Y243167D02*
D03*
X475940D02*
D03*
X475940Y250057D02*
D03*
X470035D02*
D03*
Y243167D02*
D03*
X456255D02*
D03*
X456255Y250057D02*
D03*
X450350D02*
D03*
Y243167D02*
D03*
X436570D02*
D03*
X436570Y250057D02*
D03*
X430665D02*
D03*
Y243167D02*
D03*
X416885D02*
D03*
X416885Y250057D02*
D03*
X410980D02*
D03*
Y243167D02*
D03*
X397200D02*
D03*
X397200Y250057D02*
D03*
X391295D02*
D03*
Y243167D02*
D03*
X377515D02*
D03*
X377515Y250057D02*
D03*
X371610D02*
D03*
Y243167D02*
D03*
X357830D02*
D03*
X357830Y250057D02*
D03*
X351925D02*
D03*
Y243167D02*
D03*
X338145D02*
D03*
X338145Y250057D02*
D03*
X332240D02*
D03*
Y243167D02*
D03*
X318460D02*
D03*
X318460Y250057D02*
D03*
X318430Y223447D02*
D03*
Y230337D02*
D03*
X332210D02*
D03*
X332210Y223447D02*
D03*
X338115D02*
D03*
Y230337D02*
D03*
X351895D02*
D03*
X351895Y223447D02*
D03*
X357800D02*
D03*
Y230337D02*
D03*
X371580D02*
D03*
X371580Y223447D02*
D03*
X377485D02*
D03*
Y230337D02*
D03*
X391265D02*
D03*
X391265Y223447D02*
D03*
X397170D02*
D03*
Y230337D02*
D03*
X410950D02*
D03*
X410950Y223447D02*
D03*
X416855D02*
D03*
Y230337D02*
D03*
X430635D02*
D03*
X430635Y223447D02*
D03*
X436540D02*
D03*
Y230337D02*
D03*
X450320D02*
D03*
X450320Y223447D02*
D03*
X456225D02*
D03*
Y230337D02*
D03*
X470005D02*
D03*
X470005Y223447D02*
D03*
X475910D02*
D03*
Y230337D02*
D03*
X489690D02*
D03*
X489690Y223447D02*
D03*
X495595D02*
D03*
Y230337D02*
D03*
X509375D02*
D03*
X509375Y223447D02*
D03*
X515280D02*
D03*
Y230337D02*
D03*
X529060D02*
D03*
X529060Y223447D02*
D03*
X534965D02*
D03*
Y230337D02*
D03*
X548745D02*
D03*
X548745Y223447D02*
D03*
X554650D02*
D03*
Y230337D02*
D03*
X568430D02*
D03*
X568430Y223447D02*
D03*
X574335D02*
D03*
Y230337D02*
D03*
X588115D02*
D03*
X588115Y223447D02*
D03*
X594020D02*
D03*
Y230337D02*
D03*
X607800D02*
D03*
X607800Y223447D02*
D03*
X613705D02*
D03*
Y230337D02*
D03*
X627485D02*
D03*
X627485Y223447D02*
D03*
X633390D02*
D03*
Y230337D02*
D03*
X647170D02*
D03*
X647170Y223447D02*
D03*
X647200Y210686D02*
D03*
Y203797D02*
D03*
X633420D02*
D03*
X633420Y210686D02*
D03*
X627515D02*
D03*
Y203797D02*
D03*
X613735D02*
D03*
X613735Y210686D02*
D03*
X607830D02*
D03*
Y203797D02*
D03*
X594050D02*
D03*
X594050Y210686D02*
D03*
X588145D02*
D03*
Y203797D02*
D03*
X574365D02*
D03*
X574365Y210686D02*
D03*
X568460D02*
D03*
Y203797D02*
D03*
X554680D02*
D03*
X554680Y210686D02*
D03*
X548775D02*
D03*
Y203797D02*
D03*
X534995D02*
D03*
X534995Y210686D02*
D03*
X529090D02*
D03*
Y203797D02*
D03*
X515310D02*
D03*
X515310Y210686D02*
D03*
X509405D02*
D03*
Y203797D02*
D03*
X495625D02*
D03*
X495625Y210686D02*
D03*
X489720D02*
D03*
Y203797D02*
D03*
X475940D02*
D03*
X475940Y210686D02*
D03*
X470035D02*
D03*
Y203797D02*
D03*
X456255D02*
D03*
X456255Y210686D02*
D03*
X450350D02*
D03*
Y203797D02*
D03*
X436570D02*
D03*
X436570Y210686D02*
D03*
X430665D02*
D03*
Y203797D02*
D03*
X416885D02*
D03*
X416885Y210686D02*
D03*
X410980D02*
D03*
Y203797D02*
D03*
X397200D02*
D03*
X397200Y210686D02*
D03*
X391295D02*
D03*
Y203797D02*
D03*
X377515D02*
D03*
X377515Y210686D02*
D03*
X371610D02*
D03*
Y203797D02*
D03*
X357830D02*
D03*
X357830Y210686D02*
D03*
X351925D02*
D03*
Y203797D02*
D03*
X338145D02*
D03*
X338145Y210686D02*
D03*
X332240D02*
D03*
Y203797D02*
D03*
X318460D02*
D03*
X318460Y210686D02*
D03*
X318430Y184077D02*
D03*
Y190967D02*
D03*
X332210D02*
D03*
X332210Y184077D02*
D03*
X338115D02*
D03*
Y190967D02*
D03*
X351895D02*
D03*
X351895Y184077D02*
D03*
X357800D02*
D03*
Y190967D02*
D03*
X371580D02*
D03*
X371580Y184077D02*
D03*
X377485D02*
D03*
Y190967D02*
D03*
X391265D02*
D03*
X391265Y184077D02*
D03*
X397170D02*
D03*
Y190967D02*
D03*
X410950D02*
D03*
X410950Y184077D02*
D03*
X416855D02*
D03*
Y190967D02*
D03*
X430635D02*
D03*
X430635Y184077D02*
D03*
X436540D02*
D03*
Y190967D02*
D03*
X450320D02*
D03*
X450320Y184077D02*
D03*
X456225D02*
D03*
Y190967D02*
D03*
X470005D02*
D03*
X470005Y184077D02*
D03*
X475910D02*
D03*
Y190967D02*
D03*
X489690D02*
D03*
X489690Y184077D02*
D03*
X495595D02*
D03*
Y190967D02*
D03*
X509375D02*
D03*
X509375Y184077D02*
D03*
X515280D02*
D03*
Y190967D02*
D03*
X529060D02*
D03*
X529060Y184077D02*
D03*
X534965D02*
D03*
Y190967D02*
D03*
X548745D02*
D03*
X548745Y184077D02*
D03*
X554650D02*
D03*
Y190967D02*
D03*
X568430D02*
D03*
X568430Y184077D02*
D03*
X574335D02*
D03*
Y190967D02*
D03*
X588115D02*
D03*
X588115Y184077D02*
D03*
X594020D02*
D03*
Y190967D02*
D03*
X607800D02*
D03*
X607800Y184077D02*
D03*
X613705D02*
D03*
Y190967D02*
D03*
X627485D02*
D03*
X627485Y184077D02*
D03*
X627515Y171317D02*
D03*
Y164427D02*
D03*
X613735D02*
D03*
X613735Y171317D02*
D03*
X607830D02*
D03*
Y164427D02*
D03*
X594050D02*
D03*
X594050Y171317D02*
D03*
X588145D02*
D03*
Y164427D02*
D03*
X574365D02*
D03*
X574365Y171317D02*
D03*
X568460D02*
D03*
Y164427D02*
D03*
X554680D02*
D03*
X554680Y171317D02*
D03*
X548775D02*
D03*
Y164427D02*
D03*
X534995D02*
D03*
X534995Y171317D02*
D03*
X529090D02*
D03*
Y164427D02*
D03*
X515310D02*
D03*
X515310Y171317D02*
D03*
X509405D02*
D03*
Y164427D02*
D03*
X495625D02*
D03*
X495625Y171317D02*
D03*
X489720D02*
D03*
Y164427D02*
D03*
X475940D02*
D03*
X475940Y171317D02*
D03*
X470035D02*
D03*
Y164427D02*
D03*
X456255D02*
D03*
X456255Y171317D02*
D03*
X450350D02*
D03*
Y164427D02*
D03*
X436570D02*
D03*
X436570Y171317D02*
D03*
X430665D02*
D03*
Y164427D02*
D03*
X416885D02*
D03*
X416885Y171317D02*
D03*
X410980D02*
D03*
Y164427D02*
D03*
X397200D02*
D03*
X397200Y171317D02*
D03*
X391295D02*
D03*
Y164427D02*
D03*
X377515D02*
D03*
X377515Y171317D02*
D03*
X371610D02*
D03*
Y164427D02*
D03*
X357830D02*
D03*
X357830Y171317D02*
D03*
X351925D02*
D03*
Y164427D02*
D03*
X338145D02*
D03*
X338145Y171317D02*
D03*
X332240D02*
D03*
Y164427D02*
D03*
X318460D02*
D03*
X318460Y171317D02*
D03*
X318430Y144707D02*
D03*
Y151597D02*
D03*
X332210D02*
D03*
X332210Y144707D02*
D03*
X338115D02*
D03*
Y151597D02*
D03*
X351895D02*
D03*
X351895Y144707D02*
D03*
X357800D02*
D03*
Y151597D02*
D03*
X371580D02*
D03*
X371580Y144707D02*
D03*
X377485D02*
D03*
Y151597D02*
D03*
X391265D02*
D03*
X391265Y144707D02*
D03*
X397170D02*
D03*
Y151597D02*
D03*
X410950D02*
D03*
X410950Y144707D02*
D03*
X416855D02*
D03*
Y151597D02*
D03*
X430635D02*
D03*
X430635Y144707D02*
D03*
X436540D02*
D03*
Y151597D02*
D03*
X450320D02*
D03*
X450320Y144707D02*
D03*
X456225D02*
D03*
Y151597D02*
D03*
X470005D02*
D03*
X470005Y144707D02*
D03*
X475910D02*
D03*
Y151597D02*
D03*
X489690D02*
D03*
X489690Y144707D02*
D03*
X495595D02*
D03*
Y151597D02*
D03*
X509375D02*
D03*
X509375Y144707D02*
D03*
X515280D02*
D03*
Y151597D02*
D03*
X529060D02*
D03*
X529060Y144707D02*
D03*
X534965D02*
D03*
Y151597D02*
D03*
X548745D02*
D03*
X548745Y144707D02*
D03*
X554650D02*
D03*
Y151597D02*
D03*
X568430D02*
D03*
X568430Y144707D02*
D03*
X574335D02*
D03*
Y151597D02*
D03*
X588115D02*
D03*
X588115Y144707D02*
D03*
X594020D02*
D03*
Y151597D02*
D03*
X607800D02*
D03*
X607800Y144707D02*
D03*
X607830Y131946D02*
D03*
Y125056D02*
D03*
X594050D02*
D03*
X594050Y131946D02*
D03*
X588145D02*
D03*
Y125056D02*
D03*
X574365D02*
D03*
X574365Y131946D02*
D03*
X568460D02*
D03*
Y125056D02*
D03*
X554680D02*
D03*
X554680Y131946D02*
D03*
X548775D02*
D03*
Y125056D02*
D03*
X534995D02*
D03*
X534995Y131946D02*
D03*
X529090D02*
D03*
Y125056D02*
D03*
X515310D02*
D03*
X515310Y131946D02*
D03*
X509405D02*
D03*
Y125056D02*
D03*
X495625D02*
D03*
X495625Y131946D02*
D03*
X489720D02*
D03*
Y125056D02*
D03*
X475940D02*
D03*
X475940Y131946D02*
D03*
X470035D02*
D03*
Y125056D02*
D03*
X456255D02*
D03*
X456255Y131946D02*
D03*
X450350D02*
D03*
Y125056D02*
D03*
X436570D02*
D03*
X436570Y131946D02*
D03*
X430665D02*
D03*
Y125056D02*
D03*
X416885D02*
D03*
X416885Y131946D02*
D03*
X410980D02*
D03*
Y125056D02*
D03*
X397200D02*
D03*
X397200Y131946D02*
D03*
X391295D02*
D03*
Y125056D02*
D03*
X377515D02*
D03*
X377515Y131946D02*
D03*
X371610D02*
D03*
Y125056D02*
D03*
X357830D02*
D03*
X357830Y131946D02*
D03*
X351925D02*
D03*
Y125056D02*
D03*
X338145D02*
D03*
X338145Y131946D02*
D03*
X332240D02*
D03*
Y125056D02*
D03*
X318460D02*
D03*
X318460Y131946D02*
D03*
X318430Y105337D02*
D03*
Y112227D02*
D03*
X332210D02*
D03*
X332210Y105337D02*
D03*
X338115D02*
D03*
Y112227D02*
D03*
X351895D02*
D03*
X351895Y105337D02*
D03*
X357800D02*
D03*
Y112227D02*
D03*
X371580D02*
D03*
X371580Y105337D02*
D03*
X377485D02*
D03*
Y112227D02*
D03*
X391265D02*
D03*
X391265Y105337D02*
D03*
X397170D02*
D03*
Y112227D02*
D03*
X410950D02*
D03*
X410950Y105337D02*
D03*
X416855Y105337D02*
D03*
Y112227D02*
D03*
X430635D02*
D03*
X430635Y105337D02*
D03*
X436540Y105337D02*
D03*
Y112227D02*
D03*
X450320D02*
D03*
X450320Y105337D02*
D03*
X456225D02*
D03*
Y112227D02*
D03*
X470005D02*
D03*
X470005Y105337D02*
D03*
X475910D02*
D03*
Y112227D02*
D03*
X489690D02*
D03*
X489690Y105337D02*
D03*
X495595D02*
D03*
Y112227D02*
D03*
X509375D02*
D03*
X509375Y105337D02*
D03*
X515280D02*
D03*
Y112227D02*
D03*
X529060D02*
D03*
X529060Y105337D02*
D03*
X534965D02*
D03*
Y112227D02*
D03*
X548745D02*
D03*
X548745Y105337D02*
D03*
X554650D02*
D03*
Y112227D02*
D03*
X568430D02*
D03*
X568430Y105337D02*
D03*
X574335D02*
D03*
Y112227D02*
D03*
X588115D02*
D03*
X588115Y105337D02*
D03*
X588145Y92576D02*
D03*
Y85686D02*
D03*
X574365D02*
D03*
X574365Y92576D02*
D03*
X568460D02*
D03*
Y85686D02*
D03*
X554680D02*
D03*
X554680Y92576D02*
D03*
X548775D02*
D03*
Y85686D02*
D03*
X534995D02*
D03*
X534995Y92576D02*
D03*
X529090D02*
D03*
Y85686D02*
D03*
X515310D02*
D03*
X515310Y92576D02*
D03*
X509405D02*
D03*
Y85686D02*
D03*
X495625D02*
D03*
X495625Y92576D02*
D03*
X489720D02*
D03*
Y85686D02*
D03*
X475940D02*
D03*
X475940Y92576D02*
D03*
X470035D02*
D03*
Y85686D02*
D03*
X456255D02*
D03*
X456255Y92576D02*
D03*
X450350D02*
D03*
Y85686D02*
D03*
X436570D02*
D03*
X436570Y92576D02*
D03*
X430665D02*
D03*
Y85686D02*
D03*
X416885D02*
D03*
X416885Y92576D02*
D03*
X410980D02*
D03*
Y85686D02*
D03*
X397200D02*
D03*
X397200Y92576D02*
D03*
X391295D02*
D03*
Y85686D02*
D03*
X377515D02*
D03*
X377515Y92576D02*
D03*
X371610D02*
D03*
Y85686D02*
D03*
X357830D02*
D03*
X357830Y92576D02*
D03*
X351925D02*
D03*
Y85686D02*
D03*
X338145D02*
D03*
X338145Y92576D02*
D03*
X332240D02*
D03*
Y85686D02*
D03*
X318460D02*
D03*
X318460Y92576D02*
D03*
X318430Y65967D02*
D03*
Y72857D02*
D03*
X332210D02*
D03*
X332210Y65967D02*
D03*
X338115D02*
D03*
Y72857D02*
D03*
X351895D02*
D03*
X351895Y65967D02*
D03*
X357800D02*
D03*
Y72857D02*
D03*
X371580D02*
D03*
X371580Y65967D02*
D03*
X377485D02*
D03*
Y72857D02*
D03*
X391265D02*
D03*
X391265Y65967D02*
D03*
X397107D02*
D03*
Y72857D02*
D03*
X410887D02*
D03*
X410887Y65967D02*
D03*
X416855D02*
D03*
Y72857D02*
D03*
X430635D02*
D03*
X430635Y65967D02*
D03*
X436540D02*
D03*
Y72857D02*
D03*
X450320D02*
D03*
X450320Y65967D02*
D03*
X456225D02*
D03*
Y72857D02*
D03*
X470005D02*
D03*
X470005Y65967D02*
D03*
X475910D02*
D03*
Y72857D02*
D03*
X489690D02*
D03*
X489690Y65967D02*
D03*
X495595D02*
D03*
Y72857D02*
D03*
X509375D02*
D03*
X509375Y65967D02*
D03*
X515280D02*
D03*
Y72857D02*
D03*
X529060D02*
D03*
X529060Y65967D02*
D03*
X534902D02*
D03*
Y72857D02*
D03*
X548682D02*
D03*
X548682Y65967D02*
D03*
X554650D02*
D03*
Y72857D02*
D03*
X568430D02*
D03*
X568430Y65967D02*
D03*
X574335D02*
D03*
Y72857D02*
D03*
X588115D02*
D03*
X588115Y65967D02*
D03*
X568460Y53206D02*
D03*
Y46316D02*
D03*
X554680D02*
D03*
X554680Y53206D02*
D03*
X548775D02*
D03*
Y46316D02*
D03*
X534995D02*
D03*
X534995Y53206D02*
D03*
X529090D02*
D03*
Y46316D02*
D03*
X515310D02*
D03*
X515310Y53206D02*
D03*
X509405D02*
D03*
Y46316D02*
D03*
X495625D02*
D03*
X495625Y53206D02*
D03*
X489720D02*
D03*
Y46316D02*
D03*
X475940D02*
D03*
X475940Y53206D02*
D03*
X470035D02*
D03*
Y46316D02*
D03*
X456255D02*
D03*
X456255Y53206D02*
D03*
X450350D02*
D03*
Y46316D02*
D03*
X436570D02*
D03*
X436570Y53206D02*
D03*
X430665D02*
D03*
Y46316D02*
D03*
X416885D02*
D03*
X416885Y53206D02*
D03*
X410980D02*
D03*
Y46316D02*
D03*
X397200D02*
D03*
X397200Y53206D02*
D03*
X391295D02*
D03*
Y46316D02*
D03*
X377515D02*
D03*
X377515Y53206D02*
D03*
X371610D02*
D03*
Y46316D02*
D03*
X357830D02*
D03*
X357830Y53206D02*
D03*
X351925D02*
D03*
Y46316D02*
D03*
X338145D02*
D03*
X338145Y53206D02*
D03*
X332240D02*
D03*
Y46316D02*
D03*
X318460D02*
D03*
X318460Y53206D02*
D03*
X318430Y26597D02*
D03*
Y33487D02*
D03*
X332210D02*
D03*
X332210Y26597D02*
D03*
X338115D02*
D03*
Y33487D02*
D03*
X351895D02*
D03*
X351895Y26597D02*
D03*
X357800D02*
D03*
Y33487D02*
D03*
X371580D02*
D03*
X371580Y26597D02*
D03*
X377485D02*
D03*
Y33487D02*
D03*
X391265D02*
D03*
X391265Y26597D02*
D03*
X397170D02*
D03*
Y33487D02*
D03*
X410950D02*
D03*
X410950Y26597D02*
D03*
X416855D02*
D03*
Y33487D02*
D03*
X430635D02*
D03*
X430635Y26597D02*
D03*
X436540D02*
D03*
Y33487D02*
D03*
X450320D02*
D03*
X450320Y26597D02*
D03*
X456225D02*
D03*
Y33487D02*
D03*
X470005D02*
D03*
X470005Y26597D02*
D03*
X475910D02*
D03*
Y33487D02*
D03*
X489690D02*
D03*
X489690Y26597D02*
D03*
X495595D02*
D03*
Y33487D02*
D03*
X509375D02*
D03*
X509375Y26597D02*
D03*
X515280D02*
D03*
Y33487D02*
D03*
X529060D02*
D03*
X529060Y26597D02*
D03*
X534965D02*
D03*
Y33487D02*
D03*
X548745D02*
D03*
X548745Y26597D02*
D03*
X554650D02*
D03*
Y33487D02*
D03*
X568430D02*
D03*
X568430Y26597D02*
D03*
X548775Y13836D02*
D03*
Y6946D02*
D03*
X534995D02*
D03*
X534995Y13836D02*
D03*
X529090D02*
D03*
Y6946D02*
D03*
X515310D02*
D03*
X515310Y13836D02*
D03*
X509405D02*
D03*
Y6946D02*
D03*
X495625D02*
D03*
X495625Y13836D02*
D03*
X489720D02*
D03*
Y6946D02*
D03*
X475940D02*
D03*
X475940Y13836D02*
D03*
X470035D02*
D03*
Y6946D02*
D03*
X456255D02*
D03*
X456255Y13836D02*
D03*
X450350D02*
D03*
Y6946D02*
D03*
X436570D02*
D03*
X436570Y13836D02*
D03*
X430665D02*
D03*
Y6946D02*
D03*
X416885D02*
D03*
X416885Y13836D02*
D03*
X410980D02*
D03*
Y6946D02*
D03*
X397200D02*
D03*
X397200Y13836D02*
D03*
X391295D02*
D03*
Y6946D02*
D03*
X377515D02*
D03*
X377515Y13836D02*
D03*
X371610D02*
D03*
Y6946D02*
D03*
X357830D02*
D03*
X357830Y13836D02*
D03*
X351925D02*
D03*
Y6946D02*
D03*
X338145D02*
D03*
X338145Y13836D02*
D03*
M02*
