G04*
G04 #@! TF.GenerationSoftware,Altium Limited,Altium Designer,21.3.2 (30)*
G04*
G04 Layer_Color=128*
%FSLAX25Y25*%
%MOIN*%
G70*
G04*
G04 #@! TF.SameCoordinates,3ACA48B3-FF6E-4ADC-A770-F215C7717477*
G04*
G04*
G04 #@! TF.FilePolarity,Positive*
G04*
G01*
G75*
%ADD25C,0.01968*%
%ADD32R,0.03937X0.03346*%
D25*
X285490Y368167D02*
X288933D01*
X235753Y341558D02*
X239195D01*
X255437D02*
X258880D01*
X275123D02*
X278565D01*
X294808D02*
X298251D01*
X305175Y328797D02*
X308618D01*
X285490D02*
X288933D01*
X265805D02*
X269248D01*
X246120D02*
X249563D01*
X226435D02*
X229877D01*
X206750D02*
X210192D01*
X187065D02*
X190507D01*
X137327Y302187D02*
X140770D01*
X157012D02*
X160455D01*
X176697D02*
X180140D01*
X196382D02*
X199825D01*
X216067D02*
X219510D01*
X235753D02*
X239195D01*
X255437D02*
X258880D01*
X275123D02*
X278565D01*
X294808D02*
X298251D01*
X305175Y289427D02*
X308618D01*
X285490D02*
X288933D01*
X265805D02*
X269248D01*
X246120D02*
X249563D01*
X226435D02*
X229877D01*
X206750D02*
X210192D01*
X187065D02*
X190507D01*
X167379D02*
X170822D01*
X147694D02*
X151137D01*
X128009D02*
X131452D01*
X108324D02*
X111767D01*
X88639D02*
X92082D01*
X38902Y262817D02*
X42345D01*
X58587D02*
X62030D01*
X78272D02*
X81715D01*
X97957D02*
X101400D01*
X117642D02*
X121085D01*
X137327D02*
X140770D01*
X157012D02*
X160455D01*
X176697D02*
X180140D01*
X196382D02*
X199825D01*
X216067D02*
X219510D01*
X235753D02*
X239195D01*
X255437D02*
X258880D01*
X275123D02*
X278565D01*
X294808Y262818D02*
X298250D01*
X305175Y250057D02*
X308618D01*
X285490D02*
X288933D01*
X265805D02*
X269248D01*
X246120D02*
X249563D01*
X226435D02*
X229877D01*
X206750D02*
X210192D01*
X187065D02*
X190507D01*
X167379D02*
X170822D01*
X147694D02*
X151137D01*
X128009D02*
X131452D01*
X108324D02*
X111767D01*
X88639D02*
X92082D01*
X68954D02*
X72397D01*
X49269D02*
X52712D01*
X29584D02*
X33027D01*
X19217Y223447D02*
X22660D01*
X38902D02*
X42345D01*
X58587D02*
X62030D01*
X78272D02*
X81715D01*
X97957D02*
X101400D01*
X117642D02*
X121085D01*
X137327D02*
X140770D01*
X157012D02*
X160455D01*
X176697D02*
X180140D01*
X196382D02*
X199825D01*
X216067D02*
X219510D01*
X235753D02*
X239195D01*
X255437D02*
X258880D01*
X275123D02*
X278565D01*
X294808D02*
X298251D01*
X305175Y210686D02*
X308618D01*
X285490D02*
X288933D01*
X265805D02*
X269248D01*
X246120D02*
X249563D01*
X226435D02*
X229877D01*
X206750D02*
X210192D01*
X187065D02*
X190507D01*
X167379D02*
X170822D01*
X147694D02*
X151137D01*
X128009D02*
X131452D01*
X108324D02*
X111767D01*
X88639D02*
X92082D01*
X68954D02*
X72397D01*
X49269D02*
X52712D01*
X29584D02*
X33027D01*
X19217Y184077D02*
X22660D01*
X38902D02*
X42345D01*
X58587D02*
X62030D01*
X78272D02*
X81715D01*
X97957D02*
X101400D01*
X117642D02*
X121085D01*
X137327D02*
X140770D01*
X157012D02*
X160455D01*
X176697D02*
X180140D01*
X196382D02*
X199825D01*
X216067D02*
X219510D01*
X235753D02*
X239195D01*
X255437D02*
X258880D01*
X275123D02*
X278565D01*
X294808D02*
X298251D01*
X305175Y171317D02*
X308618D01*
X285490D02*
X288933D01*
X265805D02*
X269248D01*
X246120D02*
X249563D01*
X226435D02*
X229877D01*
X206750D02*
X210192D01*
X187065D02*
X190507D01*
X167379D02*
X170822D01*
X147694D02*
X151137D01*
X128009D02*
X131452D01*
X108324D02*
X111767D01*
X88639D02*
X92082D01*
X68954D02*
X72397D01*
X49269D02*
X52712D01*
X29584D02*
X33027D01*
X19217Y144707D02*
X22660D01*
X38902D02*
X42345D01*
X58587D02*
X62030D01*
X78272D02*
X81715D01*
X97957D02*
X101400D01*
X117642D02*
X121085D01*
X137327D02*
X140770D01*
X157012D02*
X160455D01*
X176697D02*
X180140D01*
X196382D02*
X199825D01*
X216067D02*
X219510D01*
X235753D02*
X239195D01*
X255437D02*
X258880D01*
X275123D02*
X278565D01*
X294808D02*
X298251D01*
X305175Y131946D02*
X308618D01*
X285490D02*
X288933D01*
X265805D02*
X269248D01*
X246120D02*
X249563D01*
X226435D02*
X229877D01*
X206750D02*
X210192D01*
X187065D02*
X190507D01*
X167379D02*
X170822D01*
X147694D02*
X151137D01*
X128009D02*
X131452D01*
X108324D02*
X111767D01*
X88639D02*
X92082D01*
X68954D02*
X72397D01*
X49269D02*
X52712D01*
X38902Y105337D02*
X42345D01*
X58587D02*
X62030D01*
X78272D02*
X81715D01*
X97957D02*
X101400D01*
X117642D02*
X121085D01*
X137327D02*
X140770D01*
X157012D02*
X160455D01*
X176697D02*
X180140D01*
X196382D02*
X199825D01*
X216067D02*
X219510D01*
X235753D02*
X239195D01*
X255437D02*
X258880D01*
X275123D02*
X278565D01*
X294808D02*
X298251D01*
X305175Y92576D02*
X308618D01*
X285490D02*
X288933D01*
X265805D02*
X269248D01*
X246120D02*
X249563D01*
X226435D02*
X229877D01*
X206750D02*
X210192D01*
X187065D02*
X190507D01*
X167379D02*
X170822D01*
X147694D02*
X151137D01*
X128009D02*
X131452D01*
X108324D02*
X111767D01*
X88639D02*
X92082D01*
X68954D02*
X72397D01*
X58587Y65967D02*
X62030D01*
X78272D02*
X81715D01*
X97957D02*
X101400D01*
X117642D02*
X121085D01*
X137327D02*
X140770D01*
X157012D02*
X160455D01*
X176697D02*
X180140D01*
X196382D02*
X199825D01*
X216067D02*
X219510D01*
X235753D02*
X239195D01*
X255437D02*
X258880D01*
X275123D02*
X278565D01*
X294808D02*
X298251D01*
X305175Y53206D02*
X308618D01*
X285490D02*
X288933D01*
X265805D02*
X269248D01*
X246120D02*
X249563D01*
X226435D02*
X229877D01*
X206750D02*
X210192D01*
X187065D02*
X190507D01*
X167379D02*
X170822D01*
X147694D02*
X151137D01*
X128009D02*
X131452D01*
X108324D02*
X111767D01*
X88639D02*
X92082D01*
X78272Y26597D02*
X81715D01*
X97957D02*
X101400D01*
X117642D02*
X121085D01*
X137327D02*
X140770D01*
X157012D02*
X160455D01*
X176697D02*
X180140D01*
X196382D02*
X199825D01*
X216067D02*
X219510D01*
X235753D02*
X239195D01*
X255437D02*
X258880D01*
X275123D02*
X278565D01*
X294808D02*
X298251D01*
X285490Y13836D02*
X288933D01*
X265805D02*
X269248D01*
X246120D02*
X249563D01*
X226435D02*
X229877D01*
X206750D02*
X210192D01*
X187065D02*
X190507D01*
X167379D02*
X170822D01*
X147694D02*
X151137D01*
X128009D02*
X131452D01*
X108324D02*
X111767D01*
X584702Y446907D02*
X588145D01*
X565017D02*
X568460D01*
X545332D02*
X548775D01*
X525647D02*
X529090D01*
X505962D02*
X509405D01*
X436540Y420298D02*
X439983D01*
X456225D02*
X459668D01*
X475910D02*
X479353D01*
X495595D02*
X499038D01*
X515280D02*
X518723D01*
X534965D02*
X538408D01*
X554650D02*
X558093D01*
X574335D02*
X577778D01*
X594020D02*
X597463D01*
X624072Y407537D02*
X627515D01*
X604387D02*
X607830D01*
X584702D02*
X588145D01*
X565017D02*
X568460D01*
X545332D02*
X548775D01*
X525647D02*
X529090D01*
X505962D02*
X509405D01*
X486277D02*
X489720D01*
X466592D02*
X470035D01*
X446907D02*
X450350D01*
X427222D02*
X430665D01*
X407537D02*
X410980D01*
X387852D02*
X391295D01*
X338115Y380928D02*
X341558D01*
X357800D02*
X361243D01*
X377485D02*
X380928D01*
X397170D02*
X400613D01*
X416855D02*
X420298D01*
X436540D02*
X439983D01*
X456225D02*
X459668D01*
X475910D02*
X479353D01*
X495595D02*
X499038D01*
X515280D02*
X518723D01*
X534965D02*
X538408D01*
X554650D02*
X558093D01*
X574335D02*
X577778D01*
X594020D02*
X597463D01*
X613705D02*
X617148D01*
X633390D02*
X636833D01*
X663443Y368167D02*
X666885D01*
X643757D02*
X647200D01*
X624072D02*
X627515D01*
X604387D02*
X607830D01*
X584702D02*
X588145D01*
X565017D02*
X568460D01*
X545332D02*
X548775D01*
X525647D02*
X529090D01*
X505962D02*
X509405D01*
X486277D02*
X489720D01*
X466592D02*
X470035D01*
X446907D02*
X450350D01*
X427222D02*
X430665D01*
X407537D02*
X410980D01*
X387852D02*
X391295D01*
X368167D02*
X371610D01*
X348482D02*
X351925D01*
X328797D02*
X332240D01*
X318430Y341558D02*
X321872D01*
X338115D02*
X341558D01*
X357800D02*
X361243D01*
X377485D02*
X380928D01*
X397170D02*
X400613D01*
X416855D02*
X420298D01*
X436540D02*
X439983D01*
X456225D02*
X459668D01*
X475910D02*
X479353D01*
X495595D02*
X499038D01*
X515280D02*
X518723D01*
X534965D02*
X538408D01*
X554650D02*
X558093D01*
X574335D02*
X577778D01*
X594020D02*
X597463D01*
X613705D02*
X617148D01*
X633390D02*
X636833D01*
X653075D02*
X656518D01*
X683127Y328797D02*
X686570D01*
X663443D02*
X666885D01*
X643757D02*
X647200D01*
X624072D02*
X627515D01*
X604387D02*
X607830D01*
X584702D02*
X588145D01*
X565017D02*
X568460D01*
X545332D02*
X548775D01*
X525647D02*
X529090D01*
X505962D02*
X509405D01*
X486277D02*
X489720D01*
X466592D02*
X470035D01*
X446907D02*
X450350D01*
X427222D02*
X430665D01*
X407537D02*
X410980D01*
X387852D02*
X391295D01*
X368167D02*
X371610D01*
X348482D02*
X351925D01*
X328797D02*
X332240D01*
X318430Y302187D02*
X321872D01*
X338115D02*
X341558D01*
X357800D02*
X361243D01*
X377485D02*
X380928D01*
X397170D02*
X400613D01*
X416855D02*
X420298D01*
X436540D02*
X439983D01*
X456225Y302187D02*
X459668D01*
X475910Y302187D02*
X479353D01*
X495595D02*
X499038D01*
X515280D02*
X518723D01*
X534965D02*
X538408D01*
X554650D02*
X558093D01*
X574335D02*
X577778D01*
X594020D02*
X597463D01*
X613705D02*
X617148D01*
X633390D02*
X636833D01*
X653075D02*
X656518D01*
X672760D02*
X676203D01*
X663443Y289427D02*
X666885D01*
X643757D02*
X647200D01*
X624072D02*
X627515D01*
X604387D02*
X607830D01*
X584702D02*
X588145D01*
X565017D02*
X568460D01*
X545332D02*
X548775D01*
X525647D02*
X529090D01*
X505962D02*
X509405D01*
X486277D02*
X489720D01*
X466592D02*
X470035D01*
X446907D02*
X450350D01*
X427222D02*
X430665D01*
X407537D02*
X410980D01*
X387852D02*
X391295D01*
X368167D02*
X371610D01*
X348482D02*
X351925D01*
X328797D02*
X332240D01*
X318430Y262817D02*
X321872D01*
X338115D02*
X341558D01*
X357800D02*
X361243D01*
X377485D02*
X380928D01*
X397170D02*
X400613D01*
X416855D02*
X420298D01*
X436540D02*
X439983D01*
X456225D02*
X459668D01*
X475910D02*
X479353D01*
X495595D02*
X499038D01*
X515280D02*
X518723D01*
X534965D02*
X538408D01*
X554650D02*
X558093D01*
X574335D02*
X577778D01*
X594020D02*
X597463D01*
X613705D02*
X617148D01*
X633390D02*
X636833D01*
X653012D02*
X656455D01*
X663443Y250057D02*
X666885D01*
X643757D02*
X647200D01*
X624072D02*
X627515D01*
X604387D02*
X607830D01*
X584702D02*
X588145D01*
X565017D02*
X568460D01*
X545332D02*
X548775D01*
X525647D02*
X529090D01*
X505962D02*
X509405D01*
X486277D02*
X489720D01*
X466592D02*
X470035D01*
X446907D02*
X450350D01*
X427222D02*
X430665D01*
X407537D02*
X410980D01*
X387852D02*
X391295D01*
X368167D02*
X371610D01*
X348482D02*
X351925D01*
X328797D02*
X332240D01*
X318430Y223447D02*
X321872D01*
X338115D02*
X341558D01*
X357800D02*
X361243D01*
X377485D02*
X380928D01*
X397170D02*
X400613D01*
X416855D02*
X420298D01*
X436540D02*
X439983D01*
X456225D02*
X459668D01*
X475910D02*
X479353D01*
X495595D02*
X499038D01*
X515280D02*
X518723D01*
X534965D02*
X538408D01*
X554650D02*
X558093D01*
X574335D02*
X577778D01*
X594020D02*
X597463D01*
X613705D02*
X617148D01*
X633390D02*
X636833D01*
X643757Y210686D02*
X647200D01*
X624072D02*
X627515D01*
X604387D02*
X607830D01*
X584702D02*
X588145D01*
X565017D02*
X568460D01*
X545332D02*
X548775D01*
X525647D02*
X529090D01*
X505962D02*
X509405D01*
X486277D02*
X489720D01*
X466592D02*
X470035D01*
X446907D02*
X450350D01*
X427222D02*
X430665D01*
X407537D02*
X410980D01*
X387852D02*
X391295D01*
X368167D02*
X371610D01*
X348482D02*
X351925D01*
X328797D02*
X332240D01*
X318430Y184077D02*
X321872D01*
X338115D02*
X341558D01*
X357800D02*
X361243D01*
X377485D02*
X380928D01*
X397170D02*
X400613D01*
X416855D02*
X420298D01*
X436540D02*
X439983D01*
X456225D02*
X459668D01*
X475910D02*
X479353D01*
X495595D02*
X499038D01*
X515280D02*
X518723D01*
X534965D02*
X538408D01*
X554650D02*
X558093D01*
X574335D02*
X577778D01*
X594020D02*
X597463D01*
X613705D02*
X617148D01*
X624072Y171317D02*
X627515D01*
X604387D02*
X607830D01*
X584702D02*
X588145D01*
X565017D02*
X568460D01*
X545332D02*
X548775D01*
X525647D02*
X529090D01*
X505962D02*
X509405D01*
X486277D02*
X489720D01*
X466592D02*
X470035D01*
X446907D02*
X450350D01*
X427222D02*
X430665D01*
X407537D02*
X410980D01*
X387852D02*
X391295D01*
X368167D02*
X371610D01*
X348482D02*
X351925D01*
X328797D02*
X332240D01*
X318430Y144707D02*
X321872D01*
X338115D02*
X341558D01*
X357800D02*
X361243D01*
X377485D02*
X380928D01*
X397170D02*
X400613D01*
X416855D02*
X420298D01*
X436540D02*
X439983D01*
X456225D02*
X459668D01*
X475910D02*
X479353D01*
X495595D02*
X499038D01*
X515280D02*
X518723D01*
X534965D02*
X538408D01*
X554650D02*
X558093D01*
X574335D02*
X577778D01*
X594020D02*
X597463D01*
X604387Y131946D02*
X607830D01*
X584702D02*
X588145D01*
X565017D02*
X568460D01*
X545332D02*
X548775D01*
X525647D02*
X529090D01*
X505962D02*
X509405D01*
X486277D02*
X489720D01*
X466592D02*
X470035D01*
X446907D02*
X450350D01*
X427222D02*
X430665D01*
X407537D02*
X410980D01*
X387852D02*
X391295D01*
X368167D02*
X371610D01*
X348482D02*
X351925D01*
X328797D02*
X332240D01*
X318430Y105337D02*
X321872D01*
X338115D02*
X341558D01*
X357800D02*
X361243D01*
X377485D02*
X380928D01*
X397170D02*
X400613D01*
X416855Y105337D02*
X420298D01*
X436540Y105337D02*
X439983D01*
X456225D02*
X459668D01*
X475910D02*
X479353D01*
X495595D02*
X499038D01*
X515280D02*
X518723D01*
X534965D02*
X538408D01*
X554650D02*
X558093D01*
X574335D02*
X577778D01*
X584702Y92576D02*
X588145D01*
X565017D02*
X568460D01*
X545332D02*
X548775D01*
X525647D02*
X529090D01*
X505962D02*
X509405D01*
X486277D02*
X489720D01*
X466592D02*
X470035D01*
X446907D02*
X450350D01*
X427222D02*
X430665D01*
X407537D02*
X410980D01*
X387852D02*
X391295D01*
X368167D02*
X371610D01*
X348482D02*
X351925D01*
X328797D02*
X332240D01*
X318430Y65967D02*
X321872D01*
X338115D02*
X341558D01*
X357800D02*
X361243D01*
X377485D02*
X380928D01*
X397107D02*
X400550D01*
X416855D02*
X420298D01*
X436540D02*
X439983D01*
X456225D02*
X459668D01*
X475910D02*
X479353D01*
X495595D02*
X499038D01*
X515280D02*
X518723D01*
X534902D02*
X538345D01*
X554650D02*
X558093D01*
X574335D02*
X577778D01*
X565017Y53206D02*
X568460D01*
X545332D02*
X548775D01*
X525647D02*
X529090D01*
X505962D02*
X509405D01*
X486277D02*
X489720D01*
X466592D02*
X470035D01*
X446907D02*
X450350D01*
X427222D02*
X430665D01*
X407537D02*
X410980D01*
X387852D02*
X391295D01*
X368167D02*
X371610D01*
X348482D02*
X351925D01*
X328797D02*
X332240D01*
X318430Y26597D02*
X321872D01*
X338115D02*
X341558D01*
X357800D02*
X361243D01*
X377485D02*
X380928D01*
X397170D02*
X400613D01*
X416855D02*
X420298D01*
X436540D02*
X439983D01*
X456225D02*
X459668D01*
X475910D02*
X479353D01*
X495595D02*
X499038D01*
X515280D02*
X518723D01*
X534965D02*
X538408D01*
X554650D02*
X558093D01*
X545332Y13836D02*
X548775D01*
X525647D02*
X529090D01*
X505962D02*
X509405D01*
X486277D02*
X489720D01*
X466592D02*
X470035D01*
X446907D02*
X450350D01*
X427222D02*
X430665D01*
X407537D02*
X410980D01*
X387852D02*
X391295D01*
X368167D02*
X371610D01*
X348482D02*
X351925D01*
D32*
X288933Y368167D02*
D03*
Y361277D02*
D03*
X275153D02*
D03*
X275153Y368167D02*
D03*
X235753Y341558D02*
D03*
Y348448D02*
D03*
X249533D02*
D03*
X249533Y341558D02*
D03*
X255437D02*
D03*
Y348448D02*
D03*
X269217D02*
D03*
X269217Y341558D02*
D03*
X275123D02*
D03*
Y348448D02*
D03*
X288903D02*
D03*
X288903Y341558D02*
D03*
X294808D02*
D03*
Y348448D02*
D03*
X308588D02*
D03*
X308588Y341558D02*
D03*
X308618Y328797D02*
D03*
Y321907D02*
D03*
X294838D02*
D03*
X294838Y328797D02*
D03*
X288933D02*
D03*
Y321907D02*
D03*
X275153D02*
D03*
X275153Y328797D02*
D03*
X269248D02*
D03*
Y321907D02*
D03*
X255468D02*
D03*
X255468Y328797D02*
D03*
X249563D02*
D03*
Y321907D02*
D03*
X235783D02*
D03*
X235783Y328797D02*
D03*
X229877D02*
D03*
Y321907D02*
D03*
X216097D02*
D03*
X216097Y328797D02*
D03*
X210192D02*
D03*
Y321907D02*
D03*
X196412D02*
D03*
X196412Y328797D02*
D03*
X190507D02*
D03*
Y321907D02*
D03*
X176727D02*
D03*
X176727Y328797D02*
D03*
X137327Y302187D02*
D03*
Y309078D02*
D03*
X151107D02*
D03*
X151107Y302187D02*
D03*
X157012D02*
D03*
Y309078D02*
D03*
X170792D02*
D03*
X170792Y302187D02*
D03*
X176697D02*
D03*
Y309078D02*
D03*
X190477D02*
D03*
X190477Y302187D02*
D03*
X196382D02*
D03*
Y309078D02*
D03*
X210162D02*
D03*
X210162Y302187D02*
D03*
X216067D02*
D03*
Y309078D02*
D03*
X229847D02*
D03*
X229847Y302187D02*
D03*
X235753D02*
D03*
Y309078D02*
D03*
X249533D02*
D03*
X249533Y302187D02*
D03*
X255437D02*
D03*
Y309078D02*
D03*
X269217D02*
D03*
X269217Y302187D02*
D03*
X275123D02*
D03*
Y309078D02*
D03*
X288903D02*
D03*
X288903Y302187D02*
D03*
X294808D02*
D03*
Y309078D02*
D03*
X308588D02*
D03*
X308588Y302187D02*
D03*
X308618Y289427D02*
D03*
Y282537D02*
D03*
X294838D02*
D03*
X294838Y289427D02*
D03*
X288933D02*
D03*
Y282537D02*
D03*
X275153D02*
D03*
X275153Y289427D02*
D03*
X269248D02*
D03*
Y282537D02*
D03*
X255468D02*
D03*
X255468Y289427D02*
D03*
X249563D02*
D03*
Y282537D02*
D03*
X235783D02*
D03*
X235783Y289427D02*
D03*
X229877D02*
D03*
Y282537D02*
D03*
X216097D02*
D03*
X216097Y289427D02*
D03*
X210192D02*
D03*
Y282537D02*
D03*
X196412D02*
D03*
X196412Y289427D02*
D03*
X190507D02*
D03*
Y282537D02*
D03*
X176727D02*
D03*
X176727Y289427D02*
D03*
X170822D02*
D03*
Y282537D02*
D03*
X157042D02*
D03*
X157042Y289427D02*
D03*
X151137D02*
D03*
Y282537D02*
D03*
X137357D02*
D03*
X137357Y289427D02*
D03*
X131452D02*
D03*
Y282537D02*
D03*
X117672D02*
D03*
X117672Y289427D02*
D03*
X111767D02*
D03*
Y282537D02*
D03*
X97987D02*
D03*
X97987Y289427D02*
D03*
X92082D02*
D03*
Y282537D02*
D03*
X78302D02*
D03*
X78302Y289427D02*
D03*
X38902Y262817D02*
D03*
Y269707D02*
D03*
X52682D02*
D03*
X52682Y262817D02*
D03*
X58587D02*
D03*
Y269707D02*
D03*
X72367D02*
D03*
X72367Y262817D02*
D03*
X78272D02*
D03*
Y269707D02*
D03*
X92052D02*
D03*
X92052Y262817D02*
D03*
X97957D02*
D03*
Y269707D02*
D03*
X111737D02*
D03*
X111737Y262817D02*
D03*
X117642D02*
D03*
Y269707D02*
D03*
X131422D02*
D03*
X131422Y262817D02*
D03*
X137327D02*
D03*
Y269707D02*
D03*
X151107D02*
D03*
X151107Y262817D02*
D03*
X157012D02*
D03*
Y269707D02*
D03*
X170792D02*
D03*
X170792Y262817D02*
D03*
X176697D02*
D03*
Y269707D02*
D03*
X190477D02*
D03*
X190477Y262817D02*
D03*
X196382D02*
D03*
Y269707D02*
D03*
X210162D02*
D03*
X210162Y262817D02*
D03*
X216067D02*
D03*
Y269707D02*
D03*
X229847D02*
D03*
X229847Y262817D02*
D03*
X235753D02*
D03*
Y269707D02*
D03*
X249533D02*
D03*
X249533Y262817D02*
D03*
X255437D02*
D03*
Y269707D02*
D03*
X269217D02*
D03*
X269217Y262817D02*
D03*
X275123D02*
D03*
Y269707D02*
D03*
X288903D02*
D03*
X288903Y262817D02*
D03*
X294808Y262818D02*
D03*
Y269707D02*
D03*
X308588D02*
D03*
X308588Y262818D02*
D03*
X308618Y250057D02*
D03*
Y243167D02*
D03*
X294838D02*
D03*
X294838Y250057D02*
D03*
X288933D02*
D03*
Y243167D02*
D03*
X275153D02*
D03*
X275153Y250057D02*
D03*
X269248D02*
D03*
Y243167D02*
D03*
X255468D02*
D03*
X255468Y250057D02*
D03*
X249563D02*
D03*
Y243167D02*
D03*
X235783D02*
D03*
X235783Y250057D02*
D03*
X229877D02*
D03*
Y243167D02*
D03*
X216097D02*
D03*
X216097Y250057D02*
D03*
X210192D02*
D03*
Y243167D02*
D03*
X196412D02*
D03*
X196412Y250057D02*
D03*
X190507D02*
D03*
Y243167D02*
D03*
X176727D02*
D03*
X176727Y250057D02*
D03*
X170822D02*
D03*
Y243167D02*
D03*
X157042D02*
D03*
X157042Y250057D02*
D03*
X151137D02*
D03*
Y243167D02*
D03*
X137357D02*
D03*
X137357Y250057D02*
D03*
X131452D02*
D03*
Y243167D02*
D03*
X117672D02*
D03*
X117672Y250057D02*
D03*
X111767D02*
D03*
Y243167D02*
D03*
X97987D02*
D03*
X97987Y250057D02*
D03*
X92082D02*
D03*
Y243167D02*
D03*
X78302D02*
D03*
X78302Y250057D02*
D03*
X72397D02*
D03*
Y243167D02*
D03*
X58617D02*
D03*
X58617Y250057D02*
D03*
X52712D02*
D03*
Y243167D02*
D03*
X38932D02*
D03*
X38932Y250057D02*
D03*
X33027D02*
D03*
Y243167D02*
D03*
X19247D02*
D03*
X19247Y250057D02*
D03*
X19217Y223447D02*
D03*
Y230337D02*
D03*
X32997D02*
D03*
X32997Y223447D02*
D03*
X38902D02*
D03*
Y230337D02*
D03*
X52682D02*
D03*
X52682Y223447D02*
D03*
X58587D02*
D03*
Y230337D02*
D03*
X72367D02*
D03*
X72367Y223447D02*
D03*
X78272D02*
D03*
Y230337D02*
D03*
X92052D02*
D03*
X92052Y223447D02*
D03*
X97957D02*
D03*
Y230337D02*
D03*
X111737D02*
D03*
X111737Y223447D02*
D03*
X117642D02*
D03*
Y230337D02*
D03*
X131422D02*
D03*
X131422Y223447D02*
D03*
X137327D02*
D03*
Y230337D02*
D03*
X151107D02*
D03*
X151107Y223447D02*
D03*
X157012D02*
D03*
Y230337D02*
D03*
X170792D02*
D03*
X170792Y223447D02*
D03*
X176697D02*
D03*
Y230337D02*
D03*
X190477D02*
D03*
X190477Y223447D02*
D03*
X196382D02*
D03*
Y230337D02*
D03*
X210162D02*
D03*
X210162Y223447D02*
D03*
X216067D02*
D03*
Y230337D02*
D03*
X229847D02*
D03*
X229847Y223447D02*
D03*
X235753D02*
D03*
Y230337D02*
D03*
X249533D02*
D03*
X249533Y223447D02*
D03*
X255437D02*
D03*
Y230337D02*
D03*
X269217D02*
D03*
X269217Y223447D02*
D03*
X275123D02*
D03*
Y230337D02*
D03*
X288903D02*
D03*
X288903Y223447D02*
D03*
X294808D02*
D03*
Y230337D02*
D03*
X308588D02*
D03*
X308588Y223447D02*
D03*
X308618Y210686D02*
D03*
Y203797D02*
D03*
X294838D02*
D03*
X294838Y210686D02*
D03*
X288933D02*
D03*
Y203797D02*
D03*
X275153D02*
D03*
X275153Y210686D02*
D03*
X269248D02*
D03*
Y203797D02*
D03*
X255468D02*
D03*
X255468Y210686D02*
D03*
X249563D02*
D03*
Y203797D02*
D03*
X235783D02*
D03*
X235783Y210686D02*
D03*
X229877D02*
D03*
Y203797D02*
D03*
X216097D02*
D03*
X216097Y210686D02*
D03*
X210192D02*
D03*
Y203797D02*
D03*
X196412D02*
D03*
X196412Y210686D02*
D03*
X190507D02*
D03*
Y203797D02*
D03*
X176727D02*
D03*
X176727Y210686D02*
D03*
X170822D02*
D03*
Y203797D02*
D03*
X157042D02*
D03*
X157042Y210686D02*
D03*
X151137D02*
D03*
Y203797D02*
D03*
X137357D02*
D03*
X137357Y210686D02*
D03*
X131452D02*
D03*
Y203797D02*
D03*
X117672D02*
D03*
X117672Y210686D02*
D03*
X111767D02*
D03*
Y203797D02*
D03*
X97987D02*
D03*
X97987Y210686D02*
D03*
X92082D02*
D03*
Y203797D02*
D03*
X78302D02*
D03*
X78302Y210686D02*
D03*
X72397D02*
D03*
Y203797D02*
D03*
X58617D02*
D03*
X58617Y210686D02*
D03*
X52712D02*
D03*
Y203797D02*
D03*
X38932D02*
D03*
X38932Y210686D02*
D03*
X33027D02*
D03*
Y203797D02*
D03*
X19247D02*
D03*
X19247Y210686D02*
D03*
X19217Y184077D02*
D03*
Y190967D02*
D03*
X32997D02*
D03*
X32997Y184077D02*
D03*
X38902D02*
D03*
Y190967D02*
D03*
X52682D02*
D03*
X52682Y184077D02*
D03*
X58587D02*
D03*
Y190967D02*
D03*
X72367D02*
D03*
X72367Y184077D02*
D03*
X78272D02*
D03*
Y190967D02*
D03*
X92052D02*
D03*
X92052Y184077D02*
D03*
X97957D02*
D03*
Y190967D02*
D03*
X111737D02*
D03*
X111737Y184077D02*
D03*
X117642D02*
D03*
Y190967D02*
D03*
X131422D02*
D03*
X131422Y184077D02*
D03*
X137327D02*
D03*
Y190967D02*
D03*
X151107D02*
D03*
X151107Y184077D02*
D03*
X157012D02*
D03*
Y190967D02*
D03*
X170792D02*
D03*
X170792Y184077D02*
D03*
X176697D02*
D03*
Y190967D02*
D03*
X190477D02*
D03*
X190477Y184077D02*
D03*
X196382D02*
D03*
Y190967D02*
D03*
X210162D02*
D03*
X210162Y184077D02*
D03*
X216067D02*
D03*
Y190967D02*
D03*
X229847D02*
D03*
X229847Y184077D02*
D03*
X235753D02*
D03*
Y190967D02*
D03*
X249533D02*
D03*
X249533Y184077D02*
D03*
X255437D02*
D03*
Y190967D02*
D03*
X269217D02*
D03*
X269217Y184077D02*
D03*
X275123D02*
D03*
Y190967D02*
D03*
X288903D02*
D03*
X288903Y184077D02*
D03*
X294808D02*
D03*
Y190967D02*
D03*
X308588D02*
D03*
X308588Y184077D02*
D03*
X308618Y171317D02*
D03*
Y164427D02*
D03*
X294838D02*
D03*
X294838Y171317D02*
D03*
X288933D02*
D03*
Y164427D02*
D03*
X275153D02*
D03*
X275153Y171317D02*
D03*
X269248D02*
D03*
Y164427D02*
D03*
X255468D02*
D03*
X255468Y171317D02*
D03*
X249563D02*
D03*
Y164427D02*
D03*
X235783D02*
D03*
X235783Y171317D02*
D03*
X229877D02*
D03*
Y164427D02*
D03*
X216097D02*
D03*
X216097Y171317D02*
D03*
X210192D02*
D03*
Y164427D02*
D03*
X196412D02*
D03*
X196412Y171317D02*
D03*
X190507D02*
D03*
Y164427D02*
D03*
X176727D02*
D03*
X176727Y171317D02*
D03*
X170822D02*
D03*
Y164427D02*
D03*
X157042D02*
D03*
X157042Y171317D02*
D03*
X151137D02*
D03*
Y164427D02*
D03*
X137357D02*
D03*
X137357Y171317D02*
D03*
X131452D02*
D03*
Y164427D02*
D03*
X117672D02*
D03*
X117672Y171317D02*
D03*
X111767D02*
D03*
Y164427D02*
D03*
X97987D02*
D03*
X97987Y171317D02*
D03*
X92082D02*
D03*
Y164427D02*
D03*
X78302D02*
D03*
X78302Y171317D02*
D03*
X72397D02*
D03*
Y164427D02*
D03*
X58617D02*
D03*
X58617Y171317D02*
D03*
X52712D02*
D03*
Y164427D02*
D03*
X38932D02*
D03*
X38932Y171317D02*
D03*
X33027D02*
D03*
Y164427D02*
D03*
X19247D02*
D03*
X19247Y171317D02*
D03*
X19217Y144707D02*
D03*
Y151597D02*
D03*
X32997D02*
D03*
X32997Y144707D02*
D03*
X38902D02*
D03*
Y151597D02*
D03*
X52682D02*
D03*
X52682Y144707D02*
D03*
X58587D02*
D03*
Y151597D02*
D03*
X72367D02*
D03*
X72367Y144707D02*
D03*
X78272D02*
D03*
Y151597D02*
D03*
X92052D02*
D03*
X92052Y144707D02*
D03*
X97957D02*
D03*
Y151597D02*
D03*
X111737D02*
D03*
X111737Y144707D02*
D03*
X117642D02*
D03*
Y151597D02*
D03*
X131422D02*
D03*
X131422Y144707D02*
D03*
X137327D02*
D03*
Y151597D02*
D03*
X151107D02*
D03*
X151107Y144707D02*
D03*
X157012D02*
D03*
Y151597D02*
D03*
X170792D02*
D03*
X170792Y144707D02*
D03*
X176697D02*
D03*
Y151597D02*
D03*
X190477D02*
D03*
X190477Y144707D02*
D03*
X196382D02*
D03*
Y151597D02*
D03*
X210162D02*
D03*
X210162Y144707D02*
D03*
X216067D02*
D03*
Y151597D02*
D03*
X229847D02*
D03*
X229847Y144707D02*
D03*
X235753D02*
D03*
Y151597D02*
D03*
X249533D02*
D03*
X249533Y144707D02*
D03*
X255437D02*
D03*
Y151597D02*
D03*
X269217D02*
D03*
X269217Y144707D02*
D03*
X275123D02*
D03*
Y151597D02*
D03*
X288903D02*
D03*
X288903Y144707D02*
D03*
X294808D02*
D03*
Y151597D02*
D03*
X308588D02*
D03*
X308588Y144707D02*
D03*
X308618Y131946D02*
D03*
Y125056D02*
D03*
X294838D02*
D03*
X294838Y131946D02*
D03*
X288933D02*
D03*
Y125056D02*
D03*
X275153D02*
D03*
X275153Y131946D02*
D03*
X269248D02*
D03*
Y125056D02*
D03*
X255468D02*
D03*
X255468Y131946D02*
D03*
X249563D02*
D03*
Y125056D02*
D03*
X235783D02*
D03*
X235783Y131946D02*
D03*
X229877D02*
D03*
Y125056D02*
D03*
X216097D02*
D03*
X216097Y131946D02*
D03*
X210192D02*
D03*
Y125056D02*
D03*
X196412D02*
D03*
X196412Y131946D02*
D03*
X190507D02*
D03*
Y125056D02*
D03*
X176727D02*
D03*
X176727Y131946D02*
D03*
X170822D02*
D03*
Y125056D02*
D03*
X157042D02*
D03*
X157042Y131946D02*
D03*
X151137D02*
D03*
Y125056D02*
D03*
X137357D02*
D03*
X137357Y131946D02*
D03*
X131452D02*
D03*
Y125056D02*
D03*
X117672D02*
D03*
X117672Y131946D02*
D03*
X111767D02*
D03*
Y125056D02*
D03*
X97987D02*
D03*
X97987Y131946D02*
D03*
X92082D02*
D03*
Y125056D02*
D03*
X78302D02*
D03*
X78302Y131946D02*
D03*
X72397D02*
D03*
Y125056D02*
D03*
X58617D02*
D03*
X58617Y131946D02*
D03*
X52712D02*
D03*
Y125056D02*
D03*
X38932D02*
D03*
X38932Y131946D02*
D03*
X38902Y105337D02*
D03*
Y112227D02*
D03*
X52682D02*
D03*
X52682Y105337D02*
D03*
X58587D02*
D03*
Y112227D02*
D03*
X72367D02*
D03*
X72367Y105337D02*
D03*
X78272D02*
D03*
Y112227D02*
D03*
X92052D02*
D03*
X92052Y105337D02*
D03*
X97957D02*
D03*
Y112227D02*
D03*
X111737D02*
D03*
X111737Y105337D02*
D03*
X117642D02*
D03*
Y112227D02*
D03*
X131422D02*
D03*
X131422Y105337D02*
D03*
X137327D02*
D03*
Y112227D02*
D03*
X151107D02*
D03*
X151107Y105337D02*
D03*
X157012D02*
D03*
Y112227D02*
D03*
X170792D02*
D03*
X170792Y105337D02*
D03*
X176697D02*
D03*
Y112227D02*
D03*
X190477D02*
D03*
X190477Y105337D02*
D03*
X196382D02*
D03*
Y112227D02*
D03*
X210162D02*
D03*
X210162Y105337D02*
D03*
X216067D02*
D03*
Y112227D02*
D03*
X229847D02*
D03*
X229847Y105337D02*
D03*
X235753D02*
D03*
Y112227D02*
D03*
X249533D02*
D03*
X249533Y105337D02*
D03*
X255437D02*
D03*
Y112227D02*
D03*
X269217D02*
D03*
X269217Y105337D02*
D03*
X275123D02*
D03*
Y112227D02*
D03*
X288903D02*
D03*
X288903Y105337D02*
D03*
X294808D02*
D03*
Y112227D02*
D03*
X308588D02*
D03*
X308588Y105337D02*
D03*
X308618Y92576D02*
D03*
Y85686D02*
D03*
X294838D02*
D03*
X294838Y92576D02*
D03*
X288933D02*
D03*
Y85686D02*
D03*
X275153D02*
D03*
X275153Y92576D02*
D03*
X269248D02*
D03*
Y85686D02*
D03*
X255468D02*
D03*
X255468Y92576D02*
D03*
X249563D02*
D03*
Y85686D02*
D03*
X235783D02*
D03*
X235783Y92576D02*
D03*
X229877D02*
D03*
Y85686D02*
D03*
X216097D02*
D03*
X216097Y92576D02*
D03*
X210192D02*
D03*
Y85686D02*
D03*
X196412D02*
D03*
X196412Y92576D02*
D03*
X190507D02*
D03*
Y85686D02*
D03*
X176727D02*
D03*
X176727Y92576D02*
D03*
X170822D02*
D03*
Y85686D02*
D03*
X157042D02*
D03*
X157042Y92576D02*
D03*
X151137D02*
D03*
Y85686D02*
D03*
X137357D02*
D03*
X137357Y92576D02*
D03*
X131452D02*
D03*
Y85686D02*
D03*
X117672D02*
D03*
X117672Y92576D02*
D03*
X111767D02*
D03*
Y85686D02*
D03*
X97987D02*
D03*
X97987Y92576D02*
D03*
X92082D02*
D03*
Y85686D02*
D03*
X78302D02*
D03*
X78302Y92576D02*
D03*
X72397D02*
D03*
Y85686D02*
D03*
X58617D02*
D03*
X58617Y92576D02*
D03*
X58587Y65967D02*
D03*
Y72857D02*
D03*
X72367D02*
D03*
X72367Y65967D02*
D03*
X78272D02*
D03*
Y72857D02*
D03*
X92052D02*
D03*
X92052Y65967D02*
D03*
X97957D02*
D03*
Y72857D02*
D03*
X111737D02*
D03*
X111737Y65967D02*
D03*
X117642D02*
D03*
Y72857D02*
D03*
X131422D02*
D03*
X131422Y65967D02*
D03*
X137327D02*
D03*
Y72857D02*
D03*
X151107D02*
D03*
X151107Y65967D02*
D03*
X157012D02*
D03*
Y72857D02*
D03*
X170792D02*
D03*
X170792Y65967D02*
D03*
X176697D02*
D03*
Y72857D02*
D03*
X190477D02*
D03*
X190477Y65967D02*
D03*
X196382D02*
D03*
Y72857D02*
D03*
X210162D02*
D03*
X210162Y65967D02*
D03*
X216067D02*
D03*
Y72857D02*
D03*
X229847D02*
D03*
X229847Y65967D02*
D03*
X235753D02*
D03*
Y72857D02*
D03*
X249533D02*
D03*
X249533Y65967D02*
D03*
X255437D02*
D03*
Y72857D02*
D03*
X269217D02*
D03*
X269217Y65967D02*
D03*
X275123D02*
D03*
Y72857D02*
D03*
X288903D02*
D03*
X288903Y65967D02*
D03*
X294808D02*
D03*
Y72857D02*
D03*
X308588D02*
D03*
X308588Y65967D02*
D03*
X308618Y53206D02*
D03*
Y46316D02*
D03*
X294838D02*
D03*
X294838Y53206D02*
D03*
X288933D02*
D03*
Y46316D02*
D03*
X275153D02*
D03*
X275153Y53206D02*
D03*
X269248D02*
D03*
Y46316D02*
D03*
X255468D02*
D03*
X255468Y53206D02*
D03*
X249563D02*
D03*
Y46316D02*
D03*
X235783D02*
D03*
X235783Y53206D02*
D03*
X229877D02*
D03*
Y46316D02*
D03*
X216097D02*
D03*
X216097Y53206D02*
D03*
X210192D02*
D03*
Y46316D02*
D03*
X196412D02*
D03*
X196412Y53206D02*
D03*
X190507D02*
D03*
Y46316D02*
D03*
X176727D02*
D03*
X176727Y53206D02*
D03*
X170822D02*
D03*
Y46316D02*
D03*
X157042D02*
D03*
X157042Y53206D02*
D03*
X151137D02*
D03*
Y46316D02*
D03*
X137357D02*
D03*
X137357Y53206D02*
D03*
X131452D02*
D03*
Y46316D02*
D03*
X117672D02*
D03*
X117672Y53206D02*
D03*
X111767D02*
D03*
Y46316D02*
D03*
X97987D02*
D03*
X97987Y53206D02*
D03*
X92082D02*
D03*
Y46316D02*
D03*
X78302D02*
D03*
X78302Y53206D02*
D03*
X78272Y26597D02*
D03*
Y33487D02*
D03*
X92052D02*
D03*
X92052Y26597D02*
D03*
X97957D02*
D03*
Y33487D02*
D03*
X111737D02*
D03*
X111737Y26597D02*
D03*
X117642D02*
D03*
Y33487D02*
D03*
X131422D02*
D03*
X131422Y26597D02*
D03*
X137327D02*
D03*
Y33487D02*
D03*
X151107D02*
D03*
X151107Y26597D02*
D03*
X157012D02*
D03*
Y33487D02*
D03*
X170792D02*
D03*
X170792Y26597D02*
D03*
X176697D02*
D03*
Y33487D02*
D03*
X190477D02*
D03*
X190477Y26597D02*
D03*
X196382D02*
D03*
Y33487D02*
D03*
X210162D02*
D03*
X210162Y26597D02*
D03*
X216067D02*
D03*
Y33487D02*
D03*
X229847D02*
D03*
X229847Y26597D02*
D03*
X235753D02*
D03*
Y33487D02*
D03*
X249533D02*
D03*
X249533Y26597D02*
D03*
X255437D02*
D03*
Y33487D02*
D03*
X269217D02*
D03*
X269217Y26597D02*
D03*
X275123D02*
D03*
Y33487D02*
D03*
X288903D02*
D03*
X288903Y26597D02*
D03*
X294808D02*
D03*
Y33487D02*
D03*
X308588D02*
D03*
X308588Y26597D02*
D03*
X288933Y13836D02*
D03*
Y6946D02*
D03*
X275153D02*
D03*
X275153Y13836D02*
D03*
X269248D02*
D03*
Y6946D02*
D03*
X255468D02*
D03*
X255468Y13836D02*
D03*
X249563D02*
D03*
Y6946D02*
D03*
X235783D02*
D03*
X235783Y13836D02*
D03*
X229877D02*
D03*
Y6946D02*
D03*
X216097D02*
D03*
X216097Y13836D02*
D03*
X210192D02*
D03*
Y6946D02*
D03*
X196412D02*
D03*
X196412Y13836D02*
D03*
X190507D02*
D03*
Y6946D02*
D03*
X176727D02*
D03*
X176727Y13836D02*
D03*
X170822D02*
D03*
Y6946D02*
D03*
X157042D02*
D03*
X157042Y13836D02*
D03*
X151137D02*
D03*
Y6946D02*
D03*
X137357D02*
D03*
X137357Y13836D02*
D03*
X131452D02*
D03*
Y6946D02*
D03*
X117672D02*
D03*
X117672Y13836D02*
D03*
X111767D02*
D03*
Y6946D02*
D03*
X97987D02*
D03*
X97987Y13836D02*
D03*
X588145Y446907D02*
D03*
Y440017D02*
D03*
X574365D02*
D03*
X574365Y446907D02*
D03*
X568460D02*
D03*
Y440017D02*
D03*
X554680D02*
D03*
X554680Y446907D02*
D03*
X548775D02*
D03*
Y440017D02*
D03*
X534995D02*
D03*
X534995Y446907D02*
D03*
X529090D02*
D03*
Y440017D02*
D03*
X515310D02*
D03*
X515310Y446907D02*
D03*
X509405D02*
D03*
Y440017D02*
D03*
X495625D02*
D03*
X495625Y446907D02*
D03*
X436540Y420298D02*
D03*
Y427188D02*
D03*
X450320D02*
D03*
X450320Y420298D02*
D03*
X456225D02*
D03*
Y427188D02*
D03*
X470005D02*
D03*
X470005Y420298D02*
D03*
X475910D02*
D03*
Y427188D02*
D03*
X489690D02*
D03*
X489690Y420298D02*
D03*
X495595D02*
D03*
Y427188D02*
D03*
X509375D02*
D03*
X509375Y420298D02*
D03*
X515280D02*
D03*
Y427188D02*
D03*
X529060D02*
D03*
X529060Y420298D02*
D03*
X534965D02*
D03*
Y427188D02*
D03*
X548745D02*
D03*
X548745Y420298D02*
D03*
X554650D02*
D03*
Y427188D02*
D03*
X568430D02*
D03*
X568430Y420298D02*
D03*
X574335D02*
D03*
Y427188D02*
D03*
X588115D02*
D03*
X588115Y420298D02*
D03*
X594020D02*
D03*
Y427188D02*
D03*
X607800D02*
D03*
X607800Y420298D02*
D03*
X627515Y407537D02*
D03*
Y400647D02*
D03*
X613735D02*
D03*
X613735Y407537D02*
D03*
X607830D02*
D03*
Y400647D02*
D03*
X594050D02*
D03*
X594050Y407537D02*
D03*
X588145D02*
D03*
Y400647D02*
D03*
X574365D02*
D03*
X574365Y407537D02*
D03*
X568460D02*
D03*
Y400647D02*
D03*
X554680D02*
D03*
X554680Y407537D02*
D03*
X548775D02*
D03*
Y400647D02*
D03*
X534995D02*
D03*
X534995Y407537D02*
D03*
X529090D02*
D03*
Y400647D02*
D03*
X515310D02*
D03*
X515310Y407537D02*
D03*
X509405D02*
D03*
Y400647D02*
D03*
X495625D02*
D03*
X495625Y407537D02*
D03*
X489720D02*
D03*
Y400647D02*
D03*
X475940D02*
D03*
X475940Y407537D02*
D03*
X470035D02*
D03*
Y400647D02*
D03*
X456255D02*
D03*
X456255Y407537D02*
D03*
X450350D02*
D03*
Y400647D02*
D03*
X436570D02*
D03*
X436570Y407537D02*
D03*
X430665D02*
D03*
Y400647D02*
D03*
X416885D02*
D03*
X416885Y407537D02*
D03*
X410980D02*
D03*
Y400647D02*
D03*
X397200D02*
D03*
X397200Y407537D02*
D03*
X391295D02*
D03*
Y400647D02*
D03*
X377515D02*
D03*
X377515Y407537D02*
D03*
X338115Y380928D02*
D03*
Y387818D02*
D03*
X351895D02*
D03*
X351895Y380928D02*
D03*
X357800D02*
D03*
Y387818D02*
D03*
X371580D02*
D03*
X371580Y380928D02*
D03*
X377485D02*
D03*
Y387818D02*
D03*
X391265D02*
D03*
X391265Y380928D02*
D03*
X397170D02*
D03*
Y387818D02*
D03*
X410950D02*
D03*
X410950Y380928D02*
D03*
X416855D02*
D03*
Y387818D02*
D03*
X430635D02*
D03*
X430635Y380928D02*
D03*
X436540D02*
D03*
Y387818D02*
D03*
X450320D02*
D03*
X450320Y380928D02*
D03*
X456225D02*
D03*
Y387818D02*
D03*
X470005D02*
D03*
X470005Y380928D02*
D03*
X475910D02*
D03*
Y387818D02*
D03*
X489690D02*
D03*
X489690Y380928D02*
D03*
X495595D02*
D03*
Y387818D02*
D03*
X509375D02*
D03*
X509375Y380928D02*
D03*
X515280D02*
D03*
Y387818D02*
D03*
X529060D02*
D03*
X529060Y380928D02*
D03*
X534965D02*
D03*
Y387818D02*
D03*
X548745D02*
D03*
X548745Y380928D02*
D03*
X554650D02*
D03*
Y387818D02*
D03*
X568430D02*
D03*
X568430Y380928D02*
D03*
X574335D02*
D03*
Y387818D02*
D03*
X588115D02*
D03*
X588115Y380928D02*
D03*
X594020D02*
D03*
Y387818D02*
D03*
X607800D02*
D03*
X607800Y380928D02*
D03*
X613705D02*
D03*
Y387818D02*
D03*
X627485D02*
D03*
X627485Y380928D02*
D03*
X633390D02*
D03*
Y387818D02*
D03*
X647170D02*
D03*
X647170Y380928D02*
D03*
X666885Y368167D02*
D03*
Y361277D02*
D03*
X653105D02*
D03*
X653105Y368167D02*
D03*
X647200D02*
D03*
Y361277D02*
D03*
X633420D02*
D03*
X633420Y368167D02*
D03*
X627515D02*
D03*
Y361277D02*
D03*
X613735D02*
D03*
X613735Y368167D02*
D03*
X607830D02*
D03*
Y361277D02*
D03*
X594050D02*
D03*
X594050Y368167D02*
D03*
X588145D02*
D03*
Y361277D02*
D03*
X574365D02*
D03*
X574365Y368167D02*
D03*
X568460D02*
D03*
Y361277D02*
D03*
X554680D02*
D03*
X554680Y368167D02*
D03*
X548775D02*
D03*
Y361277D02*
D03*
X534995D02*
D03*
X534995Y368167D02*
D03*
X529090D02*
D03*
Y361277D02*
D03*
X515310D02*
D03*
X515310Y368167D02*
D03*
X509405D02*
D03*
Y361277D02*
D03*
X495625D02*
D03*
X495625Y368167D02*
D03*
X489720D02*
D03*
Y361277D02*
D03*
X475940D02*
D03*
X475940Y368167D02*
D03*
X470035D02*
D03*
Y361277D02*
D03*
X456255D02*
D03*
X456255Y368167D02*
D03*
X450350D02*
D03*
Y361277D02*
D03*
X436570D02*
D03*
X436570Y368167D02*
D03*
X430665D02*
D03*
Y361277D02*
D03*
X416885D02*
D03*
X416885Y368167D02*
D03*
X410980D02*
D03*
Y361277D02*
D03*
X397200D02*
D03*
X397200Y368167D02*
D03*
X391295D02*
D03*
Y361277D02*
D03*
X377515D02*
D03*
X377515Y368167D02*
D03*
X371610D02*
D03*
Y361277D02*
D03*
X357830D02*
D03*
X357830Y368167D02*
D03*
X351925D02*
D03*
Y361277D02*
D03*
X338145D02*
D03*
X338145Y368167D02*
D03*
X332240D02*
D03*
Y361277D02*
D03*
X318460D02*
D03*
X318460Y368167D02*
D03*
X318430Y341558D02*
D03*
Y348448D02*
D03*
X332210D02*
D03*
X332210Y341558D02*
D03*
X338115D02*
D03*
Y348448D02*
D03*
X351895D02*
D03*
X351895Y341558D02*
D03*
X357800D02*
D03*
Y348448D02*
D03*
X371580D02*
D03*
X371580Y341558D02*
D03*
X377485D02*
D03*
Y348448D02*
D03*
X391265D02*
D03*
X391265Y341558D02*
D03*
X397170D02*
D03*
Y348448D02*
D03*
X410950D02*
D03*
X410950Y341558D02*
D03*
X416855D02*
D03*
Y348448D02*
D03*
X430635D02*
D03*
X430635Y341558D02*
D03*
X436540D02*
D03*
Y348448D02*
D03*
X450320D02*
D03*
X450320Y341558D02*
D03*
X456225D02*
D03*
Y348448D02*
D03*
X470005D02*
D03*
X470005Y341558D02*
D03*
X475910D02*
D03*
Y348448D02*
D03*
X489690D02*
D03*
X489690Y341558D02*
D03*
X495595D02*
D03*
Y348448D02*
D03*
X509375D02*
D03*
X509375Y341558D02*
D03*
X515280D02*
D03*
Y348448D02*
D03*
X529060D02*
D03*
X529060Y341558D02*
D03*
X534965D02*
D03*
Y348448D02*
D03*
X548745D02*
D03*
X548745Y341558D02*
D03*
X554650D02*
D03*
Y348448D02*
D03*
X568430D02*
D03*
X568430Y341558D02*
D03*
X574335D02*
D03*
Y348448D02*
D03*
X588115D02*
D03*
X588115Y341558D02*
D03*
X594020D02*
D03*
Y348448D02*
D03*
X607800D02*
D03*
X607800Y341558D02*
D03*
X613705D02*
D03*
Y348448D02*
D03*
X627485D02*
D03*
X627485Y341558D02*
D03*
X633390D02*
D03*
Y348448D02*
D03*
X647170D02*
D03*
X647170Y341558D02*
D03*
X653075D02*
D03*
Y348448D02*
D03*
X666855D02*
D03*
X666855Y341558D02*
D03*
X686570Y328797D02*
D03*
Y321907D02*
D03*
X672790D02*
D03*
X672790Y328797D02*
D03*
X666885D02*
D03*
Y321907D02*
D03*
X653105D02*
D03*
X653105Y328797D02*
D03*
X647200D02*
D03*
Y321907D02*
D03*
X633420D02*
D03*
X633420Y328797D02*
D03*
X627515D02*
D03*
Y321907D02*
D03*
X613735D02*
D03*
X613735Y328797D02*
D03*
X607830D02*
D03*
Y321907D02*
D03*
X594050D02*
D03*
X594050Y328797D02*
D03*
X588145D02*
D03*
Y321907D02*
D03*
X574365D02*
D03*
X574365Y328797D02*
D03*
X568460D02*
D03*
Y321907D02*
D03*
X554680D02*
D03*
X554680Y328797D02*
D03*
X548775D02*
D03*
Y321907D02*
D03*
X534995D02*
D03*
X534995Y328797D02*
D03*
X529090D02*
D03*
Y321907D02*
D03*
X515310D02*
D03*
X515310Y328797D02*
D03*
X509405D02*
D03*
Y321907D02*
D03*
X495625D02*
D03*
X495625Y328797D02*
D03*
X489720D02*
D03*
Y321907D02*
D03*
X475940D02*
D03*
X475940Y328797D02*
D03*
X470035D02*
D03*
Y321907D02*
D03*
X456255D02*
D03*
X456255Y328797D02*
D03*
X450350D02*
D03*
Y321907D02*
D03*
X436570D02*
D03*
X436570Y328797D02*
D03*
X430665D02*
D03*
Y321907D02*
D03*
X416885D02*
D03*
X416885Y328797D02*
D03*
X410980D02*
D03*
Y321907D02*
D03*
X397200D02*
D03*
X397200Y328797D02*
D03*
X391295D02*
D03*
Y321907D02*
D03*
X377515D02*
D03*
X377515Y328797D02*
D03*
X371610D02*
D03*
Y321907D02*
D03*
X357830D02*
D03*
X357830Y328797D02*
D03*
X351925D02*
D03*
Y321907D02*
D03*
X338145D02*
D03*
X338145Y328797D02*
D03*
X332240D02*
D03*
Y321907D02*
D03*
X318460D02*
D03*
X318460Y328797D02*
D03*
X318430Y302187D02*
D03*
Y309078D02*
D03*
X332210D02*
D03*
X332210Y302187D02*
D03*
X338115D02*
D03*
Y309078D02*
D03*
X351895D02*
D03*
X351895Y302187D02*
D03*
X357800D02*
D03*
Y309078D02*
D03*
X371580D02*
D03*
X371580Y302187D02*
D03*
X377485D02*
D03*
Y309078D02*
D03*
X391265D02*
D03*
X391265Y302187D02*
D03*
X397170D02*
D03*
Y309078D02*
D03*
X410950D02*
D03*
X410950Y302187D02*
D03*
X416855D02*
D03*
Y309078D02*
D03*
X430635D02*
D03*
X430635Y302187D02*
D03*
X436540D02*
D03*
Y309078D02*
D03*
X450320D02*
D03*
X450320Y302187D02*
D03*
X456225Y302187D02*
D03*
Y309078D02*
D03*
X470005D02*
D03*
X470005Y302187D02*
D03*
X475910Y302187D02*
D03*
Y309078D02*
D03*
X489690D02*
D03*
X489690Y302187D02*
D03*
X495595D02*
D03*
Y309078D02*
D03*
X509375D02*
D03*
X509375Y302187D02*
D03*
X515280D02*
D03*
Y309078D02*
D03*
X529060D02*
D03*
X529060Y302187D02*
D03*
X534965D02*
D03*
Y309078D02*
D03*
X548745D02*
D03*
X548745Y302187D02*
D03*
X554650D02*
D03*
Y309078D02*
D03*
X568430D02*
D03*
X568430Y302187D02*
D03*
X574335D02*
D03*
Y309078D02*
D03*
X588115D02*
D03*
X588115Y302187D02*
D03*
X594020D02*
D03*
Y309078D02*
D03*
X607800D02*
D03*
X607800Y302187D02*
D03*
X613705D02*
D03*
Y309078D02*
D03*
X627485D02*
D03*
X627485Y302187D02*
D03*
X633390D02*
D03*
Y309078D02*
D03*
X647170D02*
D03*
X647170Y302187D02*
D03*
X653075D02*
D03*
Y309078D02*
D03*
X666855D02*
D03*
X666855Y302187D02*
D03*
X672760D02*
D03*
Y309078D02*
D03*
X686540D02*
D03*
X686540Y302187D02*
D03*
X666885Y289427D02*
D03*
Y282537D02*
D03*
X653105D02*
D03*
X653105Y289427D02*
D03*
X647200D02*
D03*
Y282537D02*
D03*
X633420D02*
D03*
X633420Y289427D02*
D03*
X627515D02*
D03*
Y282537D02*
D03*
X613735D02*
D03*
X613735Y289427D02*
D03*
X607830D02*
D03*
Y282537D02*
D03*
X594050D02*
D03*
X594050Y289427D02*
D03*
X588145D02*
D03*
Y282537D02*
D03*
X574365D02*
D03*
X574365Y289427D02*
D03*
X568460D02*
D03*
Y282537D02*
D03*
X554680D02*
D03*
X554680Y289427D02*
D03*
X548775D02*
D03*
Y282537D02*
D03*
X534995D02*
D03*
X534995Y289427D02*
D03*
X529090D02*
D03*
Y282537D02*
D03*
X515310D02*
D03*
X515310Y289427D02*
D03*
X509405D02*
D03*
Y282537D02*
D03*
X495625D02*
D03*
X495625Y289427D02*
D03*
X489720D02*
D03*
Y282537D02*
D03*
X475940D02*
D03*
X475940Y289427D02*
D03*
X470035D02*
D03*
Y282537D02*
D03*
X456255D02*
D03*
X456255Y289427D02*
D03*
X450350D02*
D03*
Y282537D02*
D03*
X436570D02*
D03*
X436570Y289427D02*
D03*
X430665D02*
D03*
Y282537D02*
D03*
X416885D02*
D03*
X416885Y289427D02*
D03*
X410980D02*
D03*
Y282537D02*
D03*
X397200D02*
D03*
X397200Y289427D02*
D03*
X391295D02*
D03*
Y282537D02*
D03*
X377515D02*
D03*
X377515Y289427D02*
D03*
X371610D02*
D03*
Y282537D02*
D03*
X357830D02*
D03*
X357830Y289427D02*
D03*
X351925D02*
D03*
Y282537D02*
D03*
X338145D02*
D03*
X338145Y289427D02*
D03*
X332240D02*
D03*
Y282537D02*
D03*
X318460D02*
D03*
X318460Y289427D02*
D03*
X318430Y262817D02*
D03*
Y269707D02*
D03*
X332210D02*
D03*
X332210Y262817D02*
D03*
X338115D02*
D03*
Y269707D02*
D03*
X351895D02*
D03*
X351895Y262817D02*
D03*
X357800D02*
D03*
Y269707D02*
D03*
X371580D02*
D03*
X371580Y262817D02*
D03*
X377485D02*
D03*
Y269707D02*
D03*
X391265D02*
D03*
X391265Y262817D02*
D03*
X397170D02*
D03*
Y269707D02*
D03*
X410950D02*
D03*
X410950Y262817D02*
D03*
X416855D02*
D03*
Y269707D02*
D03*
X430635D02*
D03*
X430635Y262817D02*
D03*
X436540D02*
D03*
Y269707D02*
D03*
X450320D02*
D03*
X450320Y262817D02*
D03*
X456225D02*
D03*
Y269707D02*
D03*
X470005D02*
D03*
X470005Y262817D02*
D03*
X475910D02*
D03*
Y269707D02*
D03*
X489690D02*
D03*
X489690Y262817D02*
D03*
X495595D02*
D03*
Y269707D02*
D03*
X509375D02*
D03*
X509375Y262817D02*
D03*
X515280D02*
D03*
Y269707D02*
D03*
X529060D02*
D03*
X529060Y262817D02*
D03*
X534965D02*
D03*
Y269707D02*
D03*
X548745D02*
D03*
X548745Y262817D02*
D03*
X554650D02*
D03*
Y269707D02*
D03*
X568430D02*
D03*
X568430Y262817D02*
D03*
X574335D02*
D03*
Y269707D02*
D03*
X588115D02*
D03*
X588115Y262817D02*
D03*
X594020D02*
D03*
Y269707D02*
D03*
X607800D02*
D03*
X607800Y262817D02*
D03*
X613705D02*
D03*
Y269707D02*
D03*
X627485D02*
D03*
X627485Y262817D02*
D03*
X633390D02*
D03*
Y269707D02*
D03*
X647170D02*
D03*
X647170Y262817D02*
D03*
X653012D02*
D03*
Y269707D02*
D03*
X666792D02*
D03*
X666792Y262817D02*
D03*
X666885Y250057D02*
D03*
Y243167D02*
D03*
X653105D02*
D03*
X653105Y250057D02*
D03*
X647200D02*
D03*
Y243167D02*
D03*
X633420D02*
D03*
X633420Y250057D02*
D03*
X627515D02*
D03*
Y243167D02*
D03*
X613735D02*
D03*
X613735Y250057D02*
D03*
X607830D02*
D03*
Y243167D02*
D03*
X594050D02*
D03*
X594050Y250057D02*
D03*
X588145D02*
D03*
Y243167D02*
D03*
X574365D02*
D03*
X574365Y250057D02*
D03*
X568460D02*
D03*
Y243167D02*
D03*
X554680D02*
D03*
X554680Y250057D02*
D03*
X548775D02*
D03*
Y243167D02*
D03*
X534995D02*
D03*
X534995Y250057D02*
D03*
X529090D02*
D03*
Y243167D02*
D03*
X515310D02*
D03*
X515310Y250057D02*
D03*
X509405D02*
D03*
Y243167D02*
D03*
X495625D02*
D03*
X495625Y250057D02*
D03*
X489720D02*
D03*
Y243167D02*
D03*
X475940D02*
D03*
X475940Y250057D02*
D03*
X470035D02*
D03*
Y243167D02*
D03*
X456255D02*
D03*
X456255Y250057D02*
D03*
X450350D02*
D03*
Y243167D02*
D03*
X436570D02*
D03*
X436570Y250057D02*
D03*
X430665D02*
D03*
Y243167D02*
D03*
X416885D02*
D03*
X416885Y250057D02*
D03*
X410980D02*
D03*
Y243167D02*
D03*
X397200D02*
D03*
X397200Y250057D02*
D03*
X391295D02*
D03*
Y243167D02*
D03*
X377515D02*
D03*
X377515Y250057D02*
D03*
X371610D02*
D03*
Y243167D02*
D03*
X357830D02*
D03*
X357830Y250057D02*
D03*
X351925D02*
D03*
Y243167D02*
D03*
X338145D02*
D03*
X338145Y250057D02*
D03*
X332240D02*
D03*
Y243167D02*
D03*
X318460D02*
D03*
X318460Y250057D02*
D03*
X318430Y223447D02*
D03*
Y230337D02*
D03*
X332210D02*
D03*
X332210Y223447D02*
D03*
X338115D02*
D03*
Y230337D02*
D03*
X351895D02*
D03*
X351895Y223447D02*
D03*
X357800D02*
D03*
Y230337D02*
D03*
X371580D02*
D03*
X371580Y223447D02*
D03*
X377485D02*
D03*
Y230337D02*
D03*
X391265D02*
D03*
X391265Y223447D02*
D03*
X397170D02*
D03*
Y230337D02*
D03*
X410950D02*
D03*
X410950Y223447D02*
D03*
X416855D02*
D03*
Y230337D02*
D03*
X430635D02*
D03*
X430635Y223447D02*
D03*
X436540D02*
D03*
Y230337D02*
D03*
X450320D02*
D03*
X450320Y223447D02*
D03*
X456225D02*
D03*
Y230337D02*
D03*
X470005D02*
D03*
X470005Y223447D02*
D03*
X475910D02*
D03*
Y230337D02*
D03*
X489690D02*
D03*
X489690Y223447D02*
D03*
X495595D02*
D03*
Y230337D02*
D03*
X509375D02*
D03*
X509375Y223447D02*
D03*
X515280D02*
D03*
Y230337D02*
D03*
X529060D02*
D03*
X529060Y223447D02*
D03*
X534965D02*
D03*
Y230337D02*
D03*
X548745D02*
D03*
X548745Y223447D02*
D03*
X554650D02*
D03*
Y230337D02*
D03*
X568430D02*
D03*
X568430Y223447D02*
D03*
X574335D02*
D03*
Y230337D02*
D03*
X588115D02*
D03*
X588115Y223447D02*
D03*
X594020D02*
D03*
Y230337D02*
D03*
X607800D02*
D03*
X607800Y223447D02*
D03*
X613705D02*
D03*
Y230337D02*
D03*
X627485D02*
D03*
X627485Y223447D02*
D03*
X633390D02*
D03*
Y230337D02*
D03*
X647170D02*
D03*
X647170Y223447D02*
D03*
X647200Y210686D02*
D03*
Y203797D02*
D03*
X633420D02*
D03*
X633420Y210686D02*
D03*
X627515D02*
D03*
Y203797D02*
D03*
X613735D02*
D03*
X613735Y210686D02*
D03*
X607830D02*
D03*
Y203797D02*
D03*
X594050D02*
D03*
X594050Y210686D02*
D03*
X588145D02*
D03*
Y203797D02*
D03*
X574365D02*
D03*
X574365Y210686D02*
D03*
X568460D02*
D03*
Y203797D02*
D03*
X554680D02*
D03*
X554680Y210686D02*
D03*
X548775D02*
D03*
Y203797D02*
D03*
X534995D02*
D03*
X534995Y210686D02*
D03*
X529090D02*
D03*
Y203797D02*
D03*
X515310D02*
D03*
X515310Y210686D02*
D03*
X509405D02*
D03*
Y203797D02*
D03*
X495625D02*
D03*
X495625Y210686D02*
D03*
X489720D02*
D03*
Y203797D02*
D03*
X475940D02*
D03*
X475940Y210686D02*
D03*
X470035D02*
D03*
Y203797D02*
D03*
X456255D02*
D03*
X456255Y210686D02*
D03*
X450350D02*
D03*
Y203797D02*
D03*
X436570D02*
D03*
X436570Y210686D02*
D03*
X430665D02*
D03*
Y203797D02*
D03*
X416885D02*
D03*
X416885Y210686D02*
D03*
X410980D02*
D03*
Y203797D02*
D03*
X397200D02*
D03*
X397200Y210686D02*
D03*
X391295D02*
D03*
Y203797D02*
D03*
X377515D02*
D03*
X377515Y210686D02*
D03*
X371610D02*
D03*
Y203797D02*
D03*
X357830D02*
D03*
X357830Y210686D02*
D03*
X351925D02*
D03*
Y203797D02*
D03*
X338145D02*
D03*
X338145Y210686D02*
D03*
X332240D02*
D03*
Y203797D02*
D03*
X318460D02*
D03*
X318460Y210686D02*
D03*
X318430Y184077D02*
D03*
Y190967D02*
D03*
X332210D02*
D03*
X332210Y184077D02*
D03*
X338115D02*
D03*
Y190967D02*
D03*
X351895D02*
D03*
X351895Y184077D02*
D03*
X357800D02*
D03*
Y190967D02*
D03*
X371580D02*
D03*
X371580Y184077D02*
D03*
X377485D02*
D03*
Y190967D02*
D03*
X391265D02*
D03*
X391265Y184077D02*
D03*
X397170D02*
D03*
Y190967D02*
D03*
X410950D02*
D03*
X410950Y184077D02*
D03*
X416855D02*
D03*
Y190967D02*
D03*
X430635D02*
D03*
X430635Y184077D02*
D03*
X436540D02*
D03*
Y190967D02*
D03*
X450320D02*
D03*
X450320Y184077D02*
D03*
X456225D02*
D03*
Y190967D02*
D03*
X470005D02*
D03*
X470005Y184077D02*
D03*
X475910D02*
D03*
Y190967D02*
D03*
X489690D02*
D03*
X489690Y184077D02*
D03*
X495595D02*
D03*
Y190967D02*
D03*
X509375D02*
D03*
X509375Y184077D02*
D03*
X515280D02*
D03*
Y190967D02*
D03*
X529060D02*
D03*
X529060Y184077D02*
D03*
X534965D02*
D03*
Y190967D02*
D03*
X548745D02*
D03*
X548745Y184077D02*
D03*
X554650D02*
D03*
Y190967D02*
D03*
X568430D02*
D03*
X568430Y184077D02*
D03*
X574335D02*
D03*
Y190967D02*
D03*
X588115D02*
D03*
X588115Y184077D02*
D03*
X594020D02*
D03*
Y190967D02*
D03*
X607800D02*
D03*
X607800Y184077D02*
D03*
X613705D02*
D03*
Y190967D02*
D03*
X627485D02*
D03*
X627485Y184077D02*
D03*
X627515Y171317D02*
D03*
Y164427D02*
D03*
X613735D02*
D03*
X613735Y171317D02*
D03*
X607830D02*
D03*
Y164427D02*
D03*
X594050D02*
D03*
X594050Y171317D02*
D03*
X588145D02*
D03*
Y164427D02*
D03*
X574365D02*
D03*
X574365Y171317D02*
D03*
X568460D02*
D03*
Y164427D02*
D03*
X554680D02*
D03*
X554680Y171317D02*
D03*
X548775D02*
D03*
Y164427D02*
D03*
X534995D02*
D03*
X534995Y171317D02*
D03*
X529090D02*
D03*
Y164427D02*
D03*
X515310D02*
D03*
X515310Y171317D02*
D03*
X509405D02*
D03*
Y164427D02*
D03*
X495625D02*
D03*
X495625Y171317D02*
D03*
X489720D02*
D03*
Y164427D02*
D03*
X475940D02*
D03*
X475940Y171317D02*
D03*
X470035D02*
D03*
Y164427D02*
D03*
X456255D02*
D03*
X456255Y171317D02*
D03*
X450350D02*
D03*
Y164427D02*
D03*
X436570D02*
D03*
X436570Y171317D02*
D03*
X430665D02*
D03*
Y164427D02*
D03*
X416885D02*
D03*
X416885Y171317D02*
D03*
X410980D02*
D03*
Y164427D02*
D03*
X397200D02*
D03*
X397200Y171317D02*
D03*
X391295D02*
D03*
Y164427D02*
D03*
X377515D02*
D03*
X377515Y171317D02*
D03*
X371610D02*
D03*
Y164427D02*
D03*
X357830D02*
D03*
X357830Y171317D02*
D03*
X351925D02*
D03*
Y164427D02*
D03*
X338145D02*
D03*
X338145Y171317D02*
D03*
X332240D02*
D03*
Y164427D02*
D03*
X318460D02*
D03*
X318460Y171317D02*
D03*
X318430Y144707D02*
D03*
Y151597D02*
D03*
X332210D02*
D03*
X332210Y144707D02*
D03*
X338115D02*
D03*
Y151597D02*
D03*
X351895D02*
D03*
X351895Y144707D02*
D03*
X357800D02*
D03*
Y151597D02*
D03*
X371580D02*
D03*
X371580Y144707D02*
D03*
X377485D02*
D03*
Y151597D02*
D03*
X391265D02*
D03*
X391265Y144707D02*
D03*
X397170D02*
D03*
Y151597D02*
D03*
X410950D02*
D03*
X410950Y144707D02*
D03*
X416855D02*
D03*
Y151597D02*
D03*
X430635D02*
D03*
X430635Y144707D02*
D03*
X436540D02*
D03*
Y151597D02*
D03*
X450320D02*
D03*
X450320Y144707D02*
D03*
X456225D02*
D03*
Y151597D02*
D03*
X470005D02*
D03*
X470005Y144707D02*
D03*
X475910D02*
D03*
Y151597D02*
D03*
X489690D02*
D03*
X489690Y144707D02*
D03*
X495595D02*
D03*
Y151597D02*
D03*
X509375D02*
D03*
X509375Y144707D02*
D03*
X515280D02*
D03*
Y151597D02*
D03*
X529060D02*
D03*
X529060Y144707D02*
D03*
X534965D02*
D03*
Y151597D02*
D03*
X548745D02*
D03*
X548745Y144707D02*
D03*
X554650D02*
D03*
Y151597D02*
D03*
X568430D02*
D03*
X568430Y144707D02*
D03*
X574335D02*
D03*
Y151597D02*
D03*
X588115D02*
D03*
X588115Y144707D02*
D03*
X594020D02*
D03*
Y151597D02*
D03*
X607800D02*
D03*
X607800Y144707D02*
D03*
X607830Y131946D02*
D03*
Y125056D02*
D03*
X594050D02*
D03*
X594050Y131946D02*
D03*
X588145D02*
D03*
Y125056D02*
D03*
X574365D02*
D03*
X574365Y131946D02*
D03*
X568460D02*
D03*
Y125056D02*
D03*
X554680D02*
D03*
X554680Y131946D02*
D03*
X548775D02*
D03*
Y125056D02*
D03*
X534995D02*
D03*
X534995Y131946D02*
D03*
X529090D02*
D03*
Y125056D02*
D03*
X515310D02*
D03*
X515310Y131946D02*
D03*
X509405D02*
D03*
Y125056D02*
D03*
X495625D02*
D03*
X495625Y131946D02*
D03*
X489720D02*
D03*
Y125056D02*
D03*
X475940D02*
D03*
X475940Y131946D02*
D03*
X470035D02*
D03*
Y125056D02*
D03*
X456255D02*
D03*
X456255Y131946D02*
D03*
X450350D02*
D03*
Y125056D02*
D03*
X436570D02*
D03*
X436570Y131946D02*
D03*
X430665D02*
D03*
Y125056D02*
D03*
X416885D02*
D03*
X416885Y131946D02*
D03*
X410980D02*
D03*
Y125056D02*
D03*
X397200D02*
D03*
X397200Y131946D02*
D03*
X391295D02*
D03*
Y125056D02*
D03*
X377515D02*
D03*
X377515Y131946D02*
D03*
X371610D02*
D03*
Y125056D02*
D03*
X357830D02*
D03*
X357830Y131946D02*
D03*
X351925D02*
D03*
Y125056D02*
D03*
X338145D02*
D03*
X338145Y131946D02*
D03*
X332240D02*
D03*
Y125056D02*
D03*
X318460D02*
D03*
X318460Y131946D02*
D03*
X318430Y105337D02*
D03*
Y112227D02*
D03*
X332210D02*
D03*
X332210Y105337D02*
D03*
X338115D02*
D03*
Y112227D02*
D03*
X351895D02*
D03*
X351895Y105337D02*
D03*
X357800D02*
D03*
Y112227D02*
D03*
X371580D02*
D03*
X371580Y105337D02*
D03*
X377485D02*
D03*
Y112227D02*
D03*
X391265D02*
D03*
X391265Y105337D02*
D03*
X397170D02*
D03*
Y112227D02*
D03*
X410950D02*
D03*
X410950Y105337D02*
D03*
X416855Y105337D02*
D03*
Y112227D02*
D03*
X430635D02*
D03*
X430635Y105337D02*
D03*
X436540Y105337D02*
D03*
Y112227D02*
D03*
X450320D02*
D03*
X450320Y105337D02*
D03*
X456225D02*
D03*
Y112227D02*
D03*
X470005D02*
D03*
X470005Y105337D02*
D03*
X475910D02*
D03*
Y112227D02*
D03*
X489690D02*
D03*
X489690Y105337D02*
D03*
X495595D02*
D03*
Y112227D02*
D03*
X509375D02*
D03*
X509375Y105337D02*
D03*
X515280D02*
D03*
Y112227D02*
D03*
X529060D02*
D03*
X529060Y105337D02*
D03*
X534965D02*
D03*
Y112227D02*
D03*
X548745D02*
D03*
X548745Y105337D02*
D03*
X554650D02*
D03*
Y112227D02*
D03*
X568430D02*
D03*
X568430Y105337D02*
D03*
X574335D02*
D03*
Y112227D02*
D03*
X588115D02*
D03*
X588115Y105337D02*
D03*
X588145Y92576D02*
D03*
Y85686D02*
D03*
X574365D02*
D03*
X574365Y92576D02*
D03*
X568460D02*
D03*
Y85686D02*
D03*
X554680D02*
D03*
X554680Y92576D02*
D03*
X548775D02*
D03*
Y85686D02*
D03*
X534995D02*
D03*
X534995Y92576D02*
D03*
X529090D02*
D03*
Y85686D02*
D03*
X515310D02*
D03*
X515310Y92576D02*
D03*
X509405D02*
D03*
Y85686D02*
D03*
X495625D02*
D03*
X495625Y92576D02*
D03*
X489720D02*
D03*
Y85686D02*
D03*
X475940D02*
D03*
X475940Y92576D02*
D03*
X470035D02*
D03*
Y85686D02*
D03*
X456255D02*
D03*
X456255Y92576D02*
D03*
X450350D02*
D03*
Y85686D02*
D03*
X436570D02*
D03*
X436570Y92576D02*
D03*
X430665D02*
D03*
Y85686D02*
D03*
X416885D02*
D03*
X416885Y92576D02*
D03*
X410980D02*
D03*
Y85686D02*
D03*
X397200D02*
D03*
X397200Y92576D02*
D03*
X391295D02*
D03*
Y85686D02*
D03*
X377515D02*
D03*
X377515Y92576D02*
D03*
X371610D02*
D03*
Y85686D02*
D03*
X357830D02*
D03*
X357830Y92576D02*
D03*
X351925D02*
D03*
Y85686D02*
D03*
X338145D02*
D03*
X338145Y92576D02*
D03*
X332240D02*
D03*
Y85686D02*
D03*
X318460D02*
D03*
X318460Y92576D02*
D03*
X318430Y65967D02*
D03*
Y72857D02*
D03*
X332210D02*
D03*
X332210Y65967D02*
D03*
X338115D02*
D03*
Y72857D02*
D03*
X351895D02*
D03*
X351895Y65967D02*
D03*
X357800D02*
D03*
Y72857D02*
D03*
X371580D02*
D03*
X371580Y65967D02*
D03*
X377485D02*
D03*
Y72857D02*
D03*
X391265D02*
D03*
X391265Y65967D02*
D03*
X397107D02*
D03*
Y72857D02*
D03*
X410887D02*
D03*
X410887Y65967D02*
D03*
X416855D02*
D03*
Y72857D02*
D03*
X430635D02*
D03*
X430635Y65967D02*
D03*
X436540D02*
D03*
Y72857D02*
D03*
X450320D02*
D03*
X450320Y65967D02*
D03*
X456225D02*
D03*
Y72857D02*
D03*
X470005D02*
D03*
X470005Y65967D02*
D03*
X475910D02*
D03*
Y72857D02*
D03*
X489690D02*
D03*
X489690Y65967D02*
D03*
X495595D02*
D03*
Y72857D02*
D03*
X509375D02*
D03*
X509375Y65967D02*
D03*
X515280D02*
D03*
Y72857D02*
D03*
X529060D02*
D03*
X529060Y65967D02*
D03*
X534902D02*
D03*
Y72857D02*
D03*
X548682D02*
D03*
X548682Y65967D02*
D03*
X554650D02*
D03*
Y72857D02*
D03*
X568430D02*
D03*
X568430Y65967D02*
D03*
X574335D02*
D03*
Y72857D02*
D03*
X588115D02*
D03*
X588115Y65967D02*
D03*
X568460Y53206D02*
D03*
Y46316D02*
D03*
X554680D02*
D03*
X554680Y53206D02*
D03*
X548775D02*
D03*
Y46316D02*
D03*
X534995D02*
D03*
X534995Y53206D02*
D03*
X529090D02*
D03*
Y46316D02*
D03*
X515310D02*
D03*
X515310Y53206D02*
D03*
X509405D02*
D03*
Y46316D02*
D03*
X495625D02*
D03*
X495625Y53206D02*
D03*
X489720D02*
D03*
Y46316D02*
D03*
X475940D02*
D03*
X475940Y53206D02*
D03*
X470035D02*
D03*
Y46316D02*
D03*
X456255D02*
D03*
X456255Y53206D02*
D03*
X450350D02*
D03*
Y46316D02*
D03*
X436570D02*
D03*
X436570Y53206D02*
D03*
X430665D02*
D03*
Y46316D02*
D03*
X416885D02*
D03*
X416885Y53206D02*
D03*
X410980D02*
D03*
Y46316D02*
D03*
X397200D02*
D03*
X397200Y53206D02*
D03*
X391295D02*
D03*
Y46316D02*
D03*
X377515D02*
D03*
X377515Y53206D02*
D03*
X371610D02*
D03*
Y46316D02*
D03*
X357830D02*
D03*
X357830Y53206D02*
D03*
X351925D02*
D03*
Y46316D02*
D03*
X338145D02*
D03*
X338145Y53206D02*
D03*
X332240D02*
D03*
Y46316D02*
D03*
X318460D02*
D03*
X318460Y53206D02*
D03*
X318430Y26597D02*
D03*
Y33487D02*
D03*
X332210D02*
D03*
X332210Y26597D02*
D03*
X338115D02*
D03*
Y33487D02*
D03*
X351895D02*
D03*
X351895Y26597D02*
D03*
X357800D02*
D03*
Y33487D02*
D03*
X371580D02*
D03*
X371580Y26597D02*
D03*
X377485D02*
D03*
Y33487D02*
D03*
X391265D02*
D03*
X391265Y26597D02*
D03*
X397170D02*
D03*
Y33487D02*
D03*
X410950D02*
D03*
X410950Y26597D02*
D03*
X416855D02*
D03*
Y33487D02*
D03*
X430635D02*
D03*
X430635Y26597D02*
D03*
X436540D02*
D03*
Y33487D02*
D03*
X450320D02*
D03*
X450320Y26597D02*
D03*
X456225D02*
D03*
Y33487D02*
D03*
X470005D02*
D03*
X470005Y26597D02*
D03*
X475910D02*
D03*
Y33487D02*
D03*
X489690D02*
D03*
X489690Y26597D02*
D03*
X495595D02*
D03*
Y33487D02*
D03*
X509375D02*
D03*
X509375Y26597D02*
D03*
X515280D02*
D03*
Y33487D02*
D03*
X529060D02*
D03*
X529060Y26597D02*
D03*
X534965D02*
D03*
Y33487D02*
D03*
X548745D02*
D03*
X548745Y26597D02*
D03*
X554650D02*
D03*
Y33487D02*
D03*
X568430D02*
D03*
X568430Y26597D02*
D03*
X548775Y13836D02*
D03*
Y6946D02*
D03*
X534995D02*
D03*
X534995Y13836D02*
D03*
X529090D02*
D03*
Y6946D02*
D03*
X515310D02*
D03*
X515310Y13836D02*
D03*
X509405D02*
D03*
Y6946D02*
D03*
X495625D02*
D03*
X495625Y13836D02*
D03*
X489720D02*
D03*
Y6946D02*
D03*
X475940D02*
D03*
X475940Y13836D02*
D03*
X470035D02*
D03*
Y6946D02*
D03*
X456255D02*
D03*
X456255Y13836D02*
D03*
X450350D02*
D03*
Y6946D02*
D03*
X436570D02*
D03*
X436570Y13836D02*
D03*
X430665D02*
D03*
Y6946D02*
D03*
X416885D02*
D03*
X416885Y13836D02*
D03*
X410980D02*
D03*
Y6946D02*
D03*
X397200D02*
D03*
X397200Y13836D02*
D03*
X391295D02*
D03*
Y6946D02*
D03*
X377515D02*
D03*
X377515Y13836D02*
D03*
X371610D02*
D03*
Y6946D02*
D03*
X357830D02*
D03*
X357830Y13836D02*
D03*
X351925D02*
D03*
Y6946D02*
D03*
X338145D02*
D03*
X338145Y13836D02*
D03*
M02*
